<?xml version="1.0" encoding="utf-8" standalone="no"?>
<!DOCTYPE svg PUBLIC "-//W3C//DTD SVG 1.1//EN"
  "http://www.w3.org/Graphics/SVG/1.1/DTD/svg11.dtd">
<svg xmlns:xlink="http://www.w3.org/1999/xlink" width="216pt" height="288pt" viewBox="0 0 216 288" xmlns="http://www.w3.org/2000/svg" version="1.1">
 <metadata>
  <rdf:RDF xmlns:dc="http://purl.org/dc/elements/1.1/" xmlns:cc="http://creativecommons.org/ns#" xmlns:rdf="http://www.w3.org/1999/02/22-rdf-syntax-ns#">
   <cc:Work>
    <dc:type rdf:resource="http://purl.org/dc/dcmitype/StillImage"/>
    <dc:date>2024-11-19T20:39:16.722802</dc:date>
    <dc:format>image/svg+xml</dc:format>
    <dc:creator>
     <cc:Agent>
      <dc:title>Matplotlib v3.6.3, https://matplotlib.org/</dc:title>
     </cc:Agent>
    </dc:creator>
   </cc:Work>
  </rdf:RDF>
 </metadata>
 <defs>
  <style type="text/css">*{stroke-linejoin: round; stroke-linecap: butt}</style>
 </defs>
 <g id="figure_1">
  <g id="patch_1">
   <path d="M 0 288 
L 216 288 
L 216 0 
L 0 0 
L 0 288 
z
" style="fill: none"/>
  </g>
  <g id="axes_1">
   <g id="patch_2">
    <path d="M 27 256.32 
L 194.4 256.32 
L 194.4 34.56 
L 27 34.56 
L 27 256.32 
z
" style="fill: none"/>
   </g>
   <g id="matplotlib.axis_1">
    <g id="xtick_1">
     <g id="line2d_1">
      <defs>
       <path id="me8f26951ca" d="M 0 0 
L 0 3.5 
" style="stroke: #000000; stroke-width: 0.8"/>
      </defs>
      <g>
       <use xlink:href="#me8f26951ca" x="45.941779" y="256.32" style="stroke: #000000; stroke-width: 0.8"/>
      </g>
     </g>
     <g id="text_1">
      <!-- nupack_free -->
      <g transform="translate(49.056154 329.36125) rotate(-90) scale(0.12 -0.12)">
       <defs>
        <path id="Helvetica-6e" d="M 413 3347 
L 947 3347 
L 947 2872 
Q 1184 3166 1450 3294 
Q 1716 3422 2041 3422 
Q 2753 3422 3003 2925 
Q 3141 2653 3141 2147 
L 3141 0 
L 2569 0 
L 2569 2109 
Q 2569 2416 2478 2603 
Q 2328 2916 1934 2916 
Q 1734 2916 1606 2875 
Q 1375 2806 1200 2600 
Q 1059 2434 1017 2257 
Q 975 2081 975 1753 
L 975 0 
L 413 0 
L 413 3347 
z
M 1734 3428 
L 1734 3428 
z
" transform="scale(0.015625)"/>
        <path id="Helvetica-75" d="M 975 3347 
L 975 1125 
Q 975 869 1056 706 
Q 1206 406 1616 406 
Q 2203 406 2416 931 
Q 2531 1213 2531 1703 
L 2531 3347 
L 3094 3347 
L 3094 0 
L 2563 0 
L 2569 494 
Q 2459 303 2297 172 
Q 1975 -91 1516 -91 
Q 800 -91 541 388 
Q 400 644 400 1072 
L 400 3347 
L 975 3347 
z
M 1747 3428 
L 1747 3428 
z
" transform="scale(0.015625)"/>
        <path id="Helvetica-70" d="M 1825 378 
Q 2219 378 2480 708 
Q 2741 1038 2741 1694 
Q 2741 2094 2625 2381 
Q 2406 2934 1825 2934 
Q 1241 2934 1025 2350 
Q 909 2038 909 1556 
Q 909 1169 1025 897 
Q 1244 378 1825 378 
z
M 369 3331 
L 916 3331 
L 916 2888 
Q 1084 3116 1284 3241 
Q 1569 3428 1953 3428 
Q 2522 3428 2919 2992 
Q 3316 2556 3316 1747 
Q 3316 653 2744 184 
Q 2381 -113 1900 -113 
Q 1522 -113 1266 53 
Q 1116 147 931 375 
L 931 -1334 
L 369 -1334 
L 369 3331 
z
" transform="scale(0.015625)"/>
        <path id="Helvetica-61" d="M 844 891 
Q 844 647 1022 506 
Q 1200 366 1444 366 
Q 1741 366 2019 503 
Q 2488 731 2488 1250 
L 2488 1703 
Q 2384 1638 2221 1594 
Q 2059 1550 1903 1531 
L 1563 1488 
Q 1256 1447 1103 1359 
Q 844 1213 844 891 
z
M 2206 2028 
Q 2400 2053 2466 2191 
Q 2503 2266 2503 2406 
Q 2503 2694 2298 2823 
Q 2094 2953 1713 2953 
Q 1272 2953 1088 2716 
Q 984 2584 953 2325 
L 428 2325 
Q 444 2944 830 3186 
Q 1216 3428 1725 3428 
Q 2316 3428 2684 3203 
Q 3050 2978 3050 2503 
L 3050 575 
Q 3050 488 3086 434 
Q 3122 381 3238 381 
Q 3275 381 3322 386 
Q 3369 391 3422 400 
L 3422 -16 
Q 3291 -53 3222 -62 
Q 3153 -72 3034 -72 
Q 2744 -72 2613 134 
Q 2544 244 2516 444 
Q 2344 219 2022 53 
Q 1700 -113 1313 -113 
Q 847 -113 551 170 
Q 256 453 256 878 
Q 256 1344 547 1600 
Q 838 1856 1309 1916 
L 2206 2028 
z
M 1741 3428 
L 1741 3428 
z
" transform="scale(0.015625)"/>
        <path id="Helvetica-63" d="M 1703 3444 
Q 2269 3444 2623 3169 
Q 2978 2894 3050 2222 
L 2503 2222 
Q 2453 2531 2275 2736 
Q 2097 2941 1703 2941 
Q 1166 2941 934 2416 
Q 784 2075 784 1575 
Q 784 1072 996 728 
Q 1209 384 1666 384 
Q 2016 384 2220 598 
Q 2425 813 2503 1184 
L 3050 1184 
Q 2956 519 2581 211 
Q 2206 -97 1622 -97 
Q 966 -97 575 383 
Q 184 863 184 1581 
Q 184 2463 612 2953 
Q 1041 3444 1703 3444 
z
M 1616 3428 
L 1616 3428 
z
" transform="scale(0.015625)"/>
        <path id="Helvetica-6b" d="M 400 4591 
L 941 4591 
L 941 1925 
L 2384 3347 
L 3103 3347 
L 1822 2094 
L 3175 0 
L 2456 0 
L 1413 1688 
L 941 1256 
L 941 0 
L 400 0 
L 400 4591 
z
" transform="scale(0.015625)"/>
        <path id="Helvetica-5f" d="M 0 -800 
L 0 -484 
L 3559 -484 
L 3559 -800 
L 0 -800 
z
" transform="scale(0.015625)"/>
        <path id="Helvetica-66" d="M 553 3856 
Q 566 4206 675 4369 
Q 872 4656 1434 4656 
Q 1488 4656 1544 4653 
Q 1600 4650 1672 4644 
L 1672 4131 
Q 1584 4138 1545 4139 
Q 1506 4141 1472 4141 
Q 1216 4141 1166 4008 
Q 1116 3875 1116 3331 
L 1672 3331 
L 1672 2888 
L 1109 2888 
L 1109 0 
L 553 0 
L 553 2888 
L 88 2888 
L 88 3331 
L 553 3331 
L 553 3856 
z
" transform="scale(0.015625)"/>
        <path id="Helvetica-72" d="M 428 3347 
L 963 3347 
L 963 2769 
Q 1028 2938 1284 3180 
Q 1541 3422 1875 3422 
Q 1891 3422 1928 3419 
Q 1966 3416 2056 3406 
L 2056 2813 
Q 2006 2822 1964 2825 
Q 1922 2828 1872 2828 
Q 1447 2828 1219 2554 
Q 991 2281 991 1925 
L 991 0 
L 428 0 
L 428 3347 
z
" transform="scale(0.015625)"/>
        <path id="Helvetica-65" d="M 1806 3422 
Q 2163 3422 2497 3255 
Q 2831 3088 3006 2822 
Q 3175 2569 3231 2231 
Q 3281 2000 3281 1494 
L 828 1494 
Q 844 984 1069 676 
Q 1294 369 1766 369 
Q 2206 369 2469 659 
Q 2619 828 2681 1050 
L 3234 1050 
Q 3213 866 3089 639 
Q 2966 413 2813 269 
Q 2556 19 2178 -69 
Q 1975 -119 1719 -119 
Q 1094 -119 659 336 
Q 225 791 225 1609 
Q 225 2416 662 2919 
Q 1100 3422 1806 3422 
z
M 2703 1941 
Q 2669 2306 2544 2525 
Q 2313 2931 1772 2931 
Q 1384 2931 1121 2651 
Q 859 2372 844 1941 
L 2703 1941 
z
M 1753 3428 
L 1753 3428 
z
" transform="scale(0.015625)"/>
       </defs>
       <use xlink:href="#Helvetica-6e"/>
       <use xlink:href="#Helvetica-75" x="55.615234"/>
       <use xlink:href="#Helvetica-70" x="111.230469"/>
       <use xlink:href="#Helvetica-61" x="166.845703"/>
       <use xlink:href="#Helvetica-63" x="222.460938"/>
       <use xlink:href="#Helvetica-6b" x="272.460938"/>
       <use xlink:href="#Helvetica-5f" x="322.460938"/>
       <use xlink:href="#Helvetica-66" x="378.076172"/>
       <use xlink:href="#Helvetica-72" x="405.859375"/>
       <use xlink:href="#Helvetica-65" x="439.160156"/>
       <use xlink:href="#Helvetica-65" x="494.775391"/>
      </g>
     </g>
    </g>
    <g id="xtick_2">
     <g id="line2d_2">
      <g>
       <use xlink:href="#me8f26951ca" x="78.32089" y="256.32" style="stroke: #000000; stroke-width: 0.8"/>
      </g>
     </g>
     <g id="text_2">
      <!-- pre_93 -->
      <g transform="translate(81.374327 300.68125) rotate(-90) scale(0.12 -0.12)">
       <defs>
        <path id="Helvetica-39" d="M 850 1081 
Q 875 616 1209 438 
Q 1381 344 1597 344 
Q 2000 344 2284 680 
Q 2569 1016 2688 2044 
Q 2500 1747 2223 1626 
Q 1947 1506 1628 1506 
Q 981 1506 604 1909 
Q 228 2313 228 2947 
Q 228 3556 600 4018 
Q 972 4481 1697 4481 
Q 2675 4481 3047 3600 
Q 3253 3116 3253 2388 
Q 3253 1566 3006 931 
Q 2597 -125 1619 -125 
Q 963 -125 622 219 
Q 281 563 281 1081 
L 850 1081 
z
M 1703 2000 
Q 2038 2000 2314 2220 
Q 2591 2441 2591 2991 
Q 2591 3484 2342 3726 
Q 2094 3969 1709 3969 
Q 1297 3969 1055 3692 
Q 813 3416 813 2953 
Q 813 2516 1025 2258 
Q 1238 2000 1703 2000 
z
" transform="scale(0.015625)"/>
        <path id="Helvetica-33" d="M 1663 -122 
Q 869 -122 511 314 
Q 153 750 153 1375 
L 741 1375 
Q 778 941 903 744 
Q 1122 391 1694 391 
Q 2138 391 2406 628 
Q 2675 866 2675 1241 
Q 2675 1703 2392 1887 
Q 2109 2072 1606 2072 
Q 1550 2072 1492 2070 
Q 1434 2069 1375 2066 
L 1375 2563 
Q 1463 2553 1522 2550 
Q 1581 2547 1650 2547 
Q 1966 2547 2169 2647 
Q 2525 2822 2525 3272 
Q 2525 3606 2287 3787 
Q 2050 3969 1734 3969 
Q 1172 3969 956 3594 
Q 838 3388 822 3006 
L 266 3006 
Q 266 3506 466 3856 
Q 809 4481 1675 4481 
Q 2359 4481 2734 4176 
Q 3109 3872 3109 3294 
Q 3109 2881 2888 2625 
Q 2750 2466 2531 2375 
Q 2884 2278 3082 2001 
Q 3281 1725 3281 1325 
Q 3281 684 2859 281 
Q 2438 -122 1663 -122 
z
" transform="scale(0.015625)"/>
       </defs>
       <use xlink:href="#Helvetica-70"/>
       <use xlink:href="#Helvetica-72" x="55.615234"/>
       <use xlink:href="#Helvetica-65" x="88.916016"/>
       <use xlink:href="#Helvetica-5f" x="144.53125"/>
       <use xlink:href="#Helvetica-39" x="200.146484"/>
       <use xlink:href="#Helvetica-33" x="255.761719"/>
      </g>
     </g>
    </g>
    <g id="xtick_3">
     <g id="line2d_3">
      <g>
       <use xlink:href="#me8f26951ca" x="110.7" y="256.32" style="stroke: #000000; stroke-width: 0.8"/>
      </g>
     </g>
     <g id="text_3">
      <!-- post_93 -->
      <g transform="translate(113.753438 306.019375) rotate(-90) scale(0.12 -0.12)">
       <defs>
        <path id="Helvetica-6f" d="M 1741 363 
Q 2300 363 2508 786 
Q 2716 1209 2716 1728 
Q 2716 2197 2566 2491 
Q 2328 2953 1747 2953 
Q 1231 2953 997 2559 
Q 763 2166 763 1609 
Q 763 1075 997 719 
Q 1231 363 1741 363 
z
M 1763 3444 
Q 2409 3444 2856 3012 
Q 3303 2581 3303 1744 
Q 3303 934 2909 406 
Q 2516 -122 1688 -122 
Q 997 -122 590 345 
Q 184 813 184 1600 
Q 184 2444 612 2944 
Q 1041 3444 1763 3444 
z
M 1744 3428 
L 1744 3428 
z
" transform="scale(0.015625)"/>
        <path id="Helvetica-73" d="M 747 1050 
Q 772 769 888 619 
Q 1100 347 1625 347 
Q 1938 347 2175 483 
Q 2413 619 2413 903 
Q 2413 1119 2222 1231 
Q 2100 1300 1741 1391 
L 1294 1503 
Q 866 1609 663 1741 
Q 300 1969 300 2372 
Q 300 2847 642 3140 
Q 984 3434 1563 3434 
Q 2319 3434 2653 2991 
Q 2863 2709 2856 2384 
L 2325 2384 
Q 2309 2575 2191 2731 
Q 1997 2953 1519 2953 
Q 1200 2953 1036 2831 
Q 872 2709 872 2509 
Q 872 2291 1088 2159 
Q 1213 2081 1456 2022 
L 1828 1931 
Q 2434 1784 2641 1647 
Q 2969 1431 2969 969 
Q 2969 522 2630 197 
Q 2291 -128 1597 -128 
Q 850 -128 539 211 
Q 228 550 206 1050 
L 747 1050 
z
M 1578 3428 
L 1578 3428 
z
" transform="scale(0.015625)"/>
        <path id="Helvetica-74" d="M 525 4281 
L 1094 4281 
L 1094 3347 
L 1628 3347 
L 1628 2888 
L 1094 2888 
L 1094 703 
Q 1094 528 1213 469 
Q 1278 434 1431 434 
Q 1472 434 1519 436 
Q 1566 438 1628 444 
L 1628 0 
Q 1531 -28 1426 -40 
Q 1322 -53 1200 -53 
Q 806 -53 665 148 
Q 525 350 525 672 
L 525 2888 
L 72 2888 
L 72 3347 
L 525 3347 
L 525 4281 
z
" transform="scale(0.015625)"/>
       </defs>
       <use xlink:href="#Helvetica-70"/>
       <use xlink:href="#Helvetica-6f" x="55.615234"/>
       <use xlink:href="#Helvetica-73" x="111.230469"/>
       <use xlink:href="#Helvetica-74" x="161.230469"/>
       <use xlink:href="#Helvetica-5f" x="189.013672"/>
       <use xlink:href="#Helvetica-39" x="244.628906"/>
       <use xlink:href="#Helvetica-33" x="300.244141"/>
      </g>
     </g>
    </g>
    <g id="xtick_4">
     <g id="line2d_4">
      <g>
       <use xlink:href="#me8f26951ca" x="143.07911" y="256.32" style="stroke: #000000; stroke-width: 0.8"/>
      </g>
     </g>
     <g id="text_4">
      <!-- pre_93_long -->
      <g transform="translate(146.055673 330.04) rotate(-90) scale(0.12 -0.12)">
       <defs>
        <path id="Helvetica-6c" d="M 428 4591 
L 991 4591 
L 991 0 
L 428 0 
L 428 4591 
z
" transform="scale(0.015625)"/>
        <path id="Helvetica-67" d="M 1594 3406 
Q 1988 3406 2281 3213 
Q 2441 3103 2606 2894 
L 2606 3316 
L 3125 3316 
L 3125 272 
Q 3125 -366 2938 -734 
Q 2588 -1416 1616 -1416 
Q 1075 -1416 706 -1173 
Q 338 -931 294 -416 
L 866 -416 
Q 906 -641 1028 -763 
Q 1219 -950 1628 -950 
Q 2275 -950 2475 -494 
Q 2594 -225 2584 466 
Q 2416 209 2178 84 
Q 1941 -41 1550 -41 
Q 1006 -41 598 345 
Q 191 731 191 1622 
Q 191 2463 602 2934 
Q 1013 3406 1594 3406 
z
M 2606 1688 
Q 2606 2309 2350 2609 
Q 2094 2909 1697 2909 
Q 1103 2909 884 2353 
Q 769 2056 769 1575 
Q 769 1009 998 714 
Q 1228 419 1616 419 
Q 2222 419 2469 966 
Q 2606 1275 2606 1688 
z
M 1659 3428 
L 1659 3428 
z
" transform="scale(0.015625)"/>
       </defs>
       <use xlink:href="#Helvetica-70"/>
       <use xlink:href="#Helvetica-72" x="55.615234"/>
       <use xlink:href="#Helvetica-65" x="88.916016"/>
       <use xlink:href="#Helvetica-5f" x="144.53125"/>
       <use xlink:href="#Helvetica-39" x="200.146484"/>
       <use xlink:href="#Helvetica-33" x="255.761719"/>
       <use xlink:href="#Helvetica-5f" x="311.376953"/>
       <use xlink:href="#Helvetica-6c" x="366.992188"/>
       <use xlink:href="#Helvetica-6f" x="389.208984"/>
       <use xlink:href="#Helvetica-6e" x="444.824219"/>
       <use xlink:href="#Helvetica-67" x="500.439453"/>
      </g>
     </g>
    </g>
    <g id="xtick_5">
     <g id="line2d_5">
      <g>
       <use xlink:href="#me8f26951ca" x="175.458221" y="256.32" style="stroke: #000000; stroke-width: 0.8"/>
      </g>
     </g>
     <g id="text_5">
      <!-- post_93_long -->
      <g transform="translate(178.434783 335.378125) rotate(-90) scale(0.12 -0.12)">
       <use xlink:href="#Helvetica-70"/>
       <use xlink:href="#Helvetica-6f" x="55.615234"/>
       <use xlink:href="#Helvetica-73" x="111.230469"/>
       <use xlink:href="#Helvetica-74" x="161.230469"/>
       <use xlink:href="#Helvetica-5f" x="189.013672"/>
       <use xlink:href="#Helvetica-39" x="244.628906"/>
       <use xlink:href="#Helvetica-33" x="300.244141"/>
       <use xlink:href="#Helvetica-5f" x="355.859375"/>
       <use xlink:href="#Helvetica-6c" x="411.474609"/>
       <use xlink:href="#Helvetica-6f" x="433.691406"/>
       <use xlink:href="#Helvetica-6e" x="489.306641"/>
       <use xlink:href="#Helvetica-67" x="544.921875"/>
      </g>
     </g>
    </g>
   </g>
   <g id="matplotlib.axis_2">
    <g id="ytick_1">
     <g id="line2d_6">
      <defs>
       <path id="m5672a79d09" d="M 0 0 
L -3.5 0 
" style="stroke: #000000; stroke-width: 0.8"/>
      </defs>
      <g>
       <use xlink:href="#m5672a79d09" x="27" y="256.32" style="stroke: #000000; stroke-width: 0.8"/>
      </g>
     </g>
     <g id="text_6">
      <!-- 0 -->
      <g transform="translate(13.326875 260.624062) scale(0.12 -0.12)">
       <defs>
        <path id="Helvetica-30" d="M 1731 4475 
Q 2600 4475 2988 3759 
Q 3288 3206 3288 2244 
Q 3288 1331 3016 734 
Q 2622 -122 1728 -122 
Q 922 -122 528 578 
Q 200 1163 200 2147 
Q 200 2909 397 3456 
Q 766 4475 1731 4475 
z
M 1725 391 
Q 2163 391 2422 778 
Q 2681 1166 2681 2222 
Q 2681 2984 2493 3476 
Q 2306 3969 1766 3969 
Q 1269 3969 1039 3501 
Q 809 3034 809 2125 
Q 809 1441 956 1025 
Q 1181 391 1725 391 
z
" transform="scale(0.015625)"/>
       </defs>
       <use xlink:href="#Helvetica-30"/>
      </g>
     </g>
    </g>
    <g id="ytick_2">
     <g id="line2d_7">
      <g>
       <use xlink:href="#m5672a79d09" x="27" y="230.810672" style="stroke: #000000; stroke-width: 0.8"/>
      </g>
     </g>
     <g id="text_7">
      <!-- 25 -->
      <g transform="translate(6.65375 235.114735) scale(0.12 -0.12)">
       <defs>
        <path id="Helvetica-32" d="M 200 0 
Q 231 578 439 1006 
Q 647 1434 1250 1784 
L 1850 2131 
Q 2253 2366 2416 2531 
Q 2672 2791 2672 3125 
Q 2672 3516 2437 3745 
Q 2203 3975 1813 3975 
Q 1234 3975 1013 3538 
Q 894 3303 881 2888 
L 309 2888 
Q 319 3472 525 3841 
Q 891 4491 1816 4491 
Q 2584 4491 2939 4075 
Q 3294 3659 3294 3150 
Q 3294 2613 2916 2231 
Q 2697 2009 2131 1694 
L 1703 1456 
Q 1397 1288 1222 1134 
Q 909 863 828 531 
L 3272 531 
L 3272 0 
L 200 0 
z
" transform="scale(0.015625)"/>
        <path id="Helvetica-35" d="M 791 1141 
Q 847 659 1238 475 
Q 1438 381 1700 381 
Q 2200 381 2440 700 
Q 2681 1019 2681 1406 
Q 2681 1875 2395 2131 
Q 2109 2388 1709 2388 
Q 1419 2388 1211 2275 
Q 1003 2163 856 1963 
L 369 1991 
L 709 4400 
L 3034 4400 
L 3034 3856 
L 1131 3856 
L 941 2613 
Q 1097 2731 1238 2791 
Q 1488 2894 1816 2894 
Q 2431 2894 2859 2497 
Q 3288 2100 3288 1491 
Q 3288 856 2895 371 
Q 2503 -113 1644 -113 
Q 1097 -113 676 195 
Q 256 503 206 1141 
L 791 1141 
z
" transform="scale(0.015625)"/>
       </defs>
       <use xlink:href="#Helvetica-32"/>
       <use xlink:href="#Helvetica-35" x="55.615234"/>
      </g>
     </g>
    </g>
    <g id="ytick_3">
     <g id="line2d_8">
      <g>
       <use xlink:href="#m5672a79d09" x="27" y="205.301345" style="stroke: #000000; stroke-width: 0.8"/>
      </g>
     </g>
     <g id="text_8">
      <!-- 50 -->
      <g transform="translate(6.65375 209.605407) scale(0.12 -0.12)">
       <use xlink:href="#Helvetica-35"/>
       <use xlink:href="#Helvetica-30" x="55.615234"/>
      </g>
     </g>
    </g>
    <g id="ytick_4">
     <g id="line2d_9">
      <g>
       <use xlink:href="#m5672a79d09" x="27" y="179.792017" style="stroke: #000000; stroke-width: 0.8"/>
      </g>
     </g>
     <g id="text_9">
      <!-- 75 -->
      <g transform="translate(6.65375 184.09608) scale(0.12 -0.12)">
       <defs>
        <path id="Helvetica-37" d="M 3347 4400 
L 3347 3909 
Q 3131 3700 2773 3181 
Q 2416 2663 2141 2063 
Q 1869 1478 1728 997 
Q 1638 688 1494 0 
L 872 0 
Q 1084 1281 1809 2550 
Q 2238 3294 2709 3834 
L 234 3834 
L 234 4400 
L 3347 4400 
z
" transform="scale(0.015625)"/>
       </defs>
       <use xlink:href="#Helvetica-37"/>
       <use xlink:href="#Helvetica-35" x="55.615234"/>
      </g>
     </g>
    </g>
    <g id="ytick_5">
     <g id="line2d_10">
      <g>
       <use xlink:href="#m5672a79d09" x="27" y="154.282689" style="stroke: #000000; stroke-width: 0.8"/>
      </g>
     </g>
     <g id="text_10">
      <!-- 100 -->
      <g transform="translate(-0.019375 158.586752) scale(0.12 -0.12)">
       <defs>
        <path id="Helvetica-31" d="M 613 3169 
L 613 3600 
Q 1222 3659 1462 3798 
Q 1703 3938 1822 4456 
L 2266 4456 
L 2266 0 
L 1666 0 
L 1666 3169 
L 613 3169 
z
" transform="scale(0.015625)"/>
       </defs>
       <use xlink:href="#Helvetica-31"/>
       <use xlink:href="#Helvetica-30" x="55.615234"/>
       <use xlink:href="#Helvetica-30" x="111.230469"/>
      </g>
     </g>
    </g>
    <g id="ytick_6">
     <g id="line2d_11">
      <g>
       <use xlink:href="#m5672a79d09" x="27" y="128.773362" style="stroke: #000000; stroke-width: 0.8"/>
      </g>
     </g>
     <g id="text_11">
      <!-- 125 -->
      <g transform="translate(-0.019375 133.077424) scale(0.12 -0.12)">
       <use xlink:href="#Helvetica-31"/>
       <use xlink:href="#Helvetica-32" x="55.615234"/>
       <use xlink:href="#Helvetica-35" x="111.230469"/>
      </g>
     </g>
    </g>
    <g id="ytick_7">
     <g id="line2d_12">
      <g>
       <use xlink:href="#m5672a79d09" x="27" y="103.264034" style="stroke: #000000; stroke-width: 0.8"/>
      </g>
     </g>
     <g id="text_12">
      <!-- 150 -->
      <g transform="translate(-0.019375 107.568097) scale(0.12 -0.12)">
       <use xlink:href="#Helvetica-31"/>
       <use xlink:href="#Helvetica-35" x="55.615234"/>
       <use xlink:href="#Helvetica-30" x="111.230469"/>
      </g>
     </g>
    </g>
    <g id="ytick_8">
     <g id="line2d_13">
      <g>
       <use xlink:href="#m5672a79d09" x="27" y="77.754707" style="stroke: #000000; stroke-width: 0.8"/>
      </g>
     </g>
     <g id="text_13">
      <!-- 175 -->
      <g transform="translate(-0.019375 82.058769) scale(0.12 -0.12)">
       <use xlink:href="#Helvetica-31"/>
       <use xlink:href="#Helvetica-37" x="55.615234"/>
       <use xlink:href="#Helvetica-35" x="111.230469"/>
      </g>
     </g>
    </g>
    <g id="ytick_9">
     <g id="line2d_14">
      <g>
       <use xlink:href="#m5672a79d09" x="27" y="52.245379" style="stroke: #000000; stroke-width: 0.8"/>
      </g>
     </g>
     <g id="text_14">
      <!-- 200 -->
      <g transform="translate(-0.019375 56.549441) scale(0.12 -0.12)">
       <use xlink:href="#Helvetica-32"/>
       <use xlink:href="#Helvetica-30" x="55.615234"/>
       <use xlink:href="#Helvetica-30" x="111.230469"/>
      </g>
     </g>
    </g>
    <g id="text_15">
     <!-- ON/OFF -->
     <g transform="translate(-6.520625 168.103125) rotate(-90) scale(0.12 -0.12)">
      <defs>
       <path id="Helvetica-4f" d="M 2469 4716 
Q 3684 4716 4269 3934 
Q 4725 3325 4725 2375 
Q 4725 1347 4203 666 
Q 3591 -134 2456 -134 
Q 1397 -134 791 566 
Q 250 1241 250 2272 
Q 250 3203 713 3866 
Q 1306 4716 2469 4716 
z
M 2531 422 
Q 3353 422 3720 1011 
Q 4088 1600 4088 2366 
Q 4088 3175 3664 3669 
Q 3241 4163 2506 4163 
Q 1794 4163 1344 3673 
Q 894 3184 894 2231 
Q 894 1469 1280 945 
Q 1666 422 2531 422 
z
M 2488 4716 
L 2488 4716 
z
" transform="scale(0.015625)"/>
       <path id="Helvetica-4e" d="M 488 4591 
L 1222 4591 
L 3541 872 
L 3541 4591 
L 4131 4591 
L 4131 0 
L 3434 0 
L 1081 3716 
L 1081 0 
L 488 0 
L 488 4591 
z
M 2269 4591 
L 2269 4591 
z
" transform="scale(0.015625)"/>
       <path id="Helvetica-2f" d="M 1456 4591 
L 1931 4591 
L 475 0 
L 0 0 
L 1456 4591 
z
" transform="scale(0.015625)"/>
       <path id="Helvetica-46" d="M 547 4591 
L 3731 4591 
L 3731 4028 
L 1169 4028 
L 1169 2634 
L 3422 2634 
L 3422 2088 
L 1169 2088 
L 1169 0 
L 547 0 
L 547 4591 
z
" transform="scale(0.015625)"/>
      </defs>
      <use xlink:href="#Helvetica-4f"/>
      <use xlink:href="#Helvetica-4e" x="77.783203"/>
      <use xlink:href="#Helvetica-2f" x="150"/>
      <use xlink:href="#Helvetica-4f" x="177.783203"/>
      <use xlink:href="#Helvetica-46" x="255.566406"/>
      <use xlink:href="#Helvetica-46" x="316.650391"/>
     </g>
    </g>
   </g>
   <g id="patch_3">
    <path d="M 34.609091 256.32 
L 57.274468 256.32 
L 57.274468 187.012888 
L 34.609091 187.012888 
z
" clip-path="url(#pde58ab80cf)" style="fill: #006400; stroke: #000000; stroke-width: 2; stroke-linejoin: miter"/>
   </g>
   <g id="patch_4">
    <path d="M 66.988201 256.32 
L 89.653578 256.32 
L 89.653578 215.042253 
L 66.988201 215.042253 
z
" clip-path="url(#pde58ab80cf)" style="fill: #2e9ad6; stroke: #000000; stroke-width: 2; stroke-linejoin: miter"/>
   </g>
   <g id="patch_5">
    <path d="M 99.367311 256.32 
L 122.032689 256.32 
L 122.032689 189.784055 
L 99.367311 189.784055 
z
" clip-path="url(#pde58ab80cf)" style="fill: #c62626; stroke: #000000; stroke-width: 2; stroke-linejoin: miter"/>
   </g>
   <g id="patch_6">
    <path d="M 131.746422 256.32 
L 154.411799 256.32 
L 154.411799 202.683816 
L 131.746422 202.683816 
z
" clip-path="url(#pde58ab80cf)" style="fill: #2e9ad6; stroke: #000000; stroke-width: 2; stroke-linejoin: miter"/>
   </g>
   <g id="patch_7">
    <path d="M 164.125532 256.32 
L 186.790909 256.32 
L 186.790909 180.79451 
L 164.125532 180.79451 
z
" clip-path="url(#pde58ab80cf)" style="fill: #c62626; stroke: #000000; stroke-width: 2; stroke-linejoin: miter"/>
   </g>
   <g id="PathCollection_1">
    <defs>
     <path id="m26e8bf1d01" d="M 0 3 
C 0.795609 3 1.55874 2.683901 2.12132 2.12132 
C 2.683901 1.55874 3 0.795609 3 0 
C 3 -0.795609 2.683901 -1.55874 2.12132 -2.12132 
C 1.55874 -2.683901 0.795609 -3 0 -3 
C -0.795609 -3 -1.55874 -2.683901 -2.12132 -2.12132 
C -2.683901 -1.55874 -3 -0.795609 -3 0 
C -3 0.795609 -2.683901 1.55874 -2.12132 2.12132 
C -1.55874 2.683901 -0.795609 3 0 3 
z
" style="stroke: #000000; stroke-width: 2"/>
    </defs>
    <g clip-path="url(#pde58ab80cf)">
     <use xlink:href="#m26e8bf1d01" x="45.941779" y="239.089825" style="fill: #006400; stroke: #000000; stroke-width: 2"/>
    </g>
   </g>
   <g id="PathCollection_2">
    <g clip-path="url(#pde58ab80cf)">
     <use xlink:href="#m26e8bf1d01" x="45.941779" y="182.297066" style="fill: #006400; stroke: #000000; stroke-width: 2"/>
    </g>
   </g>
   <g id="PathCollection_3">
    <g clip-path="url(#pde58ab80cf)">
     <use xlink:href="#m26e8bf1d01" x="45.941779" y="155.633609" style="fill: #006400; stroke: #000000; stroke-width: 2"/>
    </g>
   </g>
   <g id="PathCollection_4">
    <g clip-path="url(#pde58ab80cf)">
     <use xlink:href="#m26e8bf1d01" x="45.941779" y="125.187598" style="fill: #006400; stroke: #000000; stroke-width: 2"/>
    </g>
   </g>
   <g id="PathCollection_5">
    <g clip-path="url(#pde58ab80cf)">
     <use xlink:href="#m26e8bf1d01" x="45.941779" y="158.444746" style="fill: #006400; stroke: #000000; stroke-width: 2"/>
    </g>
   </g>
   <g id="PathCollection_6">
    <g clip-path="url(#pde58ab80cf)">
     <use xlink:href="#m26e8bf1d01" x="45.941779" y="211.954099" style="fill: #006400; stroke: #000000; stroke-width: 2"/>
    </g>
   </g>
   <g id="PathCollection_7">
    <g clip-path="url(#pde58ab80cf)">
     <use xlink:href="#m26e8bf1d01" x="45.941779" y="254.199307" style="fill: #006400; stroke: #000000; stroke-width: 2"/>
    </g>
   </g>
   <g id="PathCollection_8">
    <g clip-path="url(#pde58ab80cf)">
     <use xlink:href="#m26e8bf1d01" x="45.941779" y="45.12" style="fill: #006400; stroke: #000000; stroke-width: 2"/>
    </g>
   </g>
   <g id="PathCollection_9">
    <g clip-path="url(#pde58ab80cf)">
     <use xlink:href="#m26e8bf1d01" x="45.941779" y="209.61754" style="fill: #006400; stroke: #000000; stroke-width: 2"/>
    </g>
   </g>
   <g id="PathCollection_10">
    <g clip-path="url(#pde58ab80cf)">
     <use xlink:href="#m26e8bf1d01" x="45.941779" y="214.372729" style="fill: #006400; stroke: #000000; stroke-width: 2"/>
    </g>
   </g>
   <g id="PathCollection_11">
    <g clip-path="url(#pde58ab80cf)">
     <use xlink:href="#m26e8bf1d01" x="45.941779" y="236.672118" style="fill: #006400; stroke: #000000; stroke-width: 2"/>
    </g>
   </g>
   <g id="PathCollection_12">
    <g clip-path="url(#pde58ab80cf)">
     <use xlink:href="#m26e8bf1d01" x="45.941779" y="211.566021" style="fill: #006400; stroke: #000000; stroke-width: 2"/>
    </g>
   </g>
   <g id="PathCollection_13">
    <defs>
     <path id="m51f023450f" d="M 0 3 
C 0.795609 3 1.55874 2.683901 2.12132 2.12132 
C 2.683901 1.55874 3 0.795609 3 0 
C 3 -0.795609 2.683901 -1.55874 2.12132 -2.12132 
C 1.55874 -2.683901 0.795609 -3 0 -3 
C -0.795609 -3 -1.55874 -2.683901 -2.12132 -2.12132 
C -2.683901 -1.55874 -3 -0.795609 -3 0 
C -3 0.795609 -2.683901 1.55874 -2.12132 2.12132 
C -1.55874 2.683901 -0.795609 3 0 3 
z
" style="stroke: #000000; stroke-width: 2"/>
    </defs>
    <g clip-path="url(#pde58ab80cf)">
     <use xlink:href="#m51f023450f" x="78.32089" y="244.700509" style="fill: #2e9ad6; stroke: #000000; stroke-width: 2"/>
    </g>
   </g>
   <g id="PathCollection_14">
    <g clip-path="url(#pde58ab80cf)">
     <use xlink:href="#m51f023450f" x="78.32089" y="221.765231" style="fill: #2e9ad6; stroke: #000000; stroke-width: 2"/>
    </g>
   </g>
   <g id="PathCollection_15">
    <g clip-path="url(#pde58ab80cf)">
     <use xlink:href="#m51f023450f" x="78.32089" y="190.485393" style="fill: #2e9ad6; stroke: #000000; stroke-width: 2"/>
    </g>
   </g>
   <g id="PathCollection_16">
    <g clip-path="url(#pde58ab80cf)">
     <use xlink:href="#m51f023450f" x="78.32089" y="213.032504" style="fill: #2e9ad6; stroke: #000000; stroke-width: 2"/>
    </g>
   </g>
   <g id="PathCollection_17">
    <g clip-path="url(#pde58ab80cf)">
     <use xlink:href="#m51f023450f" x="78.32089" y="220.312363" style="fill: #2e9ad6; stroke: #000000; stroke-width: 2"/>
    </g>
   </g>
   <g id="PathCollection_18">
    <g clip-path="url(#pde58ab80cf)">
     <use xlink:href="#m51f023450f" x="78.32089" y="239.308733" style="fill: #2e9ad6; stroke: #000000; stroke-width: 2"/>
    </g>
   </g>
   <g id="PathCollection_19">
    <g clip-path="url(#pde58ab80cf)">
     <use xlink:href="#m51f023450f" x="78.32089" y="217.912473" style="fill: #2e9ad6; stroke: #000000; stroke-width: 2"/>
    </g>
   </g>
   <g id="PathCollection_20">
    <g clip-path="url(#pde58ab80cf)">
     <use xlink:href="#m51f023450f" x="78.32089" y="178.406087" style="fill: #2e9ad6; stroke: #000000; stroke-width: 2"/>
    </g>
   </g>
   <g id="PathCollection_21">
    <g clip-path="url(#pde58ab80cf)">
     <use xlink:href="#m51f023450f" x="78.32089" y="244.297454" style="fill: #2e9ad6; stroke: #000000; stroke-width: 2"/>
    </g>
   </g>
   <g id="PathCollection_22">
    <g clip-path="url(#pde58ab80cf)">
     <use xlink:href="#m51f023450f" x="78.32089" y="171.302924" style="fill: #2e9ad6; stroke: #000000; stroke-width: 2"/>
    </g>
   </g>
   <g id="PathCollection_23">
    <g clip-path="url(#pde58ab80cf)">
     <use xlink:href="#m51f023450f" x="78.32089" y="214.913816" style="fill: #2e9ad6; stroke: #000000; stroke-width: 2"/>
    </g>
   </g>
   <g id="PathCollection_24">
    <g clip-path="url(#pde58ab80cf)">
     <use xlink:href="#m51f023450f" x="78.32089" y="224.069551" style="fill: #2e9ad6; stroke: #000000; stroke-width: 2"/>
    </g>
   </g>
   <g id="PathCollection_25">
    <defs>
     <path id="m38428e17b5" d="M 0 3 
C 0.795609 3 1.55874 2.683901 2.12132 2.12132 
C 2.683901 1.55874 3 0.795609 3 0 
C 3 -0.795609 2.683901 -1.55874 2.12132 -2.12132 
C 1.55874 -2.683901 0.795609 -3 0 -3 
C -0.795609 -3 -1.55874 -2.683901 -2.12132 -2.12132 
C -2.683901 -1.55874 -3 -0.795609 -3 0 
C -3 0.795609 -2.683901 1.55874 -2.12132 2.12132 
C -1.55874 2.683901 -0.795609 3 0 3 
z
" style="stroke: #000000; stroke-width: 2"/>
    </defs>
    <g clip-path="url(#pde58ab80cf)">
     <use xlink:href="#m38428e17b5" x="110.7" y="231.848329" style="fill: #c62626; stroke: #000000; stroke-width: 2"/>
    </g>
   </g>
   <g id="PathCollection_26">
    <g clip-path="url(#pde58ab80cf)">
     <use xlink:href="#m38428e17b5" x="110.7" y="228.210128" style="fill: #c62626; stroke: #000000; stroke-width: 2"/>
    </g>
   </g>
   <g id="PathCollection_27">
    <g clip-path="url(#pde58ab80cf)">
     <use xlink:href="#m38428e17b5" x="110.7" y="238.101667" style="fill: #c62626; stroke: #000000; stroke-width: 2"/>
    </g>
   </g>
   <g id="PathCollection_28">
    <g clip-path="url(#pde58ab80cf)">
     <use xlink:href="#m38428e17b5" x="110.7" y="91.091061" style="fill: #c62626; stroke: #000000; stroke-width: 2"/>
    </g>
   </g>
   <g id="PathCollection_29">
    <g clip-path="url(#pde58ab80cf)">
     <use xlink:href="#m38428e17b5" x="110.7" y="142.737591" style="fill: #c62626; stroke: #000000; stroke-width: 2"/>
    </g>
   </g>
   <g id="PathCollection_30">
    <g clip-path="url(#pde58ab80cf)">
     <use xlink:href="#m38428e17b5" x="110.7" y="169.75239" style="fill: #c62626; stroke: #000000; stroke-width: 2"/>
    </g>
   </g>
   <g id="PathCollection_31">
    <g clip-path="url(#pde58ab80cf)">
     <use xlink:href="#m38428e17b5" x="110.7" y="185.461541" style="fill: #c62626; stroke: #000000; stroke-width: 2"/>
    </g>
   </g>
   <g id="PathCollection_32">
    <g clip-path="url(#pde58ab80cf)">
     <use xlink:href="#m38428e17b5" x="110.7" y="231.344204" style="fill: #c62626; stroke: #000000; stroke-width: 2"/>
    </g>
   </g>
   <g id="PathCollection_33">
    <g clip-path="url(#pde58ab80cf)">
     <use xlink:href="#m38428e17b5" x="110.7" y="145.712387" style="fill: #c62626; stroke: #000000; stroke-width: 2"/>
    </g>
   </g>
   <g id="PathCollection_34">
    <g clip-path="url(#pde58ab80cf)">
     <use xlink:href="#m38428e17b5" x="110.7" y="179.810749" style="fill: #c62626; stroke: #000000; stroke-width: 2"/>
    </g>
   </g>
   <g id="PathCollection_35">
    <g clip-path="url(#pde58ab80cf)">
     <use xlink:href="#m38428e17b5" x="110.7" y="194.595188" style="fill: #c62626; stroke: #000000; stroke-width: 2"/>
    </g>
   </g>
   <g id="PathCollection_36">
    <g clip-path="url(#pde58ab80cf)">
     <use xlink:href="#m38428e17b5" x="110.7" y="238.743431" style="fill: #c62626; stroke: #000000; stroke-width: 2"/>
    </g>
   </g>
   <g id="PathCollection_37">
    <g clip-path="url(#pde58ab80cf)">
     <use xlink:href="#m51f023450f" x="143.07911" y="234.564521" style="fill: #2e9ad6; stroke: #000000; stroke-width: 2"/>
    </g>
   </g>
   <g id="PathCollection_38">
    <g clip-path="url(#pde58ab80cf)">
     <use xlink:href="#m51f023450f" x="143.07911" y="201.47264" style="fill: #2e9ad6; stroke: #000000; stroke-width: 2"/>
    </g>
   </g>
   <g id="PathCollection_39">
    <g clip-path="url(#pde58ab80cf)">
     <use xlink:href="#m51f023450f" x="143.07911" y="161.044116" style="fill: #2e9ad6; stroke: #000000; stroke-width: 2"/>
    </g>
   </g>
   <g id="PathCollection_40">
    <g clip-path="url(#pde58ab80cf)">
     <use xlink:href="#m51f023450f" x="143.07911" y="215.330872" style="fill: #2e9ad6; stroke: #000000; stroke-width: 2"/>
    </g>
   </g>
   <g id="PathCollection_41">
    <g clip-path="url(#pde58ab80cf)">
     <use xlink:href="#m51f023450f" x="143.07911" y="140.446537" style="fill: #2e9ad6; stroke: #000000; stroke-width: 2"/>
    </g>
   </g>
   <g id="PathCollection_42">
    <g clip-path="url(#pde58ab80cf)">
     <use xlink:href="#m51f023450f" x="143.07911" y="255.102045" style="fill: #2e9ad6; stroke: #000000; stroke-width: 2"/>
    </g>
   </g>
   <g id="PathCollection_43">
    <g clip-path="url(#pde58ab80cf)">
     <use xlink:href="#m51f023450f" x="143.07911" y="122.441433" style="fill: #2e9ad6; stroke: #000000; stroke-width: 2"/>
    </g>
   </g>
   <g id="PathCollection_44">
    <g clip-path="url(#pde58ab80cf)">
     <use xlink:href="#m51f023450f" x="143.07911" y="154.105482" style="fill: #2e9ad6; stroke: #000000; stroke-width: 2"/>
    </g>
   </g>
   <g id="PathCollection_45">
    <g clip-path="url(#pde58ab80cf)">
     <use xlink:href="#m51f023450f" x="143.07911" y="200.93243" style="fill: #2e9ad6; stroke: #000000; stroke-width: 2"/>
    </g>
   </g>
   <g id="PathCollection_46">
    <g clip-path="url(#pde58ab80cf)">
     <use xlink:href="#m51f023450f" x="143.07911" y="242.953095" style="fill: #2e9ad6; stroke: #000000; stroke-width: 2"/>
    </g>
   </g>
   <g id="PathCollection_47">
    <g clip-path="url(#pde58ab80cf)">
     <use xlink:href="#m51f023450f" x="143.07911" y="253.340203" style="fill: #2e9ad6; stroke: #000000; stroke-width: 2"/>
    </g>
   </g>
   <g id="PathCollection_48">
    <g clip-path="url(#pde58ab80cf)">
     <use xlink:href="#m51f023450f" x="143.07911" y="250.472418" style="fill: #2e9ad6; stroke: #000000; stroke-width: 2"/>
    </g>
   </g>
   <g id="PathCollection_49">
    <g clip-path="url(#pde58ab80cf)">
     <use xlink:href="#m38428e17b5" x="175.458221" y="189.37697" style="fill: #c62626; stroke: #000000; stroke-width: 2"/>
    </g>
   </g>
   <g id="PathCollection_50">
    <g clip-path="url(#pde58ab80cf)">
     <use xlink:href="#m38428e17b5" x="175.458221" y="174.973588" style="fill: #c62626; stroke: #000000; stroke-width: 2"/>
    </g>
   </g>
   <g id="PathCollection_51">
    <g clip-path="url(#pde58ab80cf)">
     <use xlink:href="#m38428e17b5" x="175.458221" y="144.516663" style="fill: #c62626; stroke: #000000; stroke-width: 2"/>
    </g>
   </g>
   <g id="PathCollection_52">
    <g clip-path="url(#pde58ab80cf)">
     <use xlink:href="#m38428e17b5" x="175.458221" y="94.801327" style="fill: #c62626; stroke: #000000; stroke-width: 2"/>
    </g>
   </g>
   <g id="PathCollection_53">
    <g clip-path="url(#pde58ab80cf)">
     <use xlink:href="#m38428e17b5" x="175.458221" y="231.785704" style="fill: #c62626; stroke: #000000; stroke-width: 2"/>
    </g>
   </g>
   <g id="PathCollection_54">
    <g clip-path="url(#pde58ab80cf)">
     <use xlink:href="#m38428e17b5" x="175.458221" y="249.545527" style="fill: #c62626; stroke: #000000; stroke-width: 2"/>
    </g>
   </g>
   <g id="PathCollection_55">
    <g clip-path="url(#pde58ab80cf)">
     <use xlink:href="#m38428e17b5" x="175.458221" y="140.386264" style="fill: #c62626; stroke: #000000; stroke-width: 2"/>
    </g>
   </g>
   <g id="PathCollection_56">
    <g clip-path="url(#pde58ab80cf)">
     <use xlink:href="#m38428e17b5" x="175.458221" y="144.108337" style="fill: #c62626; stroke: #000000; stroke-width: 2"/>
    </g>
   </g>
   <g id="PathCollection_57">
    <g clip-path="url(#pde58ab80cf)">
     <use xlink:href="#m38428e17b5" x="175.458221" y="184.233611" style="fill: #c62626; stroke: #000000; stroke-width: 2"/>
    </g>
   </g>
   <g id="PathCollection_58">
    <g clip-path="url(#pde58ab80cf)">
     <use xlink:href="#m38428e17b5" x="175.458221" y="238.863936" style="fill: #c62626; stroke: #000000; stroke-width: 2"/>
    </g>
   </g>
   <g id="PathCollection_59">
    <g clip-path="url(#pde58ab80cf)">
     <use xlink:href="#m38428e17b5" x="175.458221" y="232.179409" style="fill: #c62626; stroke: #000000; stroke-width: 2"/>
    </g>
   </g>
   <g id="PathCollection_60">
    <g clip-path="url(#pde58ab80cf)">
     <use xlink:href="#m38428e17b5" x="175.458221" y="144.762787" style="fill: #c62626; stroke: #000000; stroke-width: 2"/>
    </g>
   </g>
   <g id="LineCollection_1">
    <path d="M 45.941779 245.753851 
L 45.941779 128.271925 
" clip-path="url(#pde58ab80cf)" style="fill: none; stroke: #000000; stroke-width: 1.5"/>
    <path d="M 78.32089 239.067763 
L 78.32089 191.016743 
" clip-path="url(#pde58ab80cf)" style="fill: none; stroke: #000000; stroke-width: 1.5"/>
    <path d="M 110.7 236.633309 
L 110.7 142.934801 
" clip-path="url(#pde58ab80cf)" style="fill: none; stroke: #000000; stroke-width: 1.5"/>
    <path d="M 143.07911 250.171619 
L 143.07911 155.196013 
" clip-path="url(#pde58ab80cf)" style="fill: none; stroke: #000000; stroke-width: 1.5"/>
    <path d="M 175.458221 229.827464 
L 175.458221 131.761557 
" clip-path="url(#pde58ab80cf)" style="fill: none; stroke: #000000; stroke-width: 1.5"/>
   </g>
   <g id="patch_8">
    <path d="M 27 256.32 
L 27 34.56 
" style="fill: none; stroke: #000000; stroke-width: 2; stroke-linejoin: miter; stroke-linecap: square"/>
   </g>
   <g id="patch_9">
    <path d="M 27 256.32 
L 194.4 256.32 
" style="fill: none; stroke: #000000; stroke-width: 2; stroke-linejoin: miter; stroke-linecap: square"/>
   </g>
  </g>
 </g>
 <defs>
  <clipPath id="pde58ab80cf">
   <rect x="27" y="34.56" width="167.4" height="221.76"/>
  </clipPath>
 </defs>
</svg>
