<?xml version="1.0" standalone="no"?>
<!DOCTYPE svg PUBLIC "-//W3C//DTD SVG 1.1//EN"
  "http://www.w3.org/Graphics/SVG/1.1/DTD/svg11.dtd">
<!-- Created with matplotlib (http://matplotlib.sourceforge.net/) -->
<svg width="368pt" height="368pt" viewBox="0 0 368 368"
   xmlns="http://www.w3.org/2000/svg"
   xmlns:xlink="http://www.w3.org/1999/xlink"
   version="1.1"
   id="svg1">
<g id="figure1">
<g id="patch1">
<path style="fill: #ffffff; stroke: #ffffff; stroke-width: 1.000000; stroke-linejoin: miter; stroke-linecap: square;  opacity: 1.000000"  d="M0.000000 368.640000L368.640000 368.640000L368.640000 0.000000
L0.000000 0.000000L0.000000 368.640000"/>
</g>
<g id="axes1">
<g id="line2d1">
<defs>
  <clipPath id="p90f42268ce4d7d9a5e1bd9541dfb4e32">
<rect x="0.000000" y="18.432000" width="322.560000" height="322.560000"/>
  </clipPath>
</defs><path style="fill: none; stroke: #000000; stroke-width: 0.644675; stroke-linejoin: round; stroke-linecap: butt;  opacity: 1.000000" clip-path="url(#p90f42268ce4d7d9a5e1bd9541dfb4e32)" d="M152.737473 261.767567L161.198829 261.767567"/>
</g>
<g id="line2d2">
<path style="fill: none; stroke: #000000; stroke-width: 0.644675; stroke-linejoin: round; stroke-linecap: butt;  opacity: 1.000000" clip-path="url(#p90f42268ce4d7d9a5e1bd9541dfb4e32)" d="M169.660186 261.767567L161.198829 261.767567"/>
</g>
<g id="line2d3">
<path style="fill: none; stroke: #000000; stroke-width: 0.644675; stroke-linejoin: round; stroke-linecap: butt;  opacity: 1.000000" clip-path="url(#p90f42268ce4d7d9a5e1bd9541dfb4e32)" d="M152.737473 251.613939L161.198829 251.613939"/>
</g>
<g id="line2d4">
<path style="fill: none; stroke: #000000; stroke-width: 0.644675; stroke-linejoin: round; stroke-linecap: butt;  opacity: 1.000000" clip-path="url(#p90f42268ce4d7d9a5e1bd9541dfb4e32)" d="M169.660186 251.613939L161.198829 251.613939"/>
</g>
<g id="line2d5">
<path style="fill: none; stroke: #000000; stroke-width: 0.644675; stroke-linejoin: round; stroke-linecap: butt;  opacity: 1.000000" clip-path="url(#p90f42268ce4d7d9a5e1bd9541dfb4e32)" d="M152.737473 241.460311L161.198829 241.460311"/>
</g>
<g id="line2d6">
<path style="fill: none; stroke: #000000; stroke-width: 0.644675; stroke-linejoin: round; stroke-linecap: butt;  opacity: 1.000000" clip-path="url(#p90f42268ce4d7d9a5e1bd9541dfb4e32)" d="M169.660186 241.460311L161.198829 241.460311"/>
</g>
<g id="line2d7">
<path style="fill: none; stroke: #000000; stroke-width: 0.644675; stroke-linejoin: round; stroke-linecap: butt;  opacity: 1.000000" clip-path="url(#p90f42268ce4d7d9a5e1bd9541dfb4e32)" d="M152.737473 231.306683L161.198829 231.306683"/>
</g>
<g id="line2d8">
<path style="fill: none; stroke: #000000; stroke-width: 0.644675; stroke-linejoin: round; stroke-linecap: butt;  opacity: 1.000000" clip-path="url(#p90f42268ce4d7d9a5e1bd9541dfb4e32)" d="M169.660186 231.306683L161.198829 231.306683"/>
</g>
<g id="line2d9">
<path style="fill: none; stroke: #000000; stroke-width: 0.644675; stroke-linejoin: round; stroke-linecap: butt;  opacity: 1.000000" clip-path="url(#p90f42268ce4d7d9a5e1bd9541dfb4e32)" d="M152.737473 221.153055L161.198829 221.153055"/>
</g>
<g id="line2d10">
<path style="fill: none; stroke: #000000; stroke-width: 0.644675; stroke-linejoin: round; stroke-linecap: butt;  opacity: 1.000000" clip-path="url(#p90f42268ce4d7d9a5e1bd9541dfb4e32)" d="M169.660186 221.153055L161.198829 221.153055"/>
</g>
<g id="line2d11">
<path style="fill: none; stroke: #000000; stroke-width: 0.644675; stroke-linejoin: round; stroke-linecap: butt;  opacity: 1.000000" clip-path="url(#p90f42268ce4d7d9a5e1bd9541dfb4e32)" d="M152.737473 210.999427L161.198829 210.999427"/>
</g>
<g id="line2d12">
<path style="fill: none; stroke: #000000; stroke-width: 0.644675; stroke-linejoin: round; stroke-linecap: butt;  opacity: 1.000000" clip-path="url(#p90f42268ce4d7d9a5e1bd9541dfb4e32)" d="M169.660186 210.999427L161.198829 210.999427"/>
</g>
<g id="line2d13">
<path style="fill: none; stroke: #000000; stroke-width: 0.644675; stroke-linejoin: round; stroke-linecap: butt;  opacity: 1.000000" clip-path="url(#p90f42268ce4d7d9a5e1bd9541dfb4e32)" d="M152.737473 200.845799L161.198829 200.845799"/>
</g>
<g id="line2d14">
<path style="fill: none; stroke: #000000; stroke-width: 0.644675; stroke-linejoin: round; stroke-linecap: butt;  opacity: 1.000000" clip-path="url(#p90f42268ce4d7d9a5e1bd9541dfb4e32)" d="M169.660186 200.845799L161.198829 200.845799"/>
</g>
<g id="line2d15">
<path style="fill: none; stroke: #000000; stroke-width: 0.644675; stroke-linejoin: round; stroke-linecap: butt;  opacity: 1.000000" clip-path="url(#p90f42268ce4d7d9a5e1bd9541dfb4e32)" d="M152.737473 190.692171L161.198829 190.692171"/>
</g>
<g id="line2d16">
<path style="fill: none; stroke: #000000; stroke-width: 0.644675; stroke-linejoin: round; stroke-linecap: butt;  opacity: 1.000000" clip-path="url(#p90f42268ce4d7d9a5e1bd9541dfb4e32)" d="M169.660186 190.692171L161.198829 190.692171"/>
</g>
<g id="line2d17">
<path style="fill: none; stroke: #000000; stroke-width: 0.644675; stroke-linejoin: round; stroke-linecap: butt;  opacity: 1.000000" clip-path="url(#p90f42268ce4d7d9a5e1bd9541dfb4e32)" d="M152.737473 180.538543L161.198829 180.538543"/>
</g>
<g id="line2d18">
<path style="fill: none; stroke: #000000; stroke-width: 0.644675; stroke-linejoin: round; stroke-linecap: butt;  opacity: 1.000000" clip-path="url(#p90f42268ce4d7d9a5e1bd9541dfb4e32)" d="M169.660186 180.538543L161.198829 180.538543"/>
</g>
<g id="line2d19">
<path style="fill: none; stroke: #000000; stroke-width: 0.644675; stroke-linejoin: round; stroke-linecap: butt;  opacity: 1.000000" clip-path="url(#p90f42268ce4d7d9a5e1bd9541dfb4e32)" d="M152.737473 138.770522L161.198829 138.770522"/>
</g>
<g id="line2d20">
<path style="fill: none; stroke: #000000; stroke-width: 0.644675; stroke-linejoin: round; stroke-linecap: butt;  opacity: 1.000000" clip-path="url(#p90f42268ce4d7d9a5e1bd9541dfb4e32)" d="M169.660186 138.770522L161.198829 138.770522"/>
</g>
<g id="line2d21">
<path style="fill: none; stroke: #000000; stroke-width: 0.644675; stroke-linejoin: round; stroke-linecap: butt;  opacity: 1.000000" clip-path="url(#p90f42268ce4d7d9a5e1bd9541dfb4e32)" d="M152.737473 128.616894L161.198829 128.616894"/>
</g>
<g id="line2d22">
<path style="fill: none; stroke: #000000; stroke-width: 0.644675; stroke-linejoin: round; stroke-linecap: butt;  opacity: 1.000000" clip-path="url(#p90f42268ce4d7d9a5e1bd9541dfb4e32)" d="M169.660186 128.616894L161.198829 128.616894"/>
</g>
<g id="line2d23">
<path style="fill: none; stroke: #000000; stroke-width: 0.644675; stroke-linejoin: round; stroke-linecap: butt;  opacity: 1.000000" clip-path="url(#p90f42268ce4d7d9a5e1bd9541dfb4e32)" d="M152.737473 118.463266L161.198829 118.463266"/>
</g>
<g id="line2d24">
<path style="fill: none; stroke: #000000; stroke-width: 0.644675; stroke-linejoin: round; stroke-linecap: butt;  opacity: 1.000000" clip-path="url(#p90f42268ce4d7d9a5e1bd9541dfb4e32)" d="M169.660186 118.463266L161.198829 118.463266"/>
</g>
<g id="line2d25">
<path style="fill: none; stroke: #000000; stroke-width: 0.644675; stroke-linejoin: round; stroke-linecap: butt;  opacity: 1.000000" clip-path="url(#p90f42268ce4d7d9a5e1bd9541dfb4e32)" d="M152.737473 108.309638L161.198829 108.309638"/>
</g>
<g id="line2d26">
<path style="fill: none; stroke: #000000; stroke-width: 0.644675; stroke-linejoin: round; stroke-linecap: butt;  opacity: 1.000000" clip-path="url(#p90f42268ce4d7d9a5e1bd9541dfb4e32)" d="M169.660186 108.309638L161.198829 108.309638"/>
</g>
<g id="line2d27">
<path style="fill: none; stroke: #000000; stroke-width: 0.644675; stroke-linejoin: round; stroke-linecap: butt;  opacity: 1.000000" clip-path="url(#p90f42268ce4d7d9a5e1bd9541dfb4e32)" d="M152.737473 98.156011L161.198829 98.156011"/>
</g>
<g id="line2d28">
<path style="fill: none; stroke: #000000; stroke-width: 0.644675; stroke-linejoin: round; stroke-linecap: butt;  opacity: 1.000000" clip-path="url(#p90f42268ce4d7d9a5e1bd9541dfb4e32)" d="M169.660186 98.156011L161.198829 98.156011"/>
</g>
<g id="line2d29">
<path style="fill: none; stroke: #000000; stroke-width: 0.644675; stroke-linejoin: round; stroke-linecap: butt;  opacity: 1.000000" clip-path="url(#p90f42268ce4d7d9a5e1bd9541dfb4e32)" d="M152.737473 88.002383L161.198829 88.002383"/>
</g>
<g id="line2d30">
<path style="fill: none; stroke: #000000; stroke-width: 0.644675; stroke-linejoin: round; stroke-linecap: butt;  opacity: 1.000000" clip-path="url(#p90f42268ce4d7d9a5e1bd9541dfb4e32)" d="M169.660186 88.002383L161.198829 88.002383"/>
</g>
<g id="patch2">
<path style="fill: none; opacity: 1.000000" clip-path="url(#p90f42268ce4d7d9a5e1bd9541dfb4e32)" d="M0.000000 340.992000L322.560000 340.992000L322.560000 18.432000
L0.000000 18.432000L0.000000 340.992000"/>
</g>
<g id="patch3">
<path style="fill: none; stroke: #000000; stroke-width: 1.289350; stroke-linejoin: miter; stroke-linecap: round;  opacity: 1.000000" clip-path="url(#p90f42268ce4d7d9a5e1bd9541dfb4e32)" d="M152.737473 261.767567
C149.260756 262.693659 145.959547 264.184287 142.965757 266.179889
C139.971966 268.175491 137.326010 270.649126 135.133617 273.501952
C132.941223 276.354778 131.231988 279.548283 130.074211 282.954859
C128.916434 286.361434 128.325744 289.935094 128.325744 293.533039
C128.325744 297.130983 128.916434 300.704643 130.074211 304.111218
C131.231988 307.517794 132.941223 310.711299 135.133617 313.564125
C137.326010 316.416951 139.971966 318.890587 142.965757 320.886188
C145.959547 322.881790 149.260756 324.372419 152.737473 325.298510
C156.214190 326.224602 159.819480 326.573655 163.409281 326.331722
C166.999083 326.089789 170.524935 325.260136 173.845949 323.875914
C177.166963 322.491693 180.238308 320.571589 182.937256 318.192328
C185.636205 315.813067 187.926322 313.006767 189.716099 309.885564
C191.505876 306.764362 192.771150 303.370391 193.461365 299.839271
C194.151579 296.308151 194.257415 292.687549 193.774644 289.122141
C193.291874 285.556732 192.227013 282.094648 190.622612 278.874228
C189.018212 275.653808 186.895931 272.718526 184.340572 270.185672"/>
</g>
<g id="patch4">
<path style="fill: #000000; stroke: #000000; stroke-width: 0.322337; stroke-linejoin: miter; stroke-linecap: square;  opacity: 1.000000" clip-path="url(#p90f42268ce4d7d9a5e1bd9541dfb4e32)" d="M171.729056 267.914618L169.660186 269.983487L167.591316 267.914618
L167.591316 266.156078L169.660186 268.224948L171.729056 266.156078
L171.729056 267.914618"/>
</g>
<g id="patch5">
<path style="fill: none; stroke: #000000; stroke-width: 1.289350; stroke-linejoin: miter; stroke-linecap: round;  opacity: 1.000000" clip-path="url(#p90f42268ce4d7d9a5e1bd9541dfb4e32)" d="M152.737473 138.770522
C148.579934 140.454989 145.018611 143.343201 142.511986 147.063333
C140.005360 150.783465 138.665821 155.168716 138.665821 159.654533
C138.665821 164.140350 140.005360 168.525601 142.511986 172.245733
C145.018611 175.965865 148.579934 178.854077 152.737473 180.538543"/>
</g>
<g id="patch6">
<path style="fill: none; stroke: #000000; stroke-width: 1.289350; stroke-linejoin: miter; stroke-linecap: round;  opacity: 1.000000" clip-path="url(#p90f42268ce4d7d9a5e1bd9541dfb4e32)" d="M169.660186 180.538543
C173.817725 178.854077 177.379048 175.965865 179.885673 172.245733
C182.392299 168.525601 183.731838 164.140350 183.731838 159.654533
C183.731838 155.168716 182.392299 150.783465 179.885673 147.063333
C177.379048 143.343201 173.817725 140.454989 169.660186 138.770522"/>
</g>
<g id="patch7">
<path style="fill: none; stroke: #000000; stroke-width: 1.289350; stroke-linejoin: miter; stroke-linecap: round;  opacity: 1.000000" clip-path="url(#p90f42268ce4d7d9a5e1bd9541dfb4e32)" d="M169.660186 88.002383
C172.836662 86.999955 175.809872 85.440976 178.440895 83.398288
C181.071918 81.355599 183.319129 78.861519 185.077528 76.032580
C186.835927 73.203642 188.077694 70.084602 188.744809 66.821197
C189.411924 63.557791 189.493832 60.201650 188.986706 56.909586
C188.479581 53.617522 187.391445 50.441621 185.773140 47.530272
C184.154836 44.618923 182.031967 42.018189 179.503722 39.849586
C176.975478 37.680983 174.081857 35.978821 170.958063 34.822633
C167.834270 33.666445 164.529724 33.074522 161.198829 33.074522
C157.867935 33.074522 154.563389 33.666445 151.439596 34.822633
C148.315802 35.978821 145.422181 37.680983 142.893937 39.849586
C140.365692 42.018189 138.242823 44.618923 136.624519 47.530272
C135.006214 50.441621 133.918078 53.617522 133.410953 56.909586
C132.903827 60.201650 132.985735 63.557791 133.652850 66.821197
C134.319965 70.084602 135.561732 73.203642 137.320131 76.032580
C139.078530 78.861519 141.325741 81.355599 143.956764 83.398288
C146.587787 85.440976 149.560997 86.999955 152.737473 88.002383"/>
</g>
<g id="line2d31">
<path style="fill: none; stroke: #000000; stroke-width: 1.289350; stroke-linejoin: round; stroke-linecap: round;  opacity: 1.000000" clip-path="url(#p90f42268ce4d7d9a5e1bd9541dfb4e32)" d="M169.660186 261.767567L169.660186 268.224948"/>
</g>
<g id="line2d32">
<path style="fill: none; stroke: #000000; stroke-width: 1.289350; stroke-linejoin: round; stroke-linecap: butt;  opacity: 1.000000" clip-path="url(#p90f42268ce4d7d9a5e1bd9541dfb4e32)" d="M152.737473 261.767567L152.737473 180.538543"/>
</g>
<g id="line2d33">
<path style="fill: none; stroke: #000000; stroke-width: 1.289350; stroke-linejoin: round; stroke-linecap: butt;  opacity: 1.000000" clip-path="url(#p90f42268ce4d7d9a5e1bd9541dfb4e32)" d="M169.660186 261.767567L169.660186 180.538543"/>
</g>
<g id="line2d34">
<path style="fill: none; stroke: #000000; stroke-width: 1.289350; stroke-linejoin: round; stroke-linecap: butt;  opacity: 1.000000" clip-path="url(#p90f42268ce4d7d9a5e1bd9541dfb4e32)" d="M152.737473 138.770522L152.737473 88.002383"/>
</g>
<g id="line2d35">
<path style="fill: none; stroke: #000000; stroke-width: 1.289350; stroke-linejoin: round; stroke-linecap: butt;  opacity: 1.000000" clip-path="url(#p90f42268ce4d7d9a5e1bd9541dfb4e32)" d="M169.660186 138.770522L169.660186 88.002383"/>
</g>
<g id="patch8">
<path style="fill: #999999; stroke: #999999; stroke-width: 0.644675; stroke-linejoin: miter; stroke-linecap: square;  opacity: 1.000000" clip-path="url(#p90f42268ce4d7d9a5e1bd9541dfb4e32)" d="M184.340572 272.379928
C184.922495 272.379928 185.480663 272.148728 185.892145 271.737246
C186.303627 271.325764 186.534828 270.767596 186.534828 270.185672
C186.534828 269.603749 186.303627 269.045581 185.892145 268.634099
C185.480663 268.222617 184.922495 267.991417 184.340572 267.991417
C183.758648 267.991417 183.200481 268.222617 182.788999 268.634099
C182.377517 269.045581 182.146316 269.603749 182.146316 270.185672
C182.146316 270.767596 182.377517 271.325764 182.788999 271.737246
C183.200481 272.148728 183.758648 272.379928 184.340572 272.379928z"/>
</g>
<g id="patch9">
<path style="fill: #999999; stroke: #999999; stroke-width: 0.644675; stroke-linejoin: miter; stroke-linecap: square;  opacity: 1.000000" clip-path="url(#p90f42268ce4d7d9a5e1bd9541dfb4e32)" d="M191.645771 283.332798
C192.227694 283.332798 192.785862 283.101598 193.197344 282.690116
C193.608826 282.278634 193.840026 281.720466 193.840026 281.138543
C193.840026 280.556619 193.608826 279.998452 193.197344 279.586970
C192.785862 279.175488 192.227694 278.944287 191.645771 278.944287
C191.063847 278.944287 190.505679 279.175488 190.094197 279.586970
C189.682715 279.998452 189.451515 280.556619 189.451515 281.138543
C189.451515 281.720466 189.682715 282.278634 190.094197 282.690116
C190.505679 283.101598 191.063847 283.332798 191.645771 283.332798z"/>
</g>
<g id="patch10">
<path style="fill: #999999; stroke: #999999; stroke-width: 0.644675; stroke-linejoin: miter; stroke-linecap: square;  opacity: 1.000000" clip-path="url(#p90f42268ce4d7d9a5e1bd9541dfb4e32)" d="M194.067373 296.273708
C194.649297 296.273708 195.207464 296.042507 195.618946 295.631025
C196.030428 295.219543 196.261629 294.661376 196.261629 294.079452
C196.261629 293.497529 196.030428 292.939361 195.618946 292.527879
C195.207464 292.116397 194.649297 291.885196 194.067373 291.885196
C193.485450 291.885196 192.927282 292.116397 192.515800 292.527879
C192.104318 292.939361 191.873118 293.497529 191.873118 294.079452
C191.873118 294.661376 192.104318 295.219543 192.515800 295.631025
C192.927282 296.042507 193.485450 296.273708 194.067373 296.273708z"/>
</g>
<g id="patch11">
<path style="fill: #999999; stroke: #999999; stroke-width: 0.644675; stroke-linejoin: miter; stroke-linecap: square;  opacity: 1.000000" clip-path="url(#p90f42268ce4d7d9a5e1bd9541dfb4e32)" d="M191.216963 309.126974
C191.798886 309.126974 192.357054 308.895774 192.768536 308.484292
C193.180018 308.072810 193.411219 307.514642 193.411219 306.932718
C193.411219 306.350795 193.180018 305.792627 192.768536 305.381145
C192.357054 304.969663 191.798886 304.738463 191.216963 304.738463
C190.635039 304.738463 190.076872 304.969663 189.665390 305.381145
C189.253908 305.792627 189.022707 306.350795 189.022707 306.932718
C189.022707 307.514642 189.253908 308.072810 189.665390 308.484292
C190.076872 308.895774 190.635039 309.126974 191.216963 309.126974z"/>
</g>
<g id="patch12">
<path style="fill: #999999; stroke: #999999; stroke-width: 0.644675; stroke-linejoin: miter; stroke-linecap: square;  opacity: 1.000000" clip-path="url(#p90f42268ce4d7d9a5e1bd9541dfb4e32)" d="M183.551736 319.830973
C184.133659 319.830973 184.691827 319.599772 185.103309 319.188290
C185.514791 318.776808 185.745992 318.218641 185.745992 317.636717
C185.745992 317.054794 185.514791 316.496626 185.103309 316.085144
C184.691827 315.673662 184.133659 315.442462 183.551736 315.442462
C182.969812 315.442462 182.411645 315.673662 182.000163 316.085144
C181.588681 316.496626 181.357480 317.054794 181.357480 317.636717
C181.357480 318.218641 181.588681 318.776808 182.000163 319.188290
C182.411645 319.599772 182.969812 319.830973 183.551736 319.830973z"/>
</g>
<g id="patch13">
<path style="fill: #999999; stroke: #999999; stroke-width: 0.644675; stroke-linejoin: miter; stroke-linecap: square;  opacity: 1.000000" clip-path="url(#p90f42268ce4d7d9a5e1bd9541dfb4e32)" d="M172.301171 326.668816
C172.883095 326.668816 173.441262 326.437615 173.852744 326.026133
C174.264226 325.614651 174.495427 325.056484 174.495427 324.474560
C174.495427 323.892637 174.264226 323.334469 173.852744 322.922987
C173.441262 322.511505 172.883095 322.280304 172.301171 322.280304
C171.719248 322.280304 171.161080 322.511505 170.749598 322.922987
C170.338116 323.334469 170.106916 323.892637 170.106916 324.474560
C170.106916 325.056484 170.338116 325.614651 170.749598 326.026133
C171.161080 326.437615 171.719248 326.668816 172.301171 326.668816z"/>
</g>
<g id="patch14">
<path style="fill: #999999; stroke: #999999; stroke-width: 0.644675; stroke-linejoin: miter; stroke-linecap: square;  opacity: 1.000000" clip-path="url(#p90f42268ce4d7d9a5e1bd9541dfb4e32)" d="M159.269825 328.543734
C159.851749 328.543734 160.409916 328.312533 160.821398 327.901051
C161.232880 327.489569 161.464081 326.931401 161.464081 326.349478
C161.464081 325.767555 161.232880 325.209387 160.821398 324.797905
C160.409916 324.386423 159.851749 324.155222 159.269825 324.155222
C158.687902 324.155222 158.129734 324.386423 157.718252 324.797905
C157.306770 325.209387 157.075570 325.767555 157.075570 326.349478
C157.075570 326.931401 157.306770 327.489569 157.718252 327.901051
C158.129734 328.312533 158.687902 328.543734 159.269825 328.543734z"/>
</g>
<g id="patch15">
<path style="fill: #999999; stroke: #999999; stroke-width: 0.644675; stroke-linejoin: miter; stroke-linecap: square;  opacity: 1.000000" clip-path="url(#p90f42268ce4d7d9a5e1bd9541dfb4e32)" d="M146.547886 325.154995
C147.129809 325.154995 147.687977 324.923795 148.099459 324.512313
C148.510941 324.100831 148.742141 323.542663 148.742141 322.960740
C148.742141 322.378816 148.510941 321.820649 148.099459 321.409167
C147.687977 320.997685 147.129809 320.766484 146.547886 320.766484
C145.965962 320.766484 145.407795 320.997685 144.996313 321.409167
C144.584831 321.820649 144.353630 322.378816 144.353630 322.960740
C144.353630 323.542663 144.584831 324.100831 144.996313 324.512313
C145.407795 324.923795 145.965962 325.154995 146.547886 325.154995z"/>
</g>
<g id="patch16">
<path style="fill: #999999; stroke: #999999; stroke-width: 0.644675; stroke-linejoin: miter; stroke-linecap: square;  opacity: 1.000000" clip-path="url(#p90f42268ce4d7d9a5e1bd9541dfb4e32)" d="M136.175912 317.046144
C136.757836 317.046144 137.316003 316.814944 137.727485 316.403462
C138.138967 315.991980 138.370168 315.433812 138.370168 314.851889
C138.370168 314.269965 138.138967 313.711798 137.727485 313.300316
C137.316003 312.888834 136.757836 312.657633 136.175912 312.657633
C135.593989 312.657633 135.035821 312.888834 134.624339 313.300316
C134.212857 313.711798 133.981657 314.269965 133.981657 314.851889
C133.981657 315.433812 134.212857 315.991980 134.624339 316.403462
C135.035821 316.814944 135.593989 317.046144 136.175912 317.046144z"/>
</g>
<g id="patch17">
<path style="fill: #999999; stroke: #999999; stroke-width: 0.644675; stroke-linejoin: miter; stroke-linecap: square;  opacity: 1.000000" clip-path="url(#p90f42268ce4d7d9a5e1bd9541dfb4e32)" d="M129.817538 305.517815
C130.399462 305.517815 130.957629 305.286615 131.369111 304.875133
C131.780593 304.463651 132.011794 303.905483 132.011794 303.323559
C132.011794 302.741636 131.780593 302.183468 131.369111 301.771986
C130.957629 301.360504 130.399462 301.129304 129.817538 301.129304
C129.235615 301.129304 128.677447 301.360504 128.265965 301.771986
C127.854483 302.183468 127.623282 302.741636 127.623282 303.323559
C127.623282 303.905483 127.854483 304.463651 128.265965 304.875133
C128.677447 305.286615 129.235615 305.517815 129.817538 305.517815z"/>
</g>
<g id="patch18">
<path style="fill: #999999; stroke: #999999; stroke-width: 0.644675; stroke-linejoin: miter; stroke-linecap: square;  opacity: 1.000000" clip-path="url(#p90f42268ce4d7d9a5e1bd9541dfb4e32)" d="M128.492627 292.419117
C129.074550 292.419117 129.632718 292.187916 130.044200 291.776434
C130.455682 291.364952 130.686882 290.806784 130.686882 290.224861
C130.686882 289.642937 130.455682 289.084770 130.044200 288.673288
C129.632718 288.261806 129.074550 288.030605 128.492627 288.030605
C127.910703 288.030605 127.352536 288.261806 126.941054 288.673288
C126.529572 289.084770 126.298371 289.642937 126.298371 290.224861
C126.298371 290.806784 126.529572 291.364952 126.941054 291.776434
C127.352536 292.187916 127.910703 292.419117 128.492627 292.419117z"/>
</g>
<g id="patch19">
<path style="fill: #999999; stroke: #999999; stroke-width: 0.644675; stroke-linejoin: miter; stroke-linecap: square;  opacity: 1.000000" clip-path="url(#p90f42268ce4d7d9a5e1bd9541dfb4e32)" d="M132.413690 279.851040
C132.995613 279.851040 133.553781 279.619839 133.965263 279.208357
C134.376745 278.796875 134.607945 278.238707 134.607945 277.656784
C134.607945 277.074860 134.376745 276.516693 133.965263 276.105211
C133.553781 275.693729 132.995613 275.462528 132.413690 275.462528
C131.831766 275.462528 131.273598 275.693729 130.862116 276.105211
C130.450634 276.516693 130.219434 277.074860 130.219434 277.656784
C130.219434 278.238707 130.450634 278.796875 130.862116 279.208357
C131.273598 279.619839 131.831766 279.851040 132.413690 279.851040z"/>
</g>
<g id="patch20">
<path style="fill: #999999; stroke: #999999; stroke-width: 0.644675; stroke-linejoin: miter; stroke-linecap: square;  opacity: 1.000000" clip-path="url(#p90f42268ce4d7d9a5e1bd9541dfb4e32)" d="M140.951801 269.829465
C141.533724 269.829465 142.091892 269.598264 142.503374 269.186782
C142.914856 268.775300 143.146056 268.217133 143.146056 267.635209
C143.146056 267.053286 142.914856 266.495118 142.503374 266.083636
C142.091892 265.672154 141.533724 265.440954 140.951801 265.440954
C140.369877 265.440954 139.811709 265.672154 139.400228 266.083636
C138.988746 266.495118 138.757545 267.053286 138.757545 267.635209
C138.757545 268.217133 138.988746 268.775300 139.400228 269.186782
C139.811709 269.598264 140.369877 269.829465 140.951801 269.829465z"/>
</g>
<g id="patch21">
<path style="fill: #999999; stroke: #999999; stroke-width: 0.644675; stroke-linejoin: miter; stroke-linecap: square;  opacity: 1.000000" clip-path="url(#p90f42268ce4d7d9a5e1bd9541dfb4e32)" d="M152.737473 263.961823
C153.319396 263.961823 153.877564 263.730622 154.289046 263.319140
C154.700528 262.907658 154.931729 262.349490 154.931729 261.767567
C154.931729 261.185644 154.700528 260.627476 154.289046 260.215994
C153.877564 259.804512 153.319396 259.573311 152.737473 259.573311
C152.155549 259.573311 151.597382 259.804512 151.185900 260.215994
C150.774418 260.627476 150.543217 261.185644 150.543217 261.767567
C150.543217 262.349490 150.774418 262.907658 151.185900 263.319140
C151.597382 263.730622 152.155549 263.961823 152.737473 263.961823z"/>
</g>
<g id="patch22">
<path style="fill: #999999; stroke: #999999; stroke-width: 0.644675; stroke-linejoin: miter; stroke-linecap: square;  opacity: 1.000000" clip-path="url(#p90f42268ce4d7d9a5e1bd9541dfb4e32)" d="M152.737473 253.808195
C153.319396 253.808195 153.877564 253.576994 154.289046 253.165512
C154.700528 252.754030 154.931729 252.195862 154.931729 251.613939
C154.931729 251.032016 154.700528 250.473848 154.289046 250.062366
C153.877564 249.650884 153.319396 249.419683 152.737473 249.419683
C152.155549 249.419683 151.597382 249.650884 151.185900 250.062366
C150.774418 250.473848 150.543217 251.032016 150.543217 251.613939
C150.543217 252.195862 150.774418 252.754030 151.185900 253.165512
C151.597382 253.576994 152.155549 253.808195 152.737473 253.808195z"/>
</g>
<g id="patch23">
<path style="fill: #999999; stroke: #999999; stroke-width: 0.644675; stroke-linejoin: miter; stroke-linecap: square;  opacity: 1.000000" clip-path="url(#p90f42268ce4d7d9a5e1bd9541dfb4e32)" d="M152.737473 243.654567
C153.319396 243.654567 153.877564 243.423366 154.289046 243.011884
C154.700528 242.600402 154.931729 242.042234 154.931729 241.460311
C154.931729 240.878388 154.700528 240.320220 154.289046 239.908738
C153.877564 239.497256 153.319396 239.266055 152.737473 239.266055
C152.155549 239.266055 151.597382 239.497256 151.185900 239.908738
C150.774418 240.320220 150.543217 240.878388 150.543217 241.460311
C150.543217 242.042234 150.774418 242.600402 151.185900 243.011884
C151.597382 243.423366 152.155549 243.654567 152.737473 243.654567z"/>
</g>
<g id="patch24">
<path style="fill: #999999; stroke: #999999; stroke-width: 0.644675; stroke-linejoin: miter; stroke-linecap: square;  opacity: 1.000000" clip-path="url(#p90f42268ce4d7d9a5e1bd9541dfb4e32)" d="M152.737473 233.500939
C153.319396 233.500939 153.877564 233.269738 154.289046 232.858256
C154.700528 232.446774 154.931729 231.888607 154.931729 231.306683
C154.931729 230.724760 154.700528 230.166592 154.289046 229.755110
C153.877564 229.343628 153.319396 229.112427 152.737473 229.112427
C152.155549 229.112427 151.597382 229.343628 151.185900 229.755110
C150.774418 230.166592 150.543217 230.724760 150.543217 231.306683
C150.543217 231.888607 150.774418 232.446774 151.185900 232.858256
C151.597382 233.269738 152.155549 233.500939 152.737473 233.500939z"/>
</g>
<g id="patch25">
<path style="fill: #999999; stroke: #999999; stroke-width: 0.644675; stroke-linejoin: miter; stroke-linecap: square;  opacity: 1.000000" clip-path="url(#p90f42268ce4d7d9a5e1bd9541dfb4e32)" d="M152.737473 223.347311
C153.319396 223.347311 153.877564 223.116110 154.289046 222.704628
C154.700528 222.293146 154.931729 221.734979 154.931729 221.153055
C154.931729 220.571132 154.700528 220.012964 154.289046 219.601482
C153.877564 219.190000 153.319396 218.958799 152.737473 218.958799
C152.155549 218.958799 151.597382 219.190000 151.185900 219.601482
C150.774418 220.012964 150.543217 220.571132 150.543217 221.153055
C150.543217 221.734979 150.774418 222.293146 151.185900 222.704628
C151.597382 223.116110 152.155549 223.347311 152.737473 223.347311z"/>
</g>
<g id="patch26">
<path style="fill: #999999; stroke: #999999; stroke-width: 0.644675; stroke-linejoin: miter; stroke-linecap: square;  opacity: 1.000000" clip-path="url(#p90f42268ce4d7d9a5e1bd9541dfb4e32)" d="M152.737473 213.193683
C153.319396 213.193683 153.877564 212.962482 154.289046 212.551000
C154.700528 212.139518 154.931729 211.581351 154.931729 210.999427
C154.931729 210.417504 154.700528 209.859336 154.289046 209.447854
C153.877564 209.036372 153.319396 208.805171 152.737473 208.805171
C152.155549 208.805171 151.597382 209.036372 151.185900 209.447854
C150.774418 209.859336 150.543217 210.417504 150.543217 210.999427
C150.543217 211.581351 150.774418 212.139518 151.185900 212.551000
C151.597382 212.962482 152.155549 213.193683 152.737473 213.193683z"/>
</g>
<g id="patch27">
<path style="fill: #999999; stroke: #999999; stroke-width: 0.644675; stroke-linejoin: miter; stroke-linecap: square;  opacity: 1.000000" clip-path="url(#p90f42268ce4d7d9a5e1bd9541dfb4e32)" d="M152.737473 203.040055
C153.319396 203.040055 153.877564 202.808854 154.289046 202.397372
C154.700528 201.985890 154.931729 201.427723 154.931729 200.845799
C154.931729 200.263876 154.700528 199.705708 154.289046 199.294226
C153.877564 198.882744 153.319396 198.651544 152.737473 198.651544
C152.155549 198.651544 151.597382 198.882744 151.185900 199.294226
C150.774418 199.705708 150.543217 200.263876 150.543217 200.845799
C150.543217 201.427723 150.774418 201.985890 151.185900 202.397372
C151.597382 202.808854 152.155549 203.040055 152.737473 203.040055z"/>
</g>
<g id="patch28">
<path style="fill: #999999; stroke: #999999; stroke-width: 0.644675; stroke-linejoin: miter; stroke-linecap: square;  opacity: 1.000000" clip-path="url(#p90f42268ce4d7d9a5e1bd9541dfb4e32)" d="M152.737473 192.886427
C153.319396 192.886427 153.877564 192.655226 154.289046 192.243744
C154.700528 191.832262 154.931729 191.274095 154.931729 190.692171
C154.931729 190.110248 154.700528 189.552080 154.289046 189.140598
C153.877564 188.729116 153.319396 188.497916 152.737473 188.497916
C152.155549 188.497916 151.597382 188.729116 151.185900 189.140598
C150.774418 189.552080 150.543217 190.110248 150.543217 190.692171
C150.543217 191.274095 150.774418 191.832262 151.185900 192.243744
C151.597382 192.655226 152.155549 192.886427 152.737473 192.886427z"/>
</g>
<g id="patch29">
<path style="fill: #999999; stroke: #999999; stroke-width: 0.644675; stroke-linejoin: miter; stroke-linecap: square;  opacity: 1.000000" clip-path="url(#p90f42268ce4d7d9a5e1bd9541dfb4e32)" d="M152.737473 182.732799
C153.319396 182.732799 153.877564 182.501598 154.289046 182.090116
C154.700528 181.678634 154.931729 181.120467 154.931729 180.538543
C154.931729 179.956620 154.700528 179.398452 154.289046 178.986970
C153.877564 178.575488 153.319396 178.344288 152.737473 178.344288
C152.155549 178.344288 151.597382 178.575488 151.185900 178.986970
C150.774418 179.398452 150.543217 179.956620 150.543217 180.538543
C150.543217 181.120467 150.774418 181.678634 151.185900 182.090116
C151.597382 182.501598 152.155549 182.732799 152.737473 182.732799z"/>
</g>
<g id="patch30">
<path style="fill: #999999; stroke: #999999; stroke-width: 0.644675; stroke-linejoin: miter; stroke-linecap: square;  opacity: 1.000000" clip-path="url(#p90f42268ce4d7d9a5e1bd9541dfb4e32)" d="M142.511986 174.439989
C143.093909 174.439989 143.652077 174.208788 144.063559 173.797306
C144.475041 173.385824 144.706241 172.827656 144.706241 172.245733
C144.706241 171.663809 144.475041 171.105642 144.063559 170.694160
C143.652077 170.282678 143.093909 170.051477 142.511986 170.051477
C141.930062 170.051477 141.371894 170.282678 140.960412 170.694160
C140.548930 171.105642 140.317730 171.663809 140.317730 172.245733
C140.317730 172.827656 140.548930 173.385824 140.960412 173.797306
C141.371894 174.208788 141.930062 174.439989 142.511986 174.439989z"/>
</g>
<g id="patch31">
<path style="fill: #999999; stroke: #999999; stroke-width: 0.644675; stroke-linejoin: miter; stroke-linecap: square;  opacity: 1.000000" clip-path="url(#p90f42268ce4d7d9a5e1bd9541dfb4e32)" d="M138.665821 161.848789
C139.247745 161.848789 139.805913 161.617588 140.217395 161.206106
C140.628877 160.794624 140.860077 160.236456 140.860077 159.654533
C140.860077 159.072609 140.628877 158.514442 140.217395 158.102960
C139.805913 157.691478 139.247745 157.460277 138.665821 157.460277
C138.083898 157.460277 137.525730 157.691478 137.114248 158.102960
C136.702766 158.514442 136.471566 159.072609 136.471566 159.654533
C136.471566 160.236456 136.702766 160.794624 137.114248 161.206106
C137.525730 161.617588 138.083898 161.848789 138.665821 161.848789z"/>
</g>
<g id="patch32">
<path style="fill: #999999; stroke: #999999; stroke-width: 0.644675; stroke-linejoin: miter; stroke-linecap: square;  opacity: 1.000000" clip-path="url(#p90f42268ce4d7d9a5e1bd9541dfb4e32)" d="M142.511986 149.257589
C143.093909 149.257589 143.652077 149.026388 144.063559 148.614906
C144.475041 148.203424 144.706241 147.645256 144.706241 147.063333
C144.706241 146.481409 144.475041 145.923242 144.063559 145.511760
C143.652077 145.100278 143.093909 144.869077 142.511986 144.869077
C141.930062 144.869077 141.371894 145.100278 140.960412 145.511760
C140.548930 145.923242 140.317730 146.481409 140.317730 147.063333
C140.317730 147.645256 140.548930 148.203424 140.960412 148.614906
C141.371894 149.026388 141.930062 149.257589 142.511986 149.257589z"/>
</g>
<g id="patch33">
<path style="fill: #999999; stroke: #999999; stroke-width: 0.644675; stroke-linejoin: miter; stroke-linecap: square;  opacity: 1.000000" clip-path="url(#p90f42268ce4d7d9a5e1bd9541dfb4e32)" d="M152.737473 140.964778
C153.319396 140.964778 153.877564 140.733577 154.289046 140.322095
C154.700528 139.910613 154.931729 139.352446 154.931729 138.770522
C154.931729 138.188599 154.700528 137.630431 154.289046 137.218949
C153.877564 136.807467 153.319396 136.576267 152.737473 136.576267
C152.155549 136.576267 151.597382 136.807467 151.185900 137.218949
C150.774418 137.630431 150.543217 138.188599 150.543217 138.770522
C150.543217 139.352446 150.774418 139.910613 151.185900 140.322095
C151.597382 140.733577 152.155549 140.964778 152.737473 140.964778z"/>
</g>
<g id="patch34">
<path style="fill: #999999; stroke: #999999; stroke-width: 0.644675; stroke-linejoin: miter; stroke-linecap: square;  opacity: 1.000000" clip-path="url(#p90f42268ce4d7d9a5e1bd9541dfb4e32)" d="M152.737473 130.811150
C153.319396 130.811150 153.877564 130.579949 154.289046 130.168467
C154.700528 129.756985 154.931729 129.198818 154.931729 128.616894
C154.931729 128.034971 154.700528 127.476803 154.289046 127.065321
C153.877564 126.653839 153.319396 126.422639 152.737473 126.422639
C152.155549 126.422639 151.597382 126.653839 151.185900 127.065321
C150.774418 127.476803 150.543217 128.034971 150.543217 128.616894
C150.543217 129.198818 150.774418 129.756985 151.185900 130.168467
C151.597382 130.579949 152.155549 130.811150 152.737473 130.811150z"/>
</g>
<g id="patch35">
<path style="fill: #999999; stroke: #999999; stroke-width: 0.644675; stroke-linejoin: miter; stroke-linecap: square;  opacity: 1.000000" clip-path="url(#p90f42268ce4d7d9a5e1bd9541dfb4e32)" d="M152.737473 120.657522
C153.319396 120.657522 153.877564 120.426322 154.289046 120.014840
C154.700528 119.603358 154.931729 119.045190 154.931729 118.463266
C154.931729 117.881343 154.700528 117.323175 154.289046 116.911693
C153.877564 116.500211 153.319396 116.269011 152.737473 116.269011
C152.155549 116.269011 151.597382 116.500211 151.185900 116.911693
C150.774418 117.323175 150.543217 117.881343 150.543217 118.463266
C150.543217 119.045190 150.774418 119.603358 151.185900 120.014840
C151.597382 120.426322 152.155549 120.657522 152.737473 120.657522z"/>
</g>
<g id="patch36">
<path style="fill: #999999; stroke: #999999; stroke-width: 0.644675; stroke-linejoin: miter; stroke-linecap: square;  opacity: 1.000000" clip-path="url(#p90f42268ce4d7d9a5e1bd9541dfb4e32)" d="M152.737473 110.503894
C153.319396 110.503894 153.877564 110.272694 154.289046 109.861212
C154.700528 109.449730 154.931729 108.891562 154.931729 108.309638
C154.931729 107.727715 154.700528 107.169547 154.289046 106.758065
C153.877564 106.346583 153.319396 106.115383 152.737473 106.115383
C152.155549 106.115383 151.597382 106.346583 151.185900 106.758065
C150.774418 107.169547 150.543217 107.727715 150.543217 108.309638
C150.543217 108.891562 150.774418 109.449730 151.185900 109.861212
C151.597382 110.272694 152.155549 110.503894 152.737473 110.503894z"/>
</g>
<g id="patch37">
<path style="fill: #999999; stroke: #999999; stroke-width: 0.644675; stroke-linejoin: miter; stroke-linecap: square;  opacity: 1.000000" clip-path="url(#p90f42268ce4d7d9a5e1bd9541dfb4e32)" d="M152.737473 100.350266
C153.319396 100.350266 153.877564 100.119066 154.289046 99.707584
C154.700528 99.296102 154.931729 98.737934 154.931729 98.156011
C154.931729 97.574087 154.700528 97.015919 154.289046 96.604437
C153.877564 96.192955 153.319396 95.961755 152.737473 95.961755
C152.155549 95.961755 151.597382 96.192955 151.185900 96.604437
C150.774418 97.015919 150.543217 97.574087 150.543217 98.156011
C150.543217 98.737934 150.774418 99.296102 151.185900 99.707584
C151.597382 100.119066 152.155549 100.350266 152.737473 100.350266z"/>
</g>
<g id="patch38">
<path style="fill: #999999; stroke: #999999; stroke-width: 0.644675; stroke-linejoin: miter; stroke-linecap: square;  opacity: 1.000000" clip-path="url(#p90f42268ce4d7d9a5e1bd9541dfb4e32)" d="M152.737473 90.196638
C153.319396 90.196638 153.877564 89.965438 154.289046 89.553956
C154.700528 89.142474 154.931729 88.584306 154.931729 88.002383
C154.931729 87.420459 154.700528 86.862291 154.289046 86.450809
C153.877564 86.039327 153.319396 85.808127 152.737473 85.808127
C152.155549 85.808127 151.597382 86.039327 151.185900 86.450809
C150.774418 86.862291 150.543217 87.420459 150.543217 88.002383
C150.543217 88.584306 150.774418 89.142474 151.185900 89.553956
C151.597382 89.965438 152.155549 90.196638 152.737473 90.196638z"/>
</g>
<g id="patch39">
<path style="fill: #999999; stroke: #999999; stroke-width: 0.644675; stroke-linejoin: miter; stroke-linecap: square;  opacity: 1.000000" clip-path="url(#p90f42268ce4d7d9a5e1bd9541dfb4e32)" d="M141.458924 83.405052
C142.040848 83.405052 142.599015 83.173852 143.010497 82.762370
C143.421979 82.350888 143.653180 81.792720 143.653180 81.210797
C143.653180 80.628873 143.421979 80.070705 143.010497 79.659223
C142.599015 79.247741 142.040848 79.016541 141.458924 79.016541
C140.877001 79.016541 140.318833 79.247741 139.907351 79.659223
C139.495869 80.070705 139.264669 80.628873 139.264669 81.210797
C139.264669 81.792720 139.495869 82.350888 139.907351 82.762370
C140.318833 83.173852 140.877001 83.405052 141.458924 83.405052z"/>
</g>
<g id="patch40">
<path style="fill: #999999; stroke: #999999; stroke-width: 0.644675; stroke-linejoin: miter; stroke-linecap: square;  opacity: 1.000000" clip-path="url(#p90f42268ce4d7d9a5e1bd9541dfb4e32)" d="M134.508762 72.223526
C135.090685 72.223526 135.648853 71.992325 136.060335 71.580843
C136.471817 71.169361 136.703017 70.611194 136.703017 70.029270
C136.703017 69.447347 136.471817 68.889179 136.060335 68.477697
C135.648853 68.066215 135.090685 67.835014 134.508762 67.835014
C133.926838 67.835014 133.368670 68.066215 132.957188 68.477697
C132.545706 68.889179 132.314506 69.447347 132.314506 70.029270
C132.314506 70.611194 132.545706 71.169361 132.957188 71.580843
C133.368670 71.992325 133.926838 72.223526 134.508762 72.223526z"/>
</g>
<g id="patch41">
<path style="fill: #999999; stroke: #999999; stroke-width: 0.644675; stroke-linejoin: miter; stroke-linecap: square;  opacity: 1.000000" clip-path="url(#p90f42268ce4d7d9a5e1bd9541dfb4e32)" d="M133.410953 59.103842
C133.992876 59.103842 134.551044 58.872641 134.962526 58.461159
C135.374008 58.049677 135.605208 57.491509 135.605208 56.909586
C135.605208 56.327663 135.374008 55.769495 134.962526 55.358013
C134.551044 54.946531 133.992876 54.715330 133.410953 54.715330
C132.829029 54.715330 132.270861 54.946531 131.859379 55.358013
C131.447897 55.769495 131.216697 56.327663 131.216697 56.909586
C131.216697 57.491509 131.447897 58.049677 131.859379 58.461159
C132.270861 58.872641 132.829029 59.103842 133.410953 59.103842z"/>
</g>
<g id="patch42">
<path style="fill: #999999; stroke: #999999; stroke-width: 0.644675; stroke-linejoin: miter; stroke-linecap: square;  opacity: 1.000000" clip-path="url(#p90f42268ce4d7d9a5e1bd9541dfb4e32)" d="M138.406215 46.922764
C138.988138 46.922764 139.546306 46.691564 139.957788 46.280082
C140.369270 45.868600 140.600471 45.310432 140.600471 44.728508
C140.600471 44.146585 140.369270 43.588417 139.957788 43.176935
C139.546306 42.765453 138.988138 42.534253 138.406215 42.534253
C137.824291 42.534253 137.266124 42.765453 136.854642 43.176935
C136.443160 43.588417 136.211959 44.146585 136.211959 44.728508
C136.211959 45.310432 136.443160 45.868600 136.854642 46.280082
C137.266124 46.691564 137.824291 46.922764 138.406215 46.922764z"/>
</g>
<g id="patch43">
<path style="fill: #999999; stroke: #999999; stroke-width: 0.644675; stroke-linejoin: miter; stroke-linecap: square;  opacity: 1.000000" clip-path="url(#p90f42268ce4d7d9a5e1bd9541dfb4e32)" d="M148.399233 38.351248
C148.981156 38.351248 149.539324 38.120048 149.950806 37.708566
C150.362288 37.297084 150.593489 36.738916 150.593489 36.156993
C150.593489 35.575069 150.362288 35.016902 149.950806 34.605420
C149.539324 34.193938 148.981156 33.962737 148.399233 33.962737
C147.817310 33.962737 147.259142 34.193938 146.847660 34.605420
C146.436178 35.016902 146.204977 35.575069 146.204977 36.156993
C146.204977 36.738916 146.436178 37.297084 146.847660 37.708566
C147.259142 38.120048 147.817310 38.351248 148.399233 38.351248z"/>
</g>
<g id="patch44">
<path style="fill: #999999; stroke: #999999; stroke-width: 0.644675; stroke-linejoin: miter; stroke-linecap: square;  opacity: 1.000000" clip-path="url(#p90f42268ce4d7d9a5e1bd9541dfb4e32)" d="M161.198829 35.268778
C161.780753 35.268778 162.338921 35.037577 162.750403 34.626095
C163.161885 34.214613 163.393085 33.656445 163.393085 33.074522
C163.393085 32.492599 163.161885 31.934431 162.750403 31.522949
C162.338921 31.111467 161.780753 30.880266 161.198829 30.880266
C160.616906 30.880266 160.058738 31.111467 159.647256 31.522949
C159.235774 31.934431 159.004574 32.492599 159.004574 33.074522
C159.004574 33.656445 159.235774 34.214613 159.647256 34.626095
C160.058738 35.037577 160.616906 35.268778 161.198829 35.268778z"/>
</g>
<g id="patch45">
<path style="fill: #999999; stroke: #999999; stroke-width: 0.644675; stroke-linejoin: miter; stroke-linecap: square;  opacity: 1.000000" clip-path="url(#p90f42268ce4d7d9a5e1bd9541dfb4e32)" d="M173.998426 38.351248
C174.580349 38.351248 175.138517 38.120048 175.549999 37.708566
C175.961481 37.297084 176.192682 36.738916 176.192682 36.156993
C176.192682 35.575069 175.961481 35.016902 175.549999 34.605420
C175.138517 34.193938 174.580349 33.962737 173.998426 33.962737
C173.416503 33.962737 172.858335 34.193938 172.446853 34.605420
C172.035371 35.016902 171.804170 35.575069 171.804170 36.156993
C171.804170 36.738916 172.035371 37.297084 172.446853 37.708566
C172.858335 38.120048 173.416503 38.351248 173.998426 38.351248z"/>
</g>
<g id="patch46">
<path style="fill: #999999; stroke: #999999; stroke-width: 0.644675; stroke-linejoin: miter; stroke-linecap: square;  opacity: 1.000000" clip-path="url(#p90f42268ce4d7d9a5e1bd9541dfb4e32)" d="M183.991444 46.922764
C184.573368 46.922764 185.131535 46.691564 185.543017 46.280082
C185.954499 45.868600 186.185700 45.310432 186.185700 44.728508
C186.185700 44.146585 185.954499 43.588417 185.543017 43.176935
C185.131535 42.765453 184.573368 42.534253 183.991444 42.534253
C183.409521 42.534253 182.851353 42.765453 182.439871 43.176935
C182.028389 43.588417 181.797188 44.146585 181.797188 44.728508
C181.797188 45.310432 182.028389 45.868600 182.439871 46.280082
C182.851353 46.691564 183.409521 46.922764 183.991444 46.922764z"/>
</g>
<g id="patch47">
<path style="fill: #999999; stroke: #999999; stroke-width: 0.644675; stroke-linejoin: miter; stroke-linecap: square;  opacity: 1.000000" clip-path="url(#p90f42268ce4d7d9a5e1bd9541dfb4e32)" d="M188.986706 59.103842
C189.568630 59.103842 190.126798 58.872641 190.538280 58.461159
C190.949762 58.049677 191.180962 57.491509 191.180962 56.909586
C191.180962 56.327663 190.949762 55.769495 190.538280 55.358013
C190.126798 54.946531 189.568630 54.715330 188.986706 54.715330
C188.404783 54.715330 187.846615 54.946531 187.435133 55.358013
C187.023651 55.769495 186.792451 56.327663 186.792451 56.909586
C186.792451 57.491509 187.023651 58.049677 187.435133 58.461159
C187.846615 58.872641 188.404783 59.103842 188.986706 59.103842z"/>
</g>
<g id="patch48">
<path style="fill: #999999; stroke: #999999; stroke-width: 0.644675; stroke-linejoin: miter; stroke-linecap: square;  opacity: 1.000000" clip-path="url(#p90f42268ce4d7d9a5e1bd9541dfb4e32)" d="M187.888897 72.223526
C188.470821 72.223526 189.028988 71.992325 189.440470 71.580843
C189.851952 71.169361 190.083153 70.611194 190.083153 70.029270
C190.083153 69.447347 189.851952 68.889179 189.440470 68.477697
C189.028988 68.066215 188.470821 67.835014 187.888897 67.835014
C187.306974 67.835014 186.748806 68.066215 186.337324 68.477697
C185.925842 68.889179 185.694642 69.447347 185.694642 70.029270
C185.694642 70.611194 185.925842 71.169361 186.337324 71.580843
C186.748806 71.992325 187.306974 72.223526 187.888897 72.223526z"/>
</g>
<g id="patch49">
<path style="fill: #999999; stroke: #999999; stroke-width: 0.644675; stroke-linejoin: miter; stroke-linecap: square;  opacity: 1.000000" clip-path="url(#p90f42268ce4d7d9a5e1bd9541dfb4e32)" d="M180.938735 83.405052
C181.520658 83.405052 182.078826 83.173852 182.490308 82.762370
C182.901790 82.350888 183.132990 81.792720 183.132990 81.210797
C183.132990 80.628873 182.901790 80.070705 182.490308 79.659223
C182.078826 79.247741 181.520658 79.016541 180.938735 79.016541
C180.356811 79.016541 179.798643 79.247741 179.387161 79.659223
C178.975679 80.070705 178.744479 80.628873 178.744479 81.210797
C178.744479 81.792720 178.975679 82.350888 179.387161 82.762370
C179.798643 83.173852 180.356811 83.405052 180.938735 83.405052z"/>
</g>
<g id="patch50">
<path style="fill: #999999; stroke: #999999; stroke-width: 0.644675; stroke-linejoin: miter; stroke-linecap: square;  opacity: 1.000000" clip-path="url(#p90f42268ce4d7d9a5e1bd9541dfb4e32)" d="M169.660186 90.196638
C170.242110 90.196638 170.800277 89.965438 171.211759 89.553956
C171.623241 89.142474 171.854442 88.584306 171.854442 88.002383
C171.854442 87.420459 171.623241 86.862291 171.211759 86.450809
C170.800277 86.039327 170.242110 85.808127 169.660186 85.808127
C169.078263 85.808127 168.520095 86.039327 168.108613 86.450809
C167.697131 86.862291 167.465930 87.420459 167.465930 88.002383
C167.465930 88.584306 167.697131 89.142474 168.108613 89.553956
C168.520095 89.965438 169.078263 90.196638 169.660186 90.196638z"/>
</g>
<g id="patch51">
<path style="fill: #999999; stroke: #999999; stroke-width: 0.644675; stroke-linejoin: miter; stroke-linecap: square;  opacity: 1.000000" clip-path="url(#p90f42268ce4d7d9a5e1bd9541dfb4e32)" d="M169.660186 100.350266
C170.242110 100.350266 170.800277 100.119066 171.211759 99.707584
C171.623241 99.296102 171.854442 98.737934 171.854442 98.156011
C171.854442 97.574087 171.623241 97.015919 171.211759 96.604437
C170.800277 96.192955 170.242110 95.961755 169.660186 95.961755
C169.078263 95.961755 168.520095 96.192955 168.108613 96.604437
C167.697131 97.015919 167.465930 97.574087 167.465930 98.156011
C167.465930 98.737934 167.697131 99.296102 168.108613 99.707584
C168.520095 100.119066 169.078263 100.350266 169.660186 100.350266z"/>
</g>
<g id="patch52">
<path style="fill: #999999; stroke: #999999; stroke-width: 0.644675; stroke-linejoin: miter; stroke-linecap: square;  opacity: 1.000000" clip-path="url(#p90f42268ce4d7d9a5e1bd9541dfb4e32)" d="M169.660186 110.503894
C170.242110 110.503894 170.800277 110.272694 171.211759 109.861212
C171.623241 109.449730 171.854442 108.891562 171.854442 108.309638
C171.854442 107.727715 171.623241 107.169547 171.211759 106.758065
C170.800277 106.346583 170.242110 106.115383 169.660186 106.115383
C169.078263 106.115383 168.520095 106.346583 168.108613 106.758065
C167.697131 107.169547 167.465930 107.727715 167.465930 108.309638
C167.465930 108.891562 167.697131 109.449730 168.108613 109.861212
C168.520095 110.272694 169.078263 110.503894 169.660186 110.503894z"/>
</g>
<g id="patch53">
<path style="fill: #999999; stroke: #999999; stroke-width: 0.644675; stroke-linejoin: miter; stroke-linecap: square;  opacity: 1.000000" clip-path="url(#p90f42268ce4d7d9a5e1bd9541dfb4e32)" d="M169.660186 120.657522
C170.242110 120.657522 170.800277 120.426322 171.211759 120.014840
C171.623241 119.603358 171.854442 119.045190 171.854442 118.463266
C171.854442 117.881343 171.623241 117.323175 171.211759 116.911693
C170.800277 116.500211 170.242110 116.269011 169.660186 116.269011
C169.078263 116.269011 168.520095 116.500211 168.108613 116.911693
C167.697131 117.323175 167.465930 117.881343 167.465930 118.463266
C167.465930 119.045190 167.697131 119.603358 168.108613 120.014840
C168.520095 120.426322 169.078263 120.657522 169.660186 120.657522z"/>
</g>
<g id="patch54">
<path style="fill: #999999; stroke: #999999; stroke-width: 0.644675; stroke-linejoin: miter; stroke-linecap: square;  opacity: 1.000000" clip-path="url(#p90f42268ce4d7d9a5e1bd9541dfb4e32)" d="M169.660186 130.811150
C170.242110 130.811150 170.800277 130.579949 171.211759 130.168467
C171.623241 129.756985 171.854442 129.198818 171.854442 128.616894
C171.854442 128.034971 171.623241 127.476803 171.211759 127.065321
C170.800277 126.653839 170.242110 126.422639 169.660186 126.422639
C169.078263 126.422639 168.520095 126.653839 168.108613 127.065321
C167.697131 127.476803 167.465930 128.034971 167.465930 128.616894
C167.465930 129.198818 167.697131 129.756985 168.108613 130.168467
C168.520095 130.579949 169.078263 130.811150 169.660186 130.811150z"/>
</g>
<g id="patch55">
<path style="fill: #999999; stroke: #999999; stroke-width: 0.644675; stroke-linejoin: miter; stroke-linecap: square;  opacity: 1.000000" clip-path="url(#p90f42268ce4d7d9a5e1bd9541dfb4e32)" d="M169.660186 140.964778
C170.242110 140.964778 170.800277 140.733577 171.211759 140.322095
C171.623241 139.910613 171.854442 139.352446 171.854442 138.770522
C171.854442 138.188599 171.623241 137.630431 171.211759 137.218949
C170.800277 136.807467 170.242110 136.576267 169.660186 136.576267
C169.078263 136.576267 168.520095 136.807467 168.108613 137.218949
C167.697131 137.630431 167.465930 138.188599 167.465930 138.770522
C167.465930 139.352446 167.697131 139.910613 168.108613 140.322095
C168.520095 140.733577 169.078263 140.964778 169.660186 140.964778z"/>
</g>
<g id="patch56">
<path style="fill: #999999; stroke: #999999; stroke-width: 0.644675; stroke-linejoin: miter; stroke-linecap: square;  opacity: 1.000000" clip-path="url(#p90f42268ce4d7d9a5e1bd9541dfb4e32)" d="M179.885673 149.257589
C180.467597 149.257589 181.025764 149.026388 181.437246 148.614906
C181.848728 148.203424 182.079929 147.645256 182.079929 147.063333
C182.079929 146.481409 181.848728 145.923242 181.437246 145.511760
C181.025764 145.100278 180.467597 144.869077 179.885673 144.869077
C179.303750 144.869077 178.745582 145.100278 178.334100 145.511760
C177.922618 145.923242 177.691418 146.481409 177.691418 147.063333
C177.691418 147.645256 177.922618 148.203424 178.334100 148.614906
C178.745582 149.026388 179.303750 149.257589 179.885673 149.257589z"/>
</g>
<g id="patch57">
<path style="fill: #999999; stroke: #999999; stroke-width: 0.644675; stroke-linejoin: miter; stroke-linecap: square;  opacity: 1.000000" clip-path="url(#p90f42268ce4d7d9a5e1bd9541dfb4e32)" d="M183.731838 161.848789
C184.313761 161.848789 184.871929 161.617588 185.283411 161.206106
C185.694893 160.794624 185.926093 160.236456 185.926093 159.654533
C185.926093 159.072609 185.694893 158.514442 185.283411 158.102960
C184.871929 157.691478 184.313761 157.460277 183.731838 157.460277
C183.149914 157.460277 182.591746 157.691478 182.180264 158.102960
C181.768782 158.514442 181.537582 159.072609 181.537582 159.654533
C181.537582 160.236456 181.768782 160.794624 182.180264 161.206106
C182.591746 161.617588 183.149914 161.848789 183.731838 161.848789z"/>
</g>
<g id="patch58">
<path style="fill: #999999; stroke: #999999; stroke-width: 0.644675; stroke-linejoin: miter; stroke-linecap: square;  opacity: 1.000000" clip-path="url(#p90f42268ce4d7d9a5e1bd9541dfb4e32)" d="M179.885673 174.439989
C180.467597 174.439989 181.025764 174.208788 181.437246 173.797306
C181.848728 173.385824 182.079929 172.827656 182.079929 172.245733
C182.079929 171.663809 181.848728 171.105642 181.437246 170.694160
C181.025764 170.282678 180.467597 170.051477 179.885673 170.051477
C179.303750 170.051477 178.745582 170.282678 178.334100 170.694160
C177.922618 171.105642 177.691418 171.663809 177.691418 172.245733
C177.691418 172.827656 177.922618 173.385824 178.334100 173.797306
C178.745582 174.208788 179.303750 174.439989 179.885673 174.439989z"/>
</g>
<g id="patch59">
<path style="fill: #999999; stroke: #999999; stroke-width: 0.644675; stroke-linejoin: miter; stroke-linecap: square;  opacity: 1.000000" clip-path="url(#p90f42268ce4d7d9a5e1bd9541dfb4e32)" d="M169.660186 182.732799
C170.242110 182.732799 170.800277 182.501598 171.211759 182.090116
C171.623241 181.678634 171.854442 181.120467 171.854442 180.538543
C171.854442 179.956620 171.623241 179.398452 171.211759 178.986970
C170.800277 178.575488 170.242110 178.344288 169.660186 178.344288
C169.078263 178.344288 168.520095 178.575488 168.108613 178.986970
C167.697131 179.398452 167.465930 179.956620 167.465930 180.538543
C167.465930 181.120467 167.697131 181.678634 168.108613 182.090116
C168.520095 182.501598 169.078263 182.732799 169.660186 182.732799z"/>
</g>
<g id="patch60">
<path style="fill: #999999; stroke: #999999; stroke-width: 0.644675; stroke-linejoin: miter; stroke-linecap: square;  opacity: 1.000000" clip-path="url(#p90f42268ce4d7d9a5e1bd9541dfb4e32)" d="M169.660186 192.886427
C170.242110 192.886427 170.800277 192.655226 171.211759 192.243744
C171.623241 191.832262 171.854442 191.274095 171.854442 190.692171
C171.854442 190.110248 171.623241 189.552080 171.211759 189.140598
C170.800277 188.729116 170.242110 188.497916 169.660186 188.497916
C169.078263 188.497916 168.520095 188.729116 168.108613 189.140598
C167.697131 189.552080 167.465930 190.110248 167.465930 190.692171
C167.465930 191.274095 167.697131 191.832262 168.108613 192.243744
C168.520095 192.655226 169.078263 192.886427 169.660186 192.886427z"/>
</g>
<g id="patch61">
<path style="fill: #999999; stroke: #999999; stroke-width: 0.644675; stroke-linejoin: miter; stroke-linecap: square;  opacity: 1.000000" clip-path="url(#p90f42268ce4d7d9a5e1bd9541dfb4e32)" d="M169.660186 203.040055
C170.242110 203.040055 170.800277 202.808854 171.211759 202.397372
C171.623241 201.985890 171.854442 201.427723 171.854442 200.845799
C171.854442 200.263876 171.623241 199.705708 171.211759 199.294226
C170.800277 198.882744 170.242110 198.651544 169.660186 198.651544
C169.078263 198.651544 168.520095 198.882744 168.108613 199.294226
C167.697131 199.705708 167.465930 200.263876 167.465930 200.845799
C167.465930 201.427723 167.697131 201.985890 168.108613 202.397372
C168.520095 202.808854 169.078263 203.040055 169.660186 203.040055z"/>
</g>
<g id="patch62">
<path style="fill: #999999; stroke: #999999; stroke-width: 0.644675; stroke-linejoin: miter; stroke-linecap: square;  opacity: 1.000000" clip-path="url(#p90f42268ce4d7d9a5e1bd9541dfb4e32)" d="M169.660186 213.193683
C170.242110 213.193683 170.800277 212.962482 171.211759 212.551000
C171.623241 212.139518 171.854442 211.581351 171.854442 210.999427
C171.854442 210.417504 171.623241 209.859336 171.211759 209.447854
C170.800277 209.036372 170.242110 208.805171 169.660186 208.805171
C169.078263 208.805171 168.520095 209.036372 168.108613 209.447854
C167.697131 209.859336 167.465930 210.417504 167.465930 210.999427
C167.465930 211.581351 167.697131 212.139518 168.108613 212.551000
C168.520095 212.962482 169.078263 213.193683 169.660186 213.193683z"/>
</g>
<g id="patch63">
<path style="fill: #999999; stroke: #999999; stroke-width: 0.644675; stroke-linejoin: miter; stroke-linecap: square;  opacity: 1.000000" clip-path="url(#p90f42268ce4d7d9a5e1bd9541dfb4e32)" d="M169.660186 223.347311
C170.242110 223.347311 170.800277 223.116110 171.211759 222.704628
C171.623241 222.293146 171.854442 221.734979 171.854442 221.153055
C171.854442 220.571132 171.623241 220.012964 171.211759 219.601482
C170.800277 219.190000 170.242110 218.958799 169.660186 218.958799
C169.078263 218.958799 168.520095 219.190000 168.108613 219.601482
C167.697131 220.012964 167.465930 220.571132 167.465930 221.153055
C167.465930 221.734979 167.697131 222.293146 168.108613 222.704628
C168.520095 223.116110 169.078263 223.347311 169.660186 223.347311z"/>
</g>
<g id="patch64">
<path style="fill: #999999; stroke: #999999; stroke-width: 0.644675; stroke-linejoin: miter; stroke-linecap: square;  opacity: 1.000000" clip-path="url(#p90f42268ce4d7d9a5e1bd9541dfb4e32)" d="M169.660186 233.500939
C170.242110 233.500939 170.800277 233.269738 171.211759 232.858256
C171.623241 232.446774 171.854442 231.888607 171.854442 231.306683
C171.854442 230.724760 171.623241 230.166592 171.211759 229.755110
C170.800277 229.343628 170.242110 229.112427 169.660186 229.112427
C169.078263 229.112427 168.520095 229.343628 168.108613 229.755110
C167.697131 230.166592 167.465930 230.724760 167.465930 231.306683
C167.465930 231.888607 167.697131 232.446774 168.108613 232.858256
C168.520095 233.269738 169.078263 233.500939 169.660186 233.500939z"/>
</g>
<g id="patch65">
<path style="fill: #999999; stroke: #999999; stroke-width: 0.644675; stroke-linejoin: miter; stroke-linecap: square;  opacity: 1.000000" clip-path="url(#p90f42268ce4d7d9a5e1bd9541dfb4e32)" d="M169.660186 243.654567
C170.242110 243.654567 170.800277 243.423366 171.211759 243.011884
C171.623241 242.600402 171.854442 242.042234 171.854442 241.460311
C171.854442 240.878388 171.623241 240.320220 171.211759 239.908738
C170.800277 239.497256 170.242110 239.266055 169.660186 239.266055
C169.078263 239.266055 168.520095 239.497256 168.108613 239.908738
C167.697131 240.320220 167.465930 240.878388 167.465930 241.460311
C167.465930 242.042234 167.697131 242.600402 168.108613 243.011884
C168.520095 243.423366 169.078263 243.654567 169.660186 243.654567z"/>
</g>
<g id="patch66">
<path style="fill: #999999; stroke: #999999; stroke-width: 0.644675; stroke-linejoin: miter; stroke-linecap: square;  opacity: 1.000000" clip-path="url(#p90f42268ce4d7d9a5e1bd9541dfb4e32)" d="M169.660186 253.808195
C170.242110 253.808195 170.800277 253.576994 171.211759 253.165512
C171.623241 252.754030 171.854442 252.195862 171.854442 251.613939
C171.854442 251.032016 171.623241 250.473848 171.211759 250.062366
C170.800277 249.650884 170.242110 249.419683 169.660186 249.419683
C169.078263 249.419683 168.520095 249.650884 168.108613 250.062366
C167.697131 250.473848 167.465930 251.032016 167.465930 251.613939
C167.465930 252.195862 167.697131 252.754030 168.108613 253.165512
C168.520095 253.576994 169.078263 253.808195 169.660186 253.808195z"/>
</g>
<g id="patch67">
<path style="fill: #999999; stroke: #999999; stroke-width: 0.644675; stroke-linejoin: miter; stroke-linecap: square;  opacity: 1.000000" clip-path="url(#p90f42268ce4d7d9a5e1bd9541dfb4e32)" d="M169.660186 263.961823
C170.242110 263.961823 170.800277 263.730622 171.211759 263.319140
C171.623241 262.907658 171.854442 262.349490 171.854442 261.767567
C171.854442 261.185644 171.623241 260.627476 171.211759 260.215994
C170.800277 259.804512 170.242110 259.573311 169.660186 259.573311
C169.078263 259.573311 168.520095 259.804512 168.108613 260.215994
C167.697131 260.627476 167.465930 261.185644 167.465930 261.767567
C167.465930 262.349490 167.697131 262.907658 168.108613 263.319140
C168.520095 263.730622 169.078263 263.961823 169.660186 263.961823z"/>
</g>
<g id="matplotlib.axis1">
</g>
<g id="matplotlib.axis2">
</g>
</g>
<g id="axes2">
<g id="patch68">
<defs>
  <clipPath id="p9c2409773ed044652cc3da0490230f70">
<rect x="331.776000" y="119.808000" width="129.024000" height="129.024000"/>
  </clipPath>
</defs><path style="fill: #228b22; opacity: 1.000000" clip-path="url(#p9c2409773ed044652cc3da0490230f70)" d="M338.227200 137.226240
C339.424815 137.226240 340.573540 136.750423 341.420381 135.903581
C342.267223 135.056740 342.743040 133.908015 342.743040 132.710400
C342.743040 131.512785 342.267223 130.364060 341.420381 129.517219
C340.573540 128.670377 339.424815 128.194560 338.227200 128.194560
C337.029585 128.194560 335.880860 128.670377 335.034019 129.517219
C334.187177 130.364060 333.711360 131.512785 333.711360 132.710400
C333.711360 133.908015 334.187177 135.056740 335.034019 135.903581
C335.880860 136.750423 337.029585 137.226240 338.227200 137.226240z"/>
</g>
<g id="patch69">
<path style="fill: #1849ff; opacity: 1.000000" clip-path="url(#p9c2409773ed044652cc3da0490230f70)" d="M338.227200 153.354240
C339.424815 153.354240 340.573540 152.878423 341.420381 152.031581
C342.267223 151.184740 342.743040 150.036015 342.743040 148.838400
C342.743040 147.640785 342.267223 146.492060 341.420381 145.645219
C340.573540 144.798377 339.424815 144.322560 338.227200 144.322560
C337.029585 144.322560 335.880860 144.798377 335.034019 145.645219
C334.187177 146.492060 333.711360 147.640785 333.711360 148.838400
C333.711360 150.036015 334.187177 151.184740 335.034019 152.031581
C335.880860 152.878423 337.029585 153.354240 338.227200 153.354240z"/>
</g>
<g id="patch70">
<path style="fill: #000000; opacity: 1.000000" clip-path="url(#p9c2409773ed044652cc3da0490230f70)" d="M338.227200 169.482240
C339.424815 169.482240 340.573540 169.006423 341.420381 168.159581
C342.267223 167.312740 342.743040 166.164015 342.743040 164.966400
C342.743040 163.768785 342.267223 162.620060 341.420381 161.773219
C340.573540 160.926377 339.424815 160.450560 338.227200 160.450560
C337.029585 160.450560 335.880860 160.926377 335.034019 161.773219
C334.187177 162.620060 333.711360 163.768785 333.711360 164.966400
C333.711360 166.164015 334.187177 167.312740 335.034019 168.159581
C335.880860 169.006423 337.029585 169.482240 338.227200 169.482240z"/>
</g>
<g id="patch71">
<path style="fill: #a40000; opacity: 1.000000" clip-path="url(#p9c2409773ed044652cc3da0490230f70)" d="M338.227200 185.610240
C339.424815 185.610240 340.573540 185.134423 341.420381 184.287581
C342.267223 183.440740 342.743040 182.292015 342.743040 181.094400
C342.743040 179.896785 342.267223 178.748060 341.420381 177.901219
C340.573540 177.054377 339.424815 176.578560 338.227200 176.578560
C337.029585 176.578560 335.880860 177.054377 335.034019 177.901219
C334.187177 178.748060 333.711360 179.896785 333.711360 181.094400
C333.711360 182.292015 334.187177 183.440740 335.034019 184.287581
C335.880860 185.134423 337.029585 185.610240 338.227200 185.610240z"/>
</g>
<g id="patch72">
<path style="fill: #999999; opacity: 1.000000" clip-path="url(#p9c2409773ed044652cc3da0490230f70)" d="M338.227200 201.738240
C339.424815 201.738240 340.573540 201.262423 341.420381 200.415581
C342.267223 199.568740 342.743040 198.420015 342.743040 197.222400
C342.743040 196.024785 342.267223 194.876060 341.420381 194.029219
C340.573540 193.182377 339.424815 192.706560 338.227200 192.706560
C337.029585 192.706560 335.880860 193.182377 335.034019 194.029219
C334.187177 194.876060 333.711360 196.024785 333.711360 197.222400
C333.711360 198.420015 334.187177 199.568740 335.034019 200.415581
C335.880860 201.262423 337.029585 201.738240 338.227200 201.738240z"/>
</g>
<g id="text1">
<text style="font-size: 11.000000; font-family: Bitstream Vera Sans; font-style: normal; fill: #000000; opacity: 1.000000" x="347.457725" y="136.718212" >A</text>
</g>
<g id="text2">
<text style="font-size: 11.000000; font-family: Bitstream Vera Sans; font-style: normal; fill: #000000; opacity: 1.000000" x="347.903037" y="152.846212" >C</text>
</g>
<g id="text3">
<text style="font-size: 11.000000; font-family: Bitstream Vera Sans; font-style: normal; fill: #000000; opacity: 1.000000" x="347.629600" y="168.974212" >G</text>
</g>
<g id="text4">
<text style="font-size: 11.000000; font-family: Bitstream Vera Sans; font-style: normal; fill: #000000; opacity: 1.000000" x="348.059287" y="185.024087" >U</text>
</g>
<g id="text5">
<text style="font-size: 11.000000; font-family: Bitstream Vera Sans; font-style: normal; fill: #000000; opacity: 1.000000" x="348.988975" y="201.308337" >?</text>
</g>
</g>
</g>
</svg>
