<?xml version="1.0" encoding="utf-8" standalone="no"?>
<!DOCTYPE svg PUBLIC "-//W3C//DTD SVG 1.1//EN"
  "http://www.w3.org/Graphics/SVG/1.1/DTD/svg11.dtd">
<svg xmlns:xlink="http://www.w3.org/1999/xlink" width="460.8pt" height="345.6pt" viewBox="0 0 460.8 345.6" xmlns="http://www.w3.org/2000/svg" version="1.1">
 <metadata>
  <rdf:RDF xmlns:dc="http://purl.org/dc/elements/1.1/" xmlns:cc="http://creativecommons.org/ns#" xmlns:rdf="http://www.w3.org/1999/02/22-rdf-syntax-ns#">
   <cc:Work>
    <dc:type rdf:resource="http://purl.org/dc/dcmitype/StillImage"/>
    <dc:date>2024-02-10T21:07:34.810795</dc:date>
    <dc:format>image/svg+xml</dc:format>
    <dc:creator>
     <cc:Agent>
      <dc:title>Matplotlib v3.6.3, https://matplotlib.org/</dc:title>
     </cc:Agent>
    </dc:creator>
   </cc:Work>
  </rdf:RDF>
 </metadata>
 <defs>
  <style type="text/css">*{stroke-linejoin: round; stroke-linecap: butt}</style>
 </defs>
 <g id="figure_1">
  <g id="patch_1">
   <path d="M 0 345.6 
L 460.8 345.6 
L 460.8 0 
L 0 0 
L 0 345.6 
z
" style="fill: none"/>
  </g>
  <g id="axes_1">
   <g id="patch_2">
    <path d="M 48.490865 266.87101 
L 457.79976 266.87101 
L 457.79976 19.61124 
L 48.490865 19.61124 
L 48.490865 266.87101 
z
" style="fill: none"/>
   </g>
   <g id="matplotlib.axis_1">
    <g id="xtick_1">
     <g id="line2d_1">
      <defs>
       <path id="m29d920dab6" d="M 0 0 
L 0 3.5 
" style="stroke: #000000; stroke-width: 2"/>
      </defs>
      <g>
       <use xlink:href="#m29d920dab6" x="79.247696" y="266.87101" style="stroke: #000000; stroke-width: 2"/>
      </g>
     </g>
     <g id="text_1">
      <!-- 1843 -->
      <g transform="translate(82.301134 300.56351) rotate(-90) scale(0.12 -0.12)">
       <defs>
        <path id="Helvetica-31" d="M 613 3169 
L 613 3600 
Q 1222 3659 1462 3798 
Q 1703 3938 1822 4456 
L 2266 4456 
L 2266 0 
L 1666 0 
L 1666 3169 
L 613 3169 
z
" transform="scale(0.015625)"/>
        <path id="Helvetica-38" d="M 1741 2600 
Q 2113 2600 2322 2808 
Q 2531 3016 2531 3303 
Q 2531 3553 2331 3762 
Q 2131 3972 1722 3972 
Q 1316 3972 1134 3762 
Q 953 3553 953 3272 
Q 953 2956 1187 2778 
Q 1422 2600 1741 2600 
z
M 1775 384 
Q 2166 384 2423 595 
Q 2681 806 2681 1225 
Q 2681 1659 2415 1884 
Q 2150 2109 1734 2109 
Q 1331 2109 1076 1879 
Q 822 1650 822 1244 
Q 822 894 1055 639 
Q 1288 384 1775 384 
z
M 975 2384 
Q 741 2484 609 2619 
Q 363 2869 363 3269 
Q 363 3769 725 4128 
Q 1088 4488 1753 4488 
Q 2397 4488 2762 4148 
Q 3128 3809 3128 3356 
Q 3128 2938 2916 2678 
Q 2797 2531 2547 2391 
Q 2825 2263 2984 2097 
Q 3281 1784 3281 1284 
Q 3281 694 2884 283 
Q 2488 -128 1763 -128 
Q 1109 -128 657 226 
Q 206 581 206 1256 
Q 206 1653 400 1942 
Q 594 2231 975 2384 
z
" transform="scale(0.015625)"/>
        <path id="Helvetica-34" d="M 2116 1584 
L 2116 3613 
L 681 1584 
L 2116 1584 
z
M 2125 0 
L 2125 1094 
L 163 1094 
L 163 1644 
L 2213 4488 
L 2688 4488 
L 2688 1584 
L 3347 1584 
L 3347 1094 
L 2688 1094 
L 2688 0 
L 2125 0 
z
" transform="scale(0.015625)"/>
        <path id="Helvetica-33" d="M 1663 -122 
Q 869 -122 511 314 
Q 153 750 153 1375 
L 741 1375 
Q 778 941 903 744 
Q 1122 391 1694 391 
Q 2138 391 2406 628 
Q 2675 866 2675 1241 
Q 2675 1703 2392 1887 
Q 2109 2072 1606 2072 
Q 1550 2072 1492 2070 
Q 1434 2069 1375 2066 
L 1375 2563 
Q 1463 2553 1522 2550 
Q 1581 2547 1650 2547 
Q 1966 2547 2169 2647 
Q 2525 2822 2525 3272 
Q 2525 3606 2287 3787 
Q 2050 3969 1734 3969 
Q 1172 3969 956 3594 
Q 838 3388 822 3006 
L 266 3006 
Q 266 3506 466 3856 
Q 809 4481 1675 4481 
Q 2359 4481 2734 4176 
Q 3109 3872 3109 3294 
Q 3109 2881 2888 2625 
Q 2750 2466 2531 2375 
Q 2884 2278 3082 2001 
Q 3281 1725 3281 1325 
Q 3281 684 2859 281 
Q 2438 -122 1663 -122 
z
" transform="scale(0.015625)"/>
       </defs>
       <use xlink:href="#Helvetica-31"/>
       <use xlink:href="#Helvetica-38" x="55.615234"/>
       <use xlink:href="#Helvetica-34" x="111.230469"/>
       <use xlink:href="#Helvetica-33" x="166.845703"/>
      </g>
     </g>
    </g>
    <g id="xtick_2">
     <g id="line2d_2">
      <g>
       <use xlink:href="#m29d920dab6" x="121.150736" y="266.87101" style="stroke: #000000; stroke-width: 2"/>
      </g>
     </g>
     <g id="text_2">
      <!-- 4025 -->
      <g transform="translate(124.204174 300.56351) rotate(-90) scale(0.12 -0.12)">
       <defs>
        <path id="Helvetica-30" d="M 1731 4475 
Q 2600 4475 2988 3759 
Q 3288 3206 3288 2244 
Q 3288 1331 3016 734 
Q 2622 -122 1728 -122 
Q 922 -122 528 578 
Q 200 1163 200 2147 
Q 200 2909 397 3456 
Q 766 4475 1731 4475 
z
M 1725 391 
Q 2163 391 2422 778 
Q 2681 1166 2681 2222 
Q 2681 2984 2493 3476 
Q 2306 3969 1766 3969 
Q 1269 3969 1039 3501 
Q 809 3034 809 2125 
Q 809 1441 956 1025 
Q 1181 391 1725 391 
z
" transform="scale(0.015625)"/>
        <path id="Helvetica-32" d="M 200 0 
Q 231 578 439 1006 
Q 647 1434 1250 1784 
L 1850 2131 
Q 2253 2366 2416 2531 
Q 2672 2791 2672 3125 
Q 2672 3516 2437 3745 
Q 2203 3975 1813 3975 
Q 1234 3975 1013 3538 
Q 894 3303 881 2888 
L 309 2888 
Q 319 3472 525 3841 
Q 891 4491 1816 4491 
Q 2584 4491 2939 4075 
Q 3294 3659 3294 3150 
Q 3294 2613 2916 2231 
Q 2697 2009 2131 1694 
L 1703 1456 
Q 1397 1288 1222 1134 
Q 909 863 828 531 
L 3272 531 
L 3272 0 
L 200 0 
z
" transform="scale(0.015625)"/>
        <path id="Helvetica-35" d="M 791 1141 
Q 847 659 1238 475 
Q 1438 381 1700 381 
Q 2200 381 2440 700 
Q 2681 1019 2681 1406 
Q 2681 1875 2395 2131 
Q 2109 2388 1709 2388 
Q 1419 2388 1211 2275 
Q 1003 2163 856 1963 
L 369 1991 
L 709 4400 
L 3034 4400 
L 3034 3856 
L 1131 3856 
L 941 2613 
Q 1097 2731 1238 2791 
Q 1488 2894 1816 2894 
Q 2431 2894 2859 2497 
Q 3288 2100 3288 1491 
Q 3288 856 2895 371 
Q 2503 -113 1644 -113 
Q 1097 -113 676 195 
Q 256 503 206 1141 
L 791 1141 
z
" transform="scale(0.015625)"/>
       </defs>
       <use xlink:href="#Helvetica-34"/>
       <use xlink:href="#Helvetica-30" x="55.615234"/>
       <use xlink:href="#Helvetica-32" x="111.230469"/>
       <use xlink:href="#Helvetica-35" x="166.845703"/>
      </g>
     </g>
    </g>
    <g id="xtick_3">
     <g id="line2d_3">
      <g>
       <use xlink:href="#m29d920dab6" x="163.053776" y="266.87101" style="stroke: #000000; stroke-width: 2"/>
      </g>
     </g>
     <g id="text_3">
      <!-- 9985 -->
      <g transform="translate(166.107214 300.56351) rotate(-90) scale(0.12 -0.12)">
       <defs>
        <path id="Helvetica-39" d="M 850 1081 
Q 875 616 1209 438 
Q 1381 344 1597 344 
Q 2000 344 2284 680 
Q 2569 1016 2688 2044 
Q 2500 1747 2223 1626 
Q 1947 1506 1628 1506 
Q 981 1506 604 1909 
Q 228 2313 228 2947 
Q 228 3556 600 4018 
Q 972 4481 1697 4481 
Q 2675 4481 3047 3600 
Q 3253 3116 3253 2388 
Q 3253 1566 3006 931 
Q 2597 -125 1619 -125 
Q 963 -125 622 219 
Q 281 563 281 1081 
L 850 1081 
z
M 1703 2000 
Q 2038 2000 2314 2220 
Q 2591 2441 2591 2991 
Q 2591 3484 2342 3726 
Q 2094 3969 1709 3969 
Q 1297 3969 1055 3692 
Q 813 3416 813 2953 
Q 813 2516 1025 2258 
Q 1238 2000 1703 2000 
z
" transform="scale(0.015625)"/>
       </defs>
       <use xlink:href="#Helvetica-39"/>
       <use xlink:href="#Helvetica-39" x="55.615234"/>
       <use xlink:href="#Helvetica-38" x="111.230469"/>
       <use xlink:href="#Helvetica-35" x="166.845703"/>
      </g>
     </g>
    </g>
    <g id="xtick_4">
     <g id="line2d_4">
      <g>
       <use xlink:href="#m29d920dab6" x="204.956816" y="266.87101" style="stroke: #000000; stroke-width: 2"/>
      </g>
     </g>
     <g id="text_4">
      <!-- 28289 -->
      <g transform="translate(208.010254 307.236635) rotate(-90) scale(0.12 -0.12)">
       <use xlink:href="#Helvetica-32"/>
       <use xlink:href="#Helvetica-38" x="55.615234"/>
       <use xlink:href="#Helvetica-32" x="111.230469"/>
       <use xlink:href="#Helvetica-38" x="166.845703"/>
       <use xlink:href="#Helvetica-39" x="222.460938"/>
      </g>
     </g>
    </g>
    <g id="xtick_5">
     <g id="line2d_5">
      <g>
       <use xlink:href="#m29d920dab6" x="246.859856" y="266.87101" style="stroke: #000000; stroke-width: 2"/>
      </g>
     </g>
     <g id="text_5">
      <!-- 90433 -->
      <g transform="translate(249.913294 307.236635) rotate(-90) scale(0.12 -0.12)">
       <use xlink:href="#Helvetica-39"/>
       <use xlink:href="#Helvetica-30" x="55.615234"/>
       <use xlink:href="#Helvetica-34" x="111.230469"/>
       <use xlink:href="#Helvetica-33" x="166.845703"/>
       <use xlink:href="#Helvetica-33" x="222.460938"/>
      </g>
     </g>
    </g>
    <g id="xtick_6">
     <g id="line2d_6">
      <g>
       <use xlink:href="#m29d920dab6" x="288.762897" y="266.87101" style="stroke: #000000; stroke-width: 2"/>
      </g>
     </g>
     <g id="text_6">
      <!-- 316865 -->
      <g transform="translate(291.816334 313.90976) rotate(-90) scale(0.12 -0.12)">
       <defs>
        <path id="Helvetica-36" d="M 1872 4494 
Q 2622 4494 2917 4105 
Q 3213 3716 3213 3303 
L 2656 3303 
Q 2606 3569 2497 3719 
Q 2294 4000 1881 4000 
Q 1409 4000 1131 3564 
Q 853 3128 822 2316 
Q 1016 2600 1309 2741 
Q 1578 2866 1909 2866 
Q 2472 2866 2890 2506 
Q 3309 2147 3309 1434 
Q 3309 825 2912 354 
Q 2516 -116 1781 -116 
Q 1153 -116 697 361 
Q 241 838 241 1966 
Q 241 2800 444 3381 
Q 834 4494 1872 4494 
z
M 1831 384 
Q 2275 384 2495 682 
Q 2716 981 2716 1388 
Q 2716 1731 2519 2042 
Q 2322 2353 1803 2353 
Q 1441 2353 1167 2112 
Q 894 1872 894 1388 
Q 894 963 1142 673 
Q 1391 384 1831 384 
z
" transform="scale(0.015625)"/>
       </defs>
       <use xlink:href="#Helvetica-33"/>
       <use xlink:href="#Helvetica-31" x="55.615234"/>
       <use xlink:href="#Helvetica-36" x="111.230469"/>
       <use xlink:href="#Helvetica-38" x="166.845703"/>
       <use xlink:href="#Helvetica-36" x="222.460938"/>
       <use xlink:href="#Helvetica-35" x="278.076172"/>
      </g>
     </g>
    </g>
    <g id="xtick_7">
     <g id="line2d_7">
      <g>
       <use xlink:href="#m29d920dab6" x="330.665937" y="266.87101" style="stroke: #000000; stroke-width: 2"/>
      </g>
     </g>
     <g id="text_7">
      <!-- 1178305 -->
      <g transform="translate(333.719374 320.582885) rotate(-90) scale(0.12 -0.12)">
       <defs>
        <path id="Helvetica-37" d="M 3347 4400 
L 3347 3909 
Q 3131 3700 2773 3181 
Q 2416 2663 2141 2063 
Q 1869 1478 1728 997 
Q 1638 688 1494 0 
L 872 0 
Q 1084 1281 1809 2550 
Q 2238 3294 2709 3834 
L 234 3834 
L 234 4400 
L 3347 4400 
z
" transform="scale(0.015625)"/>
       </defs>
       <use xlink:href="#Helvetica-31"/>
       <use xlink:href="#Helvetica-31" x="55.615234"/>
       <use xlink:href="#Helvetica-37" x="111.230469"/>
       <use xlink:href="#Helvetica-38" x="166.845703"/>
       <use xlink:href="#Helvetica-33" x="222.460938"/>
       <use xlink:href="#Helvetica-30" x="278.076172"/>
       <use xlink:href="#Helvetica-35" x="333.691406"/>
      </g>
     </g>
    </g>
    <g id="xtick_8">
     <g id="line2d_8">
      <g>
       <use xlink:href="#m29d920dab6" x="372.568977" y="266.87101" style="stroke: #000000; stroke-width: 2"/>
      </g>
     </g>
     <g id="text_8">
      <!-- 4535489 -->
      <g transform="translate(375.622414 320.582885) rotate(-90) scale(0.12 -0.12)">
       <use xlink:href="#Helvetica-34"/>
       <use xlink:href="#Helvetica-35" x="55.615234"/>
       <use xlink:href="#Helvetica-33" x="111.230469"/>
       <use xlink:href="#Helvetica-35" x="166.845703"/>
       <use xlink:href="#Helvetica-34" x="222.460938"/>
       <use xlink:href="#Helvetica-38" x="278.076172"/>
       <use xlink:href="#Helvetica-39" x="333.691406"/>
      </g>
     </g>
    </g>
    <g id="xtick_9">
     <g id="line2d_9">
      <g>
       <use xlink:href="#m29d920dab6" x="414.472017" y="266.87101" style="stroke: #000000; stroke-width: 2"/>
      </g>
     </g>
     <g id="text_9">
      <!-- 17787073 -->
      <g transform="translate(417.525454 327.25601) rotate(-90) scale(0.12 -0.12)">
       <use xlink:href="#Helvetica-31"/>
       <use xlink:href="#Helvetica-37" x="55.615234"/>
       <use xlink:href="#Helvetica-37" x="111.230469"/>
       <use xlink:href="#Helvetica-38" x="166.845703"/>
       <use xlink:href="#Helvetica-37" x="222.460938"/>
       <use xlink:href="#Helvetica-30" x="278.076172"/>
       <use xlink:href="#Helvetica-37" x="333.691406"/>
       <use xlink:href="#Helvetica-33" x="389.306641"/>
      </g>
     </g>
    </g>
    <g id="text_10">
     <!-- Model Size Used for Optimization (Trainable Parameters) -->
     <g transform="translate(100.764062 340.09851) scale(0.12 -0.12)">
      <defs>
       <path id="Helvetica-4d" d="M 472 4591 
L 1363 4591 
L 2681 709 
L 3991 4591 
L 4872 4591 
L 4872 0 
L 4281 0 
L 4281 2709 
Q 4281 2850 4287 3175 
Q 4294 3500 4294 3872 
L 2984 0 
L 2369 0 
L 1050 3872 
L 1050 3731 
Q 1050 3563 1058 3217 
Q 1066 2872 1066 2709 
L 1066 0 
L 472 0 
L 472 4591 
z
" transform="scale(0.015625)"/>
       <path id="Helvetica-6f" d="M 1741 363 
Q 2300 363 2508 786 
Q 2716 1209 2716 1728 
Q 2716 2197 2566 2491 
Q 2328 2953 1747 2953 
Q 1231 2953 997 2559 
Q 763 2166 763 1609 
Q 763 1075 997 719 
Q 1231 363 1741 363 
z
M 1763 3444 
Q 2409 3444 2856 3012 
Q 3303 2581 3303 1744 
Q 3303 934 2909 406 
Q 2516 -122 1688 -122 
Q 997 -122 590 345 
Q 184 813 184 1600 
Q 184 2444 612 2944 
Q 1041 3444 1763 3444 
z
M 1744 3428 
L 1744 3428 
z
" transform="scale(0.015625)"/>
       <path id="Helvetica-64" d="M 769 1634 
Q 769 1097 997 734 
Q 1225 372 1728 372 
Q 2119 372 2370 708 
Q 2622 1044 2622 1672 
Q 2622 2306 2362 2611 
Q 2103 2916 1722 2916 
Q 1297 2916 1033 2591 
Q 769 2266 769 1634 
z
M 1616 3406 
Q 2000 3406 2259 3244 
Q 2409 3150 2600 2916 
L 2600 4606 
L 3141 4606 
L 3141 0 
L 2634 0 
L 2634 466 
Q 2438 156 2169 18 
Q 1900 -119 1553 -119 
Q 994 -119 584 351 
Q 175 822 175 1603 
Q 175 2334 548 2870 
Q 922 3406 1616 3406 
z
" transform="scale(0.015625)"/>
       <path id="Helvetica-65" d="M 1806 3422 
Q 2163 3422 2497 3255 
Q 2831 3088 3006 2822 
Q 3175 2569 3231 2231 
Q 3281 2000 3281 1494 
L 828 1494 
Q 844 984 1069 676 
Q 1294 369 1766 369 
Q 2206 369 2469 659 
Q 2619 828 2681 1050 
L 3234 1050 
Q 3213 866 3089 639 
Q 2966 413 2813 269 
Q 2556 19 2178 -69 
Q 1975 -119 1719 -119 
Q 1094 -119 659 336 
Q 225 791 225 1609 
Q 225 2416 662 2919 
Q 1100 3422 1806 3422 
z
M 2703 1941 
Q 2669 2306 2544 2525 
Q 2313 2931 1772 2931 
Q 1384 2931 1121 2651 
Q 859 2372 844 1941 
L 2703 1941 
z
M 1753 3428 
L 1753 3428 
z
" transform="scale(0.015625)"/>
       <path id="Helvetica-6c" d="M 428 4591 
L 991 4591 
L 991 0 
L 428 0 
L 428 4591 
z
" transform="scale(0.015625)"/>
       <path id="Helvetica-20" transform="scale(0.015625)"/>
       <path id="Helvetica-53" d="M 894 1481 
Q 916 1091 1078 847 
Q 1388 391 2169 391 
Q 2519 391 2806 491 
Q 3363 684 3363 1184 
Q 3363 1559 3128 1719 
Q 2891 1875 2384 1991 
L 1763 2131 
Q 1153 2269 900 2434 
Q 463 2722 463 3294 
Q 463 3913 891 4309 
Q 1319 4706 2103 4706 
Q 2825 4706 3329 4357 
Q 3834 4009 3834 3244 
L 3250 3244 
Q 3203 3613 3050 3809 
Q 2766 4169 2084 4169 
Q 1534 4169 1293 3937 
Q 1053 3706 1053 3400 
Q 1053 3063 1334 2906 
Q 1519 2806 2169 2656 
L 2813 2509 
Q 3278 2403 3531 2219 
Q 3969 1897 3969 1284 
Q 3969 522 3414 194 
Q 2859 -134 2125 -134 
Q 1269 -134 784 303 
Q 300 738 309 1481 
L 894 1481 
z
M 2150 4716 
L 2150 4716 
z
" transform="scale(0.015625)"/>
       <path id="Helvetica-69" d="M 413 3331 
L 984 3331 
L 984 0 
L 413 0 
L 413 3331 
z
M 413 4591 
L 984 4591 
L 984 3953 
L 413 3953 
L 413 4591 
z
" transform="scale(0.015625)"/>
       <path id="Helvetica-7a" d="M 163 444 
L 2147 2844 
L 309 2844 
L 309 3347 
L 2903 3347 
L 2903 2888 
L 931 503 
L 2963 503 
L 2963 0 
L 163 0 
L 163 444 
z
M 1609 3428 
L 1609 3428 
z
" transform="scale(0.015625)"/>
       <path id="Helvetica-55" d="M 1163 4591 
L 1163 1753 
Q 1163 1253 1350 922 
Q 1628 422 2288 422 
Q 3078 422 3363 963 
Q 3516 1256 3516 1753 
L 3516 4591 
L 4147 4591 
L 4147 2013 
Q 4147 1166 3919 709 
Q 3500 -122 2338 -122 
Q 1175 -122 759 709 
Q 531 1166 531 2013 
L 531 4591 
L 1163 4591 
z
M 2341 4591 
L 2341 4591 
z
" transform="scale(0.015625)"/>
       <path id="Helvetica-73" d="M 747 1050 
Q 772 769 888 619 
Q 1100 347 1625 347 
Q 1938 347 2175 483 
Q 2413 619 2413 903 
Q 2413 1119 2222 1231 
Q 2100 1300 1741 1391 
L 1294 1503 
Q 866 1609 663 1741 
Q 300 1969 300 2372 
Q 300 2847 642 3140 
Q 984 3434 1563 3434 
Q 2319 3434 2653 2991 
Q 2863 2709 2856 2384 
L 2325 2384 
Q 2309 2575 2191 2731 
Q 1997 2953 1519 2953 
Q 1200 2953 1036 2831 
Q 872 2709 872 2509 
Q 872 2291 1088 2159 
Q 1213 2081 1456 2022 
L 1828 1931 
Q 2434 1784 2641 1647 
Q 2969 1431 2969 969 
Q 2969 522 2630 197 
Q 2291 -128 1597 -128 
Q 850 -128 539 211 
Q 228 550 206 1050 
L 747 1050 
z
M 1578 3428 
L 1578 3428 
z
" transform="scale(0.015625)"/>
       <path id="Helvetica-66" d="M 553 3856 
Q 566 4206 675 4369 
Q 872 4656 1434 4656 
Q 1488 4656 1544 4653 
Q 1600 4650 1672 4644 
L 1672 4131 
Q 1584 4138 1545 4139 
Q 1506 4141 1472 4141 
Q 1216 4141 1166 4008 
Q 1116 3875 1116 3331 
L 1672 3331 
L 1672 2888 
L 1109 2888 
L 1109 0 
L 553 0 
L 553 2888 
L 88 2888 
L 88 3331 
L 553 3331 
L 553 3856 
z
" transform="scale(0.015625)"/>
       <path id="Helvetica-72" d="M 428 3347 
L 963 3347 
L 963 2769 
Q 1028 2938 1284 3180 
Q 1541 3422 1875 3422 
Q 1891 3422 1928 3419 
Q 1966 3416 2056 3406 
L 2056 2813 
Q 2006 2822 1964 2825 
Q 1922 2828 1872 2828 
Q 1447 2828 1219 2554 
Q 991 2281 991 1925 
L 991 0 
L 428 0 
L 428 3347 
z
" transform="scale(0.015625)"/>
       <path id="Helvetica-4f" d="M 2469 4716 
Q 3684 4716 4269 3934 
Q 4725 3325 4725 2375 
Q 4725 1347 4203 666 
Q 3591 -134 2456 -134 
Q 1397 -134 791 566 
Q 250 1241 250 2272 
Q 250 3203 713 3866 
Q 1306 4716 2469 4716 
z
M 2531 422 
Q 3353 422 3720 1011 
Q 4088 1600 4088 2366 
Q 4088 3175 3664 3669 
Q 3241 4163 2506 4163 
Q 1794 4163 1344 3673 
Q 894 3184 894 2231 
Q 894 1469 1280 945 
Q 1666 422 2531 422 
z
M 2488 4716 
L 2488 4716 
z
" transform="scale(0.015625)"/>
       <path id="Helvetica-70" d="M 1825 378 
Q 2219 378 2480 708 
Q 2741 1038 2741 1694 
Q 2741 2094 2625 2381 
Q 2406 2934 1825 2934 
Q 1241 2934 1025 2350 
Q 909 2038 909 1556 
Q 909 1169 1025 897 
Q 1244 378 1825 378 
z
M 369 3331 
L 916 3331 
L 916 2888 
Q 1084 3116 1284 3241 
Q 1569 3428 1953 3428 
Q 2522 3428 2919 2992 
Q 3316 2556 3316 1747 
Q 3316 653 2744 184 
Q 2381 -113 1900 -113 
Q 1522 -113 1266 53 
Q 1116 147 931 375 
L 931 -1334 
L 369 -1334 
L 369 3331 
z
" transform="scale(0.015625)"/>
       <path id="Helvetica-74" d="M 525 4281 
L 1094 4281 
L 1094 3347 
L 1628 3347 
L 1628 2888 
L 1094 2888 
L 1094 703 
Q 1094 528 1213 469 
Q 1278 434 1431 434 
Q 1472 434 1519 436 
Q 1566 438 1628 444 
L 1628 0 
Q 1531 -28 1426 -40 
Q 1322 -53 1200 -53 
Q 806 -53 665 148 
Q 525 350 525 672 
L 525 2888 
L 72 2888 
L 72 3347 
L 525 3347 
L 525 4281 
z
" transform="scale(0.015625)"/>
       <path id="Helvetica-6d" d="M 413 3347 
L 969 3347 
L 969 2872 
Q 1169 3119 1331 3231 
Q 1609 3422 1963 3422 
Q 2363 3422 2606 3225 
Q 2744 3113 2856 2894 
Q 3044 3163 3297 3292 
Q 3550 3422 3866 3422 
Q 4541 3422 4784 2934 
Q 4916 2672 4916 2228 
L 4916 0 
L 4331 0 
L 4331 2325 
Q 4331 2659 4164 2784 
Q 3997 2909 3756 2909 
Q 3425 2909 3186 2687 
Q 2947 2466 2947 1947 
L 2947 0 
L 2375 0 
L 2375 2184 
Q 2375 2525 2294 2681 
Q 2166 2916 1816 2916 
Q 1497 2916 1236 2669 
Q 975 2422 975 1775 
L 975 0 
L 413 0 
L 413 3347 
z
" transform="scale(0.015625)"/>
       <path id="Helvetica-61" d="M 844 891 
Q 844 647 1022 506 
Q 1200 366 1444 366 
Q 1741 366 2019 503 
Q 2488 731 2488 1250 
L 2488 1703 
Q 2384 1638 2221 1594 
Q 2059 1550 1903 1531 
L 1563 1488 
Q 1256 1447 1103 1359 
Q 844 1213 844 891 
z
M 2206 2028 
Q 2400 2053 2466 2191 
Q 2503 2266 2503 2406 
Q 2503 2694 2298 2823 
Q 2094 2953 1713 2953 
Q 1272 2953 1088 2716 
Q 984 2584 953 2325 
L 428 2325 
Q 444 2944 830 3186 
Q 1216 3428 1725 3428 
Q 2316 3428 2684 3203 
Q 3050 2978 3050 2503 
L 3050 575 
Q 3050 488 3086 434 
Q 3122 381 3238 381 
Q 3275 381 3322 386 
Q 3369 391 3422 400 
L 3422 -16 
Q 3291 -53 3222 -62 
Q 3153 -72 3034 -72 
Q 2744 -72 2613 134 
Q 2544 244 2516 444 
Q 2344 219 2022 53 
Q 1700 -113 1313 -113 
Q 847 -113 551 170 
Q 256 453 256 878 
Q 256 1344 547 1600 
Q 838 1856 1309 1916 
L 2206 2028 
z
M 1741 3428 
L 1741 3428 
z
" transform="scale(0.015625)"/>
       <path id="Helvetica-6e" d="M 413 3347 
L 947 3347 
L 947 2872 
Q 1184 3166 1450 3294 
Q 1716 3422 2041 3422 
Q 2753 3422 3003 2925 
Q 3141 2653 3141 2147 
L 3141 0 
L 2569 0 
L 2569 2109 
Q 2569 2416 2478 2603 
Q 2328 2916 1934 2916 
Q 1734 2916 1606 2875 
Q 1375 2806 1200 2600 
Q 1059 2434 1017 2257 
Q 975 2081 975 1753 
L 975 0 
L 413 0 
L 413 3347 
z
M 1734 3428 
L 1734 3428 
z
" transform="scale(0.015625)"/>
       <path id="Helvetica-28" d="M 1894 4666 
Q 1403 3713 1256 3263 
Q 1034 2578 1034 1681 
Q 1034 775 1288 25 
Q 1444 -438 1903 -1306 
L 1525 -1306 
Q 1069 -594 959 -397 
Q 850 -200 722 138 
Q 547 600 478 1125 
Q 444 1397 444 1644 
Q 444 2569 734 3291 
Q 919 3750 1503 4666 
L 1894 4666 
z
" transform="scale(0.015625)"/>
       <path id="Helvetica-54" d="M 3828 4591 
L 3828 4044 
L 2281 4044 
L 2281 0 
L 1650 0 
L 1650 4044 
L 103 4044 
L 103 4591 
L 3828 4591 
z
" transform="scale(0.015625)"/>
       <path id="Helvetica-62" d="M 369 4606 
L 916 4606 
L 916 2941 
Q 1100 3181 1356 3307 
Q 1613 3434 1913 3434 
Q 2538 3434 2927 3004 
Q 3316 2575 3316 1738 
Q 3316 944 2931 419 
Q 2547 -106 1866 -106 
Q 1484 -106 1222 78 
Q 1066 188 888 428 
L 888 0 
L 369 0 
L 369 4606 
z
M 1831 391 
Q 2288 391 2514 753 
Q 2741 1116 2741 1709 
Q 2741 2238 2514 2584 
Q 2288 2931 1847 2931 
Q 1463 2931 1173 2647 
Q 884 2363 884 1709 
Q 884 1238 1003 944 
Q 1225 391 1831 391 
z
" transform="scale(0.015625)"/>
       <path id="Helvetica-50" d="M 547 4591 
L 2613 4591 
Q 3225 4591 3600 4245 
Q 3975 3900 3975 3275 
Q 3975 2738 3640 2339 
Q 3306 1941 2613 1941 
L 1169 1941 
L 1169 0 
L 547 0 
L 547 4591 
z
M 3347 3272 
Q 3347 3778 2972 3959 
Q 2766 4056 2406 4056 
L 1169 4056 
L 1169 2466 
L 2406 2466 
Q 2825 2466 3086 2644 
Q 3347 2822 3347 3272 
z
" transform="scale(0.015625)"/>
       <path id="Helvetica-29" d="M 222 -1306 
Q 719 -338 863 106 
Q 1081 778 1081 1681 
Q 1081 2584 828 3334 
Q 672 3797 213 4666 
L 591 4666 
Q 1072 3897 1173 3717 
Q 1275 3538 1394 3222 
Q 1544 2831 1608 2450 
Q 1672 2069 1672 1716 
Q 1672 791 1378 66 
Q 1194 -400 613 -1306 
L 222 -1306 
z
" transform="scale(0.015625)"/>
      </defs>
      <use xlink:href="#Helvetica-4d"/>
      <use xlink:href="#Helvetica-6f" x="83.300781"/>
      <use xlink:href="#Helvetica-64" x="138.916016"/>
      <use xlink:href="#Helvetica-65" x="194.53125"/>
      <use xlink:href="#Helvetica-6c" x="250.146484"/>
      <use xlink:href="#Helvetica-20" x="272.363281"/>
      <use xlink:href="#Helvetica-53" x="300.146484"/>
      <use xlink:href="#Helvetica-69" x="366.845703"/>
      <use xlink:href="#Helvetica-7a" x="389.0625"/>
      <use xlink:href="#Helvetica-65" x="439.0625"/>
      <use xlink:href="#Helvetica-20" x="494.677734"/>
      <use xlink:href="#Helvetica-55" x="522.460938"/>
      <use xlink:href="#Helvetica-73" x="594.677734"/>
      <use xlink:href="#Helvetica-65" x="644.677734"/>
      <use xlink:href="#Helvetica-64" x="700.292969"/>
      <use xlink:href="#Helvetica-20" x="755.908203"/>
      <use xlink:href="#Helvetica-66" x="783.691406"/>
      <use xlink:href="#Helvetica-6f" x="811.474609"/>
      <use xlink:href="#Helvetica-72" x="867.089844"/>
      <use xlink:href="#Helvetica-20" x="900.390625"/>
      <use xlink:href="#Helvetica-4f" x="928.173828"/>
      <use xlink:href="#Helvetica-70" x="1005.957031"/>
      <use xlink:href="#Helvetica-74" x="1061.572266"/>
      <use xlink:href="#Helvetica-69" x="1089.355469"/>
      <use xlink:href="#Helvetica-6d" x="1111.572266"/>
      <use xlink:href="#Helvetica-69" x="1194.873047"/>
      <use xlink:href="#Helvetica-7a" x="1217.089844"/>
      <use xlink:href="#Helvetica-61" x="1267.089844"/>
      <use xlink:href="#Helvetica-74" x="1322.705078"/>
      <use xlink:href="#Helvetica-69" x="1350.488281"/>
      <use xlink:href="#Helvetica-6f" x="1372.705078"/>
      <use xlink:href="#Helvetica-6e" x="1428.320312"/>
      <use xlink:href="#Helvetica-20" x="1483.935547"/>
      <use xlink:href="#Helvetica-28" x="1511.71875"/>
      <use xlink:href="#Helvetica-54" x="1545.019531"/>
      <use xlink:href="#Helvetica-72" x="1606.103516"/>
      <use xlink:href="#Helvetica-61" x="1639.404297"/>
      <use xlink:href="#Helvetica-69" x="1695.019531"/>
      <use xlink:href="#Helvetica-6e" x="1717.236328"/>
      <use xlink:href="#Helvetica-61" x="1772.851562"/>
      <use xlink:href="#Helvetica-62" x="1828.466797"/>
      <use xlink:href="#Helvetica-6c" x="1884.082031"/>
      <use xlink:href="#Helvetica-65" x="1906.298828"/>
      <use xlink:href="#Helvetica-20" x="1961.914062"/>
      <use xlink:href="#Helvetica-50" x="1989.697266"/>
      <use xlink:href="#Helvetica-61" x="2056.396484"/>
      <use xlink:href="#Helvetica-72" x="2112.011719"/>
      <use xlink:href="#Helvetica-61" x="2145.3125"/>
      <use xlink:href="#Helvetica-6d" x="2200.927734"/>
      <use xlink:href="#Helvetica-65" x="2284.228516"/>
      <use xlink:href="#Helvetica-74" x="2339.84375"/>
      <use xlink:href="#Helvetica-65" x="2367.626953"/>
      <use xlink:href="#Helvetica-72" x="2423.242188"/>
      <use xlink:href="#Helvetica-73" x="2456.542969"/>
      <use xlink:href="#Helvetica-29" x="2506.542969"/>
     </g>
    </g>
   </g>
   <g id="matplotlib.axis_2">
    <g id="ytick_1">
     <g id="line2d_10">
      <defs>
       <path id="m3306efb3e5" d="M 0 0 
L -3.5 0 
" style="stroke: #000000; stroke-width: 2"/>
      </defs>
      <g>
       <use xlink:href="#m3306efb3e5" x="48.490865" y="266.87101" style="stroke: #000000; stroke-width: 2"/>
      </g>
     </g>
     <g id="text_11">
      <!-- 0.00 -->
      <g transform="translate(18.13774 271.175072) scale(0.12 -0.12)">
       <defs>
        <path id="Helvetica-2e" d="M 547 681 
L 1200 681 
L 1200 0 
L 547 0 
L 547 681 
z
" transform="scale(0.015625)"/>
       </defs>
       <use xlink:href="#Helvetica-30"/>
       <use xlink:href="#Helvetica-2e" x="55.615234"/>
       <use xlink:href="#Helvetica-30" x="83.398438"/>
       <use xlink:href="#Helvetica-30" x="139.013672"/>
      </g>
     </g>
    </g>
    <g id="ytick_2">
     <g id="line2d_11">
      <g>
       <use xlink:href="#m3306efb3e5" x="48.490865" y="228.287156" style="stroke: #000000; stroke-width: 2"/>
      </g>
     </g>
     <g id="text_12">
      <!-- 0.05 -->
      <g transform="translate(18.13774 232.591219) scale(0.12 -0.12)">
       <use xlink:href="#Helvetica-30"/>
       <use xlink:href="#Helvetica-2e" x="55.615234"/>
       <use xlink:href="#Helvetica-30" x="83.398438"/>
       <use xlink:href="#Helvetica-35" x="139.013672"/>
      </g>
     </g>
    </g>
    <g id="ytick_3">
     <g id="line2d_12">
      <g>
       <use xlink:href="#m3306efb3e5" x="48.490865" y="189.703302" style="stroke: #000000; stroke-width: 2"/>
      </g>
     </g>
     <g id="text_13">
      <!-- 0.10 -->
      <g transform="translate(18.13774 194.007365) scale(0.12 -0.12)">
       <use xlink:href="#Helvetica-30"/>
       <use xlink:href="#Helvetica-2e" x="55.615234"/>
       <use xlink:href="#Helvetica-31" x="83.398438"/>
       <use xlink:href="#Helvetica-30" x="139.013672"/>
      </g>
     </g>
    </g>
    <g id="ytick_4">
     <g id="line2d_13">
      <g>
       <use xlink:href="#m3306efb3e5" x="48.490865" y="151.119448" style="stroke: #000000; stroke-width: 2"/>
      </g>
     </g>
     <g id="text_14">
      <!-- 0.15 -->
      <g transform="translate(18.13774 155.423511) scale(0.12 -0.12)">
       <use xlink:href="#Helvetica-30"/>
       <use xlink:href="#Helvetica-2e" x="55.615234"/>
       <use xlink:href="#Helvetica-31" x="83.398438"/>
       <use xlink:href="#Helvetica-35" x="139.013672"/>
      </g>
     </g>
    </g>
    <g id="ytick_5">
     <g id="line2d_14">
      <g>
       <use xlink:href="#m3306efb3e5" x="48.490865" y="112.535594" style="stroke: #000000; stroke-width: 2"/>
      </g>
     </g>
     <g id="text_15">
      <!-- 0.20 -->
      <g transform="translate(18.13774 116.839657) scale(0.12 -0.12)">
       <use xlink:href="#Helvetica-30"/>
       <use xlink:href="#Helvetica-2e" x="55.615234"/>
       <use xlink:href="#Helvetica-32" x="83.398438"/>
       <use xlink:href="#Helvetica-30" x="139.013672"/>
      </g>
     </g>
    </g>
    <g id="ytick_6">
     <g id="line2d_15">
      <g>
       <use xlink:href="#m3306efb3e5" x="48.490865" y="73.951741" style="stroke: #000000; stroke-width: 2"/>
      </g>
     </g>
     <g id="text_16">
      <!-- 0.25 -->
      <g transform="translate(18.13774 78.255803) scale(0.12 -0.12)">
       <use xlink:href="#Helvetica-30"/>
       <use xlink:href="#Helvetica-2e" x="55.615234"/>
       <use xlink:href="#Helvetica-32" x="83.398438"/>
       <use xlink:href="#Helvetica-35" x="139.013672"/>
      </g>
     </g>
    </g>
    <g id="ytick_7">
     <g id="line2d_16">
      <g>
       <use xlink:href="#m3306efb3e5" x="48.490865" y="35.367887" style="stroke: #000000; stroke-width: 2"/>
      </g>
     </g>
     <g id="text_17">
      <!-- 0.30 -->
      <g transform="translate(18.13774 39.671949) scale(0.12 -0.12)">
       <use xlink:href="#Helvetica-30"/>
       <use xlink:href="#Helvetica-2e" x="55.615234"/>
       <use xlink:href="#Helvetica-33" x="83.398438"/>
       <use xlink:href="#Helvetica-30" x="139.013672"/>
      </g>
     </g>
    </g>
    <g id="text_18">
     <!-- Predicted Improvement -->
     <g transform="translate(11.63649 205.26425) rotate(-90) scale(0.12 -0.12)">
      <defs>
       <path id="Helvetica-63" d="M 1703 3444 
Q 2269 3444 2623 3169 
Q 2978 2894 3050 2222 
L 2503 2222 
Q 2453 2531 2275 2736 
Q 2097 2941 1703 2941 
Q 1166 2941 934 2416 
Q 784 2075 784 1575 
Q 784 1072 996 728 
Q 1209 384 1666 384 
Q 2016 384 2220 598 
Q 2425 813 2503 1184 
L 3050 1184 
Q 2956 519 2581 211 
Q 2206 -97 1622 -97 
Q 966 -97 575 383 
Q 184 863 184 1581 
Q 184 2463 612 2953 
Q 1041 3444 1703 3444 
z
M 1616 3428 
L 1616 3428 
z
" transform="scale(0.015625)"/>
       <path id="Helvetica-49" d="M 628 4591 
L 1256 4591 
L 1256 0 
L 628 0 
L 628 4591 
z
" transform="scale(0.015625)"/>
       <path id="Helvetica-76" d="M 688 3347 
L 1581 622 
L 2516 3347 
L 3131 3347 
L 1869 0 
L 1269 0 
L 34 3347 
L 688 3347 
z
" transform="scale(0.015625)"/>
      </defs>
      <use xlink:href="#Helvetica-50"/>
      <use xlink:href="#Helvetica-72" x="66.699219"/>
      <use xlink:href="#Helvetica-65" x="100"/>
      <use xlink:href="#Helvetica-64" x="155.615234"/>
      <use xlink:href="#Helvetica-69" x="211.230469"/>
      <use xlink:href="#Helvetica-63" x="233.447266"/>
      <use xlink:href="#Helvetica-74" x="283.447266"/>
      <use xlink:href="#Helvetica-65" x="311.230469"/>
      <use xlink:href="#Helvetica-64" x="366.845703"/>
      <use xlink:href="#Helvetica-20" x="422.460938"/>
      <use xlink:href="#Helvetica-49" x="450.244141"/>
      <use xlink:href="#Helvetica-6d" x="478.027344"/>
      <use xlink:href="#Helvetica-70" x="561.328125"/>
      <use xlink:href="#Helvetica-72" x="616.943359"/>
      <use xlink:href="#Helvetica-6f" x="650.244141"/>
      <use xlink:href="#Helvetica-76" x="705.859375"/>
      <use xlink:href="#Helvetica-65" x="755.859375"/>
      <use xlink:href="#Helvetica-6d" x="811.474609"/>
      <use xlink:href="#Helvetica-65" x="894.775391"/>
      <use xlink:href="#Helvetica-6e" x="950.390625"/>
      <use xlink:href="#Helvetica-74" x="1006.005859"/>
     </g>
    </g>
   </g>
   <g id="patch_3">
    <path d="M 67.095815 266.87101 
L 70.448058 266.87101 
L 70.448058 99.336609 
L 67.095815 99.336609 
z
" clip-path="url(#p153f69260a)" style="fill: #c62626; stroke: #000000; stroke-linejoin: miter"/>
   </g>
   <g id="patch_4">
    <path d="M 71.286119 266.87101 
L 74.638362 266.87101 
L 74.638362 126.492214 
L 71.286119 126.492214 
z
" clip-path="url(#p153f69260a)" style="fill: #2e9ad6; stroke: #000000; stroke-linejoin: miter"/>
   </g>
   <g id="patch_5">
    <path d="M 75.476423 266.87101 
L 78.828666 266.87101 
L 78.828666 108.298127 
L 75.476423 108.298127 
z
" clip-path="url(#p153f69260a)" style="fill: #2e9ad6; stroke: #000000; stroke-linejoin: miter"/>
   </g>
   <g id="patch_6">
    <path d="M 79.666727 266.87101 
L 83.01897 266.87101 
L 83.01897 97.562446 
L 79.666727 97.562446 
z
" clip-path="url(#p153f69260a)" style="fill: #2e9ad6; stroke: #000000; stroke-linejoin: miter"/>
   </g>
   <g id="patch_7">
    <path d="M 83.857031 266.87101 
L 87.209274 266.87101 
L 87.209274 108.034158 
L 83.857031 108.034158 
z
" clip-path="url(#p153f69260a)" style="fill: #2e9ad6; stroke: #000000; stroke-linejoin: miter"/>
   </g>
   <g id="patch_8">
    <path d="M 88.047335 266.87101 
L 91.399578 266.87101 
L 91.399578 96.845008 
L 88.047335 96.845008 
z
" clip-path="url(#p153f69260a)" style="fill: #2e9ad6; stroke: #000000; stroke-linejoin: miter"/>
   </g>
   <g id="patch_9">
    <path d="M 92.237639 266.87101 
L 95.589882 266.87101 
L 95.589882 114.022467 
L 92.237639 114.022467 
z
" clip-path="url(#p153f69260a)" style="fill: #2e9ad6; stroke: #000000; stroke-linejoin: miter"/>
   </g>
   <g id="patch_10">
    <path d="M 96.427943 266.87101 
L 99.780186 266.87101 
L 99.780186 110.781334 
L 96.427943 110.781334 
z
" clip-path="url(#p153f69260a)" style="fill: #2e9ad6; stroke: #000000; stroke-linejoin: miter"/>
   </g>
   <g id="patch_11">
    <path d="M 100.618247 266.87101 
L 103.97049 266.87101 
L 103.97049 99.092706 
L 100.618247 99.092706 
z
" clip-path="url(#p153f69260a)" style="fill: #2e9ad6; stroke: #000000; stroke-linejoin: miter"/>
   </g>
   <g id="patch_12">
    <path d="M 108.998855 266.87101 
L 112.351098 266.87101 
L 112.351098 172.809456 
L 108.998855 172.809456 
z
" clip-path="url(#p153f69260a)" style="fill: #2e9ad6; stroke: #000000; stroke-linejoin: miter"/>
   </g>
   <g id="patch_13">
    <path d="M 113.189159 266.87101 
L 116.541402 266.87101 
L 116.541402 150.642665 
L 113.189159 150.642665 
z
" clip-path="url(#p153f69260a)" style="fill: #c62626; stroke: #000000; stroke-linejoin: miter"/>
   </g>
   <g id="patch_14">
    <path d="M 117.379463 266.87101 
L 120.731706 266.87101 
L 120.731706 156.767546 
L 117.379463 156.767546 
z
" clip-path="url(#p153f69260a)" style="fill: #2e9ad6; stroke: #000000; stroke-linejoin: miter"/>
   </g>
   <g id="patch_15">
    <path d="M 121.569767 266.87101 
L 124.92201 266.87101 
L 124.92201 144.931721 
L 121.569767 144.931721 
z
" clip-path="url(#p153f69260a)" style="fill: #2e9ad6; stroke: #000000; stroke-linejoin: miter"/>
   </g>
   <g id="patch_16">
    <path d="M 125.760071 266.87101 
L 129.112314 266.87101 
L 129.112314 142.021871 
L 125.760071 142.021871 
z
" clip-path="url(#p153f69260a)" style="fill: #2e9ad6; stroke: #000000; stroke-linejoin: miter"/>
   </g>
   <g id="patch_17">
    <path d="M 129.950375 266.87101 
L 133.302618 266.87101 
L 133.302618 149.302149 
L 129.950375 149.302149 
z
" clip-path="url(#p153f69260a)" style="fill: #2e9ad6; stroke: #000000; stroke-linejoin: miter"/>
   </g>
   <g id="patch_18">
    <path d="M 134.140679 266.87101 
L 137.492922 266.87101 
L 137.492922 158.540628 
L 134.140679 158.540628 
z
" clip-path="url(#p153f69260a)" style="fill: #2e9ad6; stroke: #000000; stroke-linejoin: miter"/>
   </g>
   <g id="patch_19">
    <path d="M 138.330983 266.87101 
L 141.683226 266.87101 
L 141.683226 162.990168 
L 138.330983 162.990168 
z
" clip-path="url(#p153f69260a)" style="fill: #2e9ad6; stroke: #000000; stroke-linejoin: miter"/>
   </g>
   <g id="patch_20">
    <path d="M 142.521287 266.87101 
L 145.87353 266.87101 
L 145.87353 144.586123 
L 142.521287 144.586123 
z
" clip-path="url(#p153f69260a)" style="fill: #2e9ad6; stroke: #000000; stroke-linejoin: miter"/>
   </g>
   <g id="patch_21">
    <path d="M 150.901895 266.87101 
L 154.254138 266.87101 
L 154.254138 148.885785 
L 150.901895 148.885785 
z
" clip-path="url(#p153f69260a)" style="fill: #2e9ad6; stroke: #000000; stroke-linejoin: miter"/>
   </g>
   <g id="patch_22">
    <path d="M 155.092199 266.87101 
L 158.444442 266.87101 
L 158.444442 150.841251 
L 155.092199 150.841251 
z
" clip-path="url(#p153f69260a)" style="fill: #2e9ad6; stroke: #000000; stroke-linejoin: miter"/>
   </g>
   <g id="patch_23">
    <path d="M 159.282503 266.87101 
L 162.634746 266.87101 
L 162.634746 100.538668 
L 159.282503 100.538668 
z
" clip-path="url(#p153f69260a)" style="fill: #c62626; stroke: #000000; stroke-linejoin: miter"/>
   </g>
   <g id="patch_24">
    <path d="M 163.472807 266.87101 
L 166.82505 266.87101 
L 166.82505 127.26303 
L 163.472807 127.26303 
z
" clip-path="url(#p153f69260a)" style="fill: #2e9ad6; stroke: #000000; stroke-linejoin: miter"/>
   </g>
   <g id="patch_25">
    <path d="M 167.663111 266.87101 
L 171.015354 266.87101 
L 171.015354 111.728209 
L 167.663111 111.728209 
z
" clip-path="url(#p153f69260a)" style="fill: #2e9ad6; stroke: #000000; stroke-linejoin: miter"/>
   </g>
   <g id="patch_26">
    <path d="M 171.853415 266.87101 
L 175.205658 266.87101 
L 175.205658 110.773676 
L 171.853415 110.773676 
z
" clip-path="url(#p153f69260a)" style="fill: #2e9ad6; stroke: #000000; stroke-linejoin: miter"/>
   </g>
   <g id="patch_27">
    <path d="M 176.043719 266.87101 
L 179.395962 266.87101 
L 179.395962 117.629035 
L 176.043719 117.629035 
z
" clip-path="url(#p153f69260a)" style="fill: #2e9ad6; stroke: #000000; stroke-linejoin: miter"/>
   </g>
   <g id="patch_28">
    <path d="M 180.234023 266.87101 
L 183.586266 266.87101 
L 183.586266 109.525794 
L 180.234023 109.525794 
z
" clip-path="url(#p153f69260a)" style="fill: #2e9ad6; stroke: #000000; stroke-linejoin: miter"/>
   </g>
   <g id="patch_29">
    <path d="M 184.424327 266.87101 
L 187.77657 266.87101 
L 187.77657 126.078196 
L 184.424327 126.078196 
z
" clip-path="url(#p153f69260a)" style="fill: #2e9ad6; stroke: #000000; stroke-linejoin: miter"/>
   </g>
   <g id="patch_30">
    <path d="M 192.804935 266.87101 
L 196.157178 266.87101 
L 196.157178 171.457297 
L 192.804935 171.457297 
z
" clip-path="url(#p153f69260a)" style="fill: #2e9ad6; stroke: #000000; stroke-linejoin: miter"/>
   </g>
   <g id="patch_31">
    <path d="M 196.995239 266.87101 
L 200.347482 266.87101 
L 200.347482 173.419777 
L 196.995239 173.419777 
z
" clip-path="url(#p153f69260a)" style="fill: #2e9ad6; stroke: #000000; stroke-linejoin: miter"/>
   </g>
   <g id="patch_32">
    <path d="M 201.185543 266.87101 
L 204.537786 266.87101 
L 204.537786 161.740814 
L 201.185543 161.740814 
z
" clip-path="url(#p153f69260a)" style="fill: #2e9ad6; stroke: #000000; stroke-linejoin: miter"/>
   </g>
   <g id="patch_33">
    <path d="M 205.375847 266.87101 
L 208.72809 266.87101 
L 208.72809 101.838387 
L 205.375847 101.838387 
z
" clip-path="url(#p153f69260a)" style="fill: #c62626; stroke: #000000; stroke-linejoin: miter"/>
   </g>
   <g id="patch_34">
    <path d="M 209.566151 266.87101 
L 212.918394 266.87101 
L 212.918394 150.600396 
L 209.566151 150.600396 
z
" clip-path="url(#p153f69260a)" style="fill: #2e9ad6; stroke: #000000; stroke-linejoin: miter"/>
   </g>
   <g id="patch_35">
    <path d="M 213.756455 266.87101 
L 217.108698 266.87101 
L 217.108698 138.700809 
L 213.756455 138.700809 
z
" clip-path="url(#p153f69260a)" style="fill: #2e9ad6; stroke: #000000; stroke-linejoin: miter"/>
   </g>
   <g id="patch_36">
    <path d="M 217.946759 266.87101 
L 221.299002 266.87101 
L 221.299002 119.503571 
L 217.946759 119.503571 
z
" clip-path="url(#p153f69260a)" style="fill: #2e9ad6; stroke: #000000; stroke-linejoin: miter"/>
   </g>
   <g id="patch_37">
    <path d="M 222.137063 266.87101 
L 225.489306 266.87101 
L 225.489306 151.205271 
L 222.137063 151.205271 
z
" clip-path="url(#p153f69260a)" style="fill: #2e9ad6; stroke: #000000; stroke-linejoin: miter"/>
   </g>
   <g id="patch_38">
    <path d="M 226.327367 266.87101 
L 229.67961 266.87101 
L 229.67961 141.564607 
L 226.327367 141.564607 
z
" clip-path="url(#p153f69260a)" style="fill: #2e9ad6; stroke: #000000; stroke-linejoin: miter"/>
   </g>
   <g id="patch_39">
    <path d="M 234.707975 266.87101 
L 238.060218 266.87101 
L 238.060218 181.365604 
L 234.707975 181.365604 
z
" clip-path="url(#p153f69260a)" style="fill: #2e9ad6; stroke: #000000; stroke-linejoin: miter"/>
   </g>
   <g id="patch_40">
    <path d="M 238.898279 266.87101 
L 242.250522 266.87101 
L 242.250522 184.908594 
L 238.898279 184.908594 
z
" clip-path="url(#p153f69260a)" style="fill: #2e9ad6; stroke: #000000; stroke-linejoin: miter"/>
   </g>
   <g id="patch_41">
    <path d="M 243.088583 266.87101 
L 246.440826 266.87101 
L 246.440826 166.584064 
L 243.088583 166.584064 
z
" clip-path="url(#p153f69260a)" style="fill: #2e9ad6; stroke: #000000; stroke-linejoin: miter"/>
   </g>
   <g id="patch_42">
    <path d="M 247.278887 266.87101 
L 250.63113 266.87101 
L 250.63113 155.163475 
L 247.278887 155.163475 
z
" clip-path="url(#p153f69260a)" style="fill: #2e9ad6; stroke: #000000; stroke-linejoin: miter"/>
   </g>
   <g id="patch_43">
    <path d="M 251.469191 266.87101 
L 254.821434 266.87101 
L 254.821434 81.398775 
L 251.469191 81.398775 
z
" clip-path="url(#p153f69260a)" style="fill: #c62626; stroke: #000000; stroke-linejoin: miter"/>
   </g>
   <g id="patch_44">
    <path d="M 255.659495 266.87101 
L 259.011738 266.87101 
L 259.011738 134.891677 
L 255.659495 134.891677 
z
" clip-path="url(#p153f69260a)" style="fill: #2e9ad6; stroke: #000000; stroke-linejoin: miter"/>
   </g>
   <g id="patch_45">
    <path d="M 259.849799 266.87101 
L 263.202042 266.87101 
L 263.202042 138.248754 
L 259.849799 138.248754 
z
" clip-path="url(#p153f69260a)" style="fill: #2e9ad6; stroke: #000000; stroke-linejoin: miter"/>
   </g>
   <g id="patch_46">
    <path d="M 264.040103 266.87101 
L 267.392346 266.87101 
L 267.392346 144.888785 
L 264.040103 144.888785 
z
" clip-path="url(#p153f69260a)" style="fill: #2e9ad6; stroke: #000000; stroke-linejoin: miter"/>
   </g>
   <g id="patch_47">
    <path d="M 268.230407 266.87101 
L 271.58265 266.87101 
L 271.58265 141.852826 
L 268.230407 141.852826 
z
" clip-path="url(#p153f69260a)" style="fill: #2e9ad6; stroke: #000000; stroke-linejoin: miter"/>
   </g>
   <g id="patch_48">
    <path d="M 276.611015 266.87101 
L 279.963258 266.87101 
L 279.963258 183.111025 
L 276.611015 183.111025 
z
" clip-path="url(#p153f69260a)" style="fill: #2e9ad6; stroke: #000000; stroke-linejoin: miter"/>
   </g>
   <g id="patch_49">
    <path d="M 280.801319 266.87101 
L 284.153562 266.87101 
L 284.153562 190.973686 
L 280.801319 190.973686 
z
" clip-path="url(#p153f69260a)" style="fill: #2e9ad6; stroke: #000000; stroke-linejoin: miter"/>
   </g>
   <g id="patch_50">
    <path d="M 284.991623 266.87101 
L 288.343866 266.87101 
L 288.343866 171.450978 
L 284.991623 171.450978 
z
" clip-path="url(#p153f69260a)" style="fill: #2e9ad6; stroke: #000000; stroke-linejoin: miter"/>
   </g>
   <g id="patch_51">
    <path d="M 289.181927 266.87101 
L 292.53417 266.87101 
L 292.53417 162.56042 
L 289.181927 162.56042 
z
" clip-path="url(#p153f69260a)" style="fill: #2e9ad6; stroke: #000000; stroke-linejoin: miter"/>
   </g>
   <g id="patch_52">
    <path d="M 293.372231 266.87101 
L 296.724474 266.87101 
L 296.724474 138.392317 
L 293.372231 138.392317 
z
" clip-path="url(#p153f69260a)" style="fill: #2e9ad6; stroke: #000000; stroke-linejoin: miter"/>
   </g>
   <g id="patch_53">
    <path d="M 297.562535 266.87101 
L 300.914778 266.87101 
L 300.914778 81.84745 
L 297.562535 81.84745 
z
" clip-path="url(#p153f69260a)" style="fill: #c62626; stroke: #000000; stroke-linejoin: miter"/>
   </g>
   <g id="patch_54">
    <path d="M 301.752839 266.87101 
L 305.105082 266.87101 
L 305.105082 152.47829 
L 301.752839 152.47829 
z
" clip-path="url(#p153f69260a)" style="fill: #2e9ad6; stroke: #000000; stroke-linejoin: miter"/>
   </g>
   <g id="patch_55">
    <path d="M 305.943143 266.87101 
L 309.295386 266.87101 
L 309.295386 144.106895 
L 305.943143 144.106895 
z
" clip-path="url(#p153f69260a)" style="fill: #2e9ad6; stroke: #000000; stroke-linejoin: miter"/>
   </g>
   <g id="patch_56">
    <path d="M 310.133447 266.87101 
L 313.48569 266.87101 
L 313.48569 139.415063 
L 310.133447 139.415063 
z
" clip-path="url(#p153f69260a)" style="fill: #2e9ad6; stroke: #000000; stroke-linejoin: miter"/>
   </g>
   <g id="patch_57">
    <path d="M 318.514055 266.87101 
L 321.866298 266.87101 
L 321.866298 183.856113 
L 318.514055 183.856113 
z
" clip-path="url(#p153f69260a)" style="fill: #2e9ad6; stroke: #000000; stroke-linejoin: miter"/>
   </g>
   <g id="patch_58">
    <path d="M 322.704359 266.87101 
L 326.056602 266.87101 
L 326.056602 182.506172 
L 322.704359 182.506172 
z
" clip-path="url(#p153f69260a)" style="fill: #2e9ad6; stroke: #000000; stroke-linejoin: miter"/>
   </g>
   <g id="patch_59">
    <path d="M 326.894663 266.87101 
L 330.246906 266.87101 
L 330.246906 161.758971 
L 326.894663 161.758971 
z
" clip-path="url(#p153f69260a)" style="fill: #2e9ad6; stroke: #000000; stroke-linejoin: miter"/>
   </g>
   <g id="patch_60">
    <path d="M 331.084967 266.87101 
L 334.43721 266.87101 
L 334.43721 149.507208 
L 331.084967 149.507208 
z
" clip-path="url(#p153f69260a)" style="fill: #2e9ad6; stroke: #000000; stroke-linejoin: miter"/>
   </g>
   <g id="patch_61">
    <path d="M 335.275271 266.87101 
L 338.627514 266.87101 
L 338.627514 149.150444 
L 335.275271 149.150444 
z
" clip-path="url(#p153f69260a)" style="fill: #2e9ad6; stroke: #000000; stroke-linejoin: miter"/>
   </g>
   <g id="patch_62">
    <path d="M 339.465575 266.87101 
L 342.817818 266.87101 
L 342.817818 121.995138 
L 339.465575 121.995138 
z
" clip-path="url(#p153f69260a)" style="fill: #2e9ad6; stroke: #000000; stroke-linejoin: miter"/>
   </g>
   <g id="patch_63">
    <path d="M 343.655879 266.87101 
L 347.008122 266.87101 
L 347.008122 44.279398 
L 343.655879 44.279398 
z
" clip-path="url(#p153f69260a)" style="fill: #c62626; stroke: #000000; stroke-linejoin: miter"/>
   </g>
   <g id="patch_64">
    <path d="M 347.846183 266.87101 
L 351.198426 266.87101 
L 351.198426 135.414083 
L 347.846183 135.414083 
z
" clip-path="url(#p153f69260a)" style="fill: #2e9ad6; stroke: #000000; stroke-linejoin: miter"/>
   </g>
   <g id="patch_65">
    <path d="M 352.036487 266.87101 
L 355.38873 266.87101 
L 355.38873 119.173484 
L 352.036487 119.173484 
z
" clip-path="url(#p153f69260a)" style="fill: #2e9ad6; stroke: #000000; stroke-linejoin: miter"/>
   </g>
   <g id="patch_66">
    <path d="M 360.417095 266.87101 
L 363.769338 266.87101 
L 363.769338 187.865561 
L 360.417095 187.865561 
z
" clip-path="url(#p153f69260a)" style="fill: #2e9ad6; stroke: #000000; stroke-linejoin: miter"/>
   </g>
   <g id="patch_67">
    <path d="M 364.607399 266.87101 
L 367.959642 266.87101 
L 367.959642 182.958757 
L 364.607399 182.958757 
z
" clip-path="url(#p153f69260a)" style="fill: #2e9ad6; stroke: #000000; stroke-linejoin: miter"/>
   </g>
   <g id="patch_68">
    <path d="M 368.797703 266.87101 
L 372.149946 266.87101 
L 372.149946 181.718545 
L 368.797703 181.718545 
z
" clip-path="url(#p153f69260a)" style="fill: #2e9ad6; stroke: #000000; stroke-linejoin: miter"/>
   </g>
   <g id="patch_69">
    <path d="M 372.988007 266.87101 
L 376.34025 266.87101 
L 376.34025 150.321697 
L 372.988007 150.321697 
z
" clip-path="url(#p153f69260a)" style="fill: #2e9ad6; stroke: #000000; stroke-linejoin: miter"/>
   </g>
   <g id="patch_70">
    <path d="M 377.178311 266.87101 
L 380.530554 266.87101 
L 380.530554 171.45537 
L 377.178311 171.45537 
z
" clip-path="url(#p153f69260a)" style="fill: #2e9ad6; stroke: #000000; stroke-linejoin: miter"/>
   </g>
   <g id="patch_71">
    <path d="M 381.368615 266.87101 
L 384.720858 266.87101 
L 384.720858 151.019541 
L 381.368615 151.019541 
z
" clip-path="url(#p153f69260a)" style="fill: #2e9ad6; stroke: #000000; stroke-linejoin: miter"/>
   </g>
   <g id="patch_72">
    <path d="M 385.558919 266.87101 
L 388.911162 266.87101 
L 388.911162 150.048185 
L 385.558919 150.048185 
z
" clip-path="url(#p153f69260a)" style="fill: #2e9ad6; stroke: #000000; stroke-linejoin: miter"/>
   </g>
   <g id="patch_73">
    <path d="M 389.749223 266.87101 
L 393.101466 266.87101 
L 393.101466 82.0305 
L 389.749223 82.0305 
z
" clip-path="url(#p153f69260a)" style="fill: #c62626; stroke: #000000; stroke-linejoin: miter"/>
   </g>
   <g id="patch_74">
    <path d="M 393.939527 266.87101 
L 397.29177 266.87101 
L 397.29177 134.241691 
L 393.939527 134.241691 
z
" clip-path="url(#p153f69260a)" style="fill: #2e9ad6; stroke: #000000; stroke-linejoin: miter"/>
   </g>
   <g id="patch_75">
    <path d="M 402.320135 266.87101 
L 405.672378 266.87101 
L 405.672378 165.144587 
L 402.320135 165.144587 
z
" clip-path="url(#p153f69260a)" style="fill: #2e9ad6; stroke: #000000; stroke-linejoin: miter"/>
   </g>
   <g id="patch_76">
    <path d="M 406.510439 266.87101 
L 409.862682 266.87101 
L 409.862682 158.94716 
L 406.510439 158.94716 
z
" clip-path="url(#p153f69260a)" style="fill: #2e9ad6; stroke: #000000; stroke-linejoin: miter"/>
   </g>
   <g id="patch_77">
    <path d="M 410.700743 266.87101 
L 414.052986 266.87101 
L 414.052986 135.600043 
L 410.700743 135.600043 
z
" clip-path="url(#p153f69260a)" style="fill: #2e9ad6; stroke: #000000; stroke-linejoin: miter"/>
   </g>
   <g id="patch_78">
    <path d="M 414.891047 266.87101 
L 418.24329 266.87101 
L 418.24329 112.638047 
L 414.891047 112.638047 
z
" clip-path="url(#p153f69260a)" style="fill: #2e9ad6; stroke: #000000; stroke-linejoin: miter"/>
   </g>
   <g id="patch_79">
    <path d="M 419.081351 266.87101 
L 422.433594 266.87101 
L 422.433594 114.670579 
L 419.081351 114.670579 
z
" clip-path="url(#p153f69260a)" style="fill: #2e9ad6; stroke: #000000; stroke-linejoin: miter"/>
   </g>
   <g id="patch_80">
    <path d="M 423.271655 266.87101 
L 426.623898 266.87101 
L 426.623898 103.653716 
L 423.271655 103.653716 
z
" clip-path="url(#p153f69260a)" style="fill: #2e9ad6; stroke: #000000; stroke-linejoin: miter"/>
   </g>
   <g id="patch_81">
    <path d="M 427.461959 266.87101 
L 430.814202 266.87101 
L 430.814202 118.949428 
L 427.461959 118.949428 
z
" clip-path="url(#p153f69260a)" style="fill: #2e9ad6; stroke: #000000; stroke-linejoin: miter"/>
   </g>
   <g id="patch_82">
    <path d="M 431.652263 266.87101 
L 435.004506 266.87101 
L 435.004506 106.171569 
L 431.652263 106.171569 
z
" clip-path="url(#p153f69260a)" style="fill: #2e9ad6; stroke: #000000; stroke-linejoin: miter"/>
   </g>
   <g id="patch_83">
    <path d="M 435.842567 266.87101 
L 439.19481 266.87101 
L 439.19481 31.385515 
L 435.842567 31.385515 
z
" clip-path="url(#p153f69260a)" style="fill: #c62626; stroke: #000000; stroke-linejoin: miter"/>
   </g>
   <g id="patch_84">
    <path d="M 48.490865 266.87101 
L 48.490865 19.61124 
" style="fill: none; stroke: #000000; stroke-width: 2; stroke-linejoin: miter; stroke-linecap: square"/>
   </g>
   <g id="patch_85">
    <path d="M 48.490865 266.87101 
L 457.79976 266.87101 
" style="fill: none; stroke: #000000; stroke-width: 2; stroke-linejoin: miter; stroke-linecap: square"/>
   </g>
   <g id="text_19">
    <!-- Optimization Efficiency vs. Predictor Size -->
    <g transform="translate(122.305563 13.61124) scale(0.144 -0.144)">
     <defs>
      <path id="Helvetica-45" d="M 547 4591 
L 3894 4591 
L 3894 4028 
L 1153 4028 
L 1153 2634 
L 3688 2634 
L 3688 2103 
L 1153 2103 
L 1153 547 
L 3941 547 
L 3941 0 
L 547 0 
L 547 4591 
z
M 2244 4591 
L 2244 4591 
z
" transform="scale(0.015625)"/>
      <path id="Helvetica-79" d="M 2503 3347 
L 3125 3347 
Q 3006 3025 2597 1878 
Q 2291 1016 2084 472 
Q 1597 -809 1397 -1090 
Q 1197 -1372 709 -1372 
Q 591 -1372 527 -1362 
Q 463 -1353 369 -1328 
L 369 -816 
Q 516 -856 581 -865 
Q 647 -875 697 -875 
Q 853 -875 926 -823 
Q 1000 -772 1050 -697 
Q 1066 -672 1162 -440 
Q 1259 -209 1303 -97 
L 66 3347 
L 703 3347 
L 1600 622 
L 2503 3347 
z
M 1597 3428 
L 1597 3428 
z
" transform="scale(0.015625)"/>
     </defs>
     <use xlink:href="#Helvetica-4f"/>
     <use xlink:href="#Helvetica-70" x="77.783203"/>
     <use xlink:href="#Helvetica-74" x="133.398438"/>
     <use xlink:href="#Helvetica-69" x="161.181641"/>
     <use xlink:href="#Helvetica-6d" x="183.398438"/>
     <use xlink:href="#Helvetica-69" x="266.699219"/>
     <use xlink:href="#Helvetica-7a" x="288.916016"/>
     <use xlink:href="#Helvetica-61" x="338.916016"/>
     <use xlink:href="#Helvetica-74" x="394.53125"/>
     <use xlink:href="#Helvetica-69" x="422.314453"/>
     <use xlink:href="#Helvetica-6f" x="444.53125"/>
     <use xlink:href="#Helvetica-6e" x="500.146484"/>
     <use xlink:href="#Helvetica-20" x="555.761719"/>
     <use xlink:href="#Helvetica-45" x="583.544922"/>
     <use xlink:href="#Helvetica-66" x="650.244141"/>
     <use xlink:href="#Helvetica-66" x="678.027344"/>
     <use xlink:href="#Helvetica-69" x="705.810547"/>
     <use xlink:href="#Helvetica-63" x="728.027344"/>
     <use xlink:href="#Helvetica-69" x="778.027344"/>
     <use xlink:href="#Helvetica-65" x="800.244141"/>
     <use xlink:href="#Helvetica-6e" x="855.859375"/>
     <use xlink:href="#Helvetica-63" x="911.474609"/>
     <use xlink:href="#Helvetica-79" x="961.474609"/>
     <use xlink:href="#Helvetica-20" x="1011.474609"/>
     <use xlink:href="#Helvetica-76" x="1039.257812"/>
     <use xlink:href="#Helvetica-73" x="1089.257812"/>
     <use xlink:href="#Helvetica-2e" x="1139.257812"/>
     <use xlink:href="#Helvetica-20" x="1167.041016"/>
     <use xlink:href="#Helvetica-50" x="1194.824219"/>
     <use xlink:href="#Helvetica-72" x="1261.523438"/>
     <use xlink:href="#Helvetica-65" x="1294.824219"/>
     <use xlink:href="#Helvetica-64" x="1350.439453"/>
     <use xlink:href="#Helvetica-69" x="1406.054688"/>
     <use xlink:href="#Helvetica-63" x="1428.271484"/>
     <use xlink:href="#Helvetica-74" x="1478.271484"/>
     <use xlink:href="#Helvetica-6f" x="1506.054688"/>
     <use xlink:href="#Helvetica-72" x="1561.669922"/>
     <use xlink:href="#Helvetica-20" x="1594.970703"/>
     <use xlink:href="#Helvetica-53" x="1622.753906"/>
     <use xlink:href="#Helvetica-69" x="1689.453125"/>
     <use xlink:href="#Helvetica-7a" x="1711.669922"/>
     <use xlink:href="#Helvetica-65" x="1761.669922"/>
    </g>
   </g>
   <g id="legend_1">
    <g id="patch_86">
     <path d="M 56.890865 63.664365 
L 246.67649 63.664365 
Q 249.07649 63.664365 249.07649 61.264365 
L 249.07649 28.01124 
Q 249.07649 25.61124 246.67649 25.61124 
L 56.890865 25.61124 
Q 54.490865 25.61124 54.490865 28.01124 
L 54.490865 61.264365 
Q 54.490865 63.664365 56.890865 63.664365 
z
" style="fill: #ffffff; opacity: 0.8; stroke: #cccccc; stroke-linejoin: miter"/>
    </g>
    <g id="patch_87">
     <path d="M 59.290865 39.25374 
L 83.290865 39.25374 
L 83.290865 30.85374 
L 59.290865 30.85374 
z
" style="fill: #c62626; stroke: #000000; stroke-linejoin: miter"/>
    </g>
    <g id="text_20">
     <!-- Model Used for Optimization -->
     <g transform="translate(92.890865 39.25374) scale(0.12 -0.12)">
      <use xlink:href="#Helvetica-4d"/>
      <use xlink:href="#Helvetica-6f" x="83.300781"/>
      <use xlink:href="#Helvetica-64" x="138.916016"/>
      <use xlink:href="#Helvetica-65" x="194.53125"/>
      <use xlink:href="#Helvetica-6c" x="250.146484"/>
      <use xlink:href="#Helvetica-20" x="272.363281"/>
      <use xlink:href="#Helvetica-55" x="300.146484"/>
      <use xlink:href="#Helvetica-73" x="372.363281"/>
      <use xlink:href="#Helvetica-65" x="422.363281"/>
      <use xlink:href="#Helvetica-64" x="477.978516"/>
      <use xlink:href="#Helvetica-20" x="533.59375"/>
      <use xlink:href="#Helvetica-66" x="561.376953"/>
      <use xlink:href="#Helvetica-6f" x="589.160156"/>
      <use xlink:href="#Helvetica-72" x="644.775391"/>
      <use xlink:href="#Helvetica-20" x="678.076172"/>
      <use xlink:href="#Helvetica-4f" x="705.859375"/>
      <use xlink:href="#Helvetica-70" x="783.642578"/>
      <use xlink:href="#Helvetica-74" x="839.257812"/>
      <use xlink:href="#Helvetica-69" x="867.041016"/>
      <use xlink:href="#Helvetica-6d" x="889.257812"/>
      <use xlink:href="#Helvetica-69" x="972.558594"/>
      <use xlink:href="#Helvetica-7a" x="994.775391"/>
      <use xlink:href="#Helvetica-61" x="1044.775391"/>
      <use xlink:href="#Helvetica-74" x="1100.390625"/>
      <use xlink:href="#Helvetica-69" x="1128.173828"/>
      <use xlink:href="#Helvetica-6f" x="1150.390625"/>
      <use xlink:href="#Helvetica-6e" x="1206.005859"/>
     </g>
    </g>
    <g id="patch_88">
     <path d="M 59.290865 56.363115 
L 83.290865 56.363115 
L 83.290865 47.963115 
L 59.290865 47.963115 
z
" style="fill: #2e9ad6; stroke: #000000; stroke-linejoin: miter"/>
    </g>
    <g id="text_21">
     <!-- Indendent Models -->
     <g transform="translate(92.890865 56.363115) scale(0.12 -0.12)">
      <use xlink:href="#Helvetica-49"/>
      <use xlink:href="#Helvetica-6e" x="27.783203"/>
      <use xlink:href="#Helvetica-64" x="83.398438"/>
      <use xlink:href="#Helvetica-65" x="139.013672"/>
      <use xlink:href="#Helvetica-6e" x="194.628906"/>
      <use xlink:href="#Helvetica-64" x="250.244141"/>
      <use xlink:href="#Helvetica-65" x="305.859375"/>
      <use xlink:href="#Helvetica-6e" x="361.474609"/>
      <use xlink:href="#Helvetica-74" x="417.089844"/>
      <use xlink:href="#Helvetica-20" x="444.873047"/>
      <use xlink:href="#Helvetica-4d" x="472.65625"/>
      <use xlink:href="#Helvetica-6f" x="555.957031"/>
      <use xlink:href="#Helvetica-64" x="611.572266"/>
      <use xlink:href="#Helvetica-65" x="667.1875"/>
      <use xlink:href="#Helvetica-6c" x="722.802734"/>
      <use xlink:href="#Helvetica-73" x="745.019531"/>
     </g>
    </g>
   </g>
  </g>
 </g>
 <defs>
  <clipPath id="p153f69260a">
   <rect x="48.490865" y="19.61124" width="409.308895" height="247.25977"/>
  </clipPath>
 </defs>
</svg>
