<?xml version="1.0" encoding="utf-8" standalone="no"?>
<!DOCTYPE svg PUBLIC "-//W3C//DTD SVG 1.1//EN"
  "http://www.w3.org/Graphics/SVG/1.1/DTD/svg11.dtd">
<svg xmlns:xlink="http://www.w3.org/1999/xlink" width="576pt" height="288pt" viewBox="0 0 576 288" xmlns="http://www.w3.org/2000/svg" version="1.1">
 <metadata>
  <rdf:RDF xmlns:dc="http://purl.org/dc/elements/1.1/" xmlns:cc="http://creativecommons.org/ns#" xmlns:rdf="http://www.w3.org/1999/02/22-rdf-syntax-ns#">
   <cc:Work>
    <dc:type rdf:resource="http://purl.org/dc/dcmitype/StillImage"/>
    <dc:date>2024-03-10T20:50:04.871263</dc:date>
    <dc:format>image/svg+xml</dc:format>
    <dc:creator>
     <cc:Agent>
      <dc:title>Matplotlib v3.6.3, https://matplotlib.org/</dc:title>
     </cc:Agent>
    </dc:creator>
   </cc:Work>
  </rdf:RDF>
 </metadata>
 <defs>
  <style type="text/css">*{stroke-linejoin: round; stroke-linecap: butt}</style>
 </defs>
 <g id="figure_1">
  <g id="patch_1">
   <path d="M 0 288 
L 576 288 
L 576 0 
L 0 0 
L 0 288 
z
" style="fill: none"/>
  </g>
  <g id="axes_1">
   <g id="patch_2">
    <path d="M 72 256.32 
L 274.909091 256.32 
L 274.909091 34.56 
L 72 34.56 
L 72 256.32 
z
" style="fill: none"/>
   </g>
   <g id="patch_3">
    <path d="M 81.22314 256.32 
L 85.233202 256.32 
L 85.233202 121.763245 
L 81.22314 121.763245 
z
" clip-path="url(#pe7061dd7c3)" style="fill: #1f77b4"/>
   </g>
   <g id="patch_4">
    <path d="M 86.235717 256.32 
L 90.245778 256.32 
L 90.245778 122.398198 
L 86.235717 122.398198 
z
" clip-path="url(#pe7061dd7c3)" style="fill: #1f77b4"/>
   </g>
   <g id="patch_5">
    <path d="M 91.248293 256.32 
L 95.258354 256.32 
L 95.258354 141.047519 
L 91.248293 141.047519 
z
" clip-path="url(#pe7061dd7c3)" style="fill: #1f77b4"/>
   </g>
   <g id="patch_6">
    <path d="M 96.26087 256.32 
L 100.270931 256.32 
L 100.270931 132.656838 
L 96.26087 132.656838 
z
" clip-path="url(#pe7061dd7c3)" style="fill: #1f77b4"/>
   </g>
   <g id="patch_7">
    <path d="M 101.273446 256.32 
L 105.283507 256.32 
L 105.283507 133.332752 
L 101.273446 133.332752 
z
" clip-path="url(#pe7061dd7c3)" style="fill: #1f77b4"/>
   </g>
   <g id="patch_8">
    <path d="M 106.286022 256.32 
L 110.296083 256.32 
L 110.296083 145.066645 
L 106.286022 145.066645 
z
" clip-path="url(#pe7061dd7c3)" style="fill: #1f77b4"/>
   </g>
   <g id="patch_9">
    <path d="M 111.298599 256.32 
L 115.30866 256.32 
L 115.30866 138.819156 
L 111.298599 138.819156 
z
" clip-path="url(#pe7061dd7c3)" style="fill: #1f77b4"/>
   </g>
   <g id="patch_10">
    <path d="M 116.311175 256.32 
L 120.321236 256.32 
L 120.321236 127.001879 
L 116.311175 127.001879 
z
" clip-path="url(#pe7061dd7c3)" style="fill: #1f77b4"/>
   </g>
   <g id="patch_11">
    <path d="M 121.323751 256.32 
L 125.333812 256.32 
L 125.333812 101.37883 
L 121.323751 101.37883 
z
" clip-path="url(#pe7061dd7c3)" style="fill: #1f77b4"/>
   </g>
   <g id="patch_12">
    <path d="M 126.336328 256.32 
L 130.346389 256.32 
L 130.346389 146.73934 
L 126.336328 146.73934 
z
" clip-path="url(#pe7061dd7c3)" style="fill: #1f77b4"/>
   </g>
   <g id="patch_13">
    <path d="M 131.348904 256.32 
L 135.358965 256.32 
L 135.358965 127.612467 
L 131.348904 127.612467 
z
" clip-path="url(#pe7061dd7c3)" style="fill: #1f77b4"/>
   </g>
   <g id="patch_14">
    <path d="M 136.36148 256.32 
L 140.371542 256.32 
L 140.371542 118.570788 
L 136.36148 118.570788 
z
" clip-path="url(#pe7061dd7c3)" style="fill: #1f77b4"/>
   </g>
   <g id="patch_15">
    <path d="M 141.374057 256.32 
L 145.384118 256.32 
L 145.384118 129.888321 
L 141.374057 129.888321 
z
" clip-path="url(#pe7061dd7c3)" style="fill: #1f77b4"/>
   </g>
   <g id="patch_16">
    <path d="M 146.386633 256.32 
L 150.396694 256.32 
L 150.396694 134.398445 
L 146.386633 134.398445 
z
" clip-path="url(#pe7061dd7c3)" style="fill: #1f77b4"/>
   </g>
   <g id="patch_17">
    <path d="M 151.399209 256.32 
L 155.409271 256.32 
L 155.409271 110.329432 
L 151.399209 110.329432 
z
" clip-path="url(#pe7061dd7c3)" style="fill: #1f77b4"/>
   </g>
   <g id="patch_18">
    <path d="M 156.411786 256.32 
L 160.421847 256.32 
L 160.421847 113.377779 
L 156.411786 113.377779 
z
" clip-path="url(#pe7061dd7c3)" style="fill: #1f77b4"/>
   </g>
   <g id="patch_19">
    <path d="M 161.424362 256.32 
L 165.434423 256.32 
L 165.434423 123.185868 
L 161.424362 123.185868 
z
" clip-path="url(#pe7061dd7c3)" style="fill: #1f77b4"/>
   </g>
   <g id="patch_20">
    <path d="M 166.436939 256.32 
L 170.447 256.32 
L 170.447 141.287293 
L 166.436939 141.287293 
z
" clip-path="url(#pe7061dd7c3)" style="fill: #1f77b4"/>
   </g>
   <g id="patch_21">
    <path d="M 171.449515 256.32 
L 175.459576 256.32 
L 175.459576 145.264652 
L 171.449515 145.264652 
z
" clip-path="url(#pe7061dd7c3)" style="fill: #1f77b4"/>
   </g>
   <g id="patch_22">
    <path d="M 176.462091 256.32 
L 180.472152 256.32 
L 180.472152 129.207803 
L 176.462091 129.207803 
z
" clip-path="url(#pe7061dd7c3)" style="fill: #1f77b4"/>
   </g>
   <g id="patch_23">
    <path d="M 181.474668 256.32 
L 185.484729 256.32 
L 185.484729 136.445354 
L 181.474668 136.445354 
z
" clip-path="url(#pe7061dd7c3)" style="fill: #1f77b4"/>
   </g>
   <g id="patch_24">
    <path d="M 186.487244 256.32 
L 190.497305 256.32 
L 190.497305 105.033296 
L 186.487244 105.033296 
z
" clip-path="url(#pe7061dd7c3)" style="fill: #1f77b4"/>
   </g>
   <g id="patch_25">
    <path d="M 191.49982 256.32 
L 195.509881 256.32 
L 195.509881 126.41692 
L 191.49982 126.41692 
z
" clip-path="url(#pe7061dd7c3)" style="fill: #1f77b4"/>
   </g>
   <g id="patch_26">
    <path d="M 196.512397 256.32 
L 200.522458 256.32 
L 200.522458 122.624124 
L 196.512397 122.624124 
z
" clip-path="url(#pe7061dd7c3)" style="fill: #1f77b4"/>
   </g>
   <g id="patch_27">
    <path d="M 201.524973 256.32 
L 205.535034 256.32 
L 205.535034 123.562506 
L 201.524973 123.562506 
z
" clip-path="url(#pe7061dd7c3)" style="fill: #1f77b4"/>
   </g>
   <g id="patch_28">
    <path d="M 206.537549 256.32 
L 210.54761 256.32 
L 210.54761 124.511429 
L 206.537549 124.511429 
z
" clip-path="url(#pe7061dd7c3)" style="fill: #1f77b4"/>
   </g>
   <g id="patch_29">
    <path d="M 211.550126 256.32 
L 215.560187 256.32 
L 215.560187 119.072604 
L 211.550126 119.072604 
z
" clip-path="url(#pe7061dd7c3)" style="fill: #1f77b4"/>
   </g>
   <g id="patch_30">
    <path d="M 216.562702 256.32 
L 220.572763 256.32 
L 220.572763 128.325171 
L 216.562702 128.325171 
z
" clip-path="url(#pe7061dd7c3)" style="fill: #1f77b4"/>
   </g>
   <g id="patch_31">
    <path d="M 221.575278 256.32 
L 225.58534 256.32 
L 225.58534 122.743877 
L 221.575278 122.743877 
z
" clip-path="url(#pe7061dd7c3)" style="fill: #1f77b4"/>
   </g>
   <g id="patch_32">
    <path d="M 226.587855 256.32 
L 230.597916 256.32 
L 230.597916 125.583362 
L 226.587855 125.583362 
z
" clip-path="url(#pe7061dd7c3)" style="fill: #1f77b4"/>
   </g>
   <g id="patch_33">
    <path d="M 231.600431 256.32 
L 235.610492 256.32 
L 235.610492 111.590329 
L 231.600431 111.590329 
z
" clip-path="url(#pe7061dd7c3)" style="fill: #1f77b4"/>
   </g>
   <g id="patch_34">
    <path d="M 236.613008 256.32 
L 240.623069 256.32 
L 240.623069 119.51486 
L 236.613008 119.51486 
z
" clip-path="url(#pe7061dd7c3)" style="fill: #1f77b4"/>
   </g>
   <g id="patch_35">
    <path d="M 241.625584 256.32 
L 245.635645 256.32 
L 245.635645 115.569757 
L 241.625584 115.569757 
z
" clip-path="url(#pe7061dd7c3)" style="fill: #1f77b4"/>
   </g>
   <g id="patch_36">
    <path d="M 246.63816 256.32 
L 250.648221 256.32 
L 250.648221 134.989465 
L 246.63816 134.989465 
z
" clip-path="url(#pe7061dd7c3)" style="fill: #1f77b4"/>
   </g>
   <g id="patch_37">
    <path d="M 251.650737 256.32 
L 255.660798 256.32 
L 255.660798 96.803556 
L 251.650737 96.803556 
z
" clip-path="url(#pe7061dd7c3)" style="fill: #1f77b4"/>
   </g>
   <g id="patch_38">
    <path d="M 256.663313 256.32 
L 260.673374 256.32 
L 260.673374 128.753836 
L 256.663313 128.753836 
z
" clip-path="url(#pe7061dd7c3)" style="fill: #1f77b4"/>
   </g>
   <g id="patch_39">
    <path d="M 261.675889 256.32 
L 265.68595 256.32 
L 265.68595 131.372705 
L 261.675889 131.372705 
z
" clip-path="url(#pe7061dd7c3)" style="fill: #1f77b4"/>
   </g>
   <g id="matplotlib.axis_1">
    <g id="xtick_1">
     <g id="line2d_1">
      <defs>
       <path id="m1aeb26978e" d="M 0 0 
L 0 3.5 
" style="stroke: #000000; stroke-width: 0.8"/>
      </defs>
      <g>
       <use xlink:href="#m1aeb26978e" x="83.228171" y="256.32" style="stroke: #000000; stroke-width: 0.8"/>
      </g>
     </g>
     <g id="text_1">
      <!-- 0 -->
      <g transform="translate(80.046921 270.918437) scale(0.1 -0.1)">
       <defs>
        <path id="DejaVuSans-30" d="M 2034 4250 
Q 1547 4250 1301 3770 
Q 1056 3291 1056 2328 
Q 1056 1369 1301 889 
Q 1547 409 2034 409 
Q 2525 409 2770 889 
Q 3016 1369 3016 2328 
Q 3016 3291 2770 3770 
Q 2525 4250 2034 4250 
z
M 2034 4750 
Q 2819 4750 3233 4129 
Q 3647 3509 3647 2328 
Q 3647 1150 3233 529 
Q 2819 -91 2034 -91 
Q 1250 -91 836 529 
Q 422 1150 422 2328 
Q 422 3509 836 4129 
Q 1250 4750 2034 4750 
z
" transform="scale(0.015625)"/>
       </defs>
       <use xlink:href="#DejaVuSans-30"/>
      </g>
     </g>
    </g>
    <g id="xtick_2">
     <g id="line2d_2">
      <g>
       <use xlink:href="#m1aeb26978e" x="133.353935" y="256.32" style="stroke: #000000; stroke-width: 0.8"/>
      </g>
     </g>
     <g id="text_2">
      <!-- 10 -->
      <g transform="translate(126.991435 270.918437) scale(0.1 -0.1)">
       <defs>
        <path id="DejaVuSans-31" d="M 794 531 
L 1825 531 
L 1825 4091 
L 703 3866 
L 703 4441 
L 1819 4666 
L 2450 4666 
L 2450 531 
L 3481 531 
L 3481 0 
L 794 0 
L 794 531 
z
" transform="scale(0.015625)"/>
       </defs>
       <use xlink:href="#DejaVuSans-31"/>
       <use xlink:href="#DejaVuSans-30" x="63.623047"/>
      </g>
     </g>
    </g>
    <g id="xtick_3">
     <g id="line2d_3">
      <g>
       <use xlink:href="#m1aeb26978e" x="183.479698" y="256.32" style="stroke: #000000; stroke-width: 0.8"/>
      </g>
     </g>
     <g id="text_3">
      <!-- 20 -->
      <g transform="translate(177.117198 270.918437) scale(0.1 -0.1)">
       <defs>
        <path id="DejaVuSans-32" d="M 1228 531 
L 3431 531 
L 3431 0 
L 469 0 
L 469 531 
Q 828 903 1448 1529 
Q 2069 2156 2228 2338 
Q 2531 2678 2651 2914 
Q 2772 3150 2772 3378 
Q 2772 3750 2511 3984 
Q 2250 4219 1831 4219 
Q 1534 4219 1204 4116 
Q 875 4013 500 3803 
L 500 4441 
Q 881 4594 1212 4672 
Q 1544 4750 1819 4750 
Q 2544 4750 2975 4387 
Q 3406 4025 3406 3419 
Q 3406 3131 3298 2873 
Q 3191 2616 2906 2266 
Q 2828 2175 2409 1742 
Q 1991 1309 1228 531 
z
" transform="scale(0.015625)"/>
       </defs>
       <use xlink:href="#DejaVuSans-32"/>
       <use xlink:href="#DejaVuSans-30" x="63.623047"/>
      </g>
     </g>
    </g>
    <g id="xtick_4">
     <g id="line2d_4">
      <g>
       <use xlink:href="#m1aeb26978e" x="233.605462" y="256.32" style="stroke: #000000; stroke-width: 0.8"/>
      </g>
     </g>
     <g id="text_4">
      <!-- 30 -->
      <g transform="translate(227.242962 270.918437) scale(0.1 -0.1)">
       <defs>
        <path id="DejaVuSans-33" d="M 2597 2516 
Q 3050 2419 3304 2112 
Q 3559 1806 3559 1356 
Q 3559 666 3084 287 
Q 2609 -91 1734 -91 
Q 1441 -91 1130 -33 
Q 819 25 488 141 
L 488 750 
Q 750 597 1062 519 
Q 1375 441 1716 441 
Q 2309 441 2620 675 
Q 2931 909 2931 1356 
Q 2931 1769 2642 2001 
Q 2353 2234 1838 2234 
L 1294 2234 
L 1294 2753 
L 1863 2753 
Q 2328 2753 2575 2939 
Q 2822 3125 2822 3475 
Q 2822 3834 2567 4026 
Q 2313 4219 1838 4219 
Q 1578 4219 1281 4162 
Q 984 4106 628 3988 
L 628 4550 
Q 988 4650 1302 4700 
Q 1616 4750 1894 4750 
Q 2613 4750 3031 4423 
Q 3450 4097 3450 3541 
Q 3450 3153 3228 2886 
Q 3006 2619 2597 2516 
z
" transform="scale(0.015625)"/>
       </defs>
       <use xlink:href="#DejaVuSans-33"/>
       <use xlink:href="#DejaVuSans-30" x="63.623047"/>
      </g>
     </g>
    </g>
    <g id="text_5">
     <!-- Model Number -->
     <g transform="translate(136.766264 284.596563) scale(0.1 -0.1)">
      <defs>
       <path id="DejaVuSans-4d" d="M 628 4666 
L 1569 4666 
L 2759 1491 
L 3956 4666 
L 4897 4666 
L 4897 0 
L 4281 0 
L 4281 4097 
L 3078 897 
L 2444 897 
L 1241 4097 
L 1241 0 
L 628 0 
L 628 4666 
z
" transform="scale(0.015625)"/>
       <path id="DejaVuSans-6f" d="M 1959 3097 
Q 1497 3097 1228 2736 
Q 959 2375 959 1747 
Q 959 1119 1226 758 
Q 1494 397 1959 397 
Q 2419 397 2687 759 
Q 2956 1122 2956 1747 
Q 2956 2369 2687 2733 
Q 2419 3097 1959 3097 
z
M 1959 3584 
Q 2709 3584 3137 3096 
Q 3566 2609 3566 1747 
Q 3566 888 3137 398 
Q 2709 -91 1959 -91 
Q 1206 -91 779 398 
Q 353 888 353 1747 
Q 353 2609 779 3096 
Q 1206 3584 1959 3584 
z
" transform="scale(0.015625)"/>
       <path id="DejaVuSans-64" d="M 2906 2969 
L 2906 4863 
L 3481 4863 
L 3481 0 
L 2906 0 
L 2906 525 
Q 2725 213 2448 61 
Q 2172 -91 1784 -91 
Q 1150 -91 751 415 
Q 353 922 353 1747 
Q 353 2572 751 3078 
Q 1150 3584 1784 3584 
Q 2172 3584 2448 3432 
Q 2725 3281 2906 2969 
z
M 947 1747 
Q 947 1113 1208 752 
Q 1469 391 1925 391 
Q 2381 391 2643 752 
Q 2906 1113 2906 1747 
Q 2906 2381 2643 2742 
Q 2381 3103 1925 3103 
Q 1469 3103 1208 2742 
Q 947 2381 947 1747 
z
" transform="scale(0.015625)"/>
       <path id="DejaVuSans-65" d="M 3597 1894 
L 3597 1613 
L 953 1613 
Q 991 1019 1311 708 
Q 1631 397 2203 397 
Q 2534 397 2845 478 
Q 3156 559 3463 722 
L 3463 178 
Q 3153 47 2828 -22 
Q 2503 -91 2169 -91 
Q 1331 -91 842 396 
Q 353 884 353 1716 
Q 353 2575 817 3079 
Q 1281 3584 2069 3584 
Q 2775 3584 3186 3129 
Q 3597 2675 3597 1894 
z
M 3022 2063 
Q 3016 2534 2758 2815 
Q 2500 3097 2075 3097 
Q 1594 3097 1305 2825 
Q 1016 2553 972 2059 
L 3022 2063 
z
" transform="scale(0.015625)"/>
       <path id="DejaVuSans-6c" d="M 603 4863 
L 1178 4863 
L 1178 0 
L 603 0 
L 603 4863 
z
" transform="scale(0.015625)"/>
       <path id="DejaVuSans-20" transform="scale(0.015625)"/>
       <path id="DejaVuSans-4e" d="M 628 4666 
L 1478 4666 
L 3547 763 
L 3547 4666 
L 4159 4666 
L 4159 0 
L 3309 0 
L 1241 3903 
L 1241 0 
L 628 0 
L 628 4666 
z
" transform="scale(0.015625)"/>
       <path id="DejaVuSans-75" d="M 544 1381 
L 544 3500 
L 1119 3500 
L 1119 1403 
Q 1119 906 1312 657 
Q 1506 409 1894 409 
Q 2359 409 2629 706 
Q 2900 1003 2900 1516 
L 2900 3500 
L 3475 3500 
L 3475 0 
L 2900 0 
L 2900 538 
Q 2691 219 2414 64 
Q 2138 -91 1772 -91 
Q 1169 -91 856 284 
Q 544 659 544 1381 
z
M 1991 3584 
L 1991 3584 
z
" transform="scale(0.015625)"/>
       <path id="DejaVuSans-6d" d="M 3328 2828 
Q 3544 3216 3844 3400 
Q 4144 3584 4550 3584 
Q 5097 3584 5394 3201 
Q 5691 2819 5691 2113 
L 5691 0 
L 5113 0 
L 5113 2094 
Q 5113 2597 4934 2840 
Q 4756 3084 4391 3084 
Q 3944 3084 3684 2787 
Q 3425 2491 3425 1978 
L 3425 0 
L 2847 0 
L 2847 2094 
Q 2847 2600 2669 2842 
Q 2491 3084 2119 3084 
Q 1678 3084 1418 2786 
Q 1159 2488 1159 1978 
L 1159 0 
L 581 0 
L 581 3500 
L 1159 3500 
L 1159 2956 
Q 1356 3278 1631 3431 
Q 1906 3584 2284 3584 
Q 2666 3584 2933 3390 
Q 3200 3197 3328 2828 
z
" transform="scale(0.015625)"/>
       <path id="DejaVuSans-62" d="M 3116 1747 
Q 3116 2381 2855 2742 
Q 2594 3103 2138 3103 
Q 1681 3103 1420 2742 
Q 1159 2381 1159 1747 
Q 1159 1113 1420 752 
Q 1681 391 2138 391 
Q 2594 391 2855 752 
Q 3116 1113 3116 1747 
z
M 1159 2969 
Q 1341 3281 1617 3432 
Q 1894 3584 2278 3584 
Q 2916 3584 3314 3078 
Q 3713 2572 3713 1747 
Q 3713 922 3314 415 
Q 2916 -91 2278 -91 
Q 1894 -91 1617 61 
Q 1341 213 1159 525 
L 1159 0 
L 581 0 
L 581 4863 
L 1159 4863 
L 1159 2969 
z
" transform="scale(0.015625)"/>
       <path id="DejaVuSans-72" d="M 2631 2963 
Q 2534 3019 2420 3045 
Q 2306 3072 2169 3072 
Q 1681 3072 1420 2755 
Q 1159 2438 1159 1844 
L 1159 0 
L 581 0 
L 581 3500 
L 1159 3500 
L 1159 2956 
Q 1341 3275 1631 3429 
Q 1922 3584 2338 3584 
Q 2397 3584 2469 3576 
Q 2541 3569 2628 3553 
L 2631 2963 
z
" transform="scale(0.015625)"/>
      </defs>
      <use xlink:href="#DejaVuSans-4d"/>
      <use xlink:href="#DejaVuSans-6f" x="86.279297"/>
      <use xlink:href="#DejaVuSans-64" x="147.460938"/>
      <use xlink:href="#DejaVuSans-65" x="210.9375"/>
      <use xlink:href="#DejaVuSans-6c" x="272.460938"/>
      <use xlink:href="#DejaVuSans-20" x="300.244141"/>
      <use xlink:href="#DejaVuSans-4e" x="332.03125"/>
      <use xlink:href="#DejaVuSans-75" x="406.835938"/>
      <use xlink:href="#DejaVuSans-6d" x="470.214844"/>
      <use xlink:href="#DejaVuSans-62" x="567.626953"/>
      <use xlink:href="#DejaVuSans-65" x="631.103516"/>
      <use xlink:href="#DejaVuSans-72" x="692.626953"/>
     </g>
    </g>
   </g>
   <g id="matplotlib.axis_2">
    <g id="ytick_1">
     <g id="line2d_5">
      <defs>
       <path id="mab7e00542e" d="M 0 0 
L -3.5 0 
" style="stroke: #000000; stroke-width: 0.8"/>
      </defs>
      <g>
       <use xlink:href="#mab7e00542e" x="72" y="256.32" style="stroke: #000000; stroke-width: 0.8"/>
      </g>
     </g>
     <g id="text_6">
      <!-- 0.0 -->
      <g transform="translate(49.096875 260.119219) scale(0.1 -0.1)">
       <defs>
        <path id="DejaVuSans-2e" d="M 684 794 
L 1344 794 
L 1344 0 
L 684 0 
L 684 794 
z
" transform="scale(0.015625)"/>
       </defs>
       <use xlink:href="#DejaVuSans-30"/>
       <use xlink:href="#DejaVuSans-2e" x="63.623047"/>
       <use xlink:href="#DejaVuSans-30" x="95.410156"/>
      </g>
     </g>
    </g>
    <g id="ytick_2">
     <g id="line2d_6">
      <g>
       <use xlink:href="#mab7e00542e" x="72" y="211.968" style="stroke: #000000; stroke-width: 0.8"/>
      </g>
     </g>
     <g id="text_7">
      <!-- 0.2 -->
      <g transform="translate(49.096875 215.767219) scale(0.1 -0.1)">
       <use xlink:href="#DejaVuSans-30"/>
       <use xlink:href="#DejaVuSans-2e" x="63.623047"/>
       <use xlink:href="#DejaVuSans-32" x="95.410156"/>
      </g>
     </g>
    </g>
    <g id="ytick_3">
     <g id="line2d_7">
      <g>
       <use xlink:href="#mab7e00542e" x="72" y="167.616" style="stroke: #000000; stroke-width: 0.8"/>
      </g>
     </g>
     <g id="text_8">
      <!-- 0.4 -->
      <g transform="translate(49.096875 171.415219) scale(0.1 -0.1)">
       <defs>
        <path id="DejaVuSans-34" d="M 2419 4116 
L 825 1625 
L 2419 1625 
L 2419 4116 
z
M 2253 4666 
L 3047 4666 
L 3047 1625 
L 3713 1625 
L 3713 1100 
L 3047 1100 
L 3047 0 
L 2419 0 
L 2419 1100 
L 313 1100 
L 313 1709 
L 2253 4666 
z
" transform="scale(0.015625)"/>
       </defs>
       <use xlink:href="#DejaVuSans-30"/>
       <use xlink:href="#DejaVuSans-2e" x="63.623047"/>
       <use xlink:href="#DejaVuSans-34" x="95.410156"/>
      </g>
     </g>
    </g>
    <g id="ytick_4">
     <g id="line2d_8">
      <g>
       <use xlink:href="#mab7e00542e" x="72" y="123.264" style="stroke: #000000; stroke-width: 0.8"/>
      </g>
     </g>
     <g id="text_9">
      <!-- 0.6 -->
      <g transform="translate(49.096875 127.063219) scale(0.1 -0.1)">
       <defs>
        <path id="DejaVuSans-36" d="M 2113 2584 
Q 1688 2584 1439 2293 
Q 1191 2003 1191 1497 
Q 1191 994 1439 701 
Q 1688 409 2113 409 
Q 2538 409 2786 701 
Q 3034 994 3034 1497 
Q 3034 2003 2786 2293 
Q 2538 2584 2113 2584 
z
M 3366 4563 
L 3366 3988 
Q 3128 4100 2886 4159 
Q 2644 4219 2406 4219 
Q 1781 4219 1451 3797 
Q 1122 3375 1075 2522 
Q 1259 2794 1537 2939 
Q 1816 3084 2150 3084 
Q 2853 3084 3261 2657 
Q 3669 2231 3669 1497 
Q 3669 778 3244 343 
Q 2819 -91 2113 -91 
Q 1303 -91 875 529 
Q 447 1150 447 2328 
Q 447 3434 972 4092 
Q 1497 4750 2381 4750 
Q 2619 4750 2861 4703 
Q 3103 4656 3366 4563 
z
" transform="scale(0.015625)"/>
       </defs>
       <use xlink:href="#DejaVuSans-30"/>
       <use xlink:href="#DejaVuSans-2e" x="63.623047"/>
       <use xlink:href="#DejaVuSans-36" x="95.410156"/>
      </g>
     </g>
    </g>
    <g id="ytick_5">
     <g id="line2d_9">
      <g>
       <use xlink:href="#mab7e00542e" x="72" y="78.912" style="stroke: #000000; stroke-width: 0.8"/>
      </g>
     </g>
     <g id="text_10">
      <!-- 0.8 -->
      <g transform="translate(49.096875 82.711219) scale(0.1 -0.1)">
       <defs>
        <path id="DejaVuSans-38" d="M 2034 2216 
Q 1584 2216 1326 1975 
Q 1069 1734 1069 1313 
Q 1069 891 1326 650 
Q 1584 409 2034 409 
Q 2484 409 2743 651 
Q 3003 894 3003 1313 
Q 3003 1734 2745 1975 
Q 2488 2216 2034 2216 
z
M 1403 2484 
Q 997 2584 770 2862 
Q 544 3141 544 3541 
Q 544 4100 942 4425 
Q 1341 4750 2034 4750 
Q 2731 4750 3128 4425 
Q 3525 4100 3525 3541 
Q 3525 3141 3298 2862 
Q 3072 2584 2669 2484 
Q 3125 2378 3379 2068 
Q 3634 1759 3634 1313 
Q 3634 634 3220 271 
Q 2806 -91 2034 -91 
Q 1263 -91 848 271 
Q 434 634 434 1313 
Q 434 1759 690 2068 
Q 947 2378 1403 2484 
z
M 1172 3481 
Q 1172 3119 1398 2916 
Q 1625 2713 2034 2713 
Q 2441 2713 2670 2916 
Q 2900 3119 2900 3481 
Q 2900 3844 2670 4047 
Q 2441 4250 2034 4250 
Q 1625 4250 1398 4047 
Q 1172 3844 1172 3481 
z
" transform="scale(0.015625)"/>
       </defs>
       <use xlink:href="#DejaVuSans-30"/>
       <use xlink:href="#DejaVuSans-2e" x="63.623047"/>
       <use xlink:href="#DejaVuSans-38" x="95.410156"/>
      </g>
     </g>
    </g>
    <g id="ytick_6">
     <g id="line2d_10">
      <g>
       <use xlink:href="#mab7e00542e" x="72" y="34.56" style="stroke: #000000; stroke-width: 0.8"/>
      </g>
     </g>
     <g id="text_11">
      <!-- 1.0 -->
      <g transform="translate(49.096875 38.359219) scale(0.1 -0.1)">
       <use xlink:href="#DejaVuSans-31"/>
       <use xlink:href="#DejaVuSans-2e" x="63.623047"/>
       <use xlink:href="#DejaVuSans-30" x="95.410156"/>
      </g>
     </g>
    </g>
    <g id="text_12">
     <!-- Predicted Normalized ON/OFF -->
     <g transform="translate(43.017187 219.492344) rotate(-90) scale(0.1 -0.1)">
      <defs>
       <path id="DejaVuSans-50" d="M 1259 4147 
L 1259 2394 
L 2053 2394 
Q 2494 2394 2734 2622 
Q 2975 2850 2975 3272 
Q 2975 3691 2734 3919 
Q 2494 4147 2053 4147 
L 1259 4147 
z
M 628 4666 
L 2053 4666 
Q 2838 4666 3239 4311 
Q 3641 3956 3641 3272 
Q 3641 2581 3239 2228 
Q 2838 1875 2053 1875 
L 1259 1875 
L 1259 0 
L 628 0 
L 628 4666 
z
" transform="scale(0.015625)"/>
       <path id="DejaVuSans-69" d="M 603 3500 
L 1178 3500 
L 1178 0 
L 603 0 
L 603 3500 
z
M 603 4863 
L 1178 4863 
L 1178 4134 
L 603 4134 
L 603 4863 
z
" transform="scale(0.015625)"/>
       <path id="DejaVuSans-63" d="M 3122 3366 
L 3122 2828 
Q 2878 2963 2633 3030 
Q 2388 3097 2138 3097 
Q 1578 3097 1268 2742 
Q 959 2388 959 1747 
Q 959 1106 1268 751 
Q 1578 397 2138 397 
Q 2388 397 2633 464 
Q 2878 531 3122 666 
L 3122 134 
Q 2881 22 2623 -34 
Q 2366 -91 2075 -91 
Q 1284 -91 818 406 
Q 353 903 353 1747 
Q 353 2603 823 3093 
Q 1294 3584 2113 3584 
Q 2378 3584 2631 3529 
Q 2884 3475 3122 3366 
z
" transform="scale(0.015625)"/>
       <path id="DejaVuSans-74" d="M 1172 4494 
L 1172 3500 
L 2356 3500 
L 2356 3053 
L 1172 3053 
L 1172 1153 
Q 1172 725 1289 603 
Q 1406 481 1766 481 
L 2356 481 
L 2356 0 
L 1766 0 
Q 1100 0 847 248 
Q 594 497 594 1153 
L 594 3053 
L 172 3053 
L 172 3500 
L 594 3500 
L 594 4494 
L 1172 4494 
z
" transform="scale(0.015625)"/>
       <path id="DejaVuSans-61" d="M 2194 1759 
Q 1497 1759 1228 1600 
Q 959 1441 959 1056 
Q 959 750 1161 570 
Q 1363 391 1709 391 
Q 2188 391 2477 730 
Q 2766 1069 2766 1631 
L 2766 1759 
L 2194 1759 
z
M 3341 1997 
L 3341 0 
L 2766 0 
L 2766 531 
Q 2569 213 2275 61 
Q 1981 -91 1556 -91 
Q 1019 -91 701 211 
Q 384 513 384 1019 
Q 384 1609 779 1909 
Q 1175 2209 1959 2209 
L 2766 2209 
L 2766 2266 
Q 2766 2663 2505 2880 
Q 2244 3097 1772 3097 
Q 1472 3097 1187 3025 
Q 903 2953 641 2809 
L 641 3341 
Q 956 3463 1253 3523 
Q 1550 3584 1831 3584 
Q 2591 3584 2966 3190 
Q 3341 2797 3341 1997 
z
" transform="scale(0.015625)"/>
       <path id="DejaVuSans-7a" d="M 353 3500 
L 3084 3500 
L 3084 2975 
L 922 459 
L 3084 459 
L 3084 0 
L 275 0 
L 275 525 
L 2438 3041 
L 353 3041 
L 353 3500 
z
" transform="scale(0.015625)"/>
       <path id="DejaVuSans-4f" d="M 2522 4238 
Q 1834 4238 1429 3725 
Q 1025 3213 1025 2328 
Q 1025 1447 1429 934 
Q 1834 422 2522 422 
Q 3209 422 3611 934 
Q 4013 1447 4013 2328 
Q 4013 3213 3611 3725 
Q 3209 4238 2522 4238 
z
M 2522 4750 
Q 3503 4750 4090 4092 
Q 4678 3434 4678 2328 
Q 4678 1225 4090 567 
Q 3503 -91 2522 -91 
Q 1538 -91 948 565 
Q 359 1222 359 2328 
Q 359 3434 948 4092 
Q 1538 4750 2522 4750 
z
" transform="scale(0.015625)"/>
       <path id="DejaVuSans-2f" d="M 1625 4666 
L 2156 4666 
L 531 -594 
L 0 -594 
L 1625 4666 
z
" transform="scale(0.015625)"/>
       <path id="DejaVuSans-46" d="M 628 4666 
L 3309 4666 
L 3309 4134 
L 1259 4134 
L 1259 2759 
L 3109 2759 
L 3109 2228 
L 1259 2228 
L 1259 0 
L 628 0 
L 628 4666 
z
" transform="scale(0.015625)"/>
      </defs>
      <use xlink:href="#DejaVuSans-50"/>
      <use xlink:href="#DejaVuSans-72" x="58.552734"/>
      <use xlink:href="#DejaVuSans-65" x="97.416016"/>
      <use xlink:href="#DejaVuSans-64" x="158.939453"/>
      <use xlink:href="#DejaVuSans-69" x="222.416016"/>
      <use xlink:href="#DejaVuSans-63" x="250.199219"/>
      <use xlink:href="#DejaVuSans-74" x="305.179688"/>
      <use xlink:href="#DejaVuSans-65" x="344.388672"/>
      <use xlink:href="#DejaVuSans-64" x="405.912109"/>
      <use xlink:href="#DejaVuSans-20" x="469.388672"/>
      <use xlink:href="#DejaVuSans-4e" x="501.175781"/>
      <use xlink:href="#DejaVuSans-6f" x="575.980469"/>
      <use xlink:href="#DejaVuSans-72" x="637.162109"/>
      <use xlink:href="#DejaVuSans-6d" x="676.525391"/>
      <use xlink:href="#DejaVuSans-61" x="773.9375"/>
      <use xlink:href="#DejaVuSans-6c" x="835.216797"/>
      <use xlink:href="#DejaVuSans-69" x="863"/>
      <use xlink:href="#DejaVuSans-7a" x="890.783203"/>
      <use xlink:href="#DejaVuSans-65" x="943.273438"/>
      <use xlink:href="#DejaVuSans-64" x="1004.796875"/>
      <use xlink:href="#DejaVuSans-20" x="1068.273438"/>
      <use xlink:href="#DejaVuSans-4f" x="1100.060547"/>
      <use xlink:href="#DejaVuSans-4e" x="1178.771484"/>
      <use xlink:href="#DejaVuSans-2f" x="1253.576172"/>
      <use xlink:href="#DejaVuSans-4f" x="1287.267578"/>
      <use xlink:href="#DejaVuSans-46" x="1365.978516"/>
      <use xlink:href="#DejaVuSans-46" x="1423.498047"/>
     </g>
    </g>
   </g>
   <g id="patch_40">
    <path d="M 72 256.32 
L 72 34.56 
" style="fill: none; stroke: #000000; stroke-width: 2; stroke-linejoin: miter; stroke-linecap: square"/>
   </g>
   <g id="patch_41">
    <path d="M 72 256.32 
L 274.909091 256.32 
" style="fill: none; stroke: #000000; stroke-width: 2; stroke-linejoin: miter; stroke-linecap: square"/>
   </g>
   <g id="text_13">
    <!-- Pre-Optimization Average -->
    <g transform="translate(96.661108 28.56) scale(0.12 -0.12)">
     <defs>
      <path id="DejaVuSans-2d" d="M 313 2009 
L 1997 2009 
L 1997 1497 
L 313 1497 
L 313 2009 
z
" transform="scale(0.015625)"/>
      <path id="DejaVuSans-70" d="M 1159 525 
L 1159 -1331 
L 581 -1331 
L 581 3500 
L 1159 3500 
L 1159 2969 
Q 1341 3281 1617 3432 
Q 1894 3584 2278 3584 
Q 2916 3584 3314 3078 
Q 3713 2572 3713 1747 
Q 3713 922 3314 415 
Q 2916 -91 2278 -91 
Q 1894 -91 1617 61 
Q 1341 213 1159 525 
z
M 3116 1747 
Q 3116 2381 2855 2742 
Q 2594 3103 2138 3103 
Q 1681 3103 1420 2742 
Q 1159 2381 1159 1747 
Q 1159 1113 1420 752 
Q 1681 391 2138 391 
Q 2594 391 2855 752 
Q 3116 1113 3116 1747 
z
" transform="scale(0.015625)"/>
      <path id="DejaVuSans-6e" d="M 3513 2113 
L 3513 0 
L 2938 0 
L 2938 2094 
Q 2938 2591 2744 2837 
Q 2550 3084 2163 3084 
Q 1697 3084 1428 2787 
Q 1159 2491 1159 1978 
L 1159 0 
L 581 0 
L 581 3500 
L 1159 3500 
L 1159 2956 
Q 1366 3272 1645 3428 
Q 1925 3584 2291 3584 
Q 2894 3584 3203 3211 
Q 3513 2838 3513 2113 
z
" transform="scale(0.015625)"/>
      <path id="DejaVuSans-41" d="M 2188 4044 
L 1331 1722 
L 3047 1722 
L 2188 4044 
z
M 1831 4666 
L 2547 4666 
L 4325 0 
L 3669 0 
L 3244 1197 
L 1141 1197 
L 716 0 
L 50 0 
L 1831 4666 
z
" transform="scale(0.015625)"/>
      <path id="DejaVuSans-76" d="M 191 3500 
L 800 3500 
L 1894 563 
L 2988 3500 
L 3597 3500 
L 2284 0 
L 1503 0 
L 191 3500 
z
" transform="scale(0.015625)"/>
      <path id="DejaVuSans-67" d="M 2906 1791 
Q 2906 2416 2648 2759 
Q 2391 3103 1925 3103 
Q 1463 3103 1205 2759 
Q 947 2416 947 1791 
Q 947 1169 1205 825 
Q 1463 481 1925 481 
Q 2391 481 2648 825 
Q 2906 1169 2906 1791 
z
M 3481 434 
Q 3481 -459 3084 -895 
Q 2688 -1331 1869 -1331 
Q 1566 -1331 1297 -1286 
Q 1028 -1241 775 -1147 
L 775 -588 
Q 1028 -725 1275 -790 
Q 1522 -856 1778 -856 
Q 2344 -856 2625 -561 
Q 2906 -266 2906 331 
L 2906 616 
Q 2728 306 2450 153 
Q 2172 0 1784 0 
Q 1141 0 747 490 
Q 353 981 353 1791 
Q 353 2603 747 3093 
Q 1141 3584 1784 3584 
Q 2172 3584 2450 3431 
Q 2728 3278 2906 2969 
L 2906 3500 
L 3481 3500 
L 3481 434 
z
" transform="scale(0.015625)"/>
     </defs>
     <use xlink:href="#DejaVuSans-50"/>
     <use xlink:href="#DejaVuSans-72" x="58.552734"/>
     <use xlink:href="#DejaVuSans-65" x="97.416016"/>
     <use xlink:href="#DejaVuSans-2d" x="158.939453"/>
     <use xlink:href="#DejaVuSans-4f" x="197.773438"/>
     <use xlink:href="#DejaVuSans-70" x="276.484375"/>
     <use xlink:href="#DejaVuSans-74" x="339.960938"/>
     <use xlink:href="#DejaVuSans-69" x="379.169922"/>
     <use xlink:href="#DejaVuSans-6d" x="406.953125"/>
     <use xlink:href="#DejaVuSans-69" x="504.365234"/>
     <use xlink:href="#DejaVuSans-7a" x="532.148438"/>
     <use xlink:href="#DejaVuSans-61" x="584.638672"/>
     <use xlink:href="#DejaVuSans-74" x="645.917969"/>
     <use xlink:href="#DejaVuSans-69" x="685.126953"/>
     <use xlink:href="#DejaVuSans-6f" x="712.910156"/>
     <use xlink:href="#DejaVuSans-6e" x="774.091797"/>
     <use xlink:href="#DejaVuSans-20" x="837.470703"/>
     <use xlink:href="#DejaVuSans-41" x="869.257812"/>
     <use xlink:href="#DejaVuSans-76" x="931.791016"/>
     <use xlink:href="#DejaVuSans-65" x="990.970703"/>
     <use xlink:href="#DejaVuSans-72" x="1052.494141"/>
     <use xlink:href="#DejaVuSans-61" x="1093.607422"/>
     <use xlink:href="#DejaVuSans-67" x="1154.886719"/>
     <use xlink:href="#DejaVuSans-65" x="1218.363281"/>
    </g>
   </g>
  </g>
  <g id="axes_2">
   <g id="patch_42">
    <path d="M 315.490909 256.32 
L 518.4 256.32 
L 518.4 34.56 
L 315.490909 34.56 
L 315.490909 256.32 
z
" style="fill: none"/>
   </g>
   <g id="patch_43">
    <path d="M 324.71405 256.32 
L 328.724111 256.32 
L 328.724111 61.494988 
L 324.71405 61.494988 
z
" clip-path="url(#pc0bfd5cc0c)" style="fill: #1f77b4"/>
   </g>
   <g id="patch_44">
    <path d="M 329.726626 256.32 
L 333.736687 256.32 
L 333.736687 61.225345 
L 329.726626 61.225345 
z
" clip-path="url(#pc0bfd5cc0c)" style="fill: #1f77b4"/>
   </g>
   <g id="patch_45">
    <path d="M 334.739202 256.32 
L 338.749263 256.32 
L 338.749263 90.712503 
L 334.739202 90.712503 
z
" clip-path="url(#pc0bfd5cc0c)" style="fill: #1f77b4"/>
   </g>
   <g id="patch_46">
    <path d="M 339.751779 256.32 
L 343.76184 256.32 
L 343.76184 59.624827 
L 339.751779 59.624827 
z
" clip-path="url(#pc0bfd5cc0c)" style="fill: #1f77b4"/>
   </g>
   <g id="patch_47">
    <path d="M 344.764355 256.32 
L 348.774416 256.32 
L 348.774416 90.553213 
L 344.764355 90.553213 
z
" clip-path="url(#pc0bfd5cc0c)" style="fill: #1f77b4"/>
   </g>
   <g id="patch_48">
    <path d="M 349.776931 256.32 
L 353.786992 256.32 
L 353.786992 108.776618 
L 349.776931 108.776618 
z
" clip-path="url(#pc0bfd5cc0c)" style="fill: #1f77b4"/>
   </g>
   <g id="patch_49">
    <path d="M 354.789508 256.32 
L 358.799569 256.32 
L 358.799569 106.558732 
L 354.789508 106.558732 
z
" clip-path="url(#pc0bfd5cc0c)" style="fill: #1f77b4"/>
   </g>
   <g id="patch_50">
    <path d="M 359.802084 256.32 
L 363.812145 256.32 
L 363.812145 89.008487 
L 359.802084 89.008487 
z
" clip-path="url(#pc0bfd5cc0c)" style="fill: #1f77b4"/>
   </g>
   <g id="patch_51">
    <path d="M 364.81466 256.32 
L 368.824722 256.32 
L 368.824722 67.973135 
L 364.81466 67.973135 
z
" clip-path="url(#pc0bfd5cc0c)" style="fill: #1f77b4"/>
   </g>
   <g id="patch_52">
    <path d="M 369.827237 256.32 
L 373.837298 256.32 
L 373.837298 77.53983 
L 369.827237 77.53983 
z
" clip-path="url(#pc0bfd5cc0c)" style="fill: #1f77b4"/>
   </g>
   <g id="patch_53">
    <path d="M 374.839813 256.32 
L 378.849874 256.32 
L 378.849874 104.362732 
L 374.839813 104.362732 
z
" clip-path="url(#pc0bfd5cc0c)" style="fill: #1f77b4"/>
   </g>
   <g id="patch_54">
    <path d="M 379.85239 256.32 
L 383.862451 256.32 
L 383.862451 103.013895 
L 379.85239 103.013895 
z
" clip-path="url(#pc0bfd5cc0c)" style="fill: #1f77b4"/>
   </g>
   <g id="patch_55">
    <path d="M 384.864966 256.32 
L 388.875027 256.32 
L 388.875027 83.768169 
L 384.864966 83.768169 
z
" clip-path="url(#pc0bfd5cc0c)" style="fill: #1f77b4"/>
   </g>
   <g id="patch_56">
    <path d="M 389.877542 256.32 
L 393.887603 256.32 
L 393.887603 97.805796 
L 389.877542 97.805796 
z
" clip-path="url(#pc0bfd5cc0c)" style="fill: #1f77b4"/>
   </g>
   <g id="patch_57">
    <path d="M 394.890119 256.32 
L 398.90018 256.32 
L 398.90018 60.777486 
L 394.890119 60.777486 
z
" clip-path="url(#pc0bfd5cc0c)" style="fill: #1f77b4"/>
   </g>
   <g id="patch_58">
    <path d="M 399.902695 256.32 
L 403.912756 256.32 
L 403.912756 88.897407 
L 399.902695 88.897407 
z
" clip-path="url(#pc0bfd5cc0c)" style="fill: #1f77b4"/>
   </g>
   <g id="patch_59">
    <path d="M 404.915271 256.32 
L 408.925332 256.32 
L 408.925332 83.206553 
L 404.915271 83.206553 
z
" clip-path="url(#pc0bfd5cc0c)" style="fill: #1f77b4"/>
   </g>
   <g id="patch_60">
    <path d="M 409.927848 256.32 
L 413.937909 256.32 
L 413.937909 91.863273 
L 409.927848 91.863273 
z
" clip-path="url(#pc0bfd5cc0c)" style="fill: #1f77b4"/>
   </g>
   <g id="patch_61">
    <path d="M 414.940424 256.32 
L 418.950485 256.32 
L 418.950485 102.799558 
L 414.940424 102.799558 
z
" clip-path="url(#pc0bfd5cc0c)" style="fill: #1f77b4"/>
   </g>
   <g id="patch_62">
    <path d="M 419.953 256.32 
L 423.963061 256.32 
L 423.963061 91.16194 
L 419.953 91.16194 
z
" clip-path="url(#pc0bfd5cc0c)" style="fill: #1f77b4"/>
   </g>
   <g id="patch_63">
    <path d="M 424.965577 256.32 
L 428.975638 256.32 
L 428.975638 109.696312 
L 424.965577 109.696312 
z
" clip-path="url(#pc0bfd5cc0c)" style="fill: #1f77b4"/>
   </g>
   <g id="patch_64">
    <path d="M 429.978153 256.32 
L 433.988214 256.32 
L 433.988214 34.157114 
L 429.978153 34.157114 
z
" clip-path="url(#pc0bfd5cc0c)" style="fill: #1f77b4"/>
   </g>
   <g id="patch_65">
    <path d="M 434.990729 256.32 
L 439.000791 256.32 
L 439.000791 78.102454 
L 434.990729 78.102454 
z
" clip-path="url(#pc0bfd5cc0c)" style="fill: #1f77b4"/>
   </g>
   <g id="patch_66">
    <path d="M 440.003306 256.32 
L 444.013367 256.32 
L 444.013367 82.812811 
L 440.003306 82.812811 
z
" clip-path="url(#pc0bfd5cc0c)" style="fill: #1f77b4"/>
   </g>
   <g id="patch_67">
    <path d="M 445.015882 256.32 
L 449.025943 256.32 
L 449.025943 35.850896 
L 445.015882 35.850896 
z
" clip-path="url(#pc0bfd5cc0c)" style="fill: #1f77b4"/>
   </g>
   <g id="patch_68">
    <path d="M 450.028458 256.32 
L 454.03852 256.32 
L 454.03852 83.385092 
L 450.028458 83.385092 
z
" clip-path="url(#pc0bfd5cc0c)" style="fill: #1f77b4"/>
   </g>
   <g id="patch_69">
    <path d="M 455.041035 256.32 
L 459.051096 256.32 
L 459.051096 82.057266 
L 455.041035 82.057266 
z
" clip-path="url(#pc0bfd5cc0c)" style="fill: #1f77b4"/>
   </g>
   <g id="patch_70">
    <path d="M 460.053611 256.32 
L 464.063672 256.32 
L 464.063672 74.497774 
L 460.053611 74.497774 
z
" clip-path="url(#pc0bfd5cc0c)" style="fill: #1f77b4"/>
   </g>
   <g id="patch_71">
    <path d="M 465.066188 256.32 
L 469.076249 256.32 
L 469.076249 64.067076 
L 465.066188 64.067076 
z
" clip-path="url(#pc0bfd5cc0c)" style="fill: #1f77b4"/>
   </g>
   <g id="patch_72">
    <path d="M 470.078764 256.32 
L 474.088825 256.32 
L 474.088825 87.251825 
L 470.078764 87.251825 
z
" clip-path="url(#pc0bfd5cc0c)" style="fill: #1f77b4"/>
   </g>
   <g id="patch_73">
    <path d="M 475.09134 256.32 
L 479.101401 256.32 
L 479.101401 60.012241 
L 475.09134 60.012241 
z
" clip-path="url(#pc0bfd5cc0c)" style="fill: #1f77b4"/>
   </g>
   <g id="patch_74">
    <path d="M 480.103917 256.32 
L 484.113978 256.32 
L 484.113978 78.61529 
L 480.103917 78.61529 
z
" clip-path="url(#pc0bfd5cc0c)" style="fill: #1f77b4"/>
   </g>
   <g id="patch_75">
    <path d="M 485.116493 256.32 
L 489.126554 256.32 
L 489.126554 51.868587 
L 485.116493 51.868587 
z
" clip-path="url(#pc0bfd5cc0c)" style="fill: #1f77b4"/>
   </g>
   <g id="patch_76">
    <path d="M 490.129069 256.32 
L 494.13913 256.32 
L 494.13913 95.662392 
L 490.129069 95.662392 
z
" clip-path="url(#pc0bfd5cc0c)" style="fill: #1f77b4"/>
   </g>
   <g id="patch_77">
    <path d="M 495.141646 256.32 
L 499.151707 256.32 
L 499.151707 68.110393 
L 495.141646 68.110393 
z
" clip-path="url(#pc0bfd5cc0c)" style="fill: #1f77b4"/>
   </g>
   <g id="patch_78">
    <path d="M 500.154222 256.32 
L 504.164283 256.32 
L 504.164283 108.298832 
L 500.154222 108.298832 
z
" clip-path="url(#pc0bfd5cc0c)" style="fill: #1f77b4"/>
   </g>
   <g id="patch_79">
    <path d="M 505.166798 256.32 
L 509.17686 256.32 
L 509.17686 84.633391 
L 505.166798 84.633391 
z
" clip-path="url(#pc0bfd5cc0c)" style="fill: #1f77b4"/>
   </g>
   <g id="matplotlib.axis_3">
    <g id="xtick_5">
     <g id="line2d_11">
      <g>
       <use xlink:href="#m1aeb26978e" x="326.71908" y="256.32" style="stroke: #000000; stroke-width: 0.8"/>
      </g>
     </g>
     <g id="text_14">
      <!-- 0 -->
      <g transform="translate(323.53783 270.918437) scale(0.1 -0.1)">
       <use xlink:href="#DejaVuSans-30"/>
      </g>
     </g>
    </g>
    <g id="xtick_6">
     <g id="line2d_12">
      <g>
       <use xlink:href="#m1aeb26978e" x="376.844844" y="256.32" style="stroke: #000000; stroke-width: 0.8"/>
      </g>
     </g>
     <g id="text_15">
      <!-- 10 -->
      <g transform="translate(370.482344 270.918437) scale(0.1 -0.1)">
       <use xlink:href="#DejaVuSans-31"/>
       <use xlink:href="#DejaVuSans-30" x="63.623047"/>
      </g>
     </g>
    </g>
    <g id="xtick_7">
     <g id="line2d_13">
      <g>
       <use xlink:href="#m1aeb26978e" x="426.970607" y="256.32" style="stroke: #000000; stroke-width: 0.8"/>
      </g>
     </g>
     <g id="text_16">
      <!-- 20 -->
      <g transform="translate(420.608107 270.918437) scale(0.1 -0.1)">
       <use xlink:href="#DejaVuSans-32"/>
       <use xlink:href="#DejaVuSans-30" x="63.623047"/>
      </g>
     </g>
    </g>
    <g id="xtick_8">
     <g id="line2d_14">
      <g>
       <use xlink:href="#m1aeb26978e" x="477.096371" y="256.32" style="stroke: #000000; stroke-width: 0.8"/>
      </g>
     </g>
     <g id="text_17">
      <!-- 30 -->
      <g transform="translate(470.733871 270.918437) scale(0.1 -0.1)">
       <use xlink:href="#DejaVuSans-33"/>
       <use xlink:href="#DejaVuSans-30" x="63.623047"/>
      </g>
     </g>
    </g>
    <g id="text_18">
     <!-- Model Number -->
     <g transform="translate(380.257173 284.596563) scale(0.1 -0.1)">
      <use xlink:href="#DejaVuSans-4d"/>
      <use xlink:href="#DejaVuSans-6f" x="86.279297"/>
      <use xlink:href="#DejaVuSans-64" x="147.460938"/>
      <use xlink:href="#DejaVuSans-65" x="210.9375"/>
      <use xlink:href="#DejaVuSans-6c" x="272.460938"/>
      <use xlink:href="#DejaVuSans-20" x="300.244141"/>
      <use xlink:href="#DejaVuSans-4e" x="332.03125"/>
      <use xlink:href="#DejaVuSans-75" x="406.835938"/>
      <use xlink:href="#DejaVuSans-6d" x="470.214844"/>
      <use xlink:href="#DejaVuSans-62" x="567.626953"/>
      <use xlink:href="#DejaVuSans-65" x="631.103516"/>
      <use xlink:href="#DejaVuSans-72" x="692.626953"/>
     </g>
    </g>
   </g>
   <g id="matplotlib.axis_4">
    <g id="ytick_7">
     <g id="line2d_15">
      <g>
       <use xlink:href="#mab7e00542e" x="315.490909" y="256.32" style="stroke: #000000; stroke-width: 0.8"/>
      </g>
     </g>
     <g id="text_19">
      <!-- 0.0 -->
      <g transform="translate(292.587784 260.119219) scale(0.1 -0.1)">
       <use xlink:href="#DejaVuSans-30"/>
       <use xlink:href="#DejaVuSans-2e" x="63.623047"/>
       <use xlink:href="#DejaVuSans-30" x="95.410156"/>
      </g>
     </g>
    </g>
    <g id="ytick_8">
     <g id="line2d_16">
      <g>
       <use xlink:href="#mab7e00542e" x="315.490909" y="211.968" style="stroke: #000000; stroke-width: 0.8"/>
      </g>
     </g>
     <g id="text_20">
      <!-- 0.2 -->
      <g transform="translate(292.587784 215.767219) scale(0.1 -0.1)">
       <use xlink:href="#DejaVuSans-30"/>
       <use xlink:href="#DejaVuSans-2e" x="63.623047"/>
       <use xlink:href="#DejaVuSans-32" x="95.410156"/>
      </g>
     </g>
    </g>
    <g id="ytick_9">
     <g id="line2d_17">
      <g>
       <use xlink:href="#mab7e00542e" x="315.490909" y="167.616" style="stroke: #000000; stroke-width: 0.8"/>
      </g>
     </g>
     <g id="text_21">
      <!-- 0.4 -->
      <g transform="translate(292.587784 171.415219) scale(0.1 -0.1)">
       <use xlink:href="#DejaVuSans-30"/>
       <use xlink:href="#DejaVuSans-2e" x="63.623047"/>
       <use xlink:href="#DejaVuSans-34" x="95.410156"/>
      </g>
     </g>
    </g>
    <g id="ytick_10">
     <g id="line2d_18">
      <g>
       <use xlink:href="#mab7e00542e" x="315.490909" y="123.264" style="stroke: #000000; stroke-width: 0.8"/>
      </g>
     </g>
     <g id="text_22">
      <!-- 0.6 -->
      <g transform="translate(292.587784 127.063219) scale(0.1 -0.1)">
       <use xlink:href="#DejaVuSans-30"/>
       <use xlink:href="#DejaVuSans-2e" x="63.623047"/>
       <use xlink:href="#DejaVuSans-36" x="95.410156"/>
      </g>
     </g>
    </g>
    <g id="ytick_11">
     <g id="line2d_19">
      <g>
       <use xlink:href="#mab7e00542e" x="315.490909" y="78.912" style="stroke: #000000; stroke-width: 0.8"/>
      </g>
     </g>
     <g id="text_23">
      <!-- 0.8 -->
      <g transform="translate(292.587784 82.711219) scale(0.1 -0.1)">
       <use xlink:href="#DejaVuSans-30"/>
       <use xlink:href="#DejaVuSans-2e" x="63.623047"/>
       <use xlink:href="#DejaVuSans-38" x="95.410156"/>
      </g>
     </g>
    </g>
    <g id="ytick_12">
     <g id="line2d_20">
      <g>
       <use xlink:href="#mab7e00542e" x="315.490909" y="34.56" style="stroke: #000000; stroke-width: 0.8"/>
      </g>
     </g>
     <g id="text_24">
      <!-- 1.0 -->
      <g transform="translate(292.587784 38.359219) scale(0.1 -0.1)">
       <use xlink:href="#DejaVuSans-31"/>
       <use xlink:href="#DejaVuSans-2e" x="63.623047"/>
       <use xlink:href="#DejaVuSans-30" x="95.410156"/>
      </g>
     </g>
    </g>
    <g id="text_25">
     <!-- Predicted Normalized ON/OFF -->
     <g transform="translate(286.508097 219.492344) rotate(-90) scale(0.1 -0.1)">
      <use xlink:href="#DejaVuSans-50"/>
      <use xlink:href="#DejaVuSans-72" x="58.552734"/>
      <use xlink:href="#DejaVuSans-65" x="97.416016"/>
      <use xlink:href="#DejaVuSans-64" x="158.939453"/>
      <use xlink:href="#DejaVuSans-69" x="222.416016"/>
      <use xlink:href="#DejaVuSans-63" x="250.199219"/>
      <use xlink:href="#DejaVuSans-74" x="305.179688"/>
      <use xlink:href="#DejaVuSans-65" x="344.388672"/>
      <use xlink:href="#DejaVuSans-64" x="405.912109"/>
      <use xlink:href="#DejaVuSans-20" x="469.388672"/>
      <use xlink:href="#DejaVuSans-4e" x="501.175781"/>
      <use xlink:href="#DejaVuSans-6f" x="575.980469"/>
      <use xlink:href="#DejaVuSans-72" x="637.162109"/>
      <use xlink:href="#DejaVuSans-6d" x="676.525391"/>
      <use xlink:href="#DejaVuSans-61" x="773.9375"/>
      <use xlink:href="#DejaVuSans-6c" x="835.216797"/>
      <use xlink:href="#DejaVuSans-69" x="863"/>
      <use xlink:href="#DejaVuSans-7a" x="890.783203"/>
      <use xlink:href="#DejaVuSans-65" x="943.273438"/>
      <use xlink:href="#DejaVuSans-64" x="1004.796875"/>
      <use xlink:href="#DejaVuSans-20" x="1068.273438"/>
      <use xlink:href="#DejaVuSans-4f" x="1100.060547"/>
      <use xlink:href="#DejaVuSans-4e" x="1178.771484"/>
      <use xlink:href="#DejaVuSans-2f" x="1253.576172"/>
      <use xlink:href="#DejaVuSans-4f" x="1287.267578"/>
      <use xlink:href="#DejaVuSans-46" x="1365.978516"/>
      <use xlink:href="#DejaVuSans-46" x="1423.498047"/>
     </g>
    </g>
   </g>
   <g id="patch_80">
    <path d="M 315.490909 256.32 
L 315.490909 34.56 
" style="fill: none; stroke: #000000; stroke-width: 2; stroke-linejoin: miter; stroke-linecap: square"/>
   </g>
   <g id="patch_81">
    <path d="M 315.490909 256.32 
L 518.4 256.32 
" style="fill: none; stroke: #000000; stroke-width: 2; stroke-linejoin: miter; stroke-linecap: square"/>
   </g>
   <g id="text_26">
    <!-- Post-Optimization Average -->
    <g transform="translate(337.138892 28.56) scale(0.12 -0.12)">
     <defs>
      <path id="DejaVuSans-73" d="M 2834 3397 
L 2834 2853 
Q 2591 2978 2328 3040 
Q 2066 3103 1784 3103 
Q 1356 3103 1142 2972 
Q 928 2841 928 2578 
Q 928 2378 1081 2264 
Q 1234 2150 1697 2047 
L 1894 2003 
Q 2506 1872 2764 1633 
Q 3022 1394 3022 966 
Q 3022 478 2636 193 
Q 2250 -91 1575 -91 
Q 1294 -91 989 -36 
Q 684 19 347 128 
L 347 722 
Q 666 556 975 473 
Q 1284 391 1588 391 
Q 1994 391 2212 530 
Q 2431 669 2431 922 
Q 2431 1156 2273 1281 
Q 2116 1406 1581 1522 
L 1381 1569 
Q 847 1681 609 1914 
Q 372 2147 372 2553 
Q 372 3047 722 3315 
Q 1072 3584 1716 3584 
Q 2034 3584 2315 3537 
Q 2597 3491 2834 3397 
z
" transform="scale(0.015625)"/>
     </defs>
     <use xlink:href="#DejaVuSans-50"/>
     <use xlink:href="#DejaVuSans-6f" x="56.677734"/>
     <use xlink:href="#DejaVuSans-73" x="117.859375"/>
     <use xlink:href="#DejaVuSans-74" x="169.958984"/>
     <use xlink:href="#DejaVuSans-2d" x="209.167969"/>
     <use xlink:href="#DejaVuSans-4f" x="248.001953"/>
     <use xlink:href="#DejaVuSans-70" x="326.712891"/>
     <use xlink:href="#DejaVuSans-74" x="390.189453"/>
     <use xlink:href="#DejaVuSans-69" x="429.398438"/>
     <use xlink:href="#DejaVuSans-6d" x="457.181641"/>
     <use xlink:href="#DejaVuSans-69" x="554.59375"/>
     <use xlink:href="#DejaVuSans-7a" x="582.376953"/>
     <use xlink:href="#DejaVuSans-61" x="634.867188"/>
     <use xlink:href="#DejaVuSans-74" x="696.146484"/>
     <use xlink:href="#DejaVuSans-69" x="735.355469"/>
     <use xlink:href="#DejaVuSans-6f" x="763.138672"/>
     <use xlink:href="#DejaVuSans-6e" x="824.320312"/>
     <use xlink:href="#DejaVuSans-20" x="887.699219"/>
     <use xlink:href="#DejaVuSans-41" x="919.486328"/>
     <use xlink:href="#DejaVuSans-76" x="982.019531"/>
     <use xlink:href="#DejaVuSans-65" x="1041.199219"/>
     <use xlink:href="#DejaVuSans-72" x="1102.722656"/>
     <use xlink:href="#DejaVuSans-61" x="1143.835938"/>
     <use xlink:href="#DejaVuSans-67" x="1205.115234"/>
     <use xlink:href="#DejaVuSans-65" x="1268.591797"/>
    </g>
   </g>
  </g>
 </g>
 <defs>
  <clipPath id="pe7061dd7c3">
   <rect x="72" y="34.56" width="202.909091" height="221.76"/>
  </clipPath>
  <clipPath id="pc0bfd5cc0c">
   <rect x="315.490909" y="34.56" width="202.909091" height="221.76"/>
  </clipPath>
 </defs>
</svg>
