<?xml version="1.0" encoding="utf-8" standalone="no"?>
<!DOCTYPE svg PUBLIC "-//W3C//DTD SVG 1.1//EN"
  "http://www.w3.org/Graphics/SVG/1.1/DTD/svg11.dtd">
<svg xmlns:xlink="http://www.w3.org/1999/xlink" width="432pt" height="288pt" viewBox="0 0 432 288" xmlns="http://www.w3.org/2000/svg" version="1.1">
 <metadata>
  <rdf:RDF xmlns:dc="http://purl.org/dc/elements/1.1/" xmlns:cc="http://creativecommons.org/ns#" xmlns:rdf="http://www.w3.org/1999/02/22-rdf-syntax-ns#">
   <cc:Work>
    <dc:type rdf:resource="http://purl.org/dc/dcmitype/StillImage"/>
    <dc:date>2024-03-10T17:01:05.027525</dc:date>
    <dc:format>image/svg+xml</dc:format>
    <dc:creator>
     <cc:Agent>
      <dc:title>Matplotlib v3.6.3, https://matplotlib.org/</dc:title>
     </cc:Agent>
    </dc:creator>
   </cc:Work>
  </rdf:RDF>
 </metadata>
 <defs>
  <style type="text/css">*{stroke-linejoin: round; stroke-linecap: butt}</style>
 </defs>
 <g id="figure_1">
  <g id="patch_1">
   <path d="M 0 288 
L 432 288 
L 432 0 
L 0 0 
L 0 288 
z
" style="fill: none"/>
  </g>
  <g id="axes_1">
   <g id="patch_2">
    <path d="M 54 256.32 
L 388.8 256.32 
L 388.8 34.56 
L 54 34.56 
L 54 256.32 
z
" style="fill: none"/>
   </g>
   <g id="matplotlib.axis_1">
    <g id="xtick_1">
     <g id="line2d_1">
      <defs>
       <path id="mc587a85faf" d="M 0 0 
L 0 3.5 
" style="stroke: #000000; stroke-width: 2"/>
      </defs>
      <g>
       <use xlink:href="#mc587a85faf" x="84.436364" y="256.32" style="stroke: #000000; stroke-width: 2"/>
      </g>
     </g>
     <g id="text_1">
      <!-- 0.0 -->
      <g transform="translate(74.706364 273.362813) scale(0.14 -0.14)">
       <defs>
        <path id="Helvetica-30" d="M 1731 4475 
Q 2600 4475 2988 3759 
Q 3288 3206 3288 2244 
Q 3288 1331 3016 734 
Q 2622 -122 1728 -122 
Q 922 -122 528 578 
Q 200 1163 200 2147 
Q 200 2909 397 3456 
Q 766 4475 1731 4475 
z
M 1725 391 
Q 2163 391 2422 778 
Q 2681 1166 2681 2222 
Q 2681 2984 2493 3476 
Q 2306 3969 1766 3969 
Q 1269 3969 1039 3501 
Q 809 3034 809 2125 
Q 809 1441 956 1025 
Q 1181 391 1725 391 
z
" transform="scale(0.015625)"/>
        <path id="Helvetica-2e" d="M 547 681 
L 1200 681 
L 1200 0 
L 547 0 
L 547 681 
z
" transform="scale(0.015625)"/>
       </defs>
       <use xlink:href="#Helvetica-30"/>
       <use xlink:href="#Helvetica-2e" x="55.615234"/>
       <use xlink:href="#Helvetica-30" x="83.398438"/>
      </g>
     </g>
    </g>
    <g id="xtick_2">
     <g id="line2d_2">
      <g>
       <use xlink:href="#mc587a85faf" x="145.309091" y="256.32" style="stroke: #000000; stroke-width: 2"/>
      </g>
     </g>
     <g id="text_2">
      <!-- 0.2 -->
      <g transform="translate(135.579091 273.362813) scale(0.14 -0.14)">
       <defs>
        <path id="Helvetica-32" d="M 200 0 
Q 231 578 439 1006 
Q 647 1434 1250 1784 
L 1850 2131 
Q 2253 2366 2416 2531 
Q 2672 2791 2672 3125 
Q 2672 3516 2437 3745 
Q 2203 3975 1813 3975 
Q 1234 3975 1013 3538 
Q 894 3303 881 2888 
L 309 2888 
Q 319 3472 525 3841 
Q 891 4491 1816 4491 
Q 2584 4491 2939 4075 
Q 3294 3659 3294 3150 
Q 3294 2613 2916 2231 
Q 2697 2009 2131 1694 
L 1703 1456 
Q 1397 1288 1222 1134 
Q 909 863 828 531 
L 3272 531 
L 3272 0 
L 200 0 
z
" transform="scale(0.015625)"/>
       </defs>
       <use xlink:href="#Helvetica-30"/>
       <use xlink:href="#Helvetica-2e" x="55.615234"/>
       <use xlink:href="#Helvetica-32" x="83.398438"/>
      </g>
     </g>
    </g>
    <g id="xtick_3">
     <g id="line2d_3">
      <g>
       <use xlink:href="#mc587a85faf" x="206.181818" y="256.32" style="stroke: #000000; stroke-width: 2"/>
      </g>
     </g>
     <g id="text_3">
      <!-- 0.4 -->
      <g transform="translate(196.451818 273.362813) scale(0.14 -0.14)">
       <defs>
        <path id="Helvetica-34" d="M 2116 1584 
L 2116 3613 
L 681 1584 
L 2116 1584 
z
M 2125 0 
L 2125 1094 
L 163 1094 
L 163 1644 
L 2213 4488 
L 2688 4488 
L 2688 1584 
L 3347 1584 
L 3347 1094 
L 2688 1094 
L 2688 0 
L 2125 0 
z
" transform="scale(0.015625)"/>
       </defs>
       <use xlink:href="#Helvetica-30"/>
       <use xlink:href="#Helvetica-2e" x="55.615234"/>
       <use xlink:href="#Helvetica-34" x="83.398438"/>
      </g>
     </g>
    </g>
    <g id="xtick_4">
     <g id="line2d_4">
      <g>
       <use xlink:href="#mc587a85faf" x="267.054545" y="256.32" style="stroke: #000000; stroke-width: 2"/>
      </g>
     </g>
     <g id="text_4">
      <!-- 0.6 -->
      <g transform="translate(257.324545 273.362813) scale(0.14 -0.14)">
       <defs>
        <path id="Helvetica-36" d="M 1872 4494 
Q 2622 4494 2917 4105 
Q 3213 3716 3213 3303 
L 2656 3303 
Q 2606 3569 2497 3719 
Q 2294 4000 1881 4000 
Q 1409 4000 1131 3564 
Q 853 3128 822 2316 
Q 1016 2600 1309 2741 
Q 1578 2866 1909 2866 
Q 2472 2866 2890 2506 
Q 3309 2147 3309 1434 
Q 3309 825 2912 354 
Q 2516 -116 1781 -116 
Q 1153 -116 697 361 
Q 241 838 241 1966 
Q 241 2800 444 3381 
Q 834 4494 1872 4494 
z
M 1831 384 
Q 2275 384 2495 682 
Q 2716 981 2716 1388 
Q 2716 1731 2519 2042 
Q 2322 2353 1803 2353 
Q 1441 2353 1167 2112 
Q 894 1872 894 1388 
Q 894 963 1142 673 
Q 1391 384 1831 384 
z
" transform="scale(0.015625)"/>
       </defs>
       <use xlink:href="#Helvetica-30"/>
       <use xlink:href="#Helvetica-2e" x="55.615234"/>
       <use xlink:href="#Helvetica-36" x="83.398438"/>
      </g>
     </g>
    </g>
    <g id="xtick_5">
     <g id="line2d_5">
      <g>
       <use xlink:href="#mc587a85faf" x="327.927273" y="256.32" style="stroke: #000000; stroke-width: 2"/>
      </g>
     </g>
     <g id="text_5">
      <!-- 0.8 -->
      <g transform="translate(318.197273 273.362813) scale(0.14 -0.14)">
       <defs>
        <path id="Helvetica-38" d="M 1741 2600 
Q 2113 2600 2322 2808 
Q 2531 3016 2531 3303 
Q 2531 3553 2331 3762 
Q 2131 3972 1722 3972 
Q 1316 3972 1134 3762 
Q 953 3553 953 3272 
Q 953 2956 1187 2778 
Q 1422 2600 1741 2600 
z
M 1775 384 
Q 2166 384 2423 595 
Q 2681 806 2681 1225 
Q 2681 1659 2415 1884 
Q 2150 2109 1734 2109 
Q 1331 2109 1076 1879 
Q 822 1650 822 1244 
Q 822 894 1055 639 
Q 1288 384 1775 384 
z
M 975 2384 
Q 741 2484 609 2619 
Q 363 2869 363 3269 
Q 363 3769 725 4128 
Q 1088 4488 1753 4488 
Q 2397 4488 2762 4148 
Q 3128 3809 3128 3356 
Q 3128 2938 2916 2678 
Q 2797 2531 2547 2391 
Q 2825 2263 2984 2097 
Q 3281 1784 3281 1284 
Q 3281 694 2884 283 
Q 2488 -128 1763 -128 
Q 1109 -128 657 226 
Q 206 581 206 1256 
Q 206 1653 400 1942 
Q 594 2231 975 2384 
z
" transform="scale(0.015625)"/>
       </defs>
       <use xlink:href="#Helvetica-30"/>
       <use xlink:href="#Helvetica-2e" x="55.615234"/>
       <use xlink:href="#Helvetica-38" x="83.398438"/>
      </g>
     </g>
    </g>
    <g id="xtick_6">
     <g id="line2d_6">
      <g>
       <use xlink:href="#mc587a85faf" x="388.8" y="256.32" style="stroke: #000000; stroke-width: 2"/>
      </g>
     </g>
     <g id="text_6">
      <!-- 1.0 -->
      <g transform="translate(379.07 273.362813) scale(0.14 -0.14)">
       <defs>
        <path id="Helvetica-31" d="M 613 3169 
L 613 3600 
Q 1222 3659 1462 3798 
Q 1703 3938 1822 4456 
L 2266 4456 
L 2266 0 
L 1666 0 
L 1666 3169 
L 613 3169 
z
" transform="scale(0.015625)"/>
       </defs>
       <use xlink:href="#Helvetica-31"/>
       <use xlink:href="#Helvetica-2e" x="55.615234"/>
       <use xlink:href="#Helvetica-30" x="83.398438"/>
      </g>
     </g>
    </g>
    <g id="text_7">
     <!-- False Positive Rate -->
     <g transform="translate(161.099375 290.32375) scale(0.14 -0.14)">
      <defs>
       <path id="Helvetica-46" d="M 547 4591 
L 3731 4591 
L 3731 4028 
L 1169 4028 
L 1169 2634 
L 3422 2634 
L 3422 2088 
L 1169 2088 
L 1169 0 
L 547 0 
L 547 4591 
z
" transform="scale(0.015625)"/>
       <path id="Helvetica-61" d="M 844 891 
Q 844 647 1022 506 
Q 1200 366 1444 366 
Q 1741 366 2019 503 
Q 2488 731 2488 1250 
L 2488 1703 
Q 2384 1638 2221 1594 
Q 2059 1550 1903 1531 
L 1563 1488 
Q 1256 1447 1103 1359 
Q 844 1213 844 891 
z
M 2206 2028 
Q 2400 2053 2466 2191 
Q 2503 2266 2503 2406 
Q 2503 2694 2298 2823 
Q 2094 2953 1713 2953 
Q 1272 2953 1088 2716 
Q 984 2584 953 2325 
L 428 2325 
Q 444 2944 830 3186 
Q 1216 3428 1725 3428 
Q 2316 3428 2684 3203 
Q 3050 2978 3050 2503 
L 3050 575 
Q 3050 488 3086 434 
Q 3122 381 3238 381 
Q 3275 381 3322 386 
Q 3369 391 3422 400 
L 3422 -16 
Q 3291 -53 3222 -62 
Q 3153 -72 3034 -72 
Q 2744 -72 2613 134 
Q 2544 244 2516 444 
Q 2344 219 2022 53 
Q 1700 -113 1313 -113 
Q 847 -113 551 170 
Q 256 453 256 878 
Q 256 1344 547 1600 
Q 838 1856 1309 1916 
L 2206 2028 
z
M 1741 3428 
L 1741 3428 
z
" transform="scale(0.015625)"/>
       <path id="Helvetica-6c" d="M 428 4591 
L 991 4591 
L 991 0 
L 428 0 
L 428 4591 
z
" transform="scale(0.015625)"/>
       <path id="Helvetica-73" d="M 747 1050 
Q 772 769 888 619 
Q 1100 347 1625 347 
Q 1938 347 2175 483 
Q 2413 619 2413 903 
Q 2413 1119 2222 1231 
Q 2100 1300 1741 1391 
L 1294 1503 
Q 866 1609 663 1741 
Q 300 1969 300 2372 
Q 300 2847 642 3140 
Q 984 3434 1563 3434 
Q 2319 3434 2653 2991 
Q 2863 2709 2856 2384 
L 2325 2384 
Q 2309 2575 2191 2731 
Q 1997 2953 1519 2953 
Q 1200 2953 1036 2831 
Q 872 2709 872 2509 
Q 872 2291 1088 2159 
Q 1213 2081 1456 2022 
L 1828 1931 
Q 2434 1784 2641 1647 
Q 2969 1431 2969 969 
Q 2969 522 2630 197 
Q 2291 -128 1597 -128 
Q 850 -128 539 211 
Q 228 550 206 1050 
L 747 1050 
z
M 1578 3428 
L 1578 3428 
z
" transform="scale(0.015625)"/>
       <path id="Helvetica-65" d="M 1806 3422 
Q 2163 3422 2497 3255 
Q 2831 3088 3006 2822 
Q 3175 2569 3231 2231 
Q 3281 2000 3281 1494 
L 828 1494 
Q 844 984 1069 676 
Q 1294 369 1766 369 
Q 2206 369 2469 659 
Q 2619 828 2681 1050 
L 3234 1050 
Q 3213 866 3089 639 
Q 2966 413 2813 269 
Q 2556 19 2178 -69 
Q 1975 -119 1719 -119 
Q 1094 -119 659 336 
Q 225 791 225 1609 
Q 225 2416 662 2919 
Q 1100 3422 1806 3422 
z
M 2703 1941 
Q 2669 2306 2544 2525 
Q 2313 2931 1772 2931 
Q 1384 2931 1121 2651 
Q 859 2372 844 1941 
L 2703 1941 
z
M 1753 3428 
L 1753 3428 
z
" transform="scale(0.015625)"/>
       <path id="Helvetica-20" transform="scale(0.015625)"/>
       <path id="Helvetica-50" d="M 547 4591 
L 2613 4591 
Q 3225 4591 3600 4245 
Q 3975 3900 3975 3275 
Q 3975 2738 3640 2339 
Q 3306 1941 2613 1941 
L 1169 1941 
L 1169 0 
L 547 0 
L 547 4591 
z
M 3347 3272 
Q 3347 3778 2972 3959 
Q 2766 4056 2406 4056 
L 1169 4056 
L 1169 2466 
L 2406 2466 
Q 2825 2466 3086 2644 
Q 3347 2822 3347 3272 
z
" transform="scale(0.015625)"/>
       <path id="Helvetica-6f" d="M 1741 363 
Q 2300 363 2508 786 
Q 2716 1209 2716 1728 
Q 2716 2197 2566 2491 
Q 2328 2953 1747 2953 
Q 1231 2953 997 2559 
Q 763 2166 763 1609 
Q 763 1075 997 719 
Q 1231 363 1741 363 
z
M 1763 3444 
Q 2409 3444 2856 3012 
Q 3303 2581 3303 1744 
Q 3303 934 2909 406 
Q 2516 -122 1688 -122 
Q 997 -122 590 345 
Q 184 813 184 1600 
Q 184 2444 612 2944 
Q 1041 3444 1763 3444 
z
M 1744 3428 
L 1744 3428 
z
" transform="scale(0.015625)"/>
       <path id="Helvetica-69" d="M 413 3331 
L 984 3331 
L 984 0 
L 413 0 
L 413 3331 
z
M 413 4591 
L 984 4591 
L 984 3953 
L 413 3953 
L 413 4591 
z
" transform="scale(0.015625)"/>
       <path id="Helvetica-74" d="M 525 4281 
L 1094 4281 
L 1094 3347 
L 1628 3347 
L 1628 2888 
L 1094 2888 
L 1094 703 
Q 1094 528 1213 469 
Q 1278 434 1431 434 
Q 1472 434 1519 436 
Q 1566 438 1628 444 
L 1628 0 
Q 1531 -28 1426 -40 
Q 1322 -53 1200 -53 
Q 806 -53 665 148 
Q 525 350 525 672 
L 525 2888 
L 72 2888 
L 72 3347 
L 525 3347 
L 525 4281 
z
" transform="scale(0.015625)"/>
       <path id="Helvetica-76" d="M 688 3347 
L 1581 622 
L 2516 3347 
L 3131 3347 
L 1869 0 
L 1269 0 
L 34 3347 
L 688 3347 
z
" transform="scale(0.015625)"/>
       <path id="Helvetica-52" d="M 2622 2488 
Q 3059 2488 3314 2663 
Q 3569 2838 3569 3294 
Q 3569 3784 3213 3963 
Q 3022 4056 2703 4056 
L 1184 4056 
L 1184 2488 
L 2622 2488 
z
M 563 4591 
L 2688 4591 
Q 3213 4591 3553 4438 
Q 4200 4144 4200 3353 
Q 4200 2941 4029 2678 
Q 3859 2416 3553 2256 
Q 3822 2147 3958 1969 
Q 4094 1791 4109 1391 
L 4131 775 
Q 4141 513 4175 384 
Q 4231 166 4375 103 
L 4375 0 
L 3613 0 
Q 3581 59 3562 153 
Q 3544 247 3531 516 
L 3494 1281 
Q 3472 1731 3159 1884 
Q 2981 1969 2600 1969 
L 1184 1969 
L 1184 0 
L 563 0 
L 563 4591 
z
" transform="scale(0.015625)"/>
      </defs>
      <use xlink:href="#Helvetica-46"/>
      <use xlink:href="#Helvetica-61" x="61.083984"/>
      <use xlink:href="#Helvetica-6c" x="116.699219"/>
      <use xlink:href="#Helvetica-73" x="138.916016"/>
      <use xlink:href="#Helvetica-65" x="188.916016"/>
      <use xlink:href="#Helvetica-20" x="244.53125"/>
      <use xlink:href="#Helvetica-50" x="272.314453"/>
      <use xlink:href="#Helvetica-6f" x="339.013672"/>
      <use xlink:href="#Helvetica-73" x="394.628906"/>
      <use xlink:href="#Helvetica-69" x="444.628906"/>
      <use xlink:href="#Helvetica-74" x="466.845703"/>
      <use xlink:href="#Helvetica-69" x="494.628906"/>
      <use xlink:href="#Helvetica-76" x="516.845703"/>
      <use xlink:href="#Helvetica-65" x="566.845703"/>
      <use xlink:href="#Helvetica-20" x="622.460938"/>
      <use xlink:href="#Helvetica-52" x="650.244141"/>
      <use xlink:href="#Helvetica-61" x="722.460938"/>
      <use xlink:href="#Helvetica-74" x="778.076172"/>
      <use xlink:href="#Helvetica-65" x="805.859375"/>
     </g>
    </g>
   </g>
   <g id="matplotlib.axis_2">
    <g id="ytick_1">
     <g id="line2d_7">
      <defs>
       <path id="md40af0afb9" d="M 0 0 
L -3.5 0 
" style="stroke: #000000; stroke-width: 2"/>
      </defs>
      <g>
       <use xlink:href="#md40af0afb9" x="54" y="256.32" style="stroke: #000000; stroke-width: 2"/>
      </g>
     </g>
     <g id="text_8">
      <!-- 0.0 -->
      <g transform="translate(27.54 261.341406) scale(0.14 -0.14)">
       <use xlink:href="#Helvetica-30"/>
       <use xlink:href="#Helvetica-2e" x="55.615234"/>
       <use xlink:href="#Helvetica-30" x="83.398438"/>
      </g>
     </g>
    </g>
    <g id="ytick_2">
     <g id="line2d_8">
      <g>
       <use xlink:href="#md40af0afb9" x="54" y="214.08" style="stroke: #000000; stroke-width: 2"/>
      </g>
     </g>
     <g id="text_9">
      <!-- 0.2 -->
      <g transform="translate(27.54 219.101406) scale(0.14 -0.14)">
       <use xlink:href="#Helvetica-30"/>
       <use xlink:href="#Helvetica-2e" x="55.615234"/>
       <use xlink:href="#Helvetica-32" x="83.398438"/>
      </g>
     </g>
    </g>
    <g id="ytick_3">
     <g id="line2d_9">
      <g>
       <use xlink:href="#md40af0afb9" x="54" y="171.84" style="stroke: #000000; stroke-width: 2"/>
      </g>
     </g>
     <g id="text_10">
      <!-- 0.4 -->
      <g transform="translate(27.54 176.861406) scale(0.14 -0.14)">
       <use xlink:href="#Helvetica-30"/>
       <use xlink:href="#Helvetica-2e" x="55.615234"/>
       <use xlink:href="#Helvetica-34" x="83.398438"/>
      </g>
     </g>
    </g>
    <g id="ytick_4">
     <g id="line2d_10">
      <g>
       <use xlink:href="#md40af0afb9" x="54" y="129.6" style="stroke: #000000; stroke-width: 2"/>
      </g>
     </g>
     <g id="text_11">
      <!-- 0.6 -->
      <g transform="translate(27.54 134.621406) scale(0.14 -0.14)">
       <use xlink:href="#Helvetica-30"/>
       <use xlink:href="#Helvetica-2e" x="55.615234"/>
       <use xlink:href="#Helvetica-36" x="83.398438"/>
      </g>
     </g>
    </g>
    <g id="ytick_5">
     <g id="line2d_11">
      <g>
       <use xlink:href="#md40af0afb9" x="54" y="87.36" style="stroke: #000000; stroke-width: 2"/>
      </g>
     </g>
     <g id="text_12">
      <!-- 0.8 -->
      <g transform="translate(27.54 92.381406) scale(0.14 -0.14)">
       <use xlink:href="#Helvetica-30"/>
       <use xlink:href="#Helvetica-2e" x="55.615234"/>
       <use xlink:href="#Helvetica-38" x="83.398438"/>
      </g>
     </g>
    </g>
    <g id="ytick_6">
     <g id="line2d_12">
      <g>
       <use xlink:href="#md40af0afb9" x="54" y="45.12" style="stroke: #000000; stroke-width: 2"/>
      </g>
     </g>
     <g id="text_13">
      <!-- 1.0 -->
      <g transform="translate(27.54 50.141406) scale(0.14 -0.14)">
       <use xlink:href="#Helvetica-31"/>
       <use xlink:href="#Helvetica-2e" x="55.615234"/>
       <use xlink:href="#Helvetica-30" x="83.398438"/>
      </g>
     </g>
    </g>
    <g id="text_14">
     <!-- True Positive Rate -->
     <g transform="translate(20.621875 203.016094) rotate(-90) scale(0.14 -0.14)">
      <defs>
       <path id="Helvetica-54" d="M 3828 4591 
L 3828 4044 
L 2281 4044 
L 2281 0 
L 1650 0 
L 1650 4044 
L 103 4044 
L 103 4591 
L 3828 4591 
z
" transform="scale(0.015625)"/>
       <path id="Helvetica-72" d="M 428 3347 
L 963 3347 
L 963 2769 
Q 1028 2938 1284 3180 
Q 1541 3422 1875 3422 
Q 1891 3422 1928 3419 
Q 1966 3416 2056 3406 
L 2056 2813 
Q 2006 2822 1964 2825 
Q 1922 2828 1872 2828 
Q 1447 2828 1219 2554 
Q 991 2281 991 1925 
L 991 0 
L 428 0 
L 428 3347 
z
" transform="scale(0.015625)"/>
       <path id="Helvetica-75" d="M 975 3347 
L 975 1125 
Q 975 869 1056 706 
Q 1206 406 1616 406 
Q 2203 406 2416 931 
Q 2531 1213 2531 1703 
L 2531 3347 
L 3094 3347 
L 3094 0 
L 2563 0 
L 2569 494 
Q 2459 303 2297 172 
Q 1975 -91 1516 -91 
Q 800 -91 541 388 
Q 400 644 400 1072 
L 400 3347 
L 975 3347 
z
M 1747 3428 
L 1747 3428 
z
" transform="scale(0.015625)"/>
      </defs>
      <use xlink:href="#Helvetica-54"/>
      <use xlink:href="#Helvetica-72" x="61.083984"/>
      <use xlink:href="#Helvetica-75" x="94.384766"/>
      <use xlink:href="#Helvetica-65" x="150"/>
      <use xlink:href="#Helvetica-20" x="205.615234"/>
      <use xlink:href="#Helvetica-50" x="233.398438"/>
      <use xlink:href="#Helvetica-6f" x="300.097656"/>
      <use xlink:href="#Helvetica-73" x="355.712891"/>
      <use xlink:href="#Helvetica-69" x="405.712891"/>
      <use xlink:href="#Helvetica-74" x="427.929688"/>
      <use xlink:href="#Helvetica-69" x="455.712891"/>
      <use xlink:href="#Helvetica-76" x="477.929688"/>
      <use xlink:href="#Helvetica-65" x="527.929688"/>
      <use xlink:href="#Helvetica-20" x="583.544922"/>
      <use xlink:href="#Helvetica-52" x="611.328125"/>
      <use xlink:href="#Helvetica-61" x="683.544922"/>
      <use xlink:href="#Helvetica-74" x="739.160156"/>
      <use xlink:href="#Helvetica-65" x="766.943359"/>
     </g>
    </g>
   </g>
   <g id="line2d_13">
    <path d="M 84.436364 256.32 
L 84.537532 205.83649 
L 84.588115 205.83649 
L 84.689283 170.050711 
L 84.739867 170.050711 
L 84.841035 157.696097 
L 84.891619 157.696097 
L 84.942203 150.879758 
L 85.043371 150.879758 
L 85.144539 145.874009 
L 85.195123 145.874009 
L 85.296291 133.732405 
L 85.346875 133.732405 
L 85.448043 125.318487 
L 85.498627 125.318487 
L 85.599795 122.975371 
L 85.650378 122.975371 
L 85.751546 119.673707 
L 85.80213 119.673707 
L 85.903298 115.52 
L 85.953882 115.52 
L 86.05505 114.561452 
L 86.105634 114.561452 
L 86.206802 109.236188 
L 86.257386 109.236188 
L 86.358554 105.721513 
L 86.409138 105.721513 
L 86.510306 103.378396 
L 86.56089 103.378396 
L 86.662058 99.650711 
L 86.712641 99.650711 
L 86.813809 98.585658 
L 86.914977 98.479153 
L 87.016145 95.710015 
L 87.066729 95.710015 
L 87.167897 94.325446 
L 87.218481 94.325446 
L 87.319649 91.130287 
L 87.420817 91.130287 
L 87.521985 89.319697 
L 87.572569 89.319697 
L 87.673737 88.787171 
L 87.72432 88.787171 
L 87.825488 87.722118 
L 87.876072 87.722118 
L 87.97724 87.083086 
L 88.027824 87.083086 
L 88.128992 86.018033 
L 88.23016 86.018033 
L 88.280744 84.633464 
L 88.381912 84.633464 
L 88.381912 84.420454 
L 88.533664 84.420454 
L 88.584248 83.568411 
L 88.685416 83.568411 
L 88.786583 83.035885 
L 88.887751 83.035885 
L 88.988919 81.864327 
L 89.191255 81.757821 
L 89.292423 80.266747 
L 89.393591 80.160242 
L 89.494759 79.3082 
L 89.545343 79.3082 
L 89.646511 78.669168 
L 89.697095 78.669168 
L 89.798262 76.752073 
L 89.89943 76.752073 
L 89.950014 75.793525 
L 90.202934 75.68702 
L 90.253518 74.621967 
L 90.354686 74.621967 
L 90.354686 74.195946 
L 90.557022 74.195946 
L 90.557022 73.769924 
L 90.911109 73.663419 
L 91.012277 73.024387 
L 91.062861 73.024387 
L 91.164029 72.598366 
L 91.214613 72.598366 
L 91.315781 72.27885 
L 91.366365 72.27885 
L 91.467533 71.959334 
L 91.518117 71.959334 
L 91.619285 71.639818 
L 91.720453 71.533313 
L 91.771037 71.107292 
L 92.023956 71.000787 
L 92.125124 70.787776 
L 92.226292 70.681271 
L 92.276876 70.361755 
L 92.428628 70.361755 
L 92.529796 69.722723 
L 92.681548 69.616218 
L 92.782716 69.083691 
L 92.934467 68.977186 
L 93.035635 67.912133 
L 93.136803 67.805628 
L 93.136803 67.699123 
L 93.389723 67.592617 
L 93.440307 67.273101 
L 93.541475 67.273101 
L 93.541475 67.060091 
L 93.693227 67.060091 
L 93.743811 66.63407 
L 94.047314 66.527564 
L 94.047314 66.101543 
L 94.199066 66.101543 
L 94.199066 65.888533 
L 94.50257 65.782027 
L 94.50257 65.462511 
L 94.704906 65.462511 
L 94.806074 64.610469 
L 95.311913 64.503964 
L 95.413081 63.758427 
L 95.817753 63.651921 
L 95.918921 63.332405 
L 96.17184 63.332405 
L 96.273008 62.799879 
L 96.576512 62.693374 
L 96.67768 61.734826 
L 96.778848 61.734826 
L 96.778848 61.521815 
L 96.9306 61.521815 
L 96.9306 61.308805 
L 97.132935 61.308805 
L 97.132935 61.095794 
L 97.335271 60.989289 
L 97.335271 60.882784 
L 97.537607 60.882784 
L 97.537607 60.456762 
L 98.195198 60.350257 
L 98.195198 60.243752 
L 98.498702 60.137247 
L 98.498702 59.924236 
L 98.903374 59.817731 
L 98.953958 59.60472 
L 99.257461 59.498215 
L 99.308045 59.285204 
L 99.611549 59.178699 
L 99.712717 58.965688 
L 99.965637 58.859183 
L 99.965637 58.752678 
L 100.117389 58.752678 
L 100.117389 58.539667 
L 100.623228 58.433162 
L 100.724396 57.900635 
L 100.825564 57.79413 
L 100.926732 57.474614 
L 101.887827 57.368109 
L 101.938411 57.155098 
L 102.241915 57.048593 
L 102.241915 56.835582 
L 102.798338 56.729077 
L 102.798338 56.622572 
L 103.506513 56.516067 
L 103.506513 56.409561 
L 103.911185 56.303056 
L 103.911185 56.196551 
L 104.265273 56.090045 
L 104.366441 55.877035 
L 105.024032 55.877035 
L 105.024032 55.664024 
L 105.175784 55.664024 
L 105.175784 55.451014 
L 105.732207 55.344508 
L 105.732207 55.238003 
L 106.440383 55.238003 
L 106.440383 55.024992 
L 106.693302 54.918487 
L 106.693302 54.705477 
L 107.30031 54.598971 
L 107.401478 54.17295 
L 107.452062 54.17295 
L 107.502646 53.640424 
L 107.856733 53.533918 
L 107.856733 53.427413 
L 108.71666 53.320908 
L 108.767244 53.001392 
L 110.790602 52.894887 
L 110.89177 52.575371 
L 111.296442 52.468865 
L 111.39761 52.255855 
L 111.751697 52.149349 
L 111.751697 52.042844 
L 112.358705 51.936339 
L 112.358705 51.829834 
L 113.926807 51.723328 
L 113.926807 51.616823 
L 115.899581 51.510318 
L 115.899581 51.403812 
L 117.366516 51.297307 
L 117.366516 50.977791 
L 117.92294 50.871286 
L 117.92294 50.764781 
L 118.884035 50.658275 
L 118.884035 50.55177 
L 120.249801 50.445265 
L 120.300385 50.232254 
L 121.059145 50.125749 
L 121.160312 49.806233 
L 121.5144 49.699728 
L 121.5144 49.593222 
L 122.829583 49.593222 
L 122.829583 49.380212 
L 123.993014 49.273707 
L 124.094182 49.060696 
L 124.751773 48.954191 
L 124.751773 48.847685 
L 126.066956 48.74118 
L 126.066956 48.634675 
L 127.280971 48.528169 
L 127.280971 48.421664 
L 129.96192 48.315159 
L 129.96192 48.208654 
L 131.428855 48.102148 
L 131.428855 47.995643 
L 132.845205 47.889138 
L 132.845205 47.782632 
L 134.210972 47.676127 
L 134.210972 47.569622 
L 137.498929 47.463116 
L 137.498929 47.356611 
L 138.561192 47.250106 
L 138.561192 47.143601 
L 140.736302 47.037095 
L 140.736302 46.93059 
L 147.160464 46.824085 
L 147.160464 46.717579 
L 152.724698 46.611074 
L 152.724698 46.504569 
L 156.063239 46.398064 
L 156.063239 46.291558 
L 163.752 46.185053 
L 163.752 46.078548 
L 176.600323 45.972042 
L 176.600323 45.865537 
L 179.028353 45.759032 
L 179.028353 45.652526 
L 190.51091 45.546021 
L 190.51091 45.439516 
L 253.993769 45.333011 
L 253.993769 45.226505 
L 388.8 45.12 
L 388.8 45.12 
" clip-path="url(#p70757b3696)" style="fill: none; stroke: #1f77b4; stroke-width: 2; stroke-linecap: square"/>
   </g>
   <g id="line2d_14">
    <path d="M 84.436364 256.32 
L 84.537954 217.508845 
L 84.588749 217.508845 
L 84.690339 194.474582 
L 84.741134 194.474582 
L 84.842724 180.170199 
L 84.893519 180.170199 
L 84.995109 169.441912 
L 85.045904 169.441912 
L 85.147494 162.50008 
L 85.198289 162.50008 
L 85.299879 155.768606 
L 85.350674 155.768606 
L 85.452264 151.140717 
L 85.503059 151.140717 
L 85.604649 147.77498 
L 85.706239 147.669801 
L 85.807829 147.143904 
L 85.909419 147.143904 
L 86.011009 144.514422 
L 86.061804 144.514422 
L 86.061804 143.35745 
L 86.214189 143.35745 
L 86.315779 141.359044 
L 86.366574 141.359044 
L 86.468164 135.258645 
L 86.518959 135.258645 
L 86.620549 133.575777 
L 86.671344 133.575777 
L 86.772934 131.68255 
L 86.823729 131.68255 
L 86.925319 130.841116 
L 86.976114 130.841116 
L 87.077704 129.894502 
L 87.128499 129.894502 
L 87.230089 129.053068 
L 87.331679 128.947888 
L 87.433269 127.054661 
L 87.484064 127.054661 
L 87.585654 125.371793 
L 87.636449 125.371793 
L 87.687244 124.214821 
L 87.788834 124.214821 
L 87.890424 122.742311 
L 87.941219 122.742311 
L 88.042809 121.795697 
L 88.093604 121.795697 
L 88.195194 120.218008 
L 88.296784 120.218008 
L 88.398374 118.640319 
L 88.449169 118.640319 
L 88.550759 117.798884 
L 88.601554 117.798884 
L 88.652349 116.326375 
L 88.804734 116.221195 
L 88.855529 114.959044 
L 88.957119 114.959044 
L 89.007914 114.11761 
L 89.109504 114.11761 
L 89.160299 112.53992 
L 89.414274 112.53992 
L 89.465069 111.698486 
L 89.668249 111.593307 
L 89.668249 111.17259 
L 89.871429 111.06741 
L 89.973019 109.910438 
L 90.023814 109.910438 
L 90.074609 109.069004 
L 90.176199 109.069004 
L 90.277789 107.596494 
L 90.430174 107.596494 
L 90.531764 106.965418 
L 90.582559 106.965418 
L 90.582559 106.64988 
L 90.785739 106.64988 
L 90.836534 106.123984 
L 91.090509 106.018805 
L 91.141304 105.492908 
L 91.293689 105.387729 
L 91.293689 105.177371 
L 91.547664 105.072191 
L 91.649254 104.230757 
L 91.700049 104.230757 
L 91.801639 103.81004 
L 91.954024 103.704861 
L 92.055614 103.073785 
L 92.157204 102.968606 
L 92.258794 102.442709 
L 92.309589 102.442709 
L 92.360384 102.021992 
L 92.614359 102.021992 
L 92.665154 100.970199 
L 92.766744 100.970199 
L 92.817539 100.549482 
L 93.020719 100.444303 
L 93.122309 99.918406 
L 93.274694 99.918406 
L 93.376284 98.761434 
L 93.579464 98.656255 
L 93.681054 98.340717 
L 93.833439 98.235538 
L 93.935029 97.709641 
L 94.138209 97.709641 
L 94.239799 97.288924 
L 94.290594 97.288924 
L 94.392184 96.237131 
L 94.544569 96.131952 
L 94.595364 95.816414 
L 95.001724 95.711235 
L 95.052519 95.290518 
L 95.611264 95.185339 
L 95.712854 94.133546 
L 95.763649 94.133546 
L 95.763649 93.923187 
L 96.119213 93.818008 
L 96.220803 93.607649 
L 96.322393 93.607649 
L 96.423983 92.661036 
L 96.474778 92.661036 
L 96.474778 92.345498 
L 96.728753 92.240319 
L 96.779548 91.924781 
L 97.135113 91.819602 
L 97.135113 91.609243 
L 97.389088 91.609243 
L 97.490678 91.188526 
L 97.592268 91.188526 
L 97.693858 90.662629 
L 97.998628 90.55745 
L 98.100218 89.926375 
L 98.151013 89.926375 
L 98.252603 88.874582 
L 98.354193 88.769402 
L 98.354193 88.664223 
L 98.658963 88.559044 
L 98.760553 88.243506 
L 98.963733 88.138327 
L 99.065323 87.927968 
L 99.116118 87.927968 
L 99.166913 87.61243 
L 99.268503 87.61243 
L 99.370093 86.770996 
L 99.776453 86.665817 
L 99.878043 85.929562 
L 100.030428 85.824382 
L 100.030428 85.719203 
L 100.436788 85.614024 
L 100.436788 85.508845 
L 100.639968 85.403665 
L 100.690763 84.877769 
L 101.300303 84.77259 
L 101.401893 84.141514 
L 101.808253 84.036335 
L 101.859048 83.1949 
L 102.113023 83.089721 
L 102.163818 82.669004 
L 102.316203 82.669004 
L 102.366998 82.248287 
L 102.773358 82.143108 
L 102.773358 82.037928 
L 103.128923 81.932749 
L 103.128923 81.72239 
L 103.840053 81.617211 
L 103.890848 80.986135 
L 104.195618 80.880956 
L 104.246413 80.670598 
L 104.601978 80.565418 
L 104.601978 80.460239 
L 104.957543 80.35506 
L 104.957543 80.24988 
L 105.160723 80.144701 
L 105.262313 79.723984 
L 105.617878 79.618805 
L 105.719468 79.198088 
L 105.821058 79.092908 
L 105.922648 78.88255 
L 105.973443 78.88255 
L 106.024238 78.356653 
L 106.582983 78.251474 
L 106.684573 77.830757 
L 107.141728 77.725578 
L 107.141728 77.620398 
L 107.446498 77.515219 
L 107.548088 77.094502 
L 107.751268 76.989323 
L 107.802063 76.778964 
L 108.056038 76.673785 
L 108.056038 76.358247 
L 108.665578 76.253068 
L 108.665578 76.042709 
L 108.868758 75.93753 
L 108.868758 75.832351 
L 109.071938 75.727171 
L 109.122733 75.516813 
L 109.275118 75.516813 
L 109.376708 75.201275 
L 109.630683 75.201275 
L 109.681478 74.780558 
L 109.884658 74.675378 
L 109.884658 74.570199 
L 110.341813 74.570199 
L 110.341813 74.254661 
L 111.357713 74.149482 
L 111.408508 73.939124 
L 111.611688 73.833944 
L 111.713278 73.623586 
L 111.764073 73.623586 
L 111.865663 73.097689 
L 112.119638 72.99251 
L 112.119638 72.887331 
L 112.729178 72.782151 
L 112.729178 72.676972 
L 112.881563 72.676972 
L 112.983153 72.361434 
L 113.592693 72.256255 
L 113.694283 72.045896 
L 114.253028 72.045896 
L 114.253028 71.835538 
L 114.862568 71.730359 
L 114.862568 71.52 
L 115.421313 71.414821 
L 115.421313 71.309641 
L 115.776878 71.204462 
L 115.776878 70.994104 
L 116.030853 70.994104 
L 116.030853 70.783745 
L 116.640393 70.678566 
L 116.691188 70.363028 
L 117.148343 70.363028 
L 117.148343 69.731952 
L 117.656293 69.626773 
L 117.656293 69.521594 
L 118.062653 69.416414 
L 118.164243 69.206056 
L 118.367423 69.100876 
L 118.367423 68.995697 
L 119.078553 68.890518 
L 119.078553 68.785339 
L 119.434118 68.680159 
L 119.434118 68.57498 
L 120.196043 68.469801 
L 120.196043 68.364622 
L 120.450018 68.259442 
L 120.450018 68.154263 
L 120.602403 68.154263 
L 120.602403 67.943904 
L 120.957968 67.943904 
L 120.957968 67.733546 
L 121.364328 67.628367 
L 121.415123 67.312829 
L 121.719893 67.207649 
L 121.821483 66.997291 
L 122.278638 66.892112 
L 122.278638 66.786932 
L 122.532613 66.681753 
L 122.634203 66.471394 
L 122.837383 66.471394 
L 122.938973 65.840319 
L 123.294538 65.840319 
L 123.396128 65.314422 
L 123.650103 65.209243 
L 123.650103 65.104064 
L 124.564413 64.998884 
L 124.615208 64.683347 
L 124.767593 64.683347 
L 124.818388 64.367809 
L 125.732698 64.262629 
L 125.732698 64.052271 
L 126.037468 64.052271 
L 126.037468 63.841912 
L 126.647008 63.736733 
L 126.647008 63.631554 
L 127.307343 63.526375 
L 127.307343 63.316016 
L 127.459728 63.316016 
L 127.510523 63.000478 
L 127.764498 63.000478 
L 127.764498 62.79012 
L 128.780398 62.68494 
L 128.780398 62.579761 
L 129.389938 62.474582 
L 129.491528 62.264223 
L 129.694708 62.264223 
L 129.694708 62.053865 
L 130.050273 62.053865 
L 130.050273 61.843506 
L 130.862993 61.843506 
L 130.964583 61.527968 
L 131.980483 61.422789 
L 132.082073 61.107251 
L 132.996383 61.002072 
L 132.996383 60.896892 
L 133.555128 60.896892 
L 133.555128 60.686534 
L 134.215463 60.581355 
L 134.215463 60.476175 
L 134.723413 60.370996 
L 134.723413 60.265817 
L 135.586928 60.265817 
L 135.586928 60.055458 
L 136.247263 59.950279 
L 136.247263 59.8451 
L 137.059983 59.73992 
L 137.059983 59.634741 
L 138.736218 59.529562 
L 138.736218 59.319203 
L 139.599733 59.214024 
L 139.599733 59.108845 
L 140.768018 59.003665 
L 140.768018 58.898486 
L 141.174378 58.793307 
L 141.174378 58.688127 
L 141.834713 58.582948 
L 141.936303 58.37259 
L 142.952203 58.26741 
L 143.002998 58.057052 
L 145.136388 57.951873 
L 145.237978 57.636335 
L 146.253878 57.531155 
L 146.253878 57.425976 
L 146.609443 57.320797 
L 146.609443 57.215618 
L 148.285678 57.110438 
L 148.336473 56.90008 
L 148.590448 56.90008 
L 148.590448 56.689721 
L 151.638148 56.584542 
L 151.739738 56.374183 
L 153.873128 56.269004 
L 153.873128 56.163825 
L 155.498568 56.058645 
L 155.498568 55.953466 
L 157.682753 55.848287 
L 157.733548 55.637928 
L 158.292293 55.532749 
L 158.292293 55.42757 
L 158.901833 55.32239 
L 158.901833 55.112032 
L 159.612963 55.006853 
L 159.612963 54.796494 
L 160.120913 54.691315 
L 160.120913 54.586135 
L 160.933633 54.480956 
L 160.933633 54.375777 
L 161.746353 54.270598 
L 161.746353 54.165418 
L 163.778153 54.060239 
L 163.778153 53.95506 
L 164.438488 53.84988 
L 164.438488 53.744701 
L 164.844848 53.639522 
L 164.895643 53.429163 
L 166.724263 53.323984 
L 166.724263 53.218805 
L 167.841753 53.113625 
L 167.841753 53.008446 
L 168.857653 52.903267 
L 168.857653 52.798088 
L 170.178323 52.692908 
L 170.178323 52.587729 
L 172.464098 52.48255 
L 172.464098 52.377371 
L 174.546693 52.272191 
L 174.597488 51.956653 
L 175.968953 51.851474 
L 175.968953 51.746295 
L 177.137238 51.641116 
L 177.137238 51.535936 
L 179.321423 51.430757 
L 179.321423 51.325578 
L 183.334227 51.220398 
L 183.334227 51.115219 
L 188.007367 51.01004 
L 188.007367 50.904861 
L 188.566112 50.799681 
L 188.566112 50.694502 
L 192.121762 50.589323 
L 192.121762 50.484143 
L 193.188457 50.378964 
L 193.188457 50.273785 
L 199.690217 50.168606 
L 199.690217 50.063426 
L 203.550637 49.958247 
L 203.550637 49.853068 
L 205.785617 49.747888 
L 205.887207 49.432351 
L 211.830222 49.327171 
L 211.830222 49.221992 
L 216.452567 49.116813 
L 216.452567 49.011633 
L 222.446377 48.906454 
L 222.446377 48.801275 
L 225.036922 48.696096 
L 225.036922 48.590916 
L 230.218012 48.485737 
L 230.218012 48.380558 
L 234.433997 48.275378 
L 234.433997 48.170199 
L 237.938852 48.06502 
L 237.989647 47.854661 
L 241.443707 47.749482 
L 241.443707 47.644303 
L 243.831072 47.539124 
L 243.831072 47.433944 
L 249.926472 47.328765 
L 249.926472 47.223586 
L 255.818692 47.118406 
L 255.818692 47.013227 
L 260.237857 46.908048 
L 260.237857 46.802869 
L 271.819116 46.697689 
L 271.819116 46.59251 
L 276.136691 46.487331 
L 276.136691 46.382151 
L 276.492256 46.276972 
L 276.492256 46.171793 
L 287.362386 46.066614 
L 287.362386 45.961434 
L 292.137116 45.856255 
L 292.137116 45.751076 
L 296.962641 45.645896 
L 296.962641 45.540717 
L 308.391516 45.435538 
L 308.391516 45.330359 
L 352.887935 45.225179 
L 352.887935 45.12 
L 388.8 45.12 
L 388.8 45.12 
" clip-path="url(#p70757b3696)" style="fill: none; stroke: #ff7f0e; stroke-width: 2; stroke-linecap: square"/>
   </g>
   <g id="line2d_15">
    <path d="M 84.436364 256.32 
L 84.538243 148.894815 
L 84.589182 148.894815 
L 84.691061 128.974222 
L 84.742001 128.974222 
L 84.84388 111.973926 
L 84.894819 111.973926 
L 84.996698 106.967704 
L 85.047638 106.967704 
L 85.098577 103.004444 
L 85.200456 103.004444 
L 85.302335 99.145481 
L 85.353275 99.145481 
L 85.455154 95.077926 
L 85.506094 95.077926 
L 85.607973 92.470519 
L 85.658912 92.470519 
L 85.760791 86.52563 
L 85.811731 86.52563 
L 85.91361 85.482667 
L 86.015489 85.482667 
L 86.117368 84.439704 
L 86.168307 84.439704 
L 86.270186 82.979556 
L 86.321126 82.979556 
L 86.372065 82.353778 
L 86.524884 82.249481 
L 86.626763 79.74637 
L 86.677703 79.74637 
L 86.779582 76.93037 
L 86.830521 76.93037 
L 86.9324 75.26163 
L 86.98334 75.26163 
L 86.98334 73.697185 
L 87.187098 73.697185 
L 87.288977 72.237037 
L 87.339916 72.237037 
L 87.390856 70.046815 
L 87.543674 69.942519 
L 87.645553 68.795259 
L 87.747432 68.690963 
L 87.849312 68.065185 
L 88.00213 67.960889 
L 88.104009 66.917926 
L 88.256828 66.81363 
L 88.358707 64.206222 
L 88.562465 64.101926 
L 88.613404 63.789037 
L 88.715283 63.789037 
L 88.817162 63.267556 
L 88.969981 63.163259 
L 88.969981 62.85037 
L 89.173739 62.746074 
L 89.275618 62.328889 
L 89.428437 62.328889 
L 89.530316 61.911704 
L 89.581255 61.911704 
L 89.632195 60.973037 
L 89.785013 60.973037 
L 89.785013 60.242963 
L 89.988771 60.138667 
L 90.09065 59.617185 
L 90.14159 59.617185 
L 90.243469 58.887111 
L 90.294409 58.887111 
L 90.396288 58.469926 
L 90.447227 58.469926 
L 90.549106 57.635556 
L 90.803804 57.531259 
L 90.803804 57.21837 
L 91.058501 57.21837 
L 91.109441 56.905481 
L 91.415078 56.801185 
L 91.516957 56.592593 
L 91.669776 56.488296 
L 91.771655 55.862519 
L 92.026352 55.758222 
L 92.128231 55.236741 
L 92.331989 55.132444 
L 92.382929 54.819556 
L 92.484808 54.819556 
L 92.586687 53.776593 
L 92.790445 53.776593 
L 92.790445 53.463704 
L 92.943264 53.463704 
L 93.045143 53.150815 
L 93.248901 53.046519 
L 93.248901 52.942222 
L 93.605477 52.837926 
L 93.656417 52.629333 
L 93.860175 52.525037 
L 93.962054 52.003556 
L 94.114873 51.899259 
L 94.114873 51.794963 
L 94.42051 51.690667 
L 94.42051 51.482074 
L 95.133663 51.482074 
L 95.133663 51.064889 
L 95.388361 50.960593 
L 95.388361 50.856296 
L 95.693998 50.752 
L 95.693998 50.647704 
L 96.203393 50.543407 
L 96.203393 50.334815 
L 96.763728 50.230519 
L 96.814667 50.021926 
L 97.222183 50.021926 
L 97.222183 49.813333 
L 97.57876 49.813333 
L 97.680639 49.396148 
L 98.59755 49.291852 
L 98.64849 49.083259 
L 98.750369 49.083259 
L 98.750369 48.874667 
L 98.903188 48.874667 
L 98.903188 48.666074 
L 99.921978 48.561778 
L 99.921978 48.457481 
L 100.431373 48.353185 
L 100.431373 48.248889 
L 100.991708 48.144593 
L 100.991708 48.040296 
L 102.061438 47.936 
L 102.061438 47.831704 
L 103.233047 47.727407 
L 103.233047 47.518815 
L 105.06687 47.414519 
L 105.117809 47.205926 
L 105.627204 47.205926 
L 105.627204 46.997333 
L 107.308208 46.893037 
L 107.308208 46.788741 
L 109.091092 46.684444 
L 109.091092 46.580148 
L 111.077733 46.475852 
L 111.077733 46.371556 
L 114.847258 46.267259 
L 114.847258 46.162963 
L 117.547052 46.058667 
L 117.547052 45.95437 
L 123.201339 45.850074 
L 123.201339 45.745778 
L 126.053952 45.641481 
L 126.053952 45.537185 
L 129.212202 45.432889 
L 129.212202 45.328593 
L 147.193853 45.224296 
L 147.193853 45.12 
L 388.8 45.12 
L 388.8 45.12 
" clip-path="url(#p70757b3696)" style="fill: none; stroke: #9467bd; stroke-width: 2; stroke-linecap: square"/>
   </g>
   <g id="line2d_16">
    <path d="M 84.436364 256.32 
L 84.537548 120.168387 
L 84.588141 120.168387 
L 84.689325 105.584516 
L 84.739918 105.584516 
L 84.841103 100.58129 
L 84.891695 100.58129 
L 84.99288 94.087742 
L 85.043472 94.087742 
L 85.144657 91.95871 
L 85.245841 91.852258 
L 85.347026 87.594194 
L 85.397618 87.594194 
L 85.498803 85.571613 
L 85.549396 85.571613 
L 85.65058 81.100645 
L 85.701173 81.100645 
L 85.751765 80.355484 
L 85.85295 80.355484 
L 85.954134 77.161935 
L 86.004727 77.161935 
L 86.105912 74.500645 
L 86.207096 74.394194 
L 86.308281 72.584516 
L 86.358873 72.584516 
L 86.460058 70.136129 
L 86.51065 70.136129 
L 86.561243 68.965161 
L 86.71302 68.85871 
L 86.814205 65.665161 
L 86.965982 65.665161 
L 87.067166 65.026452 
L 87.168351 65.026452 
L 87.269536 64.068387 
L 87.320128 64.068387 
L 87.421313 61.726452 
L 87.471905 61.726452 
L 87.57309 60.768387 
L 87.826052 60.768387 
L 87.876644 60.129677 
L 87.977829 60.129677 
L 88.028421 58.532903 
L 88.180198 58.532903 
L 88.230791 57.894194 
L 88.331975 57.894194 
L 88.382568 57.468387 
L 88.686122 57.468387 
L 88.736714 57.149032 
L 88.888491 57.042581 
L 88.989676 56.510323 
L 89.090861 56.510323 
L 89.141453 56.190968 
L 89.343823 56.084516 
L 89.343823 55.978065 
L 89.546192 55.871613 
L 89.647377 55.445806 
L 89.799154 55.339355 
L 89.799154 55.126452 
L 90.001523 55.126452 
L 90.052116 54.700645 
L 90.203893 54.594194 
L 90.203893 54.487742 
L 90.608632 54.38129 
L 90.659224 54.061935 
L 90.912186 53.955484 
L 90.912186 53.849032 
L 91.114555 53.849032 
L 91.114555 53.636129 
L 91.418109 53.529677 
L 91.418109 53.423226 
L 92.126402 53.316774 
L 92.126402 53.103871 
L 92.581734 52.997419 
L 92.581734 52.890968 
L 92.733511 52.890968 
L 92.733511 52.678065 
L 93.239434 52.571613 
L 93.340619 52.252258 
L 93.79595 52.145806 
L 93.846543 51.932903 
L 94.048912 51.932903 
L 94.048912 51.72 
L 94.605428 51.613548 
L 94.605428 51.294194 
L 95.465498 51.187742 
L 95.465498 51.08129 
L 95.870237 50.974839 
L 95.971422 50.655484 
L 96.072606 50.549032 
L 96.123199 50.229677 
L 96.629122 50.229677 
L 96.730307 49.697419 
L 97.944524 49.590968 
L 97.944524 49.484516 
L 98.248078 49.378065 
L 98.349263 49.165161 
L 99.917626 49.05871 
L 99.917626 48.952258 
L 101.030658 48.845806 
L 101.030658 48.739355 
L 103.00376 48.632903 
L 103.00376 48.42 
L 104.319161 48.313548 
L 104.319161 48.207097 
L 105.381601 48.100645 
L 105.381601 47.994194 
L 106.342855 47.887742 
L 106.44404 47.674839 
L 107.152333 47.568387 
L 107.253518 47.142581 
L 110.238467 47.036129 
L 110.238467 46.929677 
L 111.553868 46.929677 
L 111.553868 46.716774 
L 112.059792 46.716774 
L 112.059792 46.503871 
L 118.333245 46.397419 
L 118.333245 46.290968 
L 120.205162 46.184516 
L 120.205162 46.078065 
L 124.758474 45.971613 
L 124.758474 45.865161 
L 127.338685 45.865161 
L 127.338685 45.652258 
L 130.930742 45.545806 
L 130.930742 45.439355 
L 146.614374 45.332903 
L 146.614374 45.226452 
L 388.8 45.12 
L 388.8 45.12 
" clip-path="url(#p70757b3696)" style="fill: none; stroke: #8c564b; stroke-width: 2; stroke-linecap: square"/>
   </g>
   <g id="line2d_17">
    <path d="M 84.436364 256.32 
L 388.8 45.12 
" clip-path="url(#p70757b3696)" style="fill: none; stroke-dasharray: 3.7,1.6; stroke-dashoffset: 0; stroke: #000000"/>
   </g>
   <g id="patch_3">
    <path d="M 54 256.32 
L 54 34.56 
" style="fill: none; stroke: #000000; stroke-width: 2; stroke-linejoin: miter; stroke-linecap: square"/>
   </g>
   <g id="patch_4">
    <path d="M 54 256.32 
L 388.8 256.32 
" style="fill: none; stroke: #000000; stroke-width: 2; stroke-linejoin: miter; stroke-linecap: square"/>
   </g>
   <g id="text_15">
    <!-- SANDSTORM Model -->
    <g transform="translate(142.520062 28.56) scale(0.168 -0.168)">
     <defs>
      <path id="Helvetica-53" d="M 894 1481 
Q 916 1091 1078 847 
Q 1388 391 2169 391 
Q 2519 391 2806 491 
Q 3363 684 3363 1184 
Q 3363 1559 3128 1719 
Q 2891 1875 2384 1991 
L 1763 2131 
Q 1153 2269 900 2434 
Q 463 2722 463 3294 
Q 463 3913 891 4309 
Q 1319 4706 2103 4706 
Q 2825 4706 3329 4357 
Q 3834 4009 3834 3244 
L 3250 3244 
Q 3203 3613 3050 3809 
Q 2766 4169 2084 4169 
Q 1534 4169 1293 3937 
Q 1053 3706 1053 3400 
Q 1053 3063 1334 2906 
Q 1519 2806 2169 2656 
L 2813 2509 
Q 3278 2403 3531 2219 
Q 3969 1897 3969 1284 
Q 3969 522 3414 194 
Q 2859 -134 2125 -134 
Q 1269 -134 784 303 
Q 300 738 309 1481 
L 894 1481 
z
M 2150 4716 
L 2150 4716 
z
" transform="scale(0.015625)"/>
      <path id="Helvetica-41" d="M 2844 1881 
L 2147 3909 
L 1406 1881 
L 2844 1881 
z
M 1822 4591 
L 2525 4591 
L 4191 0 
L 3509 0 
L 3044 1375 
L 1228 1375 
L 731 0 
L 94 0 
L 1822 4591 
z
" transform="scale(0.015625)"/>
      <path id="Helvetica-4e" d="M 488 4591 
L 1222 4591 
L 3541 872 
L 3541 4591 
L 4131 4591 
L 4131 0 
L 3434 0 
L 1081 3716 
L 1081 0 
L 488 0 
L 488 4591 
z
M 2269 4591 
L 2269 4591 
z
" transform="scale(0.015625)"/>
      <path id="Helvetica-44" d="M 2250 531 
Q 2566 531 2769 597 
Q 3131 719 3363 1066 
Q 3547 1344 3628 1778 
Q 3675 2038 3675 2259 
Q 3675 3113 3336 3584 
Q 2997 4056 2244 4056 
L 1141 4056 
L 1141 531 
L 2250 531 
z
M 516 4591 
L 2375 4591 
Q 3322 4591 3844 3919 
Q 4309 3313 4309 2366 
Q 4309 1634 4034 1044 
Q 3550 0 2369 0 
L 516 0 
L 516 4591 
z
" transform="scale(0.015625)"/>
      <path id="Helvetica-4f" d="M 2469 4716 
Q 3684 4716 4269 3934 
Q 4725 3325 4725 2375 
Q 4725 1347 4203 666 
Q 3591 -134 2456 -134 
Q 1397 -134 791 566 
Q 250 1241 250 2272 
Q 250 3203 713 3866 
Q 1306 4716 2469 4716 
z
M 2531 422 
Q 3353 422 3720 1011 
Q 4088 1600 4088 2366 
Q 4088 3175 3664 3669 
Q 3241 4163 2506 4163 
Q 1794 4163 1344 3673 
Q 894 3184 894 2231 
Q 894 1469 1280 945 
Q 1666 422 2531 422 
z
M 2488 4716 
L 2488 4716 
z
" transform="scale(0.015625)"/>
      <path id="Helvetica-4d" d="M 472 4591 
L 1363 4591 
L 2681 709 
L 3991 4591 
L 4872 4591 
L 4872 0 
L 4281 0 
L 4281 2709 
Q 4281 2850 4287 3175 
Q 4294 3500 4294 3872 
L 2984 0 
L 2369 0 
L 1050 3872 
L 1050 3731 
Q 1050 3563 1058 3217 
Q 1066 2872 1066 2709 
L 1066 0 
L 472 0 
L 472 4591 
z
" transform="scale(0.015625)"/>
      <path id="Helvetica-64" d="M 769 1634 
Q 769 1097 997 734 
Q 1225 372 1728 372 
Q 2119 372 2370 708 
Q 2622 1044 2622 1672 
Q 2622 2306 2362 2611 
Q 2103 2916 1722 2916 
Q 1297 2916 1033 2591 
Q 769 2266 769 1634 
z
M 1616 3406 
Q 2000 3406 2259 3244 
Q 2409 3150 2600 2916 
L 2600 4606 
L 3141 4606 
L 3141 0 
L 2634 0 
L 2634 466 
Q 2438 156 2169 18 
Q 1900 -119 1553 -119 
Q 994 -119 584 351 
Q 175 822 175 1603 
Q 175 2334 548 2870 
Q 922 3406 1616 3406 
z
" transform="scale(0.015625)"/>
     </defs>
     <use xlink:href="#Helvetica-53"/>
     <use xlink:href="#Helvetica-41" x="66.699219"/>
     <use xlink:href="#Helvetica-4e" x="133.398438"/>
     <use xlink:href="#Helvetica-44" x="205.615234"/>
     <use xlink:href="#Helvetica-53" x="277.832031"/>
     <use xlink:href="#Helvetica-54" x="344.53125"/>
     <use xlink:href="#Helvetica-4f" x="405.615234"/>
     <use xlink:href="#Helvetica-52" x="483.398438"/>
     <use xlink:href="#Helvetica-4d" x="555.615234"/>
     <use xlink:href="#Helvetica-20" x="638.916016"/>
     <use xlink:href="#Helvetica-4d" x="666.699219"/>
     <use xlink:href="#Helvetica-6f" x="750"/>
     <use xlink:href="#Helvetica-64" x="805.615234"/>
     <use xlink:href="#Helvetica-65" x="861.230469"/>
     <use xlink:href="#Helvetica-6c" x="916.845703"/>
    </g>
   </g>
   <g id="legend_1">
    <g id="patch_5">
     <path d="M 123.707812 249.32 
L 379 249.32 
Q 381.8 249.32 381.8 246.52 
L 381.8 167.13125 
Q 381.8 164.33125 379 164.33125 
L 123.707812 164.33125 
Q 120.907812 164.33125 120.907812 167.13125 
L 120.907812 246.52 
Q 120.907812 249.32 123.707812 249.32 
z
" style="fill: #ffffff; opacity: 0.8; stroke: #cccccc; stroke-linejoin: miter"/>
    </g>
    <g id="line2d_18">
     <path d="M 126.507812 175.238125 
L 140.507812 175.238125 
L 154.507812 175.238125 
" style="fill: none; stroke: #1f77b4; stroke-width: 2; stroke-linecap: square"/>
    </g>
    <g id="text_16">
     <!-- H-type Pseudoknots (area = 0.99) -->
     <g transform="translate(165.707812 180.138125) scale(0.14 -0.14)">
      <defs>
       <path id="Helvetica-48" d="M 503 4591 
L 1131 4591 
L 1131 2694 
L 3519 2694 
L 3519 4591 
L 4147 4591 
L 4147 0 
L 3519 0 
L 3519 2147 
L 1131 2147 
L 1131 0 
L 503 0 
L 503 4591 
z
" transform="scale(0.015625)"/>
       <path id="Helvetica-2d" d="M 266 2072 
L 1834 2072 
L 1834 1494 
L 266 1494 
L 266 2072 
z
" transform="scale(0.015625)"/>
       <path id="Helvetica-79" d="M 2503 3347 
L 3125 3347 
Q 3006 3025 2597 1878 
Q 2291 1016 2084 472 
Q 1597 -809 1397 -1090 
Q 1197 -1372 709 -1372 
Q 591 -1372 527 -1362 
Q 463 -1353 369 -1328 
L 369 -816 
Q 516 -856 581 -865 
Q 647 -875 697 -875 
Q 853 -875 926 -823 
Q 1000 -772 1050 -697 
Q 1066 -672 1162 -440 
Q 1259 -209 1303 -97 
L 66 3347 
L 703 3347 
L 1600 622 
L 2503 3347 
z
M 1597 3428 
L 1597 3428 
z
" transform="scale(0.015625)"/>
       <path id="Helvetica-70" d="M 1825 378 
Q 2219 378 2480 708 
Q 2741 1038 2741 1694 
Q 2741 2094 2625 2381 
Q 2406 2934 1825 2934 
Q 1241 2934 1025 2350 
Q 909 2038 909 1556 
Q 909 1169 1025 897 
Q 1244 378 1825 378 
z
M 369 3331 
L 916 3331 
L 916 2888 
Q 1084 3116 1284 3241 
Q 1569 3428 1953 3428 
Q 2522 3428 2919 2992 
Q 3316 2556 3316 1747 
Q 3316 653 2744 184 
Q 2381 -113 1900 -113 
Q 1522 -113 1266 53 
Q 1116 147 931 375 
L 931 -1334 
L 369 -1334 
L 369 3331 
z
" transform="scale(0.015625)"/>
       <path id="Helvetica-6b" d="M 400 4591 
L 941 4591 
L 941 1925 
L 2384 3347 
L 3103 3347 
L 1822 2094 
L 3175 0 
L 2456 0 
L 1413 1688 
L 941 1256 
L 941 0 
L 400 0 
L 400 4591 
z
" transform="scale(0.015625)"/>
       <path id="Helvetica-6e" d="M 413 3347 
L 947 3347 
L 947 2872 
Q 1184 3166 1450 3294 
Q 1716 3422 2041 3422 
Q 2753 3422 3003 2925 
Q 3141 2653 3141 2147 
L 3141 0 
L 2569 0 
L 2569 2109 
Q 2569 2416 2478 2603 
Q 2328 2916 1934 2916 
Q 1734 2916 1606 2875 
Q 1375 2806 1200 2600 
Q 1059 2434 1017 2257 
Q 975 2081 975 1753 
L 975 0 
L 413 0 
L 413 3347 
z
M 1734 3428 
L 1734 3428 
z
" transform="scale(0.015625)"/>
       <path id="Helvetica-28" d="M 1894 4666 
Q 1403 3713 1256 3263 
Q 1034 2578 1034 1681 
Q 1034 775 1288 25 
Q 1444 -438 1903 -1306 
L 1525 -1306 
Q 1069 -594 959 -397 
Q 850 -200 722 138 
Q 547 600 478 1125 
Q 444 1397 444 1644 
Q 444 2569 734 3291 
Q 919 3750 1503 4666 
L 1894 4666 
z
" transform="scale(0.015625)"/>
       <path id="Helvetica-3d" d="M 3547 2569 
L 3547 2044 
L 288 2044 
L 288 2569 
L 3547 2569 
z
M 3547 1228 
L 3547 694 
L 288 694 
L 288 1228 
L 3547 1228 
z
" transform="scale(0.015625)"/>
       <path id="Helvetica-39" d="M 850 1081 
Q 875 616 1209 438 
Q 1381 344 1597 344 
Q 2000 344 2284 680 
Q 2569 1016 2688 2044 
Q 2500 1747 2223 1626 
Q 1947 1506 1628 1506 
Q 981 1506 604 1909 
Q 228 2313 228 2947 
Q 228 3556 600 4018 
Q 972 4481 1697 4481 
Q 2675 4481 3047 3600 
Q 3253 3116 3253 2388 
Q 3253 1566 3006 931 
Q 2597 -125 1619 -125 
Q 963 -125 622 219 
Q 281 563 281 1081 
L 850 1081 
z
M 1703 2000 
Q 2038 2000 2314 2220 
Q 2591 2441 2591 2991 
Q 2591 3484 2342 3726 
Q 2094 3969 1709 3969 
Q 1297 3969 1055 3692 
Q 813 3416 813 2953 
Q 813 2516 1025 2258 
Q 1238 2000 1703 2000 
z
" transform="scale(0.015625)"/>
       <path id="Helvetica-29" d="M 222 -1306 
Q 719 -338 863 106 
Q 1081 778 1081 1681 
Q 1081 2584 828 3334 
Q 672 3797 213 4666 
L 591 4666 
Q 1072 3897 1173 3717 
Q 1275 3538 1394 3222 
Q 1544 2831 1608 2450 
Q 1672 2069 1672 1716 
Q 1672 791 1378 66 
Q 1194 -400 613 -1306 
L 222 -1306 
z
" transform="scale(0.015625)"/>
      </defs>
      <use xlink:href="#Helvetica-48"/>
      <use xlink:href="#Helvetica-2d" x="72.216797"/>
      <use xlink:href="#Helvetica-74" x="105.517578"/>
      <use xlink:href="#Helvetica-79" x="133.300781"/>
      <use xlink:href="#Helvetica-70" x="183.300781"/>
      <use xlink:href="#Helvetica-65" x="238.916016"/>
      <use xlink:href="#Helvetica-20" x="294.53125"/>
      <use xlink:href="#Helvetica-50" x="322.314453"/>
      <use xlink:href="#Helvetica-73" x="389.013672"/>
      <use xlink:href="#Helvetica-65" x="439.013672"/>
      <use xlink:href="#Helvetica-75" x="494.628906"/>
      <use xlink:href="#Helvetica-64" x="550.244141"/>
      <use xlink:href="#Helvetica-6f" x="605.859375"/>
      <use xlink:href="#Helvetica-6b" x="661.474609"/>
      <use xlink:href="#Helvetica-6e" x="711.474609"/>
      <use xlink:href="#Helvetica-6f" x="767.089844"/>
      <use xlink:href="#Helvetica-74" x="822.705078"/>
      <use xlink:href="#Helvetica-73" x="850.488281"/>
      <use xlink:href="#Helvetica-20" x="900.488281"/>
      <use xlink:href="#Helvetica-28" x="928.271484"/>
      <use xlink:href="#Helvetica-61" x="961.572266"/>
      <use xlink:href="#Helvetica-72" x="1017.1875"/>
      <use xlink:href="#Helvetica-65" x="1050.488281"/>
      <use xlink:href="#Helvetica-61" x="1106.103516"/>
      <use xlink:href="#Helvetica-20" x="1161.71875"/>
      <use xlink:href="#Helvetica-3d" x="1189.501953"/>
      <use xlink:href="#Helvetica-20" x="1247.900391"/>
      <use xlink:href="#Helvetica-30" x="1275.683594"/>
      <use xlink:href="#Helvetica-2e" x="1331.298828"/>
      <use xlink:href="#Helvetica-39" x="1359.082031"/>
      <use xlink:href="#Helvetica-39" x="1414.697266"/>
      <use xlink:href="#Helvetica-29" x="1470.3125"/>
     </g>
    </g>
    <g id="line2d_19">
     <path d="M 126.507812 195.555625 
L 140.507812 195.555625 
L 154.507812 195.555625 
" style="fill: none; stroke: #ff7f0e; stroke-width: 2; stroke-linecap: square"/>
    </g>
    <g id="text_17">
     <!-- Linear Sequences (area = 0.96) -->
     <g transform="translate(165.707812 200.455625) scale(0.14 -0.14)">
      <defs>
       <path id="Helvetica-4c" d="M 488 4591 
L 1109 4591 
L 1109 547 
L 3434 547 
L 3434 0 
L 488 0 
L 488 4591 
z
" transform="scale(0.015625)"/>
       <path id="Helvetica-71" d="M 775 1628 
Q 775 1194 897 900 
Q 1113 378 1669 378 
Q 2256 378 2478 928 
Q 2600 1231 2600 1703 
Q 2600 2138 2466 2428 
Q 2238 2925 1663 2925 
Q 1297 2925 1036 2608 
Q 775 2291 775 1628 
z
M 1606 3422 
Q 2022 3422 2306 3213 
Q 2463 3100 2606 2881 
L 2606 3347 
L 3141 3347 
L 3141 -1334 
L 2575 -1334 
L 2575 384 
Q 2434 159 2186 26 
Q 1938 -106 1566 -106 
Q 1031 -106 609 312 
Q 188 731 188 1588 
Q 188 2391 583 2906 
Q 978 3422 1606 3422 
z
" transform="scale(0.015625)"/>
       <path id="Helvetica-63" d="M 1703 3444 
Q 2269 3444 2623 3169 
Q 2978 2894 3050 2222 
L 2503 2222 
Q 2453 2531 2275 2736 
Q 2097 2941 1703 2941 
Q 1166 2941 934 2416 
Q 784 2075 784 1575 
Q 784 1072 996 728 
Q 1209 384 1666 384 
Q 2016 384 2220 598 
Q 2425 813 2503 1184 
L 3050 1184 
Q 2956 519 2581 211 
Q 2206 -97 1622 -97 
Q 966 -97 575 383 
Q 184 863 184 1581 
Q 184 2463 612 2953 
Q 1041 3444 1703 3444 
z
M 1616 3428 
L 1616 3428 
z
" transform="scale(0.015625)"/>
      </defs>
      <use xlink:href="#Helvetica-4c"/>
      <use xlink:href="#Helvetica-69" x="55.615234"/>
      <use xlink:href="#Helvetica-6e" x="77.832031"/>
      <use xlink:href="#Helvetica-65" x="133.447266"/>
      <use xlink:href="#Helvetica-61" x="189.0625"/>
      <use xlink:href="#Helvetica-72" x="244.677734"/>
      <use xlink:href="#Helvetica-20" x="277.978516"/>
      <use xlink:href="#Helvetica-53" x="305.761719"/>
      <use xlink:href="#Helvetica-65" x="372.460938"/>
      <use xlink:href="#Helvetica-71" x="428.076172"/>
      <use xlink:href="#Helvetica-75" x="483.691406"/>
      <use xlink:href="#Helvetica-65" x="539.306641"/>
      <use xlink:href="#Helvetica-6e" x="594.921875"/>
      <use xlink:href="#Helvetica-63" x="650.537109"/>
      <use xlink:href="#Helvetica-65" x="700.537109"/>
      <use xlink:href="#Helvetica-73" x="756.152344"/>
      <use xlink:href="#Helvetica-20" x="806.152344"/>
      <use xlink:href="#Helvetica-28" x="833.935547"/>
      <use xlink:href="#Helvetica-61" x="867.236328"/>
      <use xlink:href="#Helvetica-72" x="922.851562"/>
      <use xlink:href="#Helvetica-65" x="956.152344"/>
      <use xlink:href="#Helvetica-61" x="1011.767578"/>
      <use xlink:href="#Helvetica-20" x="1067.382812"/>
      <use xlink:href="#Helvetica-3d" x="1095.166016"/>
      <use xlink:href="#Helvetica-20" x="1153.564453"/>
      <use xlink:href="#Helvetica-30" x="1181.347656"/>
      <use xlink:href="#Helvetica-2e" x="1236.962891"/>
      <use xlink:href="#Helvetica-39" x="1264.746094"/>
      <use xlink:href="#Helvetica-36" x="1320.361328"/>
      <use xlink:href="#Helvetica-29" x="1375.976562"/>
     </g>
    </g>
    <g id="line2d_20">
     <path d="M 126.507812 215.72875 
L 140.507812 215.72875 
L 154.507812 215.72875 
" style="fill: none; stroke: #9467bd; stroke-width: 2; stroke-linecap: square"/>
    </g>
    <g id="text_18">
     <!-- Stem 2 removal (area = 1.00) -->
     <g transform="translate(165.707812 220.62875) scale(0.14 -0.14)">
      <defs>
       <path id="Helvetica-6d" d="M 413 3347 
L 969 3347 
L 969 2872 
Q 1169 3119 1331 3231 
Q 1609 3422 1963 3422 
Q 2363 3422 2606 3225 
Q 2744 3113 2856 2894 
Q 3044 3163 3297 3292 
Q 3550 3422 3866 3422 
Q 4541 3422 4784 2934 
Q 4916 2672 4916 2228 
L 4916 0 
L 4331 0 
L 4331 2325 
Q 4331 2659 4164 2784 
Q 3997 2909 3756 2909 
Q 3425 2909 3186 2687 
Q 2947 2466 2947 1947 
L 2947 0 
L 2375 0 
L 2375 2184 
Q 2375 2525 2294 2681 
Q 2166 2916 1816 2916 
Q 1497 2916 1236 2669 
Q 975 2422 975 1775 
L 975 0 
L 413 0 
L 413 3347 
z
" transform="scale(0.015625)"/>
      </defs>
      <use xlink:href="#Helvetica-53"/>
      <use xlink:href="#Helvetica-74" x="66.699219"/>
      <use xlink:href="#Helvetica-65" x="94.482422"/>
      <use xlink:href="#Helvetica-6d" x="150.097656"/>
      <use xlink:href="#Helvetica-20" x="233.398438"/>
      <use xlink:href="#Helvetica-32" x="261.181641"/>
      <use xlink:href="#Helvetica-20" x="316.796875"/>
      <use xlink:href="#Helvetica-72" x="344.580078"/>
      <use xlink:href="#Helvetica-65" x="377.880859"/>
      <use xlink:href="#Helvetica-6d" x="433.496094"/>
      <use xlink:href="#Helvetica-6f" x="516.796875"/>
      <use xlink:href="#Helvetica-76" x="572.412109"/>
      <use xlink:href="#Helvetica-61" x="622.412109"/>
      <use xlink:href="#Helvetica-6c" x="678.027344"/>
      <use xlink:href="#Helvetica-20" x="700.244141"/>
      <use xlink:href="#Helvetica-28" x="728.027344"/>
      <use xlink:href="#Helvetica-61" x="761.328125"/>
      <use xlink:href="#Helvetica-72" x="816.943359"/>
      <use xlink:href="#Helvetica-65" x="850.244141"/>
      <use xlink:href="#Helvetica-61" x="905.859375"/>
      <use xlink:href="#Helvetica-20" x="961.474609"/>
      <use xlink:href="#Helvetica-3d" x="989.257812"/>
      <use xlink:href="#Helvetica-20" x="1047.65625"/>
      <use xlink:href="#Helvetica-31" x="1075.439453"/>
      <use xlink:href="#Helvetica-2e" x="1131.054688"/>
      <use xlink:href="#Helvetica-30" x="1158.837891"/>
      <use xlink:href="#Helvetica-30" x="1214.453125"/>
      <use xlink:href="#Helvetica-29" x="1270.068359"/>
     </g>
    </g>
    <g id="line2d_21">
     <path d="M 126.507812 235.901875 
L 140.507812 235.901875 
L 154.507812 235.901875 
" style="fill: none; stroke: #8c564b; stroke-width: 2; stroke-linecap: square"/>
    </g>
    <g id="text_19">
     <!-- Stem 3 removals (area = 1.00) -->
     <g transform="translate(165.707812 240.801875) scale(0.14 -0.14)">
      <defs>
       <path id="Helvetica-33" d="M 1663 -122 
Q 869 -122 511 314 
Q 153 750 153 1375 
L 741 1375 
Q 778 941 903 744 
Q 1122 391 1694 391 
Q 2138 391 2406 628 
Q 2675 866 2675 1241 
Q 2675 1703 2392 1887 
Q 2109 2072 1606 2072 
Q 1550 2072 1492 2070 
Q 1434 2069 1375 2066 
L 1375 2563 
Q 1463 2553 1522 2550 
Q 1581 2547 1650 2547 
Q 1966 2547 2169 2647 
Q 2525 2822 2525 3272 
Q 2525 3606 2287 3787 
Q 2050 3969 1734 3969 
Q 1172 3969 956 3594 
Q 838 3388 822 3006 
L 266 3006 
Q 266 3506 466 3856 
Q 809 4481 1675 4481 
Q 2359 4481 2734 4176 
Q 3109 3872 3109 3294 
Q 3109 2881 2888 2625 
Q 2750 2466 2531 2375 
Q 2884 2278 3082 2001 
Q 3281 1725 3281 1325 
Q 3281 684 2859 281 
Q 2438 -122 1663 -122 
z
" transform="scale(0.015625)"/>
      </defs>
      <use xlink:href="#Helvetica-53"/>
      <use xlink:href="#Helvetica-74" x="66.699219"/>
      <use xlink:href="#Helvetica-65" x="94.482422"/>
      <use xlink:href="#Helvetica-6d" x="150.097656"/>
      <use xlink:href="#Helvetica-20" x="233.398438"/>
      <use xlink:href="#Helvetica-33" x="261.181641"/>
      <use xlink:href="#Helvetica-20" x="316.796875"/>
      <use xlink:href="#Helvetica-72" x="344.580078"/>
      <use xlink:href="#Helvetica-65" x="377.880859"/>
      <use xlink:href="#Helvetica-6d" x="433.496094"/>
      <use xlink:href="#Helvetica-6f" x="516.796875"/>
      <use xlink:href="#Helvetica-76" x="572.412109"/>
      <use xlink:href="#Helvetica-61" x="622.412109"/>
      <use xlink:href="#Helvetica-6c" x="678.027344"/>
      <use xlink:href="#Helvetica-73" x="700.244141"/>
      <use xlink:href="#Helvetica-20" x="750.244141"/>
      <use xlink:href="#Helvetica-28" x="778.027344"/>
      <use xlink:href="#Helvetica-61" x="811.328125"/>
      <use xlink:href="#Helvetica-72" x="866.943359"/>
      <use xlink:href="#Helvetica-65" x="900.244141"/>
      <use xlink:href="#Helvetica-61" x="955.859375"/>
      <use xlink:href="#Helvetica-20" x="1011.474609"/>
      <use xlink:href="#Helvetica-3d" x="1039.257812"/>
      <use xlink:href="#Helvetica-20" x="1097.65625"/>
      <use xlink:href="#Helvetica-31" x="1125.439453"/>
      <use xlink:href="#Helvetica-2e" x="1181.054688"/>
      <use xlink:href="#Helvetica-30" x="1208.837891"/>
      <use xlink:href="#Helvetica-30" x="1264.453125"/>
      <use xlink:href="#Helvetica-29" x="1320.068359"/>
     </g>
    </g>
   </g>
  </g>
 </g>
 <defs>
  <clipPath id="p70757b3696">
   <rect x="54" y="34.56" width="334.8" height="221.76"/>
  </clipPath>
 </defs>
</svg>
