<?xml version="1.0" encoding="utf-8" standalone="no"?>
<!DOCTYPE svg PUBLIC "-//W3C//DTD SVG 1.1//EN"
  "http://www.w3.org/Graphics/SVG/1.1/DTD/svg11.dtd">
<svg xmlns:xlink="http://www.w3.org/1999/xlink" width="460.8pt" height="345.6pt" viewBox="0 0 460.8 345.6" xmlns="http://www.w3.org/2000/svg" version="1.1">
 <metadata>
  <rdf:RDF xmlns:dc="http://purl.org/dc/elements/1.1/" xmlns:cc="http://creativecommons.org/ns#" xmlns:rdf="http://www.w3.org/1999/02/22-rdf-syntax-ns#">
   <cc:Work>
    <dc:type rdf:resource="http://purl.org/dc/dcmitype/StillImage"/>
    <dc:date>2023-05-23T12:01:41.474383</dc:date>
    <dc:format>image/svg+xml</dc:format>
    <dc:creator>
     <cc:Agent>
      <dc:title>Matplotlib v3.6.3, https://matplotlib.org/</dc:title>
     </cc:Agent>
    </dc:creator>
   </cc:Work>
  </rdf:RDF>
 </metadata>
 <defs>
  <style type="text/css">*{stroke-linejoin: round; stroke-linecap: butt}</style>
 </defs>
 <g id="figure_1">
  <g id="patch_1">
   <path d="M 0 345.6 
L 460.8 345.6 
L 460.8 0 
L 0 0 
L 0 345.6 
z
" style="fill: none"/>
  </g>
  <g id="axes_1">
   <g id="patch_2">
    <path d="M 57.6 307.584 
L 414.72 307.584 
L 414.72 41.472 
L 57.6 41.472 
L 57.6 307.584 
z
" style="fill: none"/>
   </g>
   <g id="matplotlib.axis_1">
    <g id="xtick_1">
     <g id="line2d_1">
      <defs>
       <path id="mfc98ddf370" d="M 0 0 
L 0 3.5 
" style="stroke: #000000; stroke-width: 2"/>
      </defs>
      <g>
       <use xlink:href="#mfc98ddf370" x="90.065455" y="307.584" style="stroke: #000000; stroke-width: 2"/>
      </g>
     </g>
     <g id="text_1">
      <!-- 0.0 -->
      <g transform="translate(80.335455 324.626812) scale(0.14 -0.14)">
       <defs>
        <path id="Helvetica-30" d="M 1731 4475 
Q 2600 4475 2988 3759 
Q 3288 3206 3288 2244 
Q 3288 1331 3016 734 
Q 2622 -122 1728 -122 
Q 922 -122 528 578 
Q 200 1163 200 2147 
Q 200 2909 397 3456 
Q 766 4475 1731 4475 
z
M 1725 391 
Q 2163 391 2422 778 
Q 2681 1166 2681 2222 
Q 2681 2984 2493 3476 
Q 2306 3969 1766 3969 
Q 1269 3969 1039 3501 
Q 809 3034 809 2125 
Q 809 1441 956 1025 
Q 1181 391 1725 391 
z
" transform="scale(0.015625)"/>
        <path id="Helvetica-2e" d="M 547 681 
L 1200 681 
L 1200 0 
L 547 0 
L 547 681 
z
" transform="scale(0.015625)"/>
       </defs>
       <use xlink:href="#Helvetica-30"/>
       <use xlink:href="#Helvetica-2e" x="55.615234"/>
       <use xlink:href="#Helvetica-30" x="83.398438"/>
      </g>
     </g>
    </g>
    <g id="xtick_2">
     <g id="line2d_2">
      <g>
       <use xlink:href="#mfc98ddf370" x="154.996364" y="307.584" style="stroke: #000000; stroke-width: 2"/>
      </g>
     </g>
     <g id="text_2">
      <!-- 0.2 -->
      <g transform="translate(145.266364 324.626812) scale(0.14 -0.14)">
       <defs>
        <path id="Helvetica-32" d="M 200 0 
Q 231 578 439 1006 
Q 647 1434 1250 1784 
L 1850 2131 
Q 2253 2366 2416 2531 
Q 2672 2791 2672 3125 
Q 2672 3516 2437 3745 
Q 2203 3975 1813 3975 
Q 1234 3975 1013 3538 
Q 894 3303 881 2888 
L 309 2888 
Q 319 3472 525 3841 
Q 891 4491 1816 4491 
Q 2584 4491 2939 4075 
Q 3294 3659 3294 3150 
Q 3294 2613 2916 2231 
Q 2697 2009 2131 1694 
L 1703 1456 
Q 1397 1288 1222 1134 
Q 909 863 828 531 
L 3272 531 
L 3272 0 
L 200 0 
z
" transform="scale(0.015625)"/>
       </defs>
       <use xlink:href="#Helvetica-30"/>
       <use xlink:href="#Helvetica-2e" x="55.615234"/>
       <use xlink:href="#Helvetica-32" x="83.398438"/>
      </g>
     </g>
    </g>
    <g id="xtick_3">
     <g id="line2d_3">
      <g>
       <use xlink:href="#mfc98ddf370" x="219.927273" y="307.584" style="stroke: #000000; stroke-width: 2"/>
      </g>
     </g>
     <g id="text_3">
      <!-- 0.4 -->
      <g transform="translate(210.197273 324.626812) scale(0.14 -0.14)">
       <defs>
        <path id="Helvetica-34" d="M 2116 1584 
L 2116 3613 
L 681 1584 
L 2116 1584 
z
M 2125 0 
L 2125 1094 
L 163 1094 
L 163 1644 
L 2213 4488 
L 2688 4488 
L 2688 1584 
L 3347 1584 
L 3347 1094 
L 2688 1094 
L 2688 0 
L 2125 0 
z
" transform="scale(0.015625)"/>
       </defs>
       <use xlink:href="#Helvetica-30"/>
       <use xlink:href="#Helvetica-2e" x="55.615234"/>
       <use xlink:href="#Helvetica-34" x="83.398438"/>
      </g>
     </g>
    </g>
    <g id="xtick_4">
     <g id="line2d_4">
      <g>
       <use xlink:href="#mfc98ddf370" x="284.858182" y="307.584" style="stroke: #000000; stroke-width: 2"/>
      </g>
     </g>
     <g id="text_4">
      <!-- 0.6 -->
      <g transform="translate(275.128182 324.626812) scale(0.14 -0.14)">
       <defs>
        <path id="Helvetica-36" d="M 1872 4494 
Q 2622 4494 2917 4105 
Q 3213 3716 3213 3303 
L 2656 3303 
Q 2606 3569 2497 3719 
Q 2294 4000 1881 4000 
Q 1409 4000 1131 3564 
Q 853 3128 822 2316 
Q 1016 2600 1309 2741 
Q 1578 2866 1909 2866 
Q 2472 2866 2890 2506 
Q 3309 2147 3309 1434 
Q 3309 825 2912 354 
Q 2516 -116 1781 -116 
Q 1153 -116 697 361 
Q 241 838 241 1966 
Q 241 2800 444 3381 
Q 834 4494 1872 4494 
z
M 1831 384 
Q 2275 384 2495 682 
Q 2716 981 2716 1388 
Q 2716 1731 2519 2042 
Q 2322 2353 1803 2353 
Q 1441 2353 1167 2112 
Q 894 1872 894 1388 
Q 894 963 1142 673 
Q 1391 384 1831 384 
z
" transform="scale(0.015625)"/>
       </defs>
       <use xlink:href="#Helvetica-30"/>
       <use xlink:href="#Helvetica-2e" x="55.615234"/>
       <use xlink:href="#Helvetica-36" x="83.398438"/>
      </g>
     </g>
    </g>
    <g id="xtick_5">
     <g id="line2d_5">
      <g>
       <use xlink:href="#mfc98ddf370" x="349.789091" y="307.584" style="stroke: #000000; stroke-width: 2"/>
      </g>
     </g>
     <g id="text_5">
      <!-- 0.8 -->
      <g transform="translate(340.059091 324.626812) scale(0.14 -0.14)">
       <defs>
        <path id="Helvetica-38" d="M 1741 2600 
Q 2113 2600 2322 2808 
Q 2531 3016 2531 3303 
Q 2531 3553 2331 3762 
Q 2131 3972 1722 3972 
Q 1316 3972 1134 3762 
Q 953 3553 953 3272 
Q 953 2956 1187 2778 
Q 1422 2600 1741 2600 
z
M 1775 384 
Q 2166 384 2423 595 
Q 2681 806 2681 1225 
Q 2681 1659 2415 1884 
Q 2150 2109 1734 2109 
Q 1331 2109 1076 1879 
Q 822 1650 822 1244 
Q 822 894 1055 639 
Q 1288 384 1775 384 
z
M 975 2384 
Q 741 2484 609 2619 
Q 363 2869 363 3269 
Q 363 3769 725 4128 
Q 1088 4488 1753 4488 
Q 2397 4488 2762 4148 
Q 3128 3809 3128 3356 
Q 3128 2938 2916 2678 
Q 2797 2531 2547 2391 
Q 2825 2263 2984 2097 
Q 3281 1784 3281 1284 
Q 3281 694 2884 283 
Q 2488 -128 1763 -128 
Q 1109 -128 657 226 
Q 206 581 206 1256 
Q 206 1653 400 1942 
Q 594 2231 975 2384 
z
" transform="scale(0.015625)"/>
       </defs>
       <use xlink:href="#Helvetica-30"/>
       <use xlink:href="#Helvetica-2e" x="55.615234"/>
       <use xlink:href="#Helvetica-38" x="83.398438"/>
      </g>
     </g>
    </g>
    <g id="xtick_6">
     <g id="line2d_6">
      <g>
       <use xlink:href="#mfc98ddf370" x="414.72" y="307.584" style="stroke: #000000; stroke-width: 2"/>
      </g>
     </g>
     <g id="text_6">
      <!-- 1.0 -->
      <g transform="translate(404.99 324.626812) scale(0.14 -0.14)">
       <defs>
        <path id="Helvetica-31" d="M 613 3169 
L 613 3600 
Q 1222 3659 1462 3798 
Q 1703 3938 1822 4456 
L 2266 4456 
L 2266 0 
L 1666 0 
L 1666 3169 
L 613 3169 
z
" transform="scale(0.015625)"/>
       </defs>
       <use xlink:href="#Helvetica-31"/>
       <use xlink:href="#Helvetica-2e" x="55.615234"/>
       <use xlink:href="#Helvetica-30" x="83.398438"/>
      </g>
     </g>
    </g>
    <g id="text_7">
     <!-- False Positive Rate -->
     <g transform="translate(175.859375 341.58775) scale(0.14 -0.14)">
      <defs>
       <path id="Helvetica-46" d="M 547 4591 
L 3731 4591 
L 3731 4028 
L 1169 4028 
L 1169 2634 
L 3422 2634 
L 3422 2088 
L 1169 2088 
L 1169 0 
L 547 0 
L 547 4591 
z
" transform="scale(0.015625)"/>
       <path id="Helvetica-61" d="M 844 891 
Q 844 647 1022 506 
Q 1200 366 1444 366 
Q 1741 366 2019 503 
Q 2488 731 2488 1250 
L 2488 1703 
Q 2384 1638 2221 1594 
Q 2059 1550 1903 1531 
L 1563 1488 
Q 1256 1447 1103 1359 
Q 844 1213 844 891 
z
M 2206 2028 
Q 2400 2053 2466 2191 
Q 2503 2266 2503 2406 
Q 2503 2694 2298 2823 
Q 2094 2953 1713 2953 
Q 1272 2953 1088 2716 
Q 984 2584 953 2325 
L 428 2325 
Q 444 2944 830 3186 
Q 1216 3428 1725 3428 
Q 2316 3428 2684 3203 
Q 3050 2978 3050 2503 
L 3050 575 
Q 3050 488 3086 434 
Q 3122 381 3238 381 
Q 3275 381 3322 386 
Q 3369 391 3422 400 
L 3422 -16 
Q 3291 -53 3222 -62 
Q 3153 -72 3034 -72 
Q 2744 -72 2613 134 
Q 2544 244 2516 444 
Q 2344 219 2022 53 
Q 1700 -113 1313 -113 
Q 847 -113 551 170 
Q 256 453 256 878 
Q 256 1344 547 1600 
Q 838 1856 1309 1916 
L 2206 2028 
z
M 1741 3428 
L 1741 3428 
z
" transform="scale(0.015625)"/>
       <path id="Helvetica-6c" d="M 428 4591 
L 991 4591 
L 991 0 
L 428 0 
L 428 4591 
z
" transform="scale(0.015625)"/>
       <path id="Helvetica-73" d="M 747 1050 
Q 772 769 888 619 
Q 1100 347 1625 347 
Q 1938 347 2175 483 
Q 2413 619 2413 903 
Q 2413 1119 2222 1231 
Q 2100 1300 1741 1391 
L 1294 1503 
Q 866 1609 663 1741 
Q 300 1969 300 2372 
Q 300 2847 642 3140 
Q 984 3434 1563 3434 
Q 2319 3434 2653 2991 
Q 2863 2709 2856 2384 
L 2325 2384 
Q 2309 2575 2191 2731 
Q 1997 2953 1519 2953 
Q 1200 2953 1036 2831 
Q 872 2709 872 2509 
Q 872 2291 1088 2159 
Q 1213 2081 1456 2022 
L 1828 1931 
Q 2434 1784 2641 1647 
Q 2969 1431 2969 969 
Q 2969 522 2630 197 
Q 2291 -128 1597 -128 
Q 850 -128 539 211 
Q 228 550 206 1050 
L 747 1050 
z
M 1578 3428 
L 1578 3428 
z
" transform="scale(0.015625)"/>
       <path id="Helvetica-65" d="M 1806 3422 
Q 2163 3422 2497 3255 
Q 2831 3088 3006 2822 
Q 3175 2569 3231 2231 
Q 3281 2000 3281 1494 
L 828 1494 
Q 844 984 1069 676 
Q 1294 369 1766 369 
Q 2206 369 2469 659 
Q 2619 828 2681 1050 
L 3234 1050 
Q 3213 866 3089 639 
Q 2966 413 2813 269 
Q 2556 19 2178 -69 
Q 1975 -119 1719 -119 
Q 1094 -119 659 336 
Q 225 791 225 1609 
Q 225 2416 662 2919 
Q 1100 3422 1806 3422 
z
M 2703 1941 
Q 2669 2306 2544 2525 
Q 2313 2931 1772 2931 
Q 1384 2931 1121 2651 
Q 859 2372 844 1941 
L 2703 1941 
z
M 1753 3428 
L 1753 3428 
z
" transform="scale(0.015625)"/>
       <path id="Helvetica-20" transform="scale(0.015625)"/>
       <path id="Helvetica-50" d="M 547 4591 
L 2613 4591 
Q 3225 4591 3600 4245 
Q 3975 3900 3975 3275 
Q 3975 2738 3640 2339 
Q 3306 1941 2613 1941 
L 1169 1941 
L 1169 0 
L 547 0 
L 547 4591 
z
M 3347 3272 
Q 3347 3778 2972 3959 
Q 2766 4056 2406 4056 
L 1169 4056 
L 1169 2466 
L 2406 2466 
Q 2825 2466 3086 2644 
Q 3347 2822 3347 3272 
z
" transform="scale(0.015625)"/>
       <path id="Helvetica-6f" d="M 1741 363 
Q 2300 363 2508 786 
Q 2716 1209 2716 1728 
Q 2716 2197 2566 2491 
Q 2328 2953 1747 2953 
Q 1231 2953 997 2559 
Q 763 2166 763 1609 
Q 763 1075 997 719 
Q 1231 363 1741 363 
z
M 1763 3444 
Q 2409 3444 2856 3012 
Q 3303 2581 3303 1744 
Q 3303 934 2909 406 
Q 2516 -122 1688 -122 
Q 997 -122 590 345 
Q 184 813 184 1600 
Q 184 2444 612 2944 
Q 1041 3444 1763 3444 
z
M 1744 3428 
L 1744 3428 
z
" transform="scale(0.015625)"/>
       <path id="Helvetica-69" d="M 413 3331 
L 984 3331 
L 984 0 
L 413 0 
L 413 3331 
z
M 413 4591 
L 984 4591 
L 984 3953 
L 413 3953 
L 413 4591 
z
" transform="scale(0.015625)"/>
       <path id="Helvetica-74" d="M 525 4281 
L 1094 4281 
L 1094 3347 
L 1628 3347 
L 1628 2888 
L 1094 2888 
L 1094 703 
Q 1094 528 1213 469 
Q 1278 434 1431 434 
Q 1472 434 1519 436 
Q 1566 438 1628 444 
L 1628 0 
Q 1531 -28 1426 -40 
Q 1322 -53 1200 -53 
Q 806 -53 665 148 
Q 525 350 525 672 
L 525 2888 
L 72 2888 
L 72 3347 
L 525 3347 
L 525 4281 
z
" transform="scale(0.015625)"/>
       <path id="Helvetica-76" d="M 688 3347 
L 1581 622 
L 2516 3347 
L 3131 3347 
L 1869 0 
L 1269 0 
L 34 3347 
L 688 3347 
z
" transform="scale(0.015625)"/>
       <path id="Helvetica-52" d="M 2622 2488 
Q 3059 2488 3314 2663 
Q 3569 2838 3569 3294 
Q 3569 3784 3213 3963 
Q 3022 4056 2703 4056 
L 1184 4056 
L 1184 2488 
L 2622 2488 
z
M 563 4591 
L 2688 4591 
Q 3213 4591 3553 4438 
Q 4200 4144 4200 3353 
Q 4200 2941 4029 2678 
Q 3859 2416 3553 2256 
Q 3822 2147 3958 1969 
Q 4094 1791 4109 1391 
L 4131 775 
Q 4141 513 4175 384 
Q 4231 166 4375 103 
L 4375 0 
L 3613 0 
Q 3581 59 3562 153 
Q 3544 247 3531 516 
L 3494 1281 
Q 3472 1731 3159 1884 
Q 2981 1969 2600 1969 
L 1184 1969 
L 1184 0 
L 563 0 
L 563 4591 
z
" transform="scale(0.015625)"/>
      </defs>
      <use xlink:href="#Helvetica-46"/>
      <use xlink:href="#Helvetica-61" x="61.083984"/>
      <use xlink:href="#Helvetica-6c" x="116.699219"/>
      <use xlink:href="#Helvetica-73" x="138.916016"/>
      <use xlink:href="#Helvetica-65" x="188.916016"/>
      <use xlink:href="#Helvetica-20" x="244.53125"/>
      <use xlink:href="#Helvetica-50" x="272.314453"/>
      <use xlink:href="#Helvetica-6f" x="339.013672"/>
      <use xlink:href="#Helvetica-73" x="394.628906"/>
      <use xlink:href="#Helvetica-69" x="444.628906"/>
      <use xlink:href="#Helvetica-74" x="466.845703"/>
      <use xlink:href="#Helvetica-69" x="494.628906"/>
      <use xlink:href="#Helvetica-76" x="516.845703"/>
      <use xlink:href="#Helvetica-65" x="566.845703"/>
      <use xlink:href="#Helvetica-20" x="622.460938"/>
      <use xlink:href="#Helvetica-52" x="650.244141"/>
      <use xlink:href="#Helvetica-61" x="722.460938"/>
      <use xlink:href="#Helvetica-74" x="778.076172"/>
      <use xlink:href="#Helvetica-65" x="805.859375"/>
     </g>
    </g>
   </g>
   <g id="matplotlib.axis_2">
    <g id="ytick_1">
     <g id="line2d_7">
      <defs>
       <path id="m03b2a6a033" d="M 0 0 
L -3.5 0 
" style="stroke: #000000; stroke-width: 2"/>
      </defs>
      <g>
       <use xlink:href="#m03b2a6a033" x="57.6" y="307.584" style="stroke: #000000; stroke-width: 2"/>
      </g>
     </g>
     <g id="text_8">
      <!-- 0.0 -->
      <g transform="translate(31.14 312.605406) scale(0.14 -0.14)">
       <use xlink:href="#Helvetica-30"/>
       <use xlink:href="#Helvetica-2e" x="55.615234"/>
       <use xlink:href="#Helvetica-30" x="83.398438"/>
      </g>
     </g>
    </g>
    <g id="ytick_2">
     <g id="line2d_8">
      <g>
       <use xlink:href="#m03b2a6a033" x="57.6" y="256.896" style="stroke: #000000; stroke-width: 2"/>
      </g>
     </g>
     <g id="text_9">
      <!-- 0.2 -->
      <g transform="translate(31.14 261.917406) scale(0.14 -0.14)">
       <use xlink:href="#Helvetica-30"/>
       <use xlink:href="#Helvetica-2e" x="55.615234"/>
       <use xlink:href="#Helvetica-32" x="83.398438"/>
      </g>
     </g>
    </g>
    <g id="ytick_3">
     <g id="line2d_9">
      <g>
       <use xlink:href="#m03b2a6a033" x="57.6" y="206.208" style="stroke: #000000; stroke-width: 2"/>
      </g>
     </g>
     <g id="text_10">
      <!-- 0.4 -->
      <g transform="translate(31.14 211.229406) scale(0.14 -0.14)">
       <use xlink:href="#Helvetica-30"/>
       <use xlink:href="#Helvetica-2e" x="55.615234"/>
       <use xlink:href="#Helvetica-34" x="83.398438"/>
      </g>
     </g>
    </g>
    <g id="ytick_4">
     <g id="line2d_10">
      <g>
       <use xlink:href="#m03b2a6a033" x="57.6" y="155.52" style="stroke: #000000; stroke-width: 2"/>
      </g>
     </g>
     <g id="text_11">
      <!-- 0.6 -->
      <g transform="translate(31.14 160.541406) scale(0.14 -0.14)">
       <use xlink:href="#Helvetica-30"/>
       <use xlink:href="#Helvetica-2e" x="55.615234"/>
       <use xlink:href="#Helvetica-36" x="83.398438"/>
      </g>
     </g>
    </g>
    <g id="ytick_5">
     <g id="line2d_11">
      <g>
       <use xlink:href="#m03b2a6a033" x="57.6" y="104.832" style="stroke: #000000; stroke-width: 2"/>
      </g>
     </g>
     <g id="text_12">
      <!-- 0.8 -->
      <g transform="translate(31.14 109.853406) scale(0.14 -0.14)">
       <use xlink:href="#Helvetica-30"/>
       <use xlink:href="#Helvetica-2e" x="55.615234"/>
       <use xlink:href="#Helvetica-38" x="83.398438"/>
      </g>
     </g>
    </g>
    <g id="ytick_6">
     <g id="line2d_12">
      <g>
       <use xlink:href="#m03b2a6a033" x="57.6" y="54.144" style="stroke: #000000; stroke-width: 2"/>
      </g>
     </g>
     <g id="text_13">
      <!-- 1.0 -->
      <g transform="translate(31.14 59.165406) scale(0.14 -0.14)">
       <use xlink:href="#Helvetica-31"/>
       <use xlink:href="#Helvetica-2e" x="55.615234"/>
       <use xlink:href="#Helvetica-30" x="83.398438"/>
      </g>
     </g>
    </g>
    <g id="text_14">
     <!-- True Positive Rate -->
     <g transform="translate(24.221875 232.104094) rotate(-90) scale(0.14 -0.14)">
      <defs>
       <path id="Helvetica-54" d="M 3828 4591 
L 3828 4044 
L 2281 4044 
L 2281 0 
L 1650 0 
L 1650 4044 
L 103 4044 
L 103 4591 
L 3828 4591 
z
" transform="scale(0.015625)"/>
       <path id="Helvetica-72" d="M 428 3347 
L 963 3347 
L 963 2769 
Q 1028 2938 1284 3180 
Q 1541 3422 1875 3422 
Q 1891 3422 1928 3419 
Q 1966 3416 2056 3406 
L 2056 2813 
Q 2006 2822 1964 2825 
Q 1922 2828 1872 2828 
Q 1447 2828 1219 2554 
Q 991 2281 991 1925 
L 991 0 
L 428 0 
L 428 3347 
z
" transform="scale(0.015625)"/>
       <path id="Helvetica-75" d="M 975 3347 
L 975 1125 
Q 975 869 1056 706 
Q 1206 406 1616 406 
Q 2203 406 2416 931 
Q 2531 1213 2531 1703 
L 2531 3347 
L 3094 3347 
L 3094 0 
L 2563 0 
L 2569 494 
Q 2459 303 2297 172 
Q 1975 -91 1516 -91 
Q 800 -91 541 388 
Q 400 644 400 1072 
L 400 3347 
L 975 3347 
z
M 1747 3428 
L 1747 3428 
z
" transform="scale(0.015625)"/>
      </defs>
      <use xlink:href="#Helvetica-54"/>
      <use xlink:href="#Helvetica-72" x="61.083984"/>
      <use xlink:href="#Helvetica-75" x="94.384766"/>
      <use xlink:href="#Helvetica-65" x="150"/>
      <use xlink:href="#Helvetica-20" x="205.615234"/>
      <use xlink:href="#Helvetica-50" x="233.398438"/>
      <use xlink:href="#Helvetica-6f" x="300.097656"/>
      <use xlink:href="#Helvetica-73" x="355.712891"/>
      <use xlink:href="#Helvetica-69" x="405.712891"/>
      <use xlink:href="#Helvetica-74" x="427.929688"/>
      <use xlink:href="#Helvetica-69" x="455.712891"/>
      <use xlink:href="#Helvetica-76" x="477.929688"/>
      <use xlink:href="#Helvetica-65" x="527.929688"/>
      <use xlink:href="#Helvetica-20" x="583.544922"/>
      <use xlink:href="#Helvetica-52" x="611.328125"/>
      <use xlink:href="#Helvetica-61" x="683.544922"/>
      <use xlink:href="#Helvetica-74" x="739.160156"/>
      <use xlink:href="#Helvetica-65" x="766.943359"/>
     </g>
    </g>
   </g>
   <g id="line2d_13">
    <path d="M 90.065455 307.584 
L 90.146527 208.951753 
L 90.187063 208.951753 
L 90.268136 185.85514 
L 90.308672 185.85514 
L 90.389744 157.849809 
L 90.470817 157.776545 
L 90.551889 133.562649 
L 90.592425 133.562649 
L 90.673498 128.232661 
L 90.714034 128.232661 
L 90.795106 126.529263 
L 90.876179 126.437682 
L 90.957251 120.100308 
L 90.997787 120.100308 
L 91.07886 115.00843 
L 91.119396 115.00843 
L 91.200469 108.964114 
L 91.241005 108.964114 
L 91.322077 102.590108 
L 91.40315 102.571792 
L 91.484222 99.56795 
L 91.565294 99.56795 
L 91.646367 94.146382 
L 91.686903 94.146382 
L 91.767976 92.369719 
L 91.808512 92.369719 
L 91.889584 91.05096 
L 92.011193 91.014327 
L 92.092265 89.512406 
L 92.132802 89.512406 
L 92.213874 87.461002 
L 92.25441 87.461002 
L 92.335483 84.658638 
L 92.376019 84.658638 
L 92.457091 82.845343 
L 92.497627 82.845343 
L 92.5787 82.204279 
L 92.700309 82.167647 
L 92.781381 81.453318 
L 92.821917 81.453318 
L 92.90299 80.061294 
L 92.943526 80.061294 
L 93.024598 77.277246 
L 93.105671 77.277246 
L 93.146207 76.581234 
L 93.227279 76.581234 
L 93.308352 75.738692 
L 93.389424 75.647112 
L 93.470497 75.335738 
L 93.511033 75.335738 
L 93.592105 74.767939 
L 93.673178 74.731306 
L 93.75425 74.236772 
L 93.835323 74.200139 
L 93.916395 73.870449 
L 93.956931 73.870449 
L 94.038004 73.430863 
L 94.07854 73.430863 
L 94.159612 72.954644 
L 94.240685 72.899696 
L 94.321757 72.258632 
L 94.362293 72.258632 
L 94.443366 71.471039 
L 94.483902 71.471039 
L 94.564974 70.976504 
L 94.605511 70.976504 
L 94.686583 70.298808 
L 94.767655 70.225544 
L 94.848728 70.042383 
L 94.9298 69.969118 
L 95.010873 68.998364 
L 95.091945 68.943416 
L 95.173018 68.668674 
L 95.25409 68.668674 
L 95.335162 68.192456 
L 95.375699 68.192456 
L 95.456771 67.294966 
L 95.537844 67.18507 
L 95.57838 67.020225 
L 95.781061 66.928644 
L 95.821597 66.580638 
L 95.943206 66.562322 
L 95.983742 66.360845 
L 96.064814 66.360845 
L 96.145887 66.122735 
L 96.226959 66.031155 
L 96.308032 65.664833 
L 96.389104 65.664833 
L 96.470177 64.749027 
L 96.551249 64.675763 
L 96.632321 64.30944 
L 96.713394 64.21786 
L 96.794466 63.979751 
L 96.916075 63.924802 
L 96.997147 63.631744 
L 97.07822 63.595112 
L 97.118756 63.393635 
L 97.240365 63.393635 
L 97.321437 63.22879 
L 97.564654 63.118893 
L 97.645727 62.752571 
L 97.888944 62.642675 
L 97.888944 62.514462 
L 98.132161 62.496146 
L 98.172698 62.312985 
L 98.294306 62.276352 
L 98.334842 62.111507 
L 98.456451 62.074875 
L 98.537523 61.800134 
L 98.659132 61.745185 
L 98.740205 61.415495 
L 98.983422 61.305599 
L 99.023958 61.122438 
L 99.267175 61.012541 
L 99.348248 60.847696 
L 99.469856 60.847696 
L 99.550929 60.627903 
L 99.672537 60.518006 
L 99.75361 60.316529 
L 99.915755 60.206632 
L 99.996827 60.151684 
L 100.037363 60.151684 
L 100.118436 59.913574 
L 100.158972 59.913574 
L 100.199508 59.730413 
L 100.321117 59.712097 
L 100.361653 59.528936 
L 100.60487 59.437355 
L 100.685943 59.217562 
L 100.848088 59.107666 
L 100.92916 58.997769 
L 101.091305 58.887872 
L 101.091305 58.85124 
L 101.334522 58.777976 
L 101.334522 58.686395 
L 101.537203 58.686395 
L 101.618276 58.356705 
L 101.902029 58.320073 
L 101.983102 58.136912 
L 102.023638 58.136912 
L 102.10471 57.972067 
L 102.469536 57.880486 
L 102.550609 57.788906 
L 102.915435 57.679009 
L 102.996507 57.605745 
L 103.482942 57.495848 
L 103.523478 57.349319 
L 103.807231 57.239422 
L 103.847768 57.20279 
L 104.131521 57.11121 
L 104.212594 57.056261 
L 104.699028 56.946365 
L 104.699028 56.909732 
L 105.266535 56.799836 
L 105.307071 56.744887 
L 105.712434 56.653307 
L 105.793506 56.598359 
L 106.482622 56.488462 
L 106.482622 56.45183 
L 107.090665 56.378565 
L 107.171737 56.286985 
L 107.496027 56.21372 
L 107.577099 56.103824 
L 107.820317 56.030559 
L 107.901389 55.938979 
L 108.712113 55.829082 
L 108.793186 55.719185 
L 109.360693 55.609289 
L 109.360693 55.590973 
L 109.887664 55.481076 
L 109.887664 55.426128 
L 111.468576 55.316231 
L 111.468576 55.297915 
L 112.238764 55.22465 
L 112.238764 55.13307 
L 113.252169 55.023173 
L 113.252169 54.986541 
L 115.765415 54.876644 
L 115.846487 54.80338 
L 117.589544 54.693483 
L 117.589544 54.675167 
L 121.926919 54.565271 
L 121.926919 54.528638 
L 123.994266 54.418742 
L 123.994266 54.400426 
L 135.060653 54.290529 
L 135.060653 54.272213 
L 156.950209 54.162316 
L 156.950209 54.144 
L 414.72 54.144 
L 414.72 54.144 
" clip-path="url(#p100d12e0e9)" style="fill: none; stroke: #1f77b4; stroke-width: 2; stroke-linecap: square"/>
   </g>
   <g id="line2d_14">
    <path d="M 90.065455 307.584 
L 90.163775 196.314619 
L 90.180162 196.314619 
L 90.278482 165.164177 
L 90.294869 165.164177 
L 90.39319 145.975504 
L 90.409577 145.975504 
L 90.507897 133.01692 
L 90.524284 133.01692 
L 90.622604 124.793204 
L 90.638991 124.793204 
L 90.704538 119.559929 
L 90.753699 119.559929 
L 90.852019 114.451257 
L 90.868406 114.451257 
L 90.966727 110.214796 
L 90.983113 110.214796 
L 91.065047 107.348956 
L 91.097821 107.348956 
L 91.196141 103.984708 
L 91.212528 103.984708 
L 91.310849 100.246655 
L 91.327235 100.246655 
L 91.425556 98.876035 
L 91.441943 98.876035 
L 91.540263 97.007009 
L 91.55665 97.007009 
L 91.654971 93.518159 
L 91.671357 93.518159 
L 91.736904 92.396743 
L 91.786065 92.396743 
L 91.867998 89.281699 
L 91.900772 89.281699 
L 91.999093 85.917451 
L 92.031866 85.917451 
L 92.130187 84.048425 
L 92.16296 84.048425 
L 92.244894 82.802407 
L 92.277668 82.802407 
L 92.326828 82.054796 
L 92.392375 82.054796 
L 92.474309 80.434973 
L 92.523469 80.434973 
L 92.62179 77.942938 
L 92.638176 77.942938 
L 92.72011 77.693735 
L 92.76927 77.693735 
L 92.834817 76.946124 
L 92.883978 76.946124 
L 92.933138 76.69692 
L 92.998685 76.69692 
L 93.097006 76.447717 
L 93.113392 76.447717 
L 93.178939 75.94931 
L 93.2281 75.94931 
L 93.260873 75.575504 
L 93.359194 75.575504 
L 93.408354 75.077097 
L 93.490288 75.077097 
L 93.588609 73.83108 
L 93.637769 73.83108 
L 93.637769 73.706478 
L 93.752476 73.706478 
L 93.818023 73.208071 
L 93.899957 73.208071 
L 93.932731 72.834265 
L 94.047438 72.834265 
L 94.047438 72.585062 
L 94.162145 72.585062 
L 94.244079 72.335858 
L 94.276853 72.335858 
L 94.375173 71.71285 
L 94.407947 71.71285 
L 94.473494 70.840637 
L 94.539041 70.840637 
L 94.637361 69.968425 
L 94.719295 69.968425 
L 94.817616 69.345416 
L 94.834003 69.345416 
L 94.89955 68.722407 
L 94.981483 68.722407 
L 95.079804 68.473204 
L 95.112578 68.473204 
L 95.128964 68.224 
L 95.243672 68.224 
L 95.276445 67.850195 
L 95.407539 67.850195 
L 95.489473 67.600991 
L 95.522247 67.600991 
L 95.620567 67.227186 
L 95.718888 67.227186 
L 95.718888 66.977982 
L 95.849982 66.977982 
L 95.899142 66.479575 
L 95.981076 66.479575 
L 95.981076 66.354973 
L 96.095783 66.354973 
L 96.11217 66.10577 
L 96.325198 66.10577 
L 96.341585 65.856566 
L 96.505452 65.856566 
L 96.570999 65.482761 
L 96.636546 65.482761 
L 96.685707 65.233558 
L 96.800414 65.233558 
L 96.865961 64.859752 
L 96.915121 64.859752 
L 96.964282 64.610549 
L 97.17731 64.610549 
L 97.17731 64.485947 
L 97.406724 64.485947 
L 97.455885 64.112142 
L 97.537818 64.112142 
L 97.603365 63.862938 
L 98.078582 63.862938 
L 98.078582 63.738336 
L 98.291609 63.738336 
L 98.38993 63.489133 
L 98.521024 63.489133 
L 98.586571 63.115327 
L 98.815986 63.115327 
L 98.89792 62.866124 
L 99.012627 62.866124 
L 99.094561 62.61692 
L 99.405909 62.61692 
L 99.405909 62.492319 
L 99.537003 62.492319 
L 99.537003 62.367717 
L 99.717258 62.367717 
L 99.717258 62.118513 
L 100.126927 62.118513 
L 100.126927 61.993912 
L 100.258021 61.993912 
L 100.290795 61.744708 
L 100.438275 61.744708 
L 100.438275 61.246301 
L 100.651303 61.246301 
L 100.651303 61.121699 
L 100.979039 61.121699 
L 101.060972 60.872496 
L 101.208453 60.872496 
L 101.208453 60.747894 
L 101.78199 60.747894 
L 101.847537 60.249487 
L 101.896697 60.249487 
L 101.896697 60.124885 
L 102.060565 60.124885 
L 102.060565 60.000283 
L 102.94545 60.000283 
L 102.94545 59.875681 
L 103.469827 59.875681 
L 103.469827 59.75108 
L 103.764788 59.75108 
L 103.764788 59.626478 
L 103.879496 59.626478 
L 103.879496 59.501876 
L 104.190844 59.501876 
L 104.190844 59.377274 
L 104.338325 59.377274 
L 104.338325 59.252673 
L 104.584126 59.252673 
L 104.682447 59.003469 
L 105.337918 59.003469 
L 105.337918 58.878867 
L 105.518172 58.878867 
L 105.567332 58.629664 
L 105.796747 58.629664 
L 105.796747 58.505062 
L 106.140869 58.505062 
L 106.206416 58.255858 
L 106.648859 58.255858 
L 106.648859 58.131257 
L 107.779545 58.131257 
L 107.779545 58.006655 
L 108.451402 58.006655 
L 108.451402 57.882053 
L 109.500155 57.882053 
L 109.500155 57.757451 
L 110.090079 57.757451 
L 110.090079 57.63285 
L 110.270333 57.63285 
L 110.270333 57.508248 
L 110.778323 57.508248 
L 110.778323 57.383646 
L 111.335473 57.383646 
L 111.335473 57.259044 
L 112.695574 57.259044 
L 112.695574 57.134442 
L 113.07247 57.134442 
L 113.154403 56.885239 
L 113.252724 56.885239 
L 113.318271 56.511434 
L 113.432978 56.511434 
L 113.432978 56.386832 
L 114.711146 56.386832 
L 114.711146 56.26223 
L 114.875013 56.26223 
L 114.8914 56.013027 
L 116.546463 56.013027 
L 116.546463 55.888425 
L 118.594809 55.888425 
L 118.594809 55.763823 
L 119.315826 55.763823 
L 119.315826 55.639221 
L 121.577199 55.639221 
L 121.577199 55.514619 
L 129.639487 55.514619 
L 129.639487 55.390018 
L 131.032362 55.390018 
L 131.032362 55.265416 
L 135.309307 55.265416 
L 135.309307 55.140814 
L 137.52152 55.140814 
L 137.52152 55.016212 
L 139.405997 55.016212 
L 139.405997 54.891611 
L 145.403553 54.891611 
L 145.403553 54.767009 
L 147.025842 54.767009 
L 147.025842 54.642407 
L 147.927114 54.642407 
L 147.927114 54.517805 
L 150.417902 54.517805 
L 150.417902 54.393204 
L 184.387661 54.393204 
L 184.387661 54.268602 
L 184.485982 54.268602 
L 193.81005 54.268602 
L 193.81005 54.144 
L 414.72 54.144 
L 414.72 54.144 
" clip-path="url(#p100d12e0e9)" style="fill: none; stroke: #ff7f0e; stroke-width: 2; stroke-linecap: square"/>
   </g>
   <g id="line2d_15">
    <path d="M 90.065455 307.584 
L 90.16335 297.566094 
L 90.179666 297.566094 
L 90.277562 283.384903 
L 90.293878 283.384903 
L 90.391773 274.92823 
L 90.408089 274.92823 
L 90.489669 268.943507 
L 90.522301 268.943507 
L 90.620196 263.7394 
L 90.636512 263.7394 
L 90.734408 256.453651 
L 90.783356 256.453651 
L 90.881251 252.420468 
L 90.913883 252.420468 
L 90.979147 247.866875 
L 91.028095 247.866875 
L 91.125991 242.142357 
L 91.142306 242.142357 
L 91.240202 239.280099 
L 91.256518 239.280099 
L 91.354414 235.897429 
L 91.37073 235.897429 
L 91.468625 234.336197 
L 91.501257 234.336197 
L 91.599153 227.700961 
L 91.615469 227.700961 
L 91.713364 224.448394 
L 91.745996 224.448394 
L 91.843892 218.463671 
L 91.860208 218.463671 
L 91.958103 213.910078 
L 91.974419 213.910078 
L 92.072315 210.527409 
L 92.088631 210.527409 
L 92.186527 208.185561 
L 92.202842 208.185561 
L 92.300738 205.583507 
L 92.317054 205.583507 
L 92.41495 200.639606 
L 92.447582 200.639606 
L 92.545477 198.037552 
L 92.561793 198.037552 
L 92.659689 194.134472 
L 92.676005 194.134472 
L 92.7739 192.313035 
L 92.790216 192.313035 
L 92.888112 189.450776 
L 92.93706 189.450776 
L 93.034955 187.759441 
L 93.051271 187.759441 
L 93.149167 184.116567 
L 93.181799 184.116567 
L 93.279694 180.994103 
L 93.312326 180.994103 
L 93.37759 178.91246 
L 93.426538 178.91246 
L 93.508118 176.700715 
L 93.540749 176.700715 
L 93.638645 173.187943 
L 93.654961 173.187943 
L 93.752857 170.976197 
L 93.769173 170.976197 
L 93.850752 169.15476 
L 93.883384 169.15476 
L 93.98128 167.20322 
L 94.013912 167.20322 
L 94.111807 164.210858 
L 94.128123 164.210858 
L 94.226019 161.86901 
L 94.242335 161.86901 
L 94.323915 159.657265 
L 94.356546 159.657265 
L 94.454442 158.096033 
L 94.470758 158.096033 
L 94.552338 155.884287 
L 94.58497 155.884287 
L 94.666549 151.590899 
L 94.699181 151.590899 
L 94.797077 150.810283 
L 94.813393 150.810283 
L 94.911288 148.988846 
L 94.927604 148.988846 
L 95.009184 147.948025 
L 95.041816 147.948025 
L 95.139711 146.907203 
L 95.156027 146.907203 
L 95.253923 145.215869 
L 95.302871 145.215869 
L 95.384451 142.483713 
L 95.417082 142.483713 
L 95.514978 141.182686 
L 95.531294 141.182686 
L 95.612874 139.361248 
L 95.645506 139.361248 
L 95.743401 136.49899 
L 95.776033 136.49899 
L 95.808665 136.238784 
L 95.906561 136.238784 
L 95.98814 135.588271 
L 96.037088 135.588271 
L 96.134984 133.766834 
L 96.1513 133.766834 
L 96.1513 133.636731 
L 96.265511 133.636731 
L 96.363407 132.856115 
L 96.396039 132.856115 
L 96.477618 131.815294 
L 96.526566 131.815294 
L 96.575514 131.294883 
L 96.640778 131.294883 
L 96.722357 129.733651 
L 96.754989 129.733651 
L 96.852885 127.391803 
L 96.869201 127.391803 
L 96.967097 126.090776 
L 96.999728 126.090776 
L 97.097624 124.139236 
L 97.11394 124.139236 
L 97.211836 123.35862 
L 97.244468 123.35862 
L 97.277099 122.447901 
L 97.374995 122.447901 
L 97.472891 121.016772 
L 97.489207 121.016772 
L 97.570786 120.626464 
L 97.603418 120.626464 
L 97.668682 119.065232 
L 97.799209 119.065232 
L 97.897105 117.634103 
L 97.913421 117.634103 
L 97.978685 117.243795 
L 98.027633 117.243795 
L 98.125528 115.942768 
L 98.141844 115.942768 
L 98.23974 113.340715 
L 98.288688 113.340715 
L 98.353951 112.950407 
L 98.402899 112.950407 
L 98.484479 112.560099 
L 98.533427 112.560099 
L 98.549743 111.909585 
L 98.647638 111.909585 
L 98.745534 110.088148 
L 98.76185 110.088148 
L 98.843429 108.787121 
L 98.876061 108.787121 
L 98.973957 107.486094 
L 98.990273 107.486094 
L 99.088169 105.79476 
L 99.104485 105.79476 
L 99.169748 104.623836 
L 99.251328 104.623836 
L 99.349224 102.802398 
L 99.381855 102.802398 
L 99.479751 101.761577 
L 99.561331 101.761577 
L 99.577647 101.371269 
L 99.691858 101.371269 
L 99.691858 100.980961 
L 99.88765 100.980961 
L 99.936597 100.46055 
L 100.001861 100.46055 
L 100.099757 99.679934 
L 100.132389 99.679934 
L 100.230284 98.639113 
L 100.262916 98.639113 
L 100.344496 97.728394 
L 100.377128 97.728394 
L 100.475023 96.55747 
L 100.491339 96.55747 
L 100.540287 95.776854 
L 100.638183 95.776854 
L 100.736078 94.866136 
L 100.76871 94.866136 
L 100.866606 93.695211 
L 100.915554 93.695211 
L 101.013449 92.394185 
L 101.143977 92.394185 
L 101.225557 91.743671 
L 101.258188 91.743671 
L 101.356084 90.832953 
L 101.388716 90.832953 
L 101.388716 90.572747 
L 101.568191 90.572747 
L 101.649771 90.052337 
L 101.682403 90.052337 
L 101.763982 89.141618 
L 101.796614 89.141618 
L 101.861878 88.491105 
L 101.910826 88.491105 
L 101.97609 88.100797 
L 102.057669 88.100797 
L 102.139249 86.929873 
L 102.171881 86.929873 
L 102.269777 86.409462 
L 102.286093 86.409462 
L 102.383988 85.628846 
L 102.41662 85.628846 
L 102.514516 85.238538 
L 102.628727 85.238538 
L 102.726623 83.547203 
L 102.742939 83.547203 
L 102.824518 83.156895 
L 102.873466 83.156895 
L 102.955046 82.376279 
L 103.069258 82.376279 
L 103.101889 81.725766 
L 103.183469 81.725766 
L 103.199785 81.335458 
L 103.346629 81.335458 
L 103.395576 80.684945 
L 103.477156 80.684945 
L 103.526104 80.424739 
L 103.623999 80.424739 
L 103.689263 79.774226 
L 103.754527 79.774226 
L 103.852423 79.383918 
L 103.934002 79.383918 
L 104.031898 78.733405 
L 104.06453 78.733405 
L 104.113478 78.473199 
L 104.178741 78.473199 
L 104.227689 78.082891 
L 104.325585 78.082891 
L 104.42348 77.302275 
L 104.439796 77.302275 
L 104.521376 76.911967 
L 104.602956 76.911967 
L 104.700851 76.001248 
L 104.733483 76.001248 
L 104.831379 75.61094 
L 104.847695 75.61094 
L 104.912959 75.09053 
L 104.978222 75.09053 
L 104.978222 74.440016 
L 105.19033 74.440016 
L 105.222961 73.789503 
L 105.304541 73.789503 
L 105.386121 73.269092 
L 105.467701 73.269092 
L 105.565596 73.008887 
L 105.581912 73.008887 
L 105.663492 72.098168 
L 105.761387 72.098168 
L 105.859283 71.577758 
L 106.006127 71.577758 
L 106.055074 71.18745 
L 106.201918 71.18745 
L 106.201918 70.927244 
L 106.316129 70.927244 
L 106.381393 70.667039 
L 106.462973 70.667039 
L 106.544552 70.016526 
L 106.626132 70.016526 
L 106.626132 69.886423 
L 106.887187 69.886423 
L 106.968767 69.105807 
L 107.001399 69.105807 
L 107.066663 68.455294 
L 107.148242 68.455294 
L 107.213506 68.195088 
L 107.262454 68.195088 
L 107.311402 67.80478 
L 107.376665 67.80478 
L 107.392981 67.28437 
L 107.523509 67.28437 
L 107.556141 66.894062 
L 107.670352 66.894062 
L 107.670352 66.763959 
L 107.947723 66.763959 
L 108.029303 66.243548 
L 108.127199 66.243548 
L 108.192462 65.85324 
L 108.32299 65.85324 
L 108.32299 65.462932 
L 108.453517 65.462932 
L 108.453517 65.33283 
L 108.779836 65.33283 
L 108.8451 65.072624 
L 109.089839 65.072624 
L 109.106155 64.812419 
L 109.20405 64.812419 
L 109.20405 64.682316 
L 109.318262 64.682316 
L 109.318262 64.422111 
L 109.497737 64.422111 
L 109.497737 64.292008 
L 109.742476 64.292008 
L 109.791424 64.031803 
L 109.905636 64.031803 
L 109.987216 63.38129 
L 110.052479 63.38129 
L 110.052479 63.251187 
L 110.166691 63.251187 
L 110.215639 62.990982 
L 110.346166 62.990982 
L 110.346166 62.860879 
L 110.525641 62.860879 
L 110.525641 62.730776 
L 110.770381 62.730776 
L 110.835644 62.470571 
L 110.917224 62.470571 
L 111.01512 61.820057 
L 111.064067 61.820057 
L 111.080383 61.559852 
L 111.243543 61.559852 
L 111.308807 61.169544 
L 111.357754 61.169544 
L 111.37407 60.909339 
L 111.569862 60.909339 
L 111.569862 60.779236 
L 111.684073 60.779236 
L 111.684073 60.649133 
L 111.928812 60.649133 
L 111.928812 60.519031 
L 112.091972 60.519031 
L 112.108288 60.258825 
L 112.336711 60.258825 
L 112.336711 60.128723 
L 112.565134 60.128723 
L 112.597766 59.868517 
L 112.760925 59.868517 
L 112.809873 59.608312 
L 112.973032 59.608312 
L 113.054612 59.087901 
L 113.266719 59.087901 
L 113.266719 58.827696 
L 113.429879 58.827696 
L 113.527774 58.567491 
L 113.641986 58.567491 
L 113.674618 58.177183 
L 113.821461 58.177183 
L 113.821461 58.04708 
L 114.098832 58.04708 
L 114.180412 57.656772 
L 114.22936 57.656772 
L 114.22936 57.526669 
L 114.343571 57.526669 
L 114.425151 57.266464 
L 114.767786 57.266464 
L 114.767786 57.136361 
L 115.257264 57.136361 
L 115.306211 56.876156 
L 115.387791 56.876156 
L 115.453055 56.485848 
L 115.550951 56.485848 
L 115.616214 56.225643 
L 115.779374 56.225643 
L 115.779374 55.965437 
L 115.909901 55.965437 
L 115.909901 55.835335 
L 116.693066 55.835335 
L 116.693066 55.705232 
L 116.954121 55.705232 
L 116.954121 55.575129 
L 117.19886 55.575129 
L 117.19886 55.445027 
L 117.313072 55.445027 
L 117.313072 55.314924 
L 117.459915 55.314924 
L 117.525179 55.054719 
L 117.88413 55.054719 
L 117.949394 54.794513 
L 118.047289 54.794513 
L 118.047289 54.664411 
L 119.564671 54.664411 
L 119.613619 54.404205 
L 123.301021 54.404205 
L 123.301021 54.274103 
L 127.118951 54.274103 
L 127.118951 54.144 
L 414.72 54.144 
L 414.72 54.144 
" clip-path="url(#p100d12e0e9)" style="fill: none; stroke: #9467bd; stroke-width: 2; stroke-linecap: square"/>
   </g>
   <g id="line2d_16">
    <path d="M 90.065455 307.584 
L 90.163735 294.949528 
L 90.180116 294.949528 
L 90.278396 283.190713 
L 90.294777 283.190713 
L 90.393058 272.933023 
L 90.409438 272.933023 
L 90.507719 265.802677 
L 90.524099 265.802677 
L 90.62238 258.29705 
L 90.63876 258.29705 
L 90.737041 254.294049 
L 90.753421 254.294049 
L 90.851702 243.035609 
L 90.868082 243.035609 
L 90.966363 235.905264 
L 90.982743 235.905264 
L 91.081024 229.025106 
L 91.097404 229.025106 
L 91.195685 222.89551 
L 91.212065 222.89551 
L 91.277586 217.516478 
L 91.326726 217.516478 
L 91.425007 209.760663 
L 91.441387 209.760663 
L 91.539668 206.508225 
L 91.572428 206.508225 
L 91.670709 199.502973 
L 91.687089 199.502973 
L 91.78537 197.376379 
L 91.80175 197.376379 
L 91.900031 194.74941 
L 91.916411 194.74941 
L 91.998312 192.497722 
L 92.031072 192.497722 
L 92.129353 188.870002 
L 92.145733 188.870002 
L 92.244014 187.118689 
L 92.260394 187.118689 
L 92.358675 185.867751 
L 92.375055 185.867751 
L 92.456956 184.616813 
L 92.538857 184.616813 
L 92.637138 181.239281 
L 92.653518 181.239281 
L 92.751799 179.988344 
L 92.768179 179.988344 
L 92.86646 175.860249 
L 92.88284 175.860249 
L 92.981121 172.732904 
L 93.013881 172.732904 
L 93.112162 171.106685 
L 93.161303 171.106685 
L 93.243203 170.231029 
L 93.275964 170.231029 
L 93.325104 168.729903 
L 93.439765 168.729903 
L 93.521666 166.853497 
L 93.570806 166.853497 
L 93.669087 163.97634 
L 93.685467 163.97634 
L 93.767368 162.099933 
L 93.800128 162.099933 
L 93.865649 160.34862 
L 93.914789 160.34862 
L 94.01307 158.847495 
L 94.029451 158.847495 
L 94.062211 157.971838 
L 94.144112 157.971838 
L 94.242392 156.095431 
L 94.258773 156.095431 
L 94.340673 154.594306 
L 94.389814 154.594306 
L 94.488095 152.217524 
L 94.520855 152.217524 
L 94.602756 149.840742 
L 94.651896 149.840742 
L 94.750177 148.839992 
L 94.766557 148.839992 
L 94.864838 148.089429 
L 94.881218 148.089429 
L 94.913979 147.213773 
L 94.995879 147.213773 
L 95.0614 146.087929 
L 95.11054 146.087929 
L 95.176061 145.212272 
L 95.241582 145.212272 
L 95.323482 144.086428 
L 95.372623 144.086428 
L 95.470904 142.835491 
L 95.569184 142.835491 
L 95.667465 141.084178 
L 95.683846 141.084178 
L 95.782126 139.583052 
L 95.831267 139.583052 
L 95.929548 138.83249 
L 95.945928 138.83249 
L 96.011448 138.207021 
L 96.076969 138.207021 
L 96.17525 137.456458 
L 96.22439 137.456458 
L 96.306291 136.080426 
L 96.355432 136.080426 
L 96.453713 134.829489 
L 96.486473 134.829489 
L 96.568374 133.703645 
L 96.601134 133.703645 
L 96.699415 133.078176 
L 96.748555 133.078176 
L 96.846836 132.077425 
L 96.863216 132.077425 
L 96.928737 131.451957 
L 96.994257 131.451957 
L 97.092538 130.451206 
L 97.125299 130.451206 
L 97.207199 129.075175 
L 97.27272 129.075175 
L 97.371001 128.074424 
L 97.403761 128.074424 
L 97.452902 127.323862 
L 97.534802 127.323862 
L 97.633083 126.448205 
L 97.780505 126.448205 
L 97.878785 124.446705 
L 97.944306 124.446705 
L 98.026207 123.445955 
L 98.108108 123.445955 
L 98.140868 122.820486 
L 98.222769 122.820486 
L 98.321049 121.569548 
L 98.33743 121.569548 
L 98.40295 120.818985 
L 98.452091 120.818985 
L 98.533991 119.067672 
L 98.583132 119.067672 
L 98.583132 118.31711 
L 98.730553 118.31711 
L 98.796074 117.691641 
L 98.845214 117.691641 
L 98.943495 117.066172 
L 98.992636 117.066172 
L 99.090916 115.940328 
L 99.123677 115.940328 
L 99.221958 115.064671 
L 99.254718 115.064671 
L 99.336619 114.68939 
L 99.385759 114.68939 
L 99.45128 114.063921 
L 99.50042 114.063921 
L 99.582321 113.68864 
L 99.615081 113.68864 
L 99.713362 112.938077 
L 99.762503 112.938077 
L 99.860783 112.687889 
L 99.877164 112.687889 
L 99.926304 111.937327 
L 99.991825 111.937327 
L 100.073725 111.311858 
L 100.106486 111.311858 
L 100.204767 110.311108 
L 100.253907 110.311108 
L 100.253907 110.186014 
L 100.384948 110.186014 
L 100.434089 109.810732 
L 100.58151 109.810732 
L 100.663411 108.935076 
L 100.696171 108.935076 
L 100.778072 107.559044 
L 100.876353 107.559044 
L 100.974634 106.933576 
L 101.056534 106.933576 
L 101.122055 106.4332 
L 101.220336 106.4332 
L 101.318617 105.932825 
L 101.334997 105.932825 
L 101.367757 105.682638 
L 101.449658 105.682638 
L 101.547939 104.556794 
L 101.64622 104.556794 
L 101.744501 103.681137 
L 101.810021 103.681137 
L 101.908302 103.055668 
L 102.072103 103.055668 
L 102.154004 102.805481 
L 102.219525 102.805481 
L 102.317806 102.430199 
L 102.448847 102.430199 
L 102.547128 101.929824 
L 102.629029 101.929824 
L 102.629029 101.679637 
L 102.76007 101.679637 
L 102.76007 101.554543 
L 102.874731 101.554543 
L 102.923871 100.80398 
L 102.989392 100.80398 
L 103.087673 100.303605 
L 103.153193 100.303605 
L 103.251474 99.553042 
L 103.398896 99.553042 
L 103.497176 99.177761 
L 103.579077 99.177761 
L 103.660978 98.677386 
L 103.85754 98.677386 
L 103.92306 98.427198 
L 104.054101 98.427198 
L 104.054101 98.302105 
L 104.283424 98.302105 
L 104.283424 98.177011 
L 104.398085 98.177011 
L 104.414465 97.551542 
L 104.545506 97.551542 
L 104.578266 97.301354 
L 104.692927 97.301354 
L 104.774828 96.675885 
L 104.807588 96.675885 
L 104.840349 96.300604 
L 104.97139 96.300604 
L 105.00415 95.800229 
L 105.151571 95.800229 
L 105.151571 95.675135 
L 105.380893 95.675135 
L 105.462794 95.299854 
L 105.511935 95.299854 
L 105.511935 95.17476 
L 105.790397 95.17476 
L 105.839538 94.924573 
L 105.921438 94.924573 
L 106.019719 94.424197 
L 106.183521 94.424197 
L 106.183521 94.17401 
L 106.298182 94.17401 
L 106.298182 94.048916 
L 106.412843 94.048916 
L 106.461983 93.423447 
L 106.576644 93.423447 
L 106.593024 92.923072 
L 106.691305 92.923072 
L 106.773206 92.672885 
L 106.871487 92.672885 
L 106.953388 92.172509 
L 106.986148 92.172509 
L 107.084429 91.54704 
L 107.18271 91.54704 
L 107.264611 90.921572 
L 107.313751 90.921572 
L 107.330131 90.671384 
L 107.592214 90.671384 
L 107.624974 90.421196 
L 107.788775 90.421196 
L 107.788775 90.296103 
L 107.985337 90.296103 
L 107.985337 90.171009 
L 108.165519 90.171009 
L 108.165519 90.045915 
L 108.394841 90.045915 
L 108.394841 89.920821 
L 108.591403 89.920821 
L 108.689684 89.670634 
L 108.820725 89.670634 
L 108.820725 89.54554 
L 109.000906 89.54554 
L 109.082807 89.045165 
L 109.131948 89.045165 
L 109.230228 88.669884 
L 109.37765 88.669884 
L 109.42679 88.294602 
L 109.508691 88.294602 
L 109.508691 88.044415 
L 109.705253 88.044415 
L 109.705253 87.919321 
L 109.836294 87.919321 
L 109.885434 87.669133 
L 110.000095 87.669133 
L 110.000095 87.293852 
L 110.147517 87.293852 
L 110.229417 86.793477 
L 110.311318 86.793477 
L 110.327698 86.543289 
L 110.54064 86.543289 
L 110.638921 86.168008 
L 110.933764 86.168008 
L 110.982904 85.792727 
L 111.392408 85.792727 
L 111.441548 85.542539 
L 111.523449 85.542539 
L 111.55621 85.167258 
L 111.63811 85.167258 
L 111.720011 84.91707 
L 111.769151 84.91707 
L 111.769151 84.791976 
L 111.916573 84.791976 
L 111.916573 84.666883 
L 112.309696 84.666883 
L 112.407977 84.291601 
L 112.571779 84.291601 
L 112.67006 84.041414 
L 112.70282 84.041414 
L 112.801101 83.791226 
L 112.899382 83.791226 
L 112.964902 83.541038 
L 113.145084 83.541038 
L 113.161464 83.290851 
L 113.374406 83.290851 
L 113.407166 82.790476 
L 113.620108 82.790476 
L 113.702009 82.540288 
L 113.78391 82.540288 
L 113.80029 81.914819 
L 114.127893 81.914819 
L 114.127893 81.789726 
L 114.504636 81.789726 
L 114.504636 81.664632 
L 114.684818 81.664632 
L 114.750339 81.28935 
L 115.110702 81.28935 
L 115.208983 80.914069 
L 115.487445 80.914069 
L 115.487445 80.788975 
L 115.749528 80.788975 
L 115.798668 80.538788 
L 115.864189 80.538788 
L 115.962469 80.2886 
L 116.02799 80.2886 
L 116.04437 79.913319 
L 116.224552 79.913319 
L 116.224552 79.788225 
L 116.535775 79.788225 
L 116.535775 79.663131 
L 116.666816 79.663131 
L 116.699576 79.412944 
L 116.814237 79.412944 
L 116.863378 79.162756 
L 116.945278 79.162756 
L 117.027179 78.787475 
L 117.256501 78.787475 
L 117.256501 78.662381 
L 117.403923 78.662381 
L 117.403923 78.537287 
L 117.518584 78.537287 
L 117.518584 78.412193 
L 117.977228 78.412193 
L 117.977228 78.2871 
L 118.435872 78.2871 
L 118.435872 78.162006 
L 118.550533 78.162006 
L 118.566913 77.911818 
L 118.681574 77.911818 
L 118.681574 77.786725 
L 119.500582 77.786725 
L 119.500582 77.661631 
L 120.041127 77.661631 
L 120.041127 77.536537 
L 120.303209 77.536537 
L 120.352349 77.161256 
L 120.483391 77.161256 
L 120.581671 76.911068 
L 120.647192 76.911068 
L 120.696332 76.410693 
L 120.974795 76.410693 
L 121.007555 76.160505 
L 121.171357 76.160505 
L 121.171357 76.035412 
L 121.449819 76.035412 
L 121.449819 75.910318 
L 121.597241 75.910318 
L 121.597241 75.66013 
L 121.810183 75.66013 
L 121.892083 75.409943 
L 121.941224 75.409943 
L 121.941224 75.284849 
L 122.399868 75.284849 
L 122.399868 75.034661 
L 122.825752 75.034661 
L 122.825752 74.909568 
L 122.956793 74.909568 
L 122.956793 74.784474 
L 123.349917 74.784474 
L 123.349917 74.534286 
L 123.595619 74.534286 
L 123.595619 74.409192 
L 123.988742 74.409192 
L 124.037883 74.159005 
L 124.168924 74.159005 
L 124.218064 73.908817 
L 124.725849 73.908817 
L 124.725849 73.783724 
L 124.938791 73.783724 
L 125.020692 73.533536 
L 125.577617 73.533536 
L 125.593997 73.283348 
L 125.708658 73.283348 
L 125.708658 73.033161 
L 125.98712 73.033161 
L 125.98712 72.908067 
L 126.232823 72.908067 
L 126.314723 72.65788 
L 126.527665 72.65788 
L 126.527665 72.532786 
L 126.822508 72.532786 
L 126.822508 72.407692 
L 127.05183 72.407692 
L 127.05183 72.282598 
L 127.330293 72.282598 
L 127.330293 72.032411 
L 127.526854 72.032411 
L 127.575995 71.782223 
L 127.723416 71.782223 
L 127.723416 71.657129 
L 127.887218 71.657129 
L 127.887218 71.532036 
L 128.11654 71.532036 
L 128.11654 71.406942 
L 128.263961 71.406942 
L 128.263961 71.281848 
L 128.526043 71.281848 
L 128.591564 70.906567 
L 128.820886 70.906567 
L 128.837266 70.406192 
L 128.951927 70.406192 
L 128.951927 70.281098 
L 129.328671 70.281098 
L 129.328671 70.156004 
L 129.770935 70.156004 
L 129.770935 70.03091 
L 130.852025 70.03091 
L 130.852025 69.905816 
L 131.179628 69.905816 
L 131.228768 69.655629 
L 131.752933 69.655629 
L 131.769313 69.405441 
L 131.883974 69.405441 
L 131.965875 69.155254 
L 132.146056 69.155254 
L 132.244337 68.905066 
L 132.375378 68.905066 
L 132.375378 68.779972 
L 132.817642 68.779972 
L 132.817642 68.654879 
L 133.046964 68.654879 
L 133.046964 68.529785 
L 133.178006 68.529785 
L 133.276287 68.154503 
L 133.341807 68.154503 
L 133.374567 67.904316 
L 133.489229 67.904316 
L 133.554749 67.654128 
L 133.63665 67.654128 
L 133.63665 67.529035 
L 133.718551 67.529035 
L 134.226335 67.529035 
L 134.226335 67.403941 
L 134.70136 67.403941 
L 134.76688 67.028659 
L 134.816021 67.028659 
L 134.914301 66.653378 
L 135.471226 66.653378 
L 135.471226 66.528284 
L 135.733309 66.528284 
L 135.733309 66.403191 
L 136.060912 66.403191 
L 136.060912 66.278097 
L 136.175573 66.278097 
L 136.175573 66.153003 
L 137.289423 66.153003 
L 137.289423 66.027909 
L 137.731687 66.027909 
L 137.748067 65.777722 
L 138.190331 65.777722 
L 138.190331 65.652628 
L 138.354133 65.652628 
L 138.354133 65.527534 
L 139.467983 65.527534 
L 139.467983 65.40244 
L 139.893867 65.40244 
L 139.943007 65.152253 
L 140.041288 65.152253 
L 140.041288 65.027159 
L 140.876676 65.027159 
L 140.876676 64.902065 
L 141.433601 64.902065 
L 141.433601 64.776971 
L 141.925005 64.776971 
L 141.925005 64.651878 
L 142.989715 64.651878 
L 142.989715 64.526784 
L 143.120756 64.526784 
L 143.120756 64.40169 
L 143.743202 64.40169 
L 143.743202 64.276596 
L 143.972524 64.276596 
L 144.005284 64.026409 
L 144.300127 64.026409 
L 144.316507 63.776221 
L 144.463928 63.776221 
L 144.463928 63.651127 
L 144.64411 63.651127 
L 144.69325 63.40094 
L 145.954522 63.40094 
L 145.954522 63.275846 
L 146.364025 63.275846 
L 146.364025 63.150752 
L 147.477875 63.150752 
L 147.477875 63.025658 
L 147.870999 63.025658 
L 147.870999 62.900565 
L 148.0348 62.900565 
L 148.0348 62.775471 
L 149.541774 62.775471 
L 149.541774 62.650377 
L 149.689195 62.650377 
L 149.689195 62.525283 
L 150.19698 62.525283 
L 150.19698 62.40019 
L 150.721145 62.40019 
L 150.721145 62.275096 
L 151.589293 62.275096 
L 151.589293 62.150002 
L 151.785855 62.150002 
L 151.785855 62.024908 
L 152.113457 62.024908 
L 152.113457 61.899814 
L 152.244499 61.899814 
L 152.244499 61.774721 
L 152.506581 61.774721 
L 152.506581 61.649627 
L 153.931654 61.649627 
L 154.029935 61.274346 
L 157.240444 61.274346 
L 157.240444 61.149252 
L 157.502526 61.149252 
L 157.502526 61.024158 
L 157.600807 61.024158 
L 160.909597 61.024158 
L 160.909597 60.899064 
L 161.499283 60.899064 
L 161.499283 60.77397 
L 163.022636 60.77397 
L 163.022636 60.648877 
L 163.186438 60.648877 
L 163.186438 60.523783 
L 163.694223 60.523783 
L 163.694223 60.273595 
L 164.595131 60.273595 
L 164.595131 60.148501 
L 165.037395 60.148501 
L 165.037395 60.023408 
L 165.299477 60.023408 
L 165.348618 59.77322 
L 166.839211 59.77322 
L 166.839211 59.648126 
L 167.297855 59.648126 
L 167.297855 59.523033 
L 167.740119 59.523033 
L 167.740119 59.397939 
L 168.542747 59.397939 
L 168.542747 59.272845 
L 169.443655 59.272845 
L 169.443655 59.147751 
L 169.853158 59.147751 
L 169.853158 59.022657 
L 170.688546 59.022657 
L 170.688546 58.897564 
L 171.343752 58.897564 
L 171.343752 58.77247 
L 171.704115 58.77247 
L 171.704115 58.647376 
L 173.653353 58.647376 
L 173.653353 58.522282 
L 173.768014 58.522282 
L 173.768014 58.397189 
L 174.881864 58.397189 
L 174.881864 58.272095 
L 175.389649 58.272095 
L 175.389649 58.147001 
L 177.044044 58.147001 
L 177.044044 58.021907 
L 178.714819 58.021907 
L 178.714819 57.896813 
L 179.337264 57.896813 
L 179.337264 57.77172 
L 179.94333 57.77172 
L 179.99247 57.521532 
L 180.516635 57.521532 
L 180.516635 57.396438 
L 180.745957 57.396438 
L 180.745957 57.271345 
L 182.875377 57.271345 
L 182.875377 57.146251 
L 184.218549 57.146251 
L 184.218549 56.896063 
L 186.626431 56.896063 
L 186.626431 56.770969 
L 188.297206 56.770969 
L 188.297206 56.645876 
L 188.690329 56.645876 
L 188.690329 56.520782 
L 189.509337 56.520782 
L 189.509337 56.395688 
L 189.935221 56.395688 
L 189.935221 56.270594 
L 191.622376 56.270594 
L 191.622376 56.1455 
L 200.287475 56.1455 
L 200.287475 56.020407 
L 200.533177 56.020407 
L 200.533177 55.895313 
L 204.546313 55.895313 
L 204.546313 55.770219 
L 205.643783 55.770219 
L 205.643783 55.645125 
L 208.117186 55.645125 
L 208.117186 55.520032 
L 208.379268 55.520032 
L 208.379268 55.394938 
L 211.294934 55.394938 
L 211.294934 55.269844 
L 215.996037 55.269844 
L 215.996037 55.14475 
L 217.994415 55.14475 
L 217.994415 55.019656 
L 227.789744 55.019656 
L 227.789744 54.894563 
L 228.46133 54.894563 
L 228.46133 54.769469 
L 233.293474 54.769469 
L 233.293474 54.644375 
L 240.042095 54.644375 
L 240.042095 54.519281 
L 257.683515 54.519281 
L 257.683515 54.394188 
L 278.600965 54.394188 
L 278.600965 54.269094 
L 304.170377 54.269094 
L 304.170377 54.144 
L 414.72 54.144 
L 414.72 54.144 
" clip-path="url(#p100d12e0e9)" style="fill: none; stroke: #8c564b; stroke-width: 2; stroke-linecap: square"/>
   </g>
   <g id="line2d_17">
    <path d="M 90.065455 307.584 
L 90.163612 259.834435 
L 90.179971 259.834435 
L 90.278128 247.168768 
L 90.294488 247.168768 
L 90.392645 237.796174 
L 90.409004 237.796174 
L 90.507161 222.470717 
L 90.523521 222.470717 
L 90.621678 212.08487 
L 90.638038 212.08487 
L 90.736195 200.812426 
L 90.752554 200.812426 
L 90.834352 199.165889 
L 90.867071 199.165889 
L 90.965228 193.339682 
L 90.981587 193.339682 
L 91.079744 187.260162 
L 91.096104 187.260162 
L 91.194261 181.433955 
L 91.21062 181.433955 
L 91.292418 178.394195 
L 91.325137 178.394195 
L 91.390575 172.567988 
L 91.439654 172.567988 
L 91.537811 168.894945 
L 91.55417 168.894945 
L 91.652327 165.728528 
L 91.685046 165.728528 
L 91.783203 164.841931 
L 91.799563 164.841931 
L 91.89772 162.562111 
L 91.91408 162.562111 
L 92.012237 159.649007 
L 92.028596 159.649007 
L 92.126753 157.749157 
L 92.143113 157.749157 
L 92.208551 154.836054 
L 92.273989 154.836054 
L 92.355786 153.949457 
L 92.388505 153.949457 
L 92.486663 151.669637 
L 92.503022 151.669637 
L 92.601179 147.74328 
L 92.617539 147.74328 
L 92.715696 146.856684 
L 92.732055 146.856684 
L 92.830212 144.956834 
L 92.846572 144.956834 
L 92.944729 143.056984 
L 92.977448 143.056984 
L 93.059246 141.66376 
L 93.091965 141.66376 
L 93.173762 139.38394 
L 93.206481 139.38394 
L 93.304638 138.24403 
L 93.320998 138.24403 
L 93.419155 137.10412 
L 93.435514 137.10412 
L 93.517312 135.96421 
L 93.550031 135.96421 
L 93.648188 133.937703 
L 93.664548 133.937703 
L 93.746345 131.277913 
L 93.779064 131.277913 
L 93.877221 129.88469 
L 93.893581 129.88469 
L 93.975378 128.618123 
L 94.008097 128.618123 
L 94.073535 127.098243 
L 94.138973 127.098243 
L 94.220771 126.46496 
L 94.25349 126.46496 
L 94.351647 125.578363 
L 94.384366 125.578363 
L 94.482523 123.931826 
L 94.515242 123.931826 
L 94.613399 121.652006 
L 94.629759 121.652006 
L 94.711556 120.258783 
L 94.744275 120.258783 
L 94.826073 119.245529 
L 94.858792 119.245529 
L 94.956949 117.598993 
L 95.006028 117.598993 
L 95.104185 116.079112 
L 95.120544 116.079112 
L 95.218701 115.319172 
L 95.235061 115.319172 
L 95.316858 114.179262 
L 95.349577 114.179262 
L 95.447734 113.039352 
L 95.464094 113.039352 
L 95.562251 111.519472 
L 95.578611 111.519472 
L 95.676768 110.759532 
L 95.693127 110.759532 
L 95.774925 110.126249 
L 95.824003 110.126249 
L 95.905801 109.239652 
L 96.036677 109.239652 
L 96.134834 107.466459 
L 96.151194 107.466459 
L 96.249351 106.706519 
L 96.28207 106.706519 
L 96.363867 105.946579 
L 96.396586 105.946579 
L 96.478384 104.680012 
L 96.560181 104.680012 
L 96.60926 103.920072 
L 96.674698 103.920072 
L 96.772855 103.160132 
L 96.789215 103.160132 
L 96.887372 102.020222 
L 96.903731 102.020222 
L 96.95281 101.386939 
L 97.050967 101.386939 
L 97.116405 101.133625 
L 97.165483 101.133625 
L 97.247281 100.626999 
L 97.345438 100.626999 
L 97.378157 100.247028 
L 97.558112 100.247028 
L 97.558112 100.120372 
L 97.672628 100.120372 
L 97.754426 99.107118 
L 97.803504 99.107118 
L 97.885302 98.727148 
L 97.934381 98.727148 
L 98.032538 98.093865 
L 98.065257 98.093865 
L 98.163414 96.700642 
L 98.196133 96.700642 
L 98.245211 95.560732 
L 98.425166 95.560732 
L 98.457885 95.307418 
L 98.556042 95.307418 
L 98.654199 94.420822 
L 98.686918 94.420822 
L 98.785075 93.660882 
L 98.932311 93.660882 
L 99.030468 92.900942 
L 99.046827 92.900942 
L 99.128625 91.761031 
L 99.210423 91.761031 
L 99.243142 91.507718 
L 99.374018 91.507718 
L 99.374018 91.381061 
L 99.488534 91.381061 
L 99.586691 90.621121 
L 99.61941 90.621121 
L 99.701208 89.481211 
L 99.733927 89.481211 
L 99.733927 89.227898 
L 99.881163 89.227898 
L 99.913882 88.974585 
L 100.028398 88.974585 
L 100.110196 88.467958 
L 100.191993 88.467958 
L 100.257431 87.961331 
L 100.30651 87.961331 
L 100.355589 87.201391 
L 100.453746 87.201391 
L 100.453746 87.074735 
L 100.568262 87.074735 
L 100.666419 86.568108 
L 100.699138 86.568108 
L 100.797295 85.301541 
L 100.813655 85.301541 
L 100.846374 85.048228 
L 100.928172 85.048228 
L 100.960891 84.794915 
L 101.173564 84.794915 
L 101.255362 84.541601 
L 101.288081 84.541601 
L 101.3208 84.161631 
L 101.418957 84.161631 
L 101.500754 83.655004 
L 101.615271 83.655004 
L 101.713428 83.275034 
L 101.778866 83.275034 
L 101.877023 82.261781 
L 102.073337 82.261781 
L 102.171495 81.755154 
L 102.187854 81.755154 
L 102.253292 81.375184 
L 102.31873 81.375184 
L 102.367809 80.741901 
L 102.580482 80.741901 
L 102.678639 80.235274 
L 102.940392 80.235274 
L 103.00583 79.981961 
L 103.153065 79.981961 
L 103.234863 79.095364 
L 103.365739 79.095364 
L 103.398458 78.842051 
L 103.480256 78.842051 
L 103.529334 78.588738 
L 103.611132 78.588738 
L 103.709289 78.082111 
L 103.725648 78.082111 
L 103.823805 77.702141 
L 103.889243 77.702141 
L 103.889243 77.575484 
L 104.02012 77.575484 
L 104.101917 76.942201 
L 104.33095 76.942201 
L 104.396388 76.435574 
L 104.445467 76.435574 
L 104.510905 75.928948 
L 104.641781 75.928948 
L 104.641781 75.802291 
L 104.772657 75.802291 
L 104.772657 75.675634 
L 105.116207 75.675634 
L 105.181645 75.422321 
L 105.34524 75.422321 
L 105.34524 75.169007 
L 105.459757 75.169007 
L 105.525195 74.789037 
L 105.639711 74.789037 
L 105.639711 74.535724 
L 105.852385 74.535724 
L 105.950542 74.282411 
L 106.114137 74.282411 
L 106.146856 73.649127 
L 106.294092 73.649127 
L 106.392249 72.762531 
L 106.424968 72.762531 
L 106.441328 72.509217 
L 106.915753 72.509217 
L 106.997551 72.129247 
L 107.03027 72.129247 
L 107.128427 71.875934 
L 107.161146 71.875934 
L 107.242944 71.242651 
L 107.292022 71.242651 
L 107.341101 70.989337 
L 107.504696 70.989337 
L 107.602853 70.356054 
L 107.619213 70.356054 
L 107.684651 69.976084 
L 107.733729 69.976084 
L 107.815527 69.469457 
L 108.142717 69.469457 
L 108.142717 69.342801 
L 108.289953 69.342801 
L 108.289953 69.216144 
L 108.404469 69.216144 
L 108.486267 68.962831 
L 108.666221 68.962831 
L 108.731659 68.582861 
L 108.780738 68.582861 
L 108.829817 68.329547 
L 108.911614 68.329547 
L 108.960693 68.076234 
L 109.026131 68.076234 
L 109.075209 67.822921 
L 109.222445 67.822921 
L 109.222445 67.569607 
L 109.38604 67.569607 
L 109.418759 67.316294 
L 109.549635 67.316294 
L 109.549635 67.189637 
L 109.664152 67.189637 
L 109.664152 67.062981 
L 109.844106 67.062981 
L 109.925904 66.68301 
L 109.958623 66.68301 
L 110.007702 66.30304 
L 110.154937 66.30304 
L 110.253094 66.049727 
L 110.318532 66.049727 
L 110.318532 65.92307 
L 110.449408 65.92307 
L 110.449408 65.796414 
L 110.711161 65.796414 
L 110.74388 65.289787 
L 111.005632 65.289787 
L 111.087429 64.529847 
L 111.185586 64.529847 
L 111.283744 64.149877 
L 111.463698 64.149877 
L 111.545496 63.64325 
L 111.643653 63.64325 
L 111.709091 63.389937 
L 112.265314 63.389937 
L 112.265314 63.136624 
L 112.477988 63.136624 
L 112.477988 63.009967 
L 112.657943 63.009967 
L 112.7561 62.629997 
L 112.919695 62.629997 
L 112.936054 62.376684 
L 113.066931 62.376684 
L 113.148728 62.12337 
L 113.328683 62.12337 
L 113.345042 61.870057 
L 113.508637 61.870057 
L 113.508637 61.7434 
L 114.08122 61.7434 
L 114.08122 61.616744 
L 114.244816 61.616744 
L 114.277535 61.36343 
L 114.735601 61.36343 
L 114.784679 61.110117 
L 115.193667 61.110117 
L 115.193667 60.98346 
L 115.389981 60.98346 
L 115.471779 60.730147 
L 115.733531 60.730147 
L 115.733531 60.60349 
L 115.978924 60.60349 
L 115.978924 60.350177 
L 116.240676 60.350177 
L 116.240676 60.22352 
L 116.944135 60.22352 
L 116.944135 60.096864 
L 117.075011 60.096864 
L 117.10773 59.84355 
L 117.402202 59.84355 
L 117.402202 59.716894 
L 117.598516 59.716894 
L 117.598516 59.590237 
L 117.745751 59.590237 
L 117.843908 59.08361 
L 118.171099 59.08361 
L 118.203818 58.830297 
L 118.727322 58.830297 
L 118.727322 58.70364 
L 118.890917 58.70364 
L 118.890917 58.576984 
L 119.119951 58.576984 
L 119.119951 58.450327 
L 119.283546 58.450327 
L 119.283546 58.32367 
L 119.659814 58.32367 
L 119.725253 58.070357 
L 119.970645 58.070357 
L 120.068802 57.817043 
L 120.526869 57.817043 
L 120.575947 57.437073 
L 121.279406 57.437073 
L 121.344844 57.18376 
L 121.721113 57.18376 
L 121.786551 56.930447 
L 122.146461 56.930447 
L 122.146461 56.80379 
L 122.310056 56.80379 
L 122.310056 56.677133 
L 123.438862 56.677133 
L 123.471581 56.42382 
L 124.747623 56.42382 
L 124.747623 56.297163 
L 125.172971 56.297163 
L 125.172971 56.170507 
L 125.369285 56.170507 
L 125.369285 56.04385 
L 125.565599 56.04385 
L 125.565599 55.917193 
L 125.990946 55.917193 
L 125.990946 55.790537 
L 126.170901 55.790537 
L 126.170901 55.66388 
L 126.367215 55.66388 
L 126.367215 55.537223 
L 126.743484 55.537223 
L 126.743484 55.410567 
L 127.659617 55.410567 
L 127.659617 55.28391 
L 128.575749 55.28391 
L 128.575749 55.157253 
L 128.90294 55.157253 
L 128.90294 55.030597 
L 130.702486 55.030597 
L 130.702486 54.90394 
L 132.338437 54.90394 
L 132.338437 54.777283 
L 132.616549 54.777283 
L 132.616549 54.650627 
L 134.776005 54.650627 
L 134.776005 54.52397 
L 139.225793 54.52397 
L 139.225793 54.397313 
L 139.765657 54.397313 
L 139.765657 54.270657 
L 143.119357 54.270657 
L 143.119357 54.144 
L 414.72 54.144 
L 414.72 54.144 
" clip-path="url(#p100d12e0e9)" style="fill: none; stroke: #2ca02c; stroke-width: 2; stroke-linecap: square"/>
   </g>
   <g id="line2d_18">
    <path d="M 90.065455 307.584 
L 414.72 54.144 
" clip-path="url(#p100d12e0e9)" style="fill: none; stroke-dasharray: 3.7,1.6; stroke-dashoffset: 0; stroke: #000000"/>
   </g>
   <g id="patch_3">
    <path d="M 57.6 307.584 
L 57.6 41.472 
" style="fill: none; stroke: #000000; stroke-width: 2; stroke-linejoin: miter; stroke-linecap: square"/>
   </g>
   <g id="patch_4">
    <path d="M 57.6 307.584 
L 414.72 307.584 
" style="fill: none; stroke: #000000; stroke-width: 2; stroke-linejoin: miter; stroke-linecap: square"/>
   </g>
   <g id="text_15">
    <!-- SANDSTORM Model -->
    <g transform="translate(157.280062 35.472) scale(0.168 -0.168)">
     <defs>
      <path id="Helvetica-53" d="M 894 1481 
Q 916 1091 1078 847 
Q 1388 391 2169 391 
Q 2519 391 2806 491 
Q 3363 684 3363 1184 
Q 3363 1559 3128 1719 
Q 2891 1875 2384 1991 
L 1763 2131 
Q 1153 2269 900 2434 
Q 463 2722 463 3294 
Q 463 3913 891 4309 
Q 1319 4706 2103 4706 
Q 2825 4706 3329 4357 
Q 3834 4009 3834 3244 
L 3250 3244 
Q 3203 3613 3050 3809 
Q 2766 4169 2084 4169 
Q 1534 4169 1293 3937 
Q 1053 3706 1053 3400 
Q 1053 3063 1334 2906 
Q 1519 2806 2169 2656 
L 2813 2509 
Q 3278 2403 3531 2219 
Q 3969 1897 3969 1284 
Q 3969 522 3414 194 
Q 2859 -134 2125 -134 
Q 1269 -134 784 303 
Q 300 738 309 1481 
L 894 1481 
z
M 2150 4716 
L 2150 4716 
z
" transform="scale(0.015625)"/>
      <path id="Helvetica-41" d="M 2844 1881 
L 2147 3909 
L 1406 1881 
L 2844 1881 
z
M 1822 4591 
L 2525 4591 
L 4191 0 
L 3509 0 
L 3044 1375 
L 1228 1375 
L 731 0 
L 94 0 
L 1822 4591 
z
" transform="scale(0.015625)"/>
      <path id="Helvetica-4e" d="M 488 4591 
L 1222 4591 
L 3541 872 
L 3541 4591 
L 4131 4591 
L 4131 0 
L 3434 0 
L 1081 3716 
L 1081 0 
L 488 0 
L 488 4591 
z
M 2269 4591 
L 2269 4591 
z
" transform="scale(0.015625)"/>
      <path id="Helvetica-44" d="M 2250 531 
Q 2566 531 2769 597 
Q 3131 719 3363 1066 
Q 3547 1344 3628 1778 
Q 3675 2038 3675 2259 
Q 3675 3113 3336 3584 
Q 2997 4056 2244 4056 
L 1141 4056 
L 1141 531 
L 2250 531 
z
M 516 4591 
L 2375 4591 
Q 3322 4591 3844 3919 
Q 4309 3313 4309 2366 
Q 4309 1634 4034 1044 
Q 3550 0 2369 0 
L 516 0 
L 516 4591 
z
" transform="scale(0.015625)"/>
      <path id="Helvetica-4f" d="M 2469 4716 
Q 3684 4716 4269 3934 
Q 4725 3325 4725 2375 
Q 4725 1347 4203 666 
Q 3591 -134 2456 -134 
Q 1397 -134 791 566 
Q 250 1241 250 2272 
Q 250 3203 713 3866 
Q 1306 4716 2469 4716 
z
M 2531 422 
Q 3353 422 3720 1011 
Q 4088 1600 4088 2366 
Q 4088 3175 3664 3669 
Q 3241 4163 2506 4163 
Q 1794 4163 1344 3673 
Q 894 3184 894 2231 
Q 894 1469 1280 945 
Q 1666 422 2531 422 
z
M 2488 4716 
L 2488 4716 
z
" transform="scale(0.015625)"/>
      <path id="Helvetica-4d" d="M 472 4591 
L 1363 4591 
L 2681 709 
L 3991 4591 
L 4872 4591 
L 4872 0 
L 4281 0 
L 4281 2709 
Q 4281 2850 4287 3175 
Q 4294 3500 4294 3872 
L 2984 0 
L 2369 0 
L 1050 3872 
L 1050 3731 
Q 1050 3563 1058 3217 
Q 1066 2872 1066 2709 
L 1066 0 
L 472 0 
L 472 4591 
z
" transform="scale(0.015625)"/>
      <path id="Helvetica-64" d="M 769 1634 
Q 769 1097 997 734 
Q 1225 372 1728 372 
Q 2119 372 2370 708 
Q 2622 1044 2622 1672 
Q 2622 2306 2362 2611 
Q 2103 2916 1722 2916 
Q 1297 2916 1033 2591 
Q 769 2266 769 1634 
z
M 1616 3406 
Q 2000 3406 2259 3244 
Q 2409 3150 2600 2916 
L 2600 4606 
L 3141 4606 
L 3141 0 
L 2634 0 
L 2634 466 
Q 2438 156 2169 18 
Q 1900 -119 1553 -119 
Q 994 -119 584 351 
Q 175 822 175 1603 
Q 175 2334 548 2870 
Q 922 3406 1616 3406 
z
" transform="scale(0.015625)"/>
     </defs>
     <use xlink:href="#Helvetica-53"/>
     <use xlink:href="#Helvetica-41" x="66.699219"/>
     <use xlink:href="#Helvetica-4e" x="133.398438"/>
     <use xlink:href="#Helvetica-44" x="205.615234"/>
     <use xlink:href="#Helvetica-53" x="277.832031"/>
     <use xlink:href="#Helvetica-54" x="344.53125"/>
     <use xlink:href="#Helvetica-4f" x="405.615234"/>
     <use xlink:href="#Helvetica-52" x="483.398438"/>
     <use xlink:href="#Helvetica-4d" x="555.615234"/>
     <use xlink:href="#Helvetica-20" x="638.916016"/>
     <use xlink:href="#Helvetica-4d" x="666.699219"/>
     <use xlink:href="#Helvetica-6f" x="750"/>
     <use xlink:href="#Helvetica-64" x="805.615234"/>
     <use xlink:href="#Helvetica-65" x="861.230469"/>
     <use xlink:href="#Helvetica-6c" x="916.845703"/>
    </g>
   </g>
   <g id="legend_1">
    <g id="patch_5">
     <path d="M 150.036875 300.584 
L 404.92 300.584 
Q 407.72 300.584 407.72 297.784 
L 407.72 197.754 
Q 407.72 194.954 404.92 194.954 
L 150.036875 194.954 
Q 147.236875 194.954 147.236875 197.754 
L 147.236875 297.784 
Q 147.236875 300.584 150.036875 300.584 
z
" style="fill: #ffffff; opacity: 0.8; stroke: #cccccc; stroke-linejoin: miter"/>
    </g>
    <g id="line2d_19">
     <path d="M 152.836875 205.909 
L 166.836875 205.909 
L 180.836875 205.909 
" style="fill: none; stroke: #1f77b4; stroke-width: 2; stroke-linecap: square"/>
    </g>
    <g id="text_16">
     <!-- Toehold Switches (area = 1.00) -->
     <g transform="translate(192.036875 210.809) scale(0.14 -0.14)">
      <defs>
       <path id="Helvetica-68" d="M 413 4606 
L 975 4606 
L 975 2894 
Q 1175 3147 1334 3250 
Q 1606 3428 2013 3428 
Q 2741 3428 3000 2919 
Q 3141 2641 3141 2147 
L 3141 0 
L 2563 0 
L 2563 2109 
Q 2563 2478 2469 2650 
Q 2316 2925 1894 2925 
Q 1544 2925 1259 2684 
Q 975 2444 975 1775 
L 975 0 
L 413 0 
L 413 4606 
z
" transform="scale(0.015625)"/>
       <path id="Helvetica-77" d="M 672 3347 
L 1316 709 
L 1969 3347 
L 2600 3347 
L 3256 725 
L 3941 3347 
L 4503 3347 
L 3531 0 
L 2947 0 
L 2266 2591 
L 1606 0 
L 1022 0 
L 56 3347 
L 672 3347 
z
" transform="scale(0.015625)"/>
       <path id="Helvetica-63" d="M 1703 3444 
Q 2269 3444 2623 3169 
Q 2978 2894 3050 2222 
L 2503 2222 
Q 2453 2531 2275 2736 
Q 2097 2941 1703 2941 
Q 1166 2941 934 2416 
Q 784 2075 784 1575 
Q 784 1072 996 728 
Q 1209 384 1666 384 
Q 2016 384 2220 598 
Q 2425 813 2503 1184 
L 3050 1184 
Q 2956 519 2581 211 
Q 2206 -97 1622 -97 
Q 966 -97 575 383 
Q 184 863 184 1581 
Q 184 2463 612 2953 
Q 1041 3444 1703 3444 
z
M 1616 3428 
L 1616 3428 
z
" transform="scale(0.015625)"/>
       <path id="Helvetica-28" d="M 1894 4666 
Q 1403 3713 1256 3263 
Q 1034 2578 1034 1681 
Q 1034 775 1288 25 
Q 1444 -438 1903 -1306 
L 1525 -1306 
Q 1069 -594 959 -397 
Q 850 -200 722 138 
Q 547 600 478 1125 
Q 444 1397 444 1644 
Q 444 2569 734 3291 
Q 919 3750 1503 4666 
L 1894 4666 
z
" transform="scale(0.015625)"/>
       <path id="Helvetica-3d" d="M 3547 2569 
L 3547 2044 
L 288 2044 
L 288 2569 
L 3547 2569 
z
M 3547 1228 
L 3547 694 
L 288 694 
L 288 1228 
L 3547 1228 
z
" transform="scale(0.015625)"/>
       <path id="Helvetica-29" d="M 222 -1306 
Q 719 -338 863 106 
Q 1081 778 1081 1681 
Q 1081 2584 828 3334 
Q 672 3797 213 4666 
L 591 4666 
Q 1072 3897 1173 3717 
Q 1275 3538 1394 3222 
Q 1544 2831 1608 2450 
Q 1672 2069 1672 1716 
Q 1672 791 1378 66 
Q 1194 -400 613 -1306 
L 222 -1306 
z
" transform="scale(0.015625)"/>
      </defs>
      <use xlink:href="#Helvetica-54"/>
      <use xlink:href="#Helvetica-6f" x="61.083984"/>
      <use xlink:href="#Helvetica-65" x="116.699219"/>
      <use xlink:href="#Helvetica-68" x="172.314453"/>
      <use xlink:href="#Helvetica-6f" x="227.929688"/>
      <use xlink:href="#Helvetica-6c" x="283.544922"/>
      <use xlink:href="#Helvetica-64" x="305.761719"/>
      <use xlink:href="#Helvetica-20" x="361.376953"/>
      <use xlink:href="#Helvetica-53" x="389.160156"/>
      <use xlink:href="#Helvetica-77" x="455.859375"/>
      <use xlink:href="#Helvetica-69" x="528.076172"/>
      <use xlink:href="#Helvetica-74" x="550.292969"/>
      <use xlink:href="#Helvetica-63" x="578.076172"/>
      <use xlink:href="#Helvetica-68" x="628.076172"/>
      <use xlink:href="#Helvetica-65" x="683.691406"/>
      <use xlink:href="#Helvetica-73" x="739.306641"/>
      <use xlink:href="#Helvetica-20" x="789.306641"/>
      <use xlink:href="#Helvetica-28" x="817.089844"/>
      <use xlink:href="#Helvetica-61" x="850.390625"/>
      <use xlink:href="#Helvetica-72" x="906.005859"/>
      <use xlink:href="#Helvetica-65" x="939.306641"/>
      <use xlink:href="#Helvetica-61" x="994.921875"/>
      <use xlink:href="#Helvetica-20" x="1050.537109"/>
      <use xlink:href="#Helvetica-3d" x="1078.320312"/>
      <use xlink:href="#Helvetica-20" x="1136.71875"/>
      <use xlink:href="#Helvetica-31" x="1164.501953"/>
      <use xlink:href="#Helvetica-2e" x="1220.117188"/>
      <use xlink:href="#Helvetica-30" x="1247.900391"/>
      <use xlink:href="#Helvetica-30" x="1303.515625"/>
      <use xlink:href="#Helvetica-29" x="1359.130859"/>
     </g>
    </g>
    <g id="line2d_20">
     <path d="M 152.836875 226.143375 
L 166.836875 226.143375 
L 180.836875 226.143375 
" style="fill: none; stroke: #ff7f0e; stroke-width: 2; stroke-linecap: square"/>
    </g>
    <g id="text_17">
     <!-- RBS Decoys (area = 1.00) -->
     <g transform="translate(192.036875 231.043375) scale(0.14 -0.14)">
      <defs>
       <path id="Helvetica-42" d="M 2213 2650 
Q 2606 2650 2825 2759 
Q 3169 2931 3169 3378 
Q 3169 3828 2803 3984 
Q 2597 4072 2191 4072 
L 1081 4072 
L 1081 2650 
L 2213 2650 
z
M 2422 531 
Q 2994 531 3238 863 
Q 3391 1072 3391 1369 
Q 3391 1869 2944 2050 
Q 2706 2147 2316 2147 
L 1081 2147 
L 1081 531 
L 2422 531 
z
M 472 4591 
L 2444 4591 
Q 3250 4591 3591 4109 
Q 3791 3825 3791 3453 
Q 3791 3019 3544 2741 
Q 3416 2594 3175 2472 
Q 3528 2338 3703 2169 
Q 4013 1869 4013 1341 
Q 4013 897 3734 538 
Q 3319 0 2413 0 
L 472 0 
L 472 4591 
z
" transform="scale(0.015625)"/>
       <path id="Helvetica-79" d="M 2503 3347 
L 3125 3347 
Q 3006 3025 2597 1878 
Q 2291 1016 2084 472 
Q 1597 -809 1397 -1090 
Q 1197 -1372 709 -1372 
Q 591 -1372 527 -1362 
Q 463 -1353 369 -1328 
L 369 -816 
Q 516 -856 581 -865 
Q 647 -875 697 -875 
Q 853 -875 926 -823 
Q 1000 -772 1050 -697 
Q 1066 -672 1162 -440 
Q 1259 -209 1303 -97 
L 66 3347 
L 703 3347 
L 1600 622 
L 2503 3347 
z
M 1597 3428 
L 1597 3428 
z
" transform="scale(0.015625)"/>
      </defs>
      <use xlink:href="#Helvetica-52"/>
      <use xlink:href="#Helvetica-42" x="72.216797"/>
      <use xlink:href="#Helvetica-53" x="138.916016"/>
      <use xlink:href="#Helvetica-20" x="205.615234"/>
      <use xlink:href="#Helvetica-44" x="233.398438"/>
      <use xlink:href="#Helvetica-65" x="305.615234"/>
      <use xlink:href="#Helvetica-63" x="361.230469"/>
      <use xlink:href="#Helvetica-6f" x="411.230469"/>
      <use xlink:href="#Helvetica-79" x="466.845703"/>
      <use xlink:href="#Helvetica-73" x="516.845703"/>
      <use xlink:href="#Helvetica-20" x="566.845703"/>
      <use xlink:href="#Helvetica-28" x="594.628906"/>
      <use xlink:href="#Helvetica-61" x="627.929688"/>
      <use xlink:href="#Helvetica-72" x="683.544922"/>
      <use xlink:href="#Helvetica-65" x="716.845703"/>
      <use xlink:href="#Helvetica-61" x="772.460938"/>
      <use xlink:href="#Helvetica-20" x="828.076172"/>
      <use xlink:href="#Helvetica-3d" x="855.859375"/>
      <use xlink:href="#Helvetica-20" x="914.257812"/>
      <use xlink:href="#Helvetica-31" x="942.041016"/>
      <use xlink:href="#Helvetica-2e" x="997.65625"/>
      <use xlink:href="#Helvetica-30" x="1025.439453"/>
      <use xlink:href="#Helvetica-30" x="1081.054688"/>
      <use xlink:href="#Helvetica-29" x="1136.669922"/>
     </g>
    </g>
    <g id="line2d_21">
     <path d="M 152.836875 246.460875 
L 166.836875 246.460875 
L 180.836875 246.460875 
" style="fill: none; stroke: #9467bd; stroke-width: 2; stroke-linecap: square"/>
    </g>
    <g id="text_18">
     <!-- AUG Decoys (area = 0.98) -->
     <g transform="translate(192.036875 251.360875) scale(0.14 -0.14)">
      <defs>
       <path id="Helvetica-55" d="M 1163 4591 
L 1163 1753 
Q 1163 1253 1350 922 
Q 1628 422 2288 422 
Q 3078 422 3363 963 
Q 3516 1256 3516 1753 
L 3516 4591 
L 4147 4591 
L 4147 2013 
Q 4147 1166 3919 709 
Q 3500 -122 2338 -122 
Q 1175 -122 759 709 
Q 531 1166 531 2013 
L 531 4591 
L 1163 4591 
z
M 2341 4591 
L 2341 4591 
z
" transform="scale(0.015625)"/>
       <path id="Helvetica-47" d="M 2472 4709 
Q 3119 4709 3591 4459 
Q 4275 4100 4428 3200 
L 3813 3200 
Q 3700 3703 3347 3933 
Q 2994 4163 2456 4163 
Q 1819 4163 1383 3684 
Q 947 3206 947 2259 
Q 947 1441 1306 927 
Q 1666 413 2478 413 
Q 3100 413 3508 773 
Q 3916 1134 3925 1941 
L 2488 1941 
L 2488 2456 
L 4503 2456 
L 4503 0 
L 4103 0 
L 3953 591 
Q 3638 244 3394 109 
Q 2984 -122 2353 -122 
Q 1538 -122 950 406 
Q 309 1069 309 2225 
Q 309 3378 934 4059 
Q 1528 4709 2472 4709 
z
M 2369 4716 
L 2369 4716 
z
" transform="scale(0.015625)"/>
       <path id="Helvetica-39" d="M 850 1081 
Q 875 616 1209 438 
Q 1381 344 1597 344 
Q 2000 344 2284 680 
Q 2569 1016 2688 2044 
Q 2500 1747 2223 1626 
Q 1947 1506 1628 1506 
Q 981 1506 604 1909 
Q 228 2313 228 2947 
Q 228 3556 600 4018 
Q 972 4481 1697 4481 
Q 2675 4481 3047 3600 
Q 3253 3116 3253 2388 
Q 3253 1566 3006 931 
Q 2597 -125 1619 -125 
Q 963 -125 622 219 
Q 281 563 281 1081 
L 850 1081 
z
M 1703 2000 
Q 2038 2000 2314 2220 
Q 2591 2441 2591 2991 
Q 2591 3484 2342 3726 
Q 2094 3969 1709 3969 
Q 1297 3969 1055 3692 
Q 813 3416 813 2953 
Q 813 2516 1025 2258 
Q 1238 2000 1703 2000 
z
" transform="scale(0.015625)"/>
      </defs>
      <use xlink:href="#Helvetica-41"/>
      <use xlink:href="#Helvetica-55" x="66.699219"/>
      <use xlink:href="#Helvetica-47" x="138.916016"/>
      <use xlink:href="#Helvetica-20" x="216.699219"/>
      <use xlink:href="#Helvetica-44" x="244.482422"/>
      <use xlink:href="#Helvetica-65" x="316.699219"/>
      <use xlink:href="#Helvetica-63" x="372.314453"/>
      <use xlink:href="#Helvetica-6f" x="422.314453"/>
      <use xlink:href="#Helvetica-79" x="477.929688"/>
      <use xlink:href="#Helvetica-73" x="527.929688"/>
      <use xlink:href="#Helvetica-20" x="577.929688"/>
      <use xlink:href="#Helvetica-28" x="605.712891"/>
      <use xlink:href="#Helvetica-61" x="639.013672"/>
      <use xlink:href="#Helvetica-72" x="694.628906"/>
      <use xlink:href="#Helvetica-65" x="727.929688"/>
      <use xlink:href="#Helvetica-61" x="783.544922"/>
      <use xlink:href="#Helvetica-20" x="839.160156"/>
      <use xlink:href="#Helvetica-3d" x="866.943359"/>
      <use xlink:href="#Helvetica-20" x="925.341797"/>
      <use xlink:href="#Helvetica-30" x="953.125"/>
      <use xlink:href="#Helvetica-2e" x="1008.740234"/>
      <use xlink:href="#Helvetica-39" x="1036.523438"/>
      <use xlink:href="#Helvetica-38" x="1092.138672"/>
      <use xlink:href="#Helvetica-29" x="1147.753906"/>
     </g>
    </g>
    <g id="line2d_22">
     <path d="M 152.836875 266.778375 
L 166.836875 266.778375 
L 180.836875 266.778375 
" style="fill: none; stroke: #8c564b; stroke-width: 2; stroke-linecap: square"/>
    </g>
    <g id="text_19">
     <!-- RBS + AUG Decoys (area = 0.97) -->
     <g transform="translate(192.036875 271.678375) scale(0.14 -0.14)">
      <defs>
       <path id="Helvetica-2b" d="M 288 1369 
L 288 1894 
L 1650 1894 
L 1650 3266 
L 2184 3266 
L 2184 1894 
L 3547 1894 
L 3547 1369 
L 2184 1369 
L 2184 0 
L 1650 0 
L 1650 1369 
L 288 1369 
z
" transform="scale(0.015625)"/>
       <path id="Helvetica-37" d="M 3347 4400 
L 3347 3909 
Q 3131 3700 2773 3181 
Q 2416 2663 2141 2063 
Q 1869 1478 1728 997 
Q 1638 688 1494 0 
L 872 0 
Q 1084 1281 1809 2550 
Q 2238 3294 2709 3834 
L 234 3834 
L 234 4400 
L 3347 4400 
z
" transform="scale(0.015625)"/>
      </defs>
      <use xlink:href="#Helvetica-52"/>
      <use xlink:href="#Helvetica-42" x="72.216797"/>
      <use xlink:href="#Helvetica-53" x="138.916016"/>
      <use xlink:href="#Helvetica-20" x="205.615234"/>
      <use xlink:href="#Helvetica-2b" x="233.398438"/>
      <use xlink:href="#Helvetica-20" x="291.796875"/>
      <use xlink:href="#Helvetica-41" x="319.580078"/>
      <use xlink:href="#Helvetica-55" x="386.279297"/>
      <use xlink:href="#Helvetica-47" x="458.496094"/>
      <use xlink:href="#Helvetica-20" x="536.279297"/>
      <use xlink:href="#Helvetica-44" x="564.0625"/>
      <use xlink:href="#Helvetica-65" x="636.279297"/>
      <use xlink:href="#Helvetica-63" x="691.894531"/>
      <use xlink:href="#Helvetica-6f" x="741.894531"/>
      <use xlink:href="#Helvetica-79" x="797.509766"/>
      <use xlink:href="#Helvetica-73" x="847.509766"/>
      <use xlink:href="#Helvetica-20" x="897.509766"/>
      <use xlink:href="#Helvetica-28" x="925.292969"/>
      <use xlink:href="#Helvetica-61" x="958.59375"/>
      <use xlink:href="#Helvetica-72" x="1014.208984"/>
      <use xlink:href="#Helvetica-65" x="1047.509766"/>
      <use xlink:href="#Helvetica-61" x="1103.125"/>
      <use xlink:href="#Helvetica-20" x="1158.740234"/>
      <use xlink:href="#Helvetica-3d" x="1186.523438"/>
      <use xlink:href="#Helvetica-20" x="1244.921875"/>
      <use xlink:href="#Helvetica-30" x="1272.705078"/>
      <use xlink:href="#Helvetica-2e" x="1328.320312"/>
      <use xlink:href="#Helvetica-39" x="1356.103516"/>
      <use xlink:href="#Helvetica-37" x="1411.71875"/>
      <use xlink:href="#Helvetica-29" x="1467.333984"/>
     </g>
    </g>
    <g id="line2d_23">
     <path d="M 152.836875 286.9865 
L 166.836875 286.9865 
L 180.836875 286.9865 
" style="fill: none; stroke: #2ca02c; stroke-width: 2; stroke-linecap: square"/>
    </g>
    <g id="text_20">
     <!-- Binding Decoys (area = 0.99) -->
     <g transform="translate(192.036875 291.8865) scale(0.14 -0.14)">
      <defs>
       <path id="Helvetica-6e" d="M 413 3347 
L 947 3347 
L 947 2872 
Q 1184 3166 1450 3294 
Q 1716 3422 2041 3422 
Q 2753 3422 3003 2925 
Q 3141 2653 3141 2147 
L 3141 0 
L 2569 0 
L 2569 2109 
Q 2569 2416 2478 2603 
Q 2328 2916 1934 2916 
Q 1734 2916 1606 2875 
Q 1375 2806 1200 2600 
Q 1059 2434 1017 2257 
Q 975 2081 975 1753 
L 975 0 
L 413 0 
L 413 3347 
z
M 1734 3428 
L 1734 3428 
z
" transform="scale(0.015625)"/>
       <path id="Helvetica-67" d="M 1594 3406 
Q 1988 3406 2281 3213 
Q 2441 3103 2606 2894 
L 2606 3316 
L 3125 3316 
L 3125 272 
Q 3125 -366 2938 -734 
Q 2588 -1416 1616 -1416 
Q 1075 -1416 706 -1173 
Q 338 -931 294 -416 
L 866 -416 
Q 906 -641 1028 -763 
Q 1219 -950 1628 -950 
Q 2275 -950 2475 -494 
Q 2594 -225 2584 466 
Q 2416 209 2178 84 
Q 1941 -41 1550 -41 
Q 1006 -41 598 345 
Q 191 731 191 1622 
Q 191 2463 602 2934 
Q 1013 3406 1594 3406 
z
M 2606 1688 
Q 2606 2309 2350 2609 
Q 2094 2909 1697 2909 
Q 1103 2909 884 2353 
Q 769 2056 769 1575 
Q 769 1009 998 714 
Q 1228 419 1616 419 
Q 2222 419 2469 966 
Q 2606 1275 2606 1688 
z
M 1659 3428 
L 1659 3428 
z
" transform="scale(0.015625)"/>
      </defs>
      <use xlink:href="#Helvetica-42"/>
      <use xlink:href="#Helvetica-69" x="66.699219"/>
      <use xlink:href="#Helvetica-6e" x="88.916016"/>
      <use xlink:href="#Helvetica-64" x="144.53125"/>
      <use xlink:href="#Helvetica-69" x="200.146484"/>
      <use xlink:href="#Helvetica-6e" x="222.363281"/>
      <use xlink:href="#Helvetica-67" x="277.978516"/>
      <use xlink:href="#Helvetica-20" x="333.59375"/>
      <use xlink:href="#Helvetica-44" x="361.376953"/>
      <use xlink:href="#Helvetica-65" x="433.59375"/>
      <use xlink:href="#Helvetica-63" x="489.208984"/>
      <use xlink:href="#Helvetica-6f" x="539.208984"/>
      <use xlink:href="#Helvetica-79" x="594.824219"/>
      <use xlink:href="#Helvetica-73" x="644.824219"/>
      <use xlink:href="#Helvetica-20" x="694.824219"/>
      <use xlink:href="#Helvetica-28" x="722.607422"/>
      <use xlink:href="#Helvetica-61" x="755.908203"/>
      <use xlink:href="#Helvetica-72" x="811.523438"/>
      <use xlink:href="#Helvetica-65" x="844.824219"/>
      <use xlink:href="#Helvetica-61" x="900.439453"/>
      <use xlink:href="#Helvetica-20" x="956.054688"/>
      <use xlink:href="#Helvetica-3d" x="983.837891"/>
      <use xlink:href="#Helvetica-20" x="1042.236328"/>
      <use xlink:href="#Helvetica-30" x="1070.019531"/>
      <use xlink:href="#Helvetica-2e" x="1125.634766"/>
      <use xlink:href="#Helvetica-39" x="1153.417969"/>
      <use xlink:href="#Helvetica-39" x="1209.033203"/>
      <use xlink:href="#Helvetica-29" x="1264.648438"/>
     </g>
    </g>
   </g>
  </g>
 </g>
 <defs>
  <clipPath id="p100d12e0e9">
   <rect x="57.6" y="41.472" width="357.12" height="266.112"/>
  </clipPath>
 </defs>
</svg>
